# Blender v2.82 (sub 7) OBJ File: '59011.blend'
# www.blender.org
mtllib 59011.mtl
o model59011-node_model59011
v 1.600000 0.000001 3.200000
v 1.600000 3.200001 3.200000
v 3.050000 3.200000 -3.200001
v 3.050000 -0.000001 -3.200001
v -3.350001 9.599998 -9.600001
v -3.350001 6.399999 -9.600001
v -2.600001 6.399999 -9.600001
v -1.600001 8.799998 -9.600001
v -1.600001 6.399999 -9.600001
v -1.600001 8.799998 -9.600001
v -2.600001 6.399999 -9.600001
v 1.599999 6.399999 -9.600001
v 2.599999 6.399999 -9.600001
v 3.049999 9.599998 -9.600001
v 1.599999 8.799998 -9.600001
v 2.599999 6.399999 -9.600001
v 3.049999 6.399999 -9.600001
v 3.049999 9.599998 -9.600001
v 0.799999 9.599998 -9.600001
v 1.599999 8.799998 -9.600001
v 3.049999 9.599998 -9.600001
v -0.800001 9.599998 -9.600001
v -3.350001 9.599998 -9.600001
v -1.600001 8.799998 -9.600001
v 3.049999 9.599998 -9.600001
v 3.049999 6.399999 -9.600001
v 3.050000 -0.000001 -3.200001
v 3.050000 3.200000 -3.200001
v -3.350001 6.399999 -9.600001
v -3.350001 9.599998 -9.600001
v -3.350000 3.200000 -3.200001
v -3.350000 3.199999 -6.400000
v -3.350001 3.199999 -9.450000
v -3.350001 -0.000002 -9.450000
v -3.350000 -0.000001 -3.200000
v -3.350000 3.199999 -6.400000
v 2.600001 -0.000001 -3.700001
v 2.600001 0.399999 -3.700001
v -2.600000 0.399999 -3.700000
v -2.600000 -0.000001 -3.700000
v 2.600001 0.399999 -4.125000
v 2.600001 0.799999 -4.125000
v -2.600000 0.799999 -4.125000
v -2.600000 0.399999 -4.125000
v 2.600001 0.799999 -4.500000
v 2.600001 1.199999 -4.500000
v -2.600000 1.199999 -4.500000
v -2.600000 0.799999 -4.500000
v 2.600001 1.199999 -4.925001
v 2.600001 1.599999 -4.925001
v -2.600000 1.599999 -4.925000
v -2.600000 1.199999 -4.925000
v 2.600001 1.599999 -5.300001
v 2.600001 1.999999 -5.300001
v -2.600000 1.999999 -5.300000
v -2.600000 1.599999 -5.300000
v 2.600001 1.999999 -5.675001
v 2.600001 2.399999 -5.675001
v -2.600000 2.399999 -5.675000
v -2.600000 1.999999 -5.675000
v 2.600001 2.399999 -6.100001
v 2.600001 2.799999 -6.100001
v -2.600000 2.799999 -6.100000
v -2.600000 2.399999 -6.100000
v 2.600001 2.799999 -6.500001
v 2.600001 3.199999 -6.500001
v -2.600000 3.199999 -6.500000
v -2.600000 2.799999 -6.500000
v 2.600001 3.199999 -6.900001
v 2.600001 3.599999 -6.900001
v -2.600000 3.599999 -6.900000
v -2.600000 3.199999 -6.900000
v 2.600001 3.599999 -7.300001
v 2.600001 3.999999 -7.300001
v -2.600000 3.999999 -7.300001
v -2.600000 3.599999 -7.300000
v 2.600001 3.999999 -7.700001
v 2.600001 4.399999 -7.700001
v -2.600000 4.399999 -7.700001
v -2.600000 3.999999 -7.700001
v 2.600001 4.399999 -8.100001
v 2.600001 4.799999 -8.100001
v -2.600000 4.799999 -8.100001
v -2.600000 4.399999 -8.100001
v 2.600001 4.799999 -8.500001
v 2.600001 5.199998 -8.500001
v -2.600000 5.199998 -8.500001
v -2.600000 4.799999 -8.500001
v 2.600001 5.199998 -8.900001
v 2.600001 5.599998 -8.900001
v -2.600000 5.599998 -8.900001
v -2.600000 5.199998 -8.900001
v 2.600001 5.599998 -9.300001
v 2.600001 5.999999 -9.300002
v -2.600000 5.999999 -9.300001
v -2.600000 5.599998 -9.300001
v 2.599999 6.399999 -9.600001
v 2.599999 -0.000002 -9.600000
v 2.600000 -0.000001 -3.200001
v 2.599999 6.399999 -9.600001
v 2.600000 -0.000001 -3.200001
v 3.050000 -0.000001 -3.200001
v 3.049999 6.399999 -9.600001
v -2.600001 6.399999 -9.600001
v -2.600000 5.999999 -9.600001
v 2.600001 5.999999 -9.600001
v -1.600001 6.399999 -9.600001
v -1.600001 6.399999 -9.600001
v 2.600001 5.999999 -9.600001
v 2.599999 6.399999 -9.600001
v -2.600000 3.199999 -6.400000
v -2.600001 6.399999 -9.600001
v -3.350001 6.399999 -9.600001
v -3.350000 3.199999 -6.400000
v -3.350000 -0.000001 -3.200000
v -2.600000 -0.000001 -3.200000
v -2.600000 3.199999 -6.400000
v -3.350000 3.199999 -6.400000
v -2.600000 -0.000001 -3.200000
v -2.600001 -0.000002 -9.600000
v -2.600001 6.399999 -9.600001
v 2.600001 0.399999 -4.125000
v -2.600000 0.399999 -4.125000
v -2.600000 0.399999 -3.700000
v 2.600001 0.399999 -3.700001
v 2.600001 0.799999 -4.500000
v -2.600000 0.799999 -4.500000
v -2.600000 0.799999 -4.125000
v 2.600001 0.799999 -4.125000
v 2.600001 1.199999 -4.925001
v -2.600000 1.199999 -4.925000
v -2.600000 1.199999 -4.500000
v 2.600001 1.199999 -4.500000
v 2.600001 1.599999 -5.300001
v -2.600000 1.599999 -5.300000
v -2.600000 1.599999 -4.925000
v 2.600001 1.599999 -4.925001
v 2.600001 1.999999 -5.675001
v -2.600000 1.999999 -5.675000
v -2.600000 1.999999 -5.300000
v 2.600001 1.999999 -5.300001
v 2.600001 2.399999 -6.100001
v -2.600000 2.399999 -6.100000
v -2.600000 2.399999 -5.675000
v 2.600001 2.399999 -5.675001
v 2.600001 2.799999 -6.500001
v -2.600000 2.799999 -6.500000
v -2.600000 2.799999 -6.100000
v 2.600001 2.799999 -6.100001
v 2.600001 3.199999 -6.900001
v -2.600000 3.199999 -6.900000
v -2.600000 3.199999 -6.500000
v 2.600001 3.199999 -6.500001
v 2.600001 3.599999 -7.300001
v -2.600000 3.599999 -7.300000
v -2.600000 3.599999 -6.900000
v 2.600001 3.599999 -6.900001
v 2.600001 3.999999 -7.700001
v -2.600000 3.999999 -7.700001
v -2.600000 3.999999 -7.300001
v 2.600001 3.999999 -7.300001
v 2.600001 4.399999 -8.100001
v -2.600000 4.399999 -8.100001
v -2.600000 4.399999 -7.700001
v 2.600001 4.399999 -7.700001
v 2.600001 4.799999 -8.500001
v -2.600000 4.799999 -8.500001
v -2.600000 4.799999 -8.100001
v 2.600001 4.799999 -8.100001
v 2.600001 5.199998 -8.900001
v -2.600000 5.199998 -8.900001
v -2.600000 5.199998 -8.500001
v 2.600001 5.199998 -8.500001
v 2.600001 5.599998 -9.300001
v -2.600000 5.599998 -9.300001
v -2.600000 5.599998 -8.900001
v 2.600001 5.599998 -8.900001
v 2.600001 5.999999 -9.600001
v -2.600000 5.999999 -9.600001
v -2.600000 5.999999 -9.300001
v 2.600001 5.999999 -9.300002
v -2.600000 -0.000001 -3.700000
v -2.600000 -0.000001 -3.200000
v 2.600000 -0.000001 -3.200001
v 2.600001 -0.000001 -3.700001
v -3.350000 -0.000001 -3.200000
v -3.349999 0.000001 3.200001
v 2.600000 -0.000001 -3.200001
v -3.349999 0.000001 3.200001
v 1.600000 0.000001 3.200000
v 3.050000 -0.000001 -3.200001
v 2.600000 -0.000001 -3.200001
v -0.800001 9.599998 -9.600001
v 0.799999 9.599998 -9.600001
v -3.350000 3.200000 -3.200001
v -2.600000 3.200000 -3.200001
v 3.050000 3.200000 -3.200001
v 1.600000 3.200001 3.200000
v -3.349999 3.200001 3.200000
v -3.350000 3.200000 -3.200001
v -2.600000 3.200000 -3.200001
v -3.349999 3.200001 3.200000
v 0.799999 9.599998 -9.600001
v 3.049999 9.599998 -9.600001
v -2.600000 3.200000 -3.200001
v -3.350000 3.200000 -3.200001
v -2.600000 3.200000 -3.200001
v 3.049999 9.599998 -9.600001
v 3.050000 3.200000 -3.200001
v -3.350000 3.200000 -3.200001
v -3.350001 9.599998 -9.600001
v -0.800001 9.599998 -9.600001
vt 2.000000 -2.000000
vt 2.000000 0.000000
vt 0.000000 0.000000
vt 0.000000 -2.000000
vt 0.000000 0.000000
vt 0.000000 -2.000000
vt 0.233398 -1.998050
vt 0.546875 -0.500000
vt 0.546875 -2.000000
vt 0.546875 -0.500000
vt 0.234375 -2.000000
vt 1.546880 -2.000000
vt 1.859380 -2.000000
vt 2.000000 0.000000
vt 1.546880 -0.500000
vt 1.859380 -2.000000
vt 2.000000 -2.000000
vt 2.000000 0.000000
vt 1.296880 0.000000
vt 1.546880 -0.500000
vt 2.000000 0.000000
vt 0.796875 0.000000
vt 0.000000 0.000000
vt 0.546875 -0.500000
vt 0.000000 0.000000
vt 0.000000 -2.003910
vt 1.999020 -5.998050
vt 2.000000 -3.996090
vt 2.000000 -2.000000
vt 2.000000 0.000000
vt 0.000000 -3.998050
vt 1.000000 -4.000000
vt 0.000000 0.000000
vt 0.000000 -2.000000
vt 2.000980 -2.000000
vt 0.976563 0.000000
vt 2.000000 -0.531250
vt 2.000000 -0.031250
vt 0.000000 -0.031250
vt 0.000000 -0.531250
vt 2.406250 -0.500000
vt 2.406250 0.000000
vt 0.405273 0.000000
vt 0.406250 -0.500000
vt 2.000000 -0.531250
vt 2.000000 -0.031250
vt 0.000000 -0.031250
vt 0.000000 -0.531250
vt 2.406250 -0.500000
vt 2.406250 0.000000
vt 0.405273 0.000000
vt 0.406250 -0.500000
vt 2.000000 -0.531250
vt 2.000000 -0.031250
vt 0.000000 -0.031250
vt 0.000000 -0.531250
vt 2.406250 -0.500000
vt 2.406250 0.000000
vt 0.405273 0.000000
vt 0.406250 -0.500000
vt 2.000000 -0.531250
vt 2.000000 -0.031250
vt 0.000000 -0.031250
vt 0.000000 -0.531250
vt 2.406250 -0.500000
vt 2.406250 0.000000
vt 0.405273 0.000000
vt 0.406250 -0.500000
vt 2.000000 -0.531250
vt 2.000000 -0.031250
vt 0.000000 -0.031250
vt 0.000000 -0.531250
vt 2.406250 -0.500000
vt 2.406250 0.000000
vt 0.405273 0.000000
vt 0.406250 -0.500000
vt 2.000000 -0.531250
vt 2.000000 -0.031250
vt 0.000000 -0.031250
vt 0.000000 -0.531250
vt 2.406250 -0.500000
vt 2.406250 0.000000
vt 0.405273 0.000000
vt 0.406250 -0.500000
vt 2.000000 -0.531250
vt 2.000000 -0.031250
vt 0.000000 -0.031250
vt 0.000000 -0.531250
vt 2.406250 -0.500000
vt 2.406250 0.000000
vt 0.405273 0.000000
vt 0.406250 -0.500000
vt 2.000000 -0.531250
vt 2.000000 -0.031250
vt 0.000000 -0.031250
vt 0.000000 -0.531250
vt 0.000000 0.000000
vt 3.000000 -6.000000
vt 6.000000 0.000000
vt 0.000000 0.000000
vt 0.000000 -7.000000
vt 0.299805 -7.000000
vt 0.299805 0.000000
vt 0.021484 -0.500000
vt 0.041016 -1.000000
vt 2.002930 -1.000000
vt 0.406250 -0.500000
vt -0.824219 -0.500000
vt 0.771484 -1.000000
vt 0.790039 -0.500000
vt 0.399414 -3.500000
vt 0.399414 0.000000
vt 0.000000 0.000000
vt 0.000000 -3.500000
vt 0.000000 -7.000000
vt 0.399414 -7.000000
vt 0.398438 -3.500000
vt 0.000000 -3.500000
vt 0.000000 0.000000
vt 3.000000 -6.000000
vt 5.999020 0.000000
vt 0.144531 -2.000000
vt 0.144531 0.000000
vt 0.000000 0.000000
vt 0.000000 -2.000000
vt 1.980470 -1.572270
vt 0.019531 -1.572270
vt 0.018555 -1.694340
vt 1.980470 -1.695310
vt 0.416016 -2.000000
vt 0.416016 0.000000
vt 0.271484 0.000000
vt 0.271484 -2.000000
vt 1.980470 -1.310550
vt 0.019531 -1.310550
vt 0.018555 -1.432620
vt 1.980470 -1.433590
vt 0.669922 -2.000000
vt 0.669922 0.000000
vt 0.542969 0.000000
vt 0.542969 -2.000000
vt 1.980470 -1.048830
vt 0.019531 -1.048830
vt 0.018555 -1.186520
vt 1.980470 -1.187500
vt 0.949219 -2.000000
vt 0.949219 0.000000
vt 0.814453 0.000000
vt 0.814453 -2.000000
vt 1.980470 -0.787109
vt 0.019531 -0.787109
vt 0.018555 -0.917969
vt 1.980470 -0.917969
vt 1.220700 -2.000000
vt 1.220700 0.000000
vt 1.083980 0.000000
vt 1.083980 -2.000000
vt 1.980470 -0.525391
vt 0.019531 -0.525391
vt 0.018555 -0.656250
vt 1.980470 -0.656250
vt 1.492190 -2.000000
vt 1.492190 0.000000
vt 1.355470 0.000000
vt 1.355470 -2.000000
vt 1.980470 -0.261719
vt 0.019531 -0.261719
vt 0.018555 -0.392578
vt 1.980470 -0.392578
vt 1.763670 -2.000000
vt 1.763670 0.000000
vt 1.626950 0.000000
vt 1.626950 -2.000000
vt 1.980470 0.000000
vt 0.019531 0.000000
vt 0.018555 -0.130859
vt 1.980470 -0.130859
vt 2.000000 -2.000000
vt 2.000000 0.000000
vt 1.898440 0.000000
vt 1.898440 -2.000000
vt 0.250000 0.000000
vt 0.234375 -0.144531
vt 1.859380 -0.144531
vt 1.843750 0.000000
vt 0.000000 -0.144531
vt 0.000000 -2.000000
vt 1.859380 -0.144531
vt 0.000000 -2.000000
vt 1.546880 -2.000000
vt 1.999020 -0.143555
vt 1.859380 -0.144531
vt 1.203130 0.000000
vt 0.705078 0.000000
vt 2.000000 -3.000000
vt 0.000000 0.281250
vt 0.000000 -1.468750
vt 2.000000 -1.032230
vt 2.000000 0.500000
vt 0.000000 0.500000
vt 0.000000 0.281250
vt 2.000000 0.515625
vt 0.703125 0.000000
vt 0.000000 0.000000
vt 1.765630 -3.000000
vt 2.000000 -3.000000
vt 1.765630 -3.000000
vt 0.000000 0.000000
vt 0.000000 -3.000000
vt 2.000000 -3.000000
vt 2.000000 0.000000
vt 1.203130 0.000000
vn -0.9753 0.0000 -0.2210
vn 0.0000 0.0000 1.0000
vn -1.0000 0.0000 0.0000
vn 1.0000 0.0000 -0.0000
vn 0.0000 0.7071 0.7071
vn -0.0000 1.0000 -0.0000
vn 0.0000 -0.7071 -0.7071
vn 0.0000 -1.0000 0.0000
usemtl 120_0-0
s off
f 1/1/1 2/2/1 3/3/1
f 1/1/1 3/3/1 4/4/1
f 5/5/2 6/6/2 7/7/2
f 5/5/2 7/7/2 8/8/2
f 9/9/2 10/10/2 11/11/2
f 12/12/2 13/13/2 14/14/2
f 12/12/2 14/14/2 15/15/2
f 16/16/2 17/17/2 18/18/2
f 19/19/2 20/20/2 21/21/2
f 22/22/2 23/23/2 24/24/2
f 25/25/3 26/26/3 27/27/3
f 25/25/3 27/27/3 28/28/3
f 29/29/4 30/30/4 31/31/4
f 29/29/4 31/31/4 32/32/4
f 33/33/3 34/34/3 35/35/3
f 33/33/3 35/35/3 36/36/3
usemtl 120_4-0
f 37/37/2 38/38/2 39/39/2
f 37/37/2 39/39/2 40/40/2
f 41/41/2 42/42/2 43/43/2
f 41/41/2 43/43/2 44/44/2
f 45/45/2 46/46/2 47/47/2
f 45/45/2 47/47/2 48/48/2
f 49/49/2 50/50/2 51/51/2
f 49/49/2 51/51/2 52/52/2
f 53/53/2 54/54/2 55/55/2
f 53/53/2 55/55/2 56/56/2
f 57/57/2 58/58/2 59/59/2
f 57/57/2 59/59/2 60/60/2
f 61/61/2 62/62/2 63/63/2
f 61/61/2 63/63/2 64/64/2
f 65/65/2 66/66/2 67/67/2
f 65/65/2 67/67/2 68/68/2
f 69/69/2 70/70/2 71/71/2
f 69/69/2 71/71/2 72/72/2
f 73/73/2 74/74/2 75/75/2
f 73/73/2 75/75/2 76/76/2
f 77/77/2 78/78/2 79/79/2
f 77/77/2 79/79/2 80/80/2
f 81/81/2 82/82/2 83/83/2
f 81/81/2 83/83/2 84/84/2
f 85/85/2 86/86/2 87/87/2
f 85/85/2 87/87/2 88/88/2
f 89/89/2 90/90/2 91/91/2
f 89/89/2 91/91/2 92/92/2
f 93/93/2 94/94/2 95/95/2
f 93/93/2 95/95/2 96/96/2
f 97/97/3 98/98/3 99/99/3
f 100/100/5 101/101/5 102/102/5
f 100/100/5 102/102/5 103/103/5
f 104/104/2 105/105/2 106/106/2
f 104/104/2 106/106/2 107/107/2
f 108/108/2 109/109/2 110/110/2
f 111/111/5 112/112/5 113/113/5
f 111/111/5 113/113/5 114/114/5
f 115/115/5 116/116/5 117/117/5
f 115/115/5 117/117/5 118/118/5
f 119/119/4 120/120/4 121/121/4
usemtl 120_2-0
f 122/122/6 123/123/6 124/124/6
f 122/122/6 124/124/6 125/125/6
f 126/126/6 127/127/6 128/128/6
f 126/126/6 128/128/6 129/129/6
f 130/130/6 131/131/6 132/132/6
f 130/130/6 132/132/6 133/133/6
f 134/134/6 135/135/6 136/136/6
f 134/134/6 136/136/6 137/137/6
f 138/138/6 139/139/6 140/140/6
f 138/138/6 140/140/6 141/141/6
f 142/142/6 143/143/6 144/144/6
f 142/142/6 144/144/6 145/145/6
f 146/146/6 147/147/6 148/148/6
f 146/146/6 148/148/6 149/149/6
f 150/150/6 151/151/6 152/152/6
f 150/150/6 152/152/6 153/153/6
f 154/154/6 155/155/6 156/156/6
f 154/154/6 156/156/6 157/157/6
f 158/158/6 159/159/6 160/160/6
f 158/158/6 160/160/6 161/161/6
f 162/162/6 163/163/6 164/164/6
f 162/162/6 164/164/6 165/165/6
f 166/166/6 167/167/6 168/168/6
f 166/166/6 168/168/6 169/169/6
f 170/170/6 171/171/6 172/172/6
f 170/170/6 172/172/6 173/173/6
f 174/174/6 175/175/6 176/176/6
f 174/174/6 176/176/6 177/177/6
f 178/178/6 179/179/6 180/180/6
f 178/178/6 180/180/6 181/181/6
f 182/182/6 183/183/6 184/184/6
f 182/182/6 184/184/6 185/185/6
f 186/186/6 187/187/6 188/188/6
f 189/189/6 190/190/6 191/191/6
f 189/189/6 191/191/6 192/192/6
usemtl 120_3-0
f 193/193/7 194/194/7 195/195/7
f 196/196/8 197/197/8 198/198/8
f 196/196/8 198/198/8 199/199/8
f 200/200/8 201/201/8 202/202/8
f 203/203/7 204/204/7 205/205/7
f 203/203/7 205/205/7 206/206/7
f 207/207/7 208/208/7 209/209/7
f 210/210/7 211/211/7 212/212/7
