# Blender v2.92.0 OBJ File: '55002.blend'
# www.blender.org
mtllib 55002.mtl
o model55002-node_model55002
v -1.225000 -0.000000 -0.150000
v -1.225000 0.000000 0.000000
v -1.225000 2.250000 -0.000000
v -1.225000 2.250000 -0.150000
v 0.025000 0.000000 -0.000000
v 0.025000 -0.000000 -0.150000
v 0.025000 2.250000 -0.150000
v 0.025000 2.250000 -0.000000
v 0.025000 -0.000000 -0.150000
v -1.225000 -0.000000 -0.150000
v -1.225000 2.250000 -0.150000
v 0.025000 2.250000 -0.150000
v -1.225000 0.000000 0.000000
v 0.025000 0.000000 -0.000000
v 0.025000 2.250000 -0.000000
v -1.225000 2.250000 -0.000000
vt 1.544136 0.001532
vt 0.999502 0.997208
vt 0.999451 0.000596
vt 1.543674 0.996424
vt 0.552236 0.006860
vt 0.552077 0.995978
vt 0.000856 0.996158
vt 0.000979 0.001556
vt 0.000000 -1.000000
vt 1.000000 -1.000000
vt 1.000000 0.000000
vt 0.000000 0.000000
vt 1.000000 -1.000000
vt 0.000000 -1.000000
vt 0.000000 0.000000
vt 1.000000 0.000000
vn 0.0000 1.0000 0.0000
vn -1.0000 -0.0000 0.0000
vn 1.0000 0.0000 -0.0000
vn 0.0000 -1.0000 0.0000
vn -0.0000 -0.0000 -1.0000
vn 0.0000 0.0000 1.0000
usemtl 067_14-0
s off
f 4/1/1 8/2/1 7/3/1
f 4/1/1 3/4/1 8/2/1
f 1/5/2 2/6/2 3/4/2
f 1/5/2 3/4/2 4/1/2
f 5/7/3 6/8/3 7/3/3
f 5/7/3 7/3/3 8/2/3
f 2/6/4 6/8/4 5/7/4
f 2/6/4 1/5/4 6/8/4
usemtl 074_0-0
f 9/9/5 10/10/5 11/11/5
f 9/9/5 11/11/5 12/12/5
f 13/13/6 14/14/6 15/15/6
f 13/13/6 15/15/6 16/16/6
