# Blender 3.3.0
# www.blender.org
mtllib 31022.mtl
o model31022-node
v 1.600000 0.025000 -0.000000
v 1.600000 0.025000 -1.450000
v 1.600000 1.250000 -1.450000
v 1.600000 1.250000 -0.000000
v 0.650000 -2.800004 -1.450000
v 0.650000 -2.400003 -1.450000
v -0.150000 -2.400003 0.000000
v -0.150000 -2.800004 0.000000
v -0.150000 -2.400003 -1.450000
v -0.150000 -2.000004 -1.450000
v -0.150000 -2.000004 0.000000
v -0.150000 -2.400003 0.000000
v -1.250000 -2.000004 -1.149999
v -1.250000 -1.600003 -1.150000
v -0.150000 -1.600003 0.000000
v -0.150000 -2.000004 0.000000
v -1.600000 -1.600003 0.000000
v -1.600000 -1.200004 0.000000
v -0.150000 -1.200004 0.000000
v -0.150000 -1.600003 0.000000
v -0.150000 -1.200004 0.000000
v -1.250000 -1.200004 1.100000
v -1.250000 -0.800003 1.100000
v -0.150000 -0.800003 0.000000
v -0.150000 -0.800003 1.450000
v -0.150000 -0.400003 1.450000
v -0.150000 -0.400003 0.000000
v -0.150000 -0.800003 0.000000
v 1.450000 -3.200004 -1.450000
v 1.450000 -2.800004 -1.450000
v -0.150000 -2.800004 0.000000
v -0.150000 -3.200003 0.000001
v -0.150000 1.250000 -0.000000
v 1.450000 1.250000 -0.000000
v 1.450000 -0.400000 -0.000000
v -0.150000 -0.900000 0.000000
v -1.250000 -2.000000 -1.149999
v -1.600000 -1.600000 0.000000
v -1.250000 -1.600000 -1.150000
v -1.250000 3.175000 -1.150000
v -1.600000 3.175000 -0.000000
v -1.250000 -1.200000 1.100000
v -1.600000 -1.200000 0.000000
v -1.600000 0.025000 0.000000
v -1.250000 0.025000 1.100000
v -0.150000 0.025000 1.450000
v -0.150000 1.250000 -0.000000
v 0.000000 1.250000 0.150000
v 1.450000 1.250000 0.150000
v 0.000000 0.025000 0.150000
v 1.450000 0.025000 0.150000
v 1.450000 1.250000 0.150000
v 0.000000 1.250000 0.150000
v -0.150000 -0.400000 0.000000
v 0.000000 0.024997 0.150000
v -0.150000 -0.400003 0.000000
v 1.150000 -0.400003 1.300000
v 1.150000 0.024997 1.300000
v 1.450000 3.175000 -1.450001
v -0.150000 3.175000 -1.450001
v -0.150000 1.250000 -0.000000
v 1.450000 -3.200000 1.450000
v -1.600000 0.025000 1.450000
v -1.600000 3.175000 1.450000
v 1.450000 3.175000 1.449999
v -0.150000 -2.000000 -1.450000
v -0.150000 -2.400000 -1.450000
v 0.650000 -2.400000 -1.450000
v 0.650000 -2.800000 -1.450000
v 1.450000 -2.800000 -1.450000
v 1.450000 -0.050000 -1.450000
v 1.450000 -0.050000 -0.000000
v 1.450000 1.250000 -1.450000
v 1.450000 1.250000 -0.000000
v 1.600000 1.250000 -0.000000
v 1.600000 1.250000 -1.450000
v 1.450000 1.250000 -1.450000
v -0.150000 -3.200000 0.000001
v -0.150000 -0.900000 0.000000
v -0.150000 -0.900000 1.450000
v -0.150000 -3.200000 1.450001
v 1.150000 -0.400003 1.300000
v 1.150000 -0.400003 1.450000
v 1.150000 0.024997 1.450000
v 1.150000 0.024997 1.300000
v -1.250000 -0.800003 1.100000
v -0.150000 -0.800003 1.450000
v -0.150000 -0.800003 0.000000
v -0.150000 -0.400003 0.000000
v -0.150000 -0.400003 1.450000
v 1.150000 -0.400003 1.450000
v 1.150000 -0.400003 1.300000
v -1.600000 -1.200004 0.000000
v -1.250000 -1.200004 1.100000
v -0.150000 -1.200004 0.000000
v -1.250000 -1.600003 -1.150000
v -1.600000 -1.600003 0.000000
v -0.150000 -1.600003 0.000000
v -0.150000 -2.000004 -1.450000
v -1.250000 -2.000004 -1.149999
v -0.150000 -2.000004 0.000000
v 0.650000 -2.400003 -1.450000
v -0.150000 -2.400003 -1.450000
v -0.150000 -2.400003 0.000000
v 1.450000 -2.800004 -1.450000
v 0.650000 -2.800004 -1.450000
v -0.150000 -2.800004 0.000000
v -0.150000 -3.200003 1.450001
v 1.450000 -3.200003 1.450000
v 1.450000 -3.200004 -1.450000
v -0.150000 -3.200003 0.000001
v -1.600000 0.024997 1.450000
v -0.150000 0.024997 1.450000
v -1.250000 0.024997 1.100000
v 1.450000 0.024998 1.450000
v 1.450000 0.024997 0.150000
v 0.000000 0.024997 0.150000
v 1.150000 0.024997 1.300000
v -1.600000 0.024997 0.000000
v 1.150000 0.024998 1.450000
v 1.450000 -0.050000 1.450000
v 1.450000 -0.050000 -0.000000
v -1.600000 3.175000 1.450000
v -1.600000 3.175000 -0.000000
v -1.250000 3.175000 -1.150000
v -0.150000 3.175000 -1.450001
v 1.450000 3.175000 -1.450001
v 1.450000 3.175000 1.449999
v -0.150000 -0.900000 1.450000
v -0.150000 -0.900000 0.000000
v 1.450000 -0.400000 -0.000000
v 1.450000 -0.400000 1.450000
v 1.450000 1.250000 0.150000
v 1.450000 1.250000 -0.000000
v 1.600000 1.250000 -0.000000
vn 1.0000 -0.0000 -0.0000
vn 0.8756 -0.0000 0.4831
vn 0.7226 -0.0000 -0.6912
vn -0.0000 -0.0000 -1.0000
vn -0.7071 -0.0000 -0.7071
vn -1.0000 -0.0000 -0.0000
vn 0.6715 -0.0000 0.7410
vn 0.2631 -0.0000 0.9648
vn 0.9567 -0.0000 0.2912
vn 0.9529 -0.0000 -0.3032
vn -0.0000 1.0000 -0.0000
vn -0.0000 -0.0000 1.0000
vn -0.7071 -0.0000 0.7071
vn 0.7071 -0.0000 0.7071
vn 0.3032 -0.0000 -0.9529
vn -0.0000 -1.0000 -0.0000
vn 0.2983 -0.9545 -0.0000
vt 1.062500 0.601562
vt 2.000000 0.601562
vt 2.000000 1.000000
vt 1.062500 1.000000
vt 1.000000 -0.099609
vt 1.000000 0.000000
vt 0.000000 0.000000
vt 0.000000 -0.099609
vt 1.000000 -0.099609
vt 1.000000 0.000000
vt 0.000000 0.000000
vt 0.000000 -0.099609
vt 1.000000 -0.099609
vt 1.000000 0.000000
vt 0.000000 0.000000
vt 0.000000 -0.099609
vt 1.000000 -0.099609
vt 1.000000 0.000000
vt 0.000000 0.000000
vt 0.000000 -0.099609
vt 0.000000 -0.099609
vt 1.000000 -0.099609
vt 0.999023 0.000000
vt 0.000000 0.000000
vt 1.000000 -0.099609
vt 1.000000 0.000000
vt 0.000000 0.000000
vt 0.000000 -0.099609
vt 1.000000 -0.099609
vt 1.000000 0.000000
vt 0.000000 0.000000
vt 0.000000 -0.099609
vt 2.000000 1.000000
vt 1.000000 1.000000
vt 1.000000 0.429688
vt 2.000000 0.265625
vt 4.000000 0.359375
vt 3.000000 0.484375
vt 4.000000 0.484375
vt 4.000000 2.000000
vt 3.000000 2.000000
vt 2.000000 0.609375
vt 3.000000 0.609375
vt 3.000000 1.000000
vt 2.000000 1.000000
vt 1.000000 1.000000
vt 0.296875 0.046875
vt 0.140625 0.046875
vt 0.140625 0.953125
vt -0.000000 0.601562
vt 0.937500 0.601562
vt 0.937500 1.000000
vt -0.000000 1.000000
vt -0.140625 0.468750
vt 0.109375 0.000000
vt 0.000000 -0.099609
vt 0.944336 -0.099121
vt 0.945313 0.000000
vt 7.000000 2.000000
vt 5.000000 2.000000
vt -0.140625 1.000000
vt 0.000000 -0.031250
vt 2.000000 1.000000
vt 2.000000 2.000000
vt 0.000000 2.000000
vt 5.000000 0.359375
vt 5.000000 0.234375
vt 6.000000 0.234375
vt 6.000000 0.109375
vt 7.000000 0.109375
vt 0.000000 0.554688
vt 1.000000 0.554688
vt 0.000000 1.000000
vt 0.296875 0.953125
vt 0.140625 0.953125
vt 0.140625 0.046875
vt 0.296875 0.046875
vt 2.000000 -0.031250
vt 2.000000 0.703125
vt 1.000000 0.703125
vt 1.000000 -0.031250
vt 0.945313 -0.099609
vt 1.000000 -0.099609
vt 1.000000 0.000000
vt 0.945313 0.000000
vt 0.230469 -1.757810
vt 0.951172 -2.000000
vt 0.951172 -1.000000
vt 0.951172 -1.000000
vt 0.951172 -2.000000
vt 1.802730 -1.999020
vt 1.802730 -1.896480
vt 0.000000 -1.000000
vt 0.230469 -1.757810
vt 0.951172 -1.000000
vt 0.230469 -0.207031
vt 0.000000 -1.000000
vt 0.951172 -1.000000
vt 0.951172 0.000000
vt 0.230469 -0.207031
vt 0.951172 -1.000000
vt 1.474610 0.000000
vt 0.951172 0.000000
vt 0.951172 -1.000000
vt 2.000000 0.000000
vt 1.474610 0.000000
vt 0.951172 -1.000000
vt 0.951172 -2.000000
vt 2.000000 -2.000000
vt 2.000000 0.000000
vt 0.951172 -1.000000
vt 0.000000 1.000000
vt 1.000000 1.000000
vt 0.250000 1.250000
vt 2.000000 -2.000000
vt 2.000000 -1.109375
vt 1.046875 -1.109375
vt 1.802734 -1.890625
vt 0.000000 2.000000
vt 1.802734 -2.000000
vt 1.000000 1.000000
vt 2.000000 1.000000
vt 0.000000 0.000000
vt 0.000000 -1.000000
vt 0.229492 -1.792970
vt 0.950195 -1.999020
vt 1.999020 -1.999020
vt 2.000000 0.000000
vt 1.000000 -0.000000
vt 2.000000 -0.000000
vt 2.000000 0.812500
vt 1.000000 0.812500
vt 0.312500 0.625000
vt 0.406250 0.531250
vt 0.312500 0.437500
s 0
usemtl TEXTURE.116_0-material
f 1/1/1 2/2/1 3/3/1
f 1/1/1 3/3/1 4/4/1
f 5/5/2 6/6/2 7/7/2
f 5/5/2 7/7/2 8/8/2
f 9/9/1 10/10/1 11/11/1
f 9/9/1 11/11/1 12/12/1
f 13/13/3 14/14/3 15/15/3
f 13/13/3 15/15/3 16/16/3
f 17/17/4 18/18/4 19/19/4
f 17/17/4 19/19/4 20/20/4
f 21/21/5 22/22/5 23/23/5
f 21/21/5 23/23/5 24/24/5
f 25/25/6 26/26/6 27/27/6
f 25/25/6 27/27/6 28/28/6
f 29/29/7 30/30/7 31/31/7
f 29/29/7 31/31/7 32/32/7
f 34/34/4 72/72/4 33/33/4
f 33/33/4 35/35/4 36/36/4
f 39/39/8 37/37/8 66/66/8
f 39/39/8 66/66/8 60/60/8
f 38/38/9 39/39/9 40/40/9
f 64/64/1 44/44/1 41/41/1
f 42/42/10 43/43/10 44/44/10
f 42/42/10 44/44/10 45/45/10
f 46/46/4 65/65/4 80/80/4
f 65/65/4 81/81/4 80/80/4
f 50/50/12 51/51/12 52/52/12
f 50/50/12 52/52/12 53/53/12
f 55/55/13 56/56/13 57/57/13
f 55/55/13 57/57/13 58/58/13
f 40/40/9 41/41/9 44/44/9
f 44/44/9 43/43/9 40/40/9
f 4/4/14 51/51/14 1/1/14
f 51/51/14 4/4/14 52/52/14
f 45/45/15 80/80/15 42/42/15
f 64/64/1 63/63/1 44/44/1
f 63/63/4 64/64/4 65/65/4
f 81/81/4 65/65/4 62/62/4
f 60/60/8 40/40/8 39/39/8
f 67/67/12 68/68/12 66/66/12
f 38/38/9 40/40/9 43/43/9
f 68/68/12 69/69/12 70/70/12
f 73/73/6 71/71/6 72/72/6
f 63/63/4 65/65/4 46/46/4
f 45/45/15 46/46/15 80/80/15
f 78/78/1 79/79/1 80/80/1
f 78/78/1 80/80/1 81/81/1
f 82/82/6 83/83/6 84/84/6
f 82/82/6 84/84/6 85/85/6
f 66/66/12 68/68/12 60/60/12
f 70/70/12 59/59/12 68/68/12
f 68/68/12 59/59/12 60/60/12
f 34/34/6 73/73/6 72/72/6
f 35/35/4 33/33/4 72/72/4
f 61/61/13 50/50/13 53/53/13
f 50/50/13 61/61/13 54/54/13
usemtl TEXTURE.116_3-material
f 86/86/11 87/87/11 88/88/11
f 89/89/11 90/90/11 91/91/11
f 89/89/11 91/91/11 92/92/11
f 93/93/11 94/94/11 95/95/11
f 96/96/11 97/97/11 98/98/11
f 99/99/11 100/100/11 101/101/11
f 102/102/11 103/103/11 104/104/11
f 105/105/11 106/106/11 107/107/11
f 108/108/11 109/109/11 110/110/11
f 108/108/11 110/110/11 111/111/11
f 112/112/11 113/113/11 114/114/11
f 115/115/11 116/116/11 117/117/11
f 115/115/11 117/117/11 118/118/11
f 114/114/11 119/119/11 112/112/11
f 115/115/11 118/118/11 120/120/11
usemtl TEXTURE.116_4-material
f 47/47/11 48/48/11 49/49/11
f 47/47/11 49/49/11 74/74/11
f 74/74/11 75/75/11 76/76/11
f 74/74/11 76/76/11 77/77/11
f 132/132/1 131/131/1 122/122/1
f 132/132/1 122/122/1 121/121/1
f 123/123/16 124/124/16 125/125/16
f 123/123/16 125/125/16 126/126/16
f 123/123/16 126/126/16 127/127/16
f 123/123/16 127/127/16 128/128/16
f 129/129/17 130/130/17 131/131/17
f 129/129/17 131/131/17 132/132/17
f 134/134/11 133/133/11 135/135/11
