# Blender v2.92.0 OBJ File: '41004.blend'
# www.blender.org
mtllib 41004.mtl
o model41004-node_model41004.001
v -1.600000 -1.483300 0.375000
v 1.600000 -1.483300 0.375000
v 1.600000 0.666700 0.374902
v -1.600000 0.666700 0.374903
v 1.600000 -1.483300 0.375000
v 1.600000 -1.483300 -0.424902
v 1.600000 0.666602 -0.425000
v 1.600000 0.666700 0.374902
v -1.600000 -1.483300 -0.424902
v -1.600000 -1.483300 0.375000
v -1.600000 0.666700 0.374903
v -1.600000 0.666602 -0.425000
v -1.700000 0.816701 0.524903
v -1.700000 0.816701 -0.425000
v -1.600000 0.666604 -0.425000
v -1.600000 0.666701 0.374903
v 1.600000 0.666604 -0.425000
v 1.700000 0.816701 -0.425000
v 1.700000 0.816701 0.524902
v 1.600000 0.666701 0.374902
v -1.700000 0.816700 0.524903
v 1.700000 0.816700 0.524902
v 1.700000 0.816700 -0.425000
v -1.700000 0.816700 -0.425000
v -1.600000 0.666701 0.374903
v 1.600000 0.666701 0.374902
v 1.700000 0.816701 0.524902
v -1.700000 0.816701 0.524903
v -1.600000 -1.483300 0.375000
v 1.600000 -1.483300 0.375000
v 1.600000 -1.483300 -0.424902
v -1.600000 -1.483300 -0.424902
vt 0.000000 -1.000000
vt 2.000000 -1.000000
vt 2.000000 0.000000
vt 0.000000 0.000000
vt 0.000000 -1.000000
vt 1.000000 -1.000000
vt 1.000000 0.000000
vt 0.000000 0.000000
vt -2.000000 -1.000000
vt -1.000000 -1.000000
vt -1.000000 0.000000
vt -2.000000 0.000000
vt 1.000000 0.000000
vt 0.000000 0.000000
vt 0.000000 -1.000000
vt 0.841797 -1.000000
vt 3.000000 -1.000000
vt 3.000000 0.000000
vt 2.000000 0.000000
vt 2.156250 -1.000000
vt 0.000000 0.000000
vt 0.000000 -2.000000
vt 1.000000 -2.000000
vt 1.000000 0.000000
vt 1.000000 -0.546875
vt 0.031250 1.546875
vt 0.031250 -0.546875
vt 1.000000 1.546875
vt 0.058594 -1.000000
vt 1.941410 -1.000000
vt 2.000000 0.000000
vt 0.000000 0.000000
vn 0.0000 0.0000 1.0000
vn 1.0000 0.0000 0.0000
vn -1.0000 0.0000 0.0000
vn -0.0000 -0.0000 -1.0000
vn -0.8322 -0.5545 0.0000
vn -0.8320 -0.5547 0.0001
vn 0.8322 -0.5545 0.0000
vn 0.8320 -0.5547 0.0001
vn -0.0000 1.0000 -0.0000
vn 0.0000 -1.0000 0.0000
vn 0.0000 -0.7071 0.7071
usemtl 090_8-0
s off
f 1/1/1 2/2/1 3/3/1
f 1/1/1 3/3/1 4/4/1
usemtl 090_11-0
f 5/5/2 6/6/2 7/7/2
f 5/5/2 7/7/2 8/8/2
f 9/9/3 10/10/3 11/11/3
f 9/9/3 11/11/3 12/12/3
f 6/6/4 12/12/4 7/7/4
f 6/6/4 9/9/4 12/12/4
usemtl 090_10-0
f 13/13/5 14/14/5 15/15/5
f 13/13/6 15/15/6 16/16/6
f 17/17/7 18/18/7 19/19/7
f 17/17/8 19/19/8 20/20/8
f 15/15/4 18/18/4 17/17/4
f 15/15/4 14/14/4 18/18/4
usemtl 067_0-0
f 21/21/9 22/22/9 23/23/9
f 21/21/9 23/23/9 24/24/9
f 32/25/10 30/26/10 29/27/10
f 32/25/10 31/28/10 30/26/10
usemtl 090_9-0
f 25/29/11 26/30/11 27/31/11
f 25/29/11 27/31/11 28/32/11
