# Blender v2.82 (sub 7) OBJ File: '61017.blend'
# www.blender.org
mtllib 61017.mtl
o model61017-node_model61017
v 1.600000 0.399902 -4.800001
v -1.600000 0.399902 -4.800000
v -1.600000 0.399902 -4.000000
v 1.600000 0.399902 -4.000000
v 1.600000 0.199901 -5.600000
v -1.600000 0.199901 -5.600000
v -1.600000 0.199901 -4.800000
v 1.600000 0.199901 -4.800000
v 1.599999 -0.000001 -6.400000
v -1.600000 -0.000001 -6.400000
v -1.600000 -0.000001 -5.600000
v 1.600000 -0.000001 -5.600000
v 1.600000 0.999902 -2.400000
v -1.600000 0.999902 -2.400000
v -1.600000 0.999902 -1.600000
v 1.600000 0.999902 -1.600000
v 1.600000 0.799902 -3.200001
v -1.600000 0.799902 -3.200000
v -1.600000 0.799902 -2.400000
v 1.600000 0.799902 -2.400000
v 1.600000 0.599902 -4.000000
v -1.600000 0.599902 -4.000000
v -1.600000 0.599902 -3.200000
v 1.600000 0.599902 -3.200001
v 1.600000 1.600000 -0.000000
v -1.600000 1.600000 -0.000000
v -1.600000 1.600000 0.799902
v 1.600000 1.600000 0.799902
v 1.600000 1.399902 -0.800000
v -1.600000 1.399902 -0.800000
v -1.600000 1.400000 -0.000000
v 1.600000 1.400000 -0.000000
v 1.600000 1.199902 -1.600000
v -1.600000 1.199902 -1.600000
v -1.600000 1.199902 -0.800000
v 1.600000 1.199902 -0.800000
v 1.600000 2.200001 2.399902
v -1.600000 2.200001 2.399902
v -1.600000 2.200001 3.199900
v 1.600000 2.200001 3.199900
v 1.600000 2.000000 1.599902
v -1.600000 2.000000 1.599902
v -1.600000 2.000000 2.399902
v 1.600000 2.000000 2.399902
v 1.600000 1.800000 0.799902
v -1.600000 1.800000 0.799902
v -1.600000 1.800000 1.599902
v 1.600000 1.800000 1.599902
v 1.600000 2.800001 4.799900
v -1.599999 2.800001 4.799900
v -1.599999 2.800001 5.599900
v 1.600001 2.800001 5.599900
v 1.600000 2.600001 3.999900
v -1.599999 2.600001 3.999900
v -1.599999 2.600001 4.799900
v 1.600000 2.600001 4.799900
v 1.600000 2.400001 3.199900
v -1.600000 2.400001 3.199900
v -1.599999 2.400001 3.999900
v 1.600000 2.400001 3.999900
v 1.600001 3.000001 5.599900
v -1.599999 3.000001 5.599900
v -1.599999 3.000001 6.399900
v 1.600001 3.000001 6.399900
v 1.600000 0.199901 -4.800000
v -1.600000 0.199901 -4.800000
v -1.600000 0.399902 -4.800000
v 1.600000 0.399902 -4.800001
v 1.600000 -0.000001 -5.600000
v -1.600000 -0.000001 -5.600000
v -1.600000 0.199901 -5.600000
v 1.600000 0.199901 -5.600000
v 1.600000 0.799902 -2.400000
v -1.600000 0.799902 -2.400000
v -1.600000 0.999902 -2.400000
v 1.600000 0.999902 -2.400000
v 1.600000 0.599902 -3.200001
v -1.600000 0.599902 -3.200000
v -1.600000 0.799902 -3.200000
v 1.600000 0.799902 -3.200001
v 1.600000 0.399902 -4.000000
v -1.600000 0.399902 -4.000000
v -1.600000 0.599902 -4.000000
v 1.600000 0.599902 -4.000000
v 1.600000 1.400000 -0.000000
v -1.600000 1.400000 -0.000000
v -1.600000 1.600000 -0.000000
v 1.600000 1.600000 -0.000000
v 1.600000 1.199902 -0.800000
v -1.600000 1.199902 -0.800000
v -1.600000 1.399902 -0.800000
v 1.600000 1.399902 -0.800000
v 1.600000 0.999902 -1.600000
v -1.600000 0.999902 -1.600000
v -1.600000 1.199902 -1.600000
v 1.600000 1.199902 -1.600000
v 1.600000 2.000000 2.399902
v -1.600000 2.000000 2.399902
v -1.600000 2.200001 2.399902
v 1.600000 2.200001 2.399902
v 1.600000 1.800000 1.599902
v -1.600000 1.800000 1.599902
v -1.600000 2.000000 1.599902
v 1.600000 2.000000 1.599902
v 1.600000 1.600000 0.799902
v -1.600000 1.600000 0.799902
v -1.600000 1.800000 0.799902
v 1.600000 1.800000 0.799902
v 1.600000 2.600001 4.799900
v -1.599999 2.600001 4.799900
v -1.599999 2.800001 4.799900
v 1.600000 2.800001 4.799900
v 1.600000 2.400001 3.999900
v -1.599999 2.400001 3.999900
v -1.599999 2.600001 3.999900
v 1.600000 2.600001 3.999900
v 1.600000 2.200001 3.199900
v -1.600000 2.200001 3.199900
v -1.600000 2.400001 3.199900
v 1.600000 2.400001 3.199900
v 1.600001 3.000001 6.399900
v -1.599999 3.000001 6.399900
v -1.599999 3.200001 6.399900
v 1.600001 3.200001 6.399900
v 1.600001 2.800001 5.599900
v -1.599999 2.800001 5.599900
v -1.599999 3.000001 5.599900
v 1.600001 3.000001 5.599900
v 1.599999 2.399902 -6.400001
v 1.600001 5.600001 6.399899
v 0.800001 6.400001 6.399899
v 0.799999 3.199899 -6.400001
v -1.600001 2.399902 -6.400000
v -0.800001 3.199899 -6.400001
v -0.799999 6.400001 6.399899
v -1.599999 5.600001 6.399900
v 1.600001 3.200001 6.399900
v 1.600001 5.600001 6.399899
v 1.599999 2.399902 -6.400001
v 1.599999 -0.000001 -6.400000
v -1.599999 5.600001 6.399900
v -1.599999 3.200001 6.399900
v -1.600001 -0.000001 -6.400000
v -1.600001 2.399902 -6.400000
v -1.599999 3.000001 6.399900
v -1.600001 -0.000001 -5.600000
v 1.599999 -0.000001 -5.600000
v 1.600001 3.000001 6.399900
vt 0.000000 -3.500000
vt 1.000000 -3.500000
vt 0.999023 -3.250000
vt 0.000000 -3.250000
vt 0.000000 -3.750000
vt 1.000000 -3.750000
vt 0.999023 -3.500000
vt 0.000000 -3.500000
vt 0.000000 -4.000000
vt 1.000000 -4.000000
vt 0.999023 -3.750000
vt 0.000000 -3.750000
vt 0.000000 -2.750000
vt 1.000000 -2.750000
vt 0.999023 -2.500000
vt 0.000000 -2.500000
vt 0.000000 -3.000000
vt 1.000000 -3.000000
vt 0.999023 -2.750000
vt 0.000000 -2.750000
vt 0.000000 -3.250000
vt 1.000000 -3.250000
vt 0.999023 -3.000000
vt 0.000000 -3.000000
vt 0.000000 -2.000000
vt 1.000000 -2.000000
vt 0.999023 -1.750000
vt 0.000000 -1.750000
vt 0.000000 -2.250000
vt 1.000000 -2.250000
vt 0.999023 -1.999020
vt 0.000000 -2.000000
vt 0.000000 -2.500000
vt 1.000000 -2.500000
vt 0.999023 -2.250000
vt 0.000000 -2.250000
vt 0.000000 -1.250000
vt 1.000000 -1.250000
vt 0.999023 -1.000000
vt 0.000000 -1.000000
vt 0.000000 -1.500000
vt 1.000000 -1.500000
vt 0.999023 -1.250000
vt 0.000000 -1.250000
vt 0.000000 -1.750000
vt 1.000000 -1.750000
vt 0.999023 -1.500000
vt 0.000000 -1.500000
vt 0.000000 -0.500000
vt 1.000000 -0.500000
vt 0.999023 -0.250000
vt 0.000000 -0.250000
vt 0.000000 -0.750000
vt 1.000000 -0.750000
vt 0.999023 -0.500000
vt 0.000000 -0.500000
vt 0.000000 -1.000000
vt 1.000000 -1.000000
vt 0.999023 -0.750000
vt 0.000000 -0.750000
vt 0.000000 -0.250000
vt 1.000000 -0.250000
vt 0.999023 0.000000
vt 0.000000 0.000000
vt 0.000000 -0.666016
vt 2.000000 -0.666016
vt 1.999020 -0.333984
vt 0.000000 -0.333984
vt 0.000000 -1.000000
vt 2.000000 -1.000000
vt 1.999020 -0.664063
vt 0.000000 -0.666016
vt 0.000000 -0.666016
vt 2.000000 -0.666016
vt 1.999020 -0.333984
vt 0.000000 -0.333984
vt 0.000000 -1.000000
vt 2.000000 -1.000000
vt 1.999020 -0.666016
vt 0.000000 -0.666016
vt 0.000000 -0.333984
vt 2.000000 -0.333984
vt 1.999020 0.000000
vt 0.000000 0.000000
vt 0.000000 -0.666016
vt 2.000000 -0.666016
vt 1.999020 -0.333984
vt 0.000000 -0.333984
vt 0.000000 -1.000000
vt 2.000000 -1.000000
vt 1.999020 -0.666016
vt 0.000000 -0.666016
vt 0.000000 -0.333984
vt 2.000000 -0.333984
vt 1.999020 0.000000
vt 0.000000 0.000000
vt 0.000000 -0.666016
vt 2.000000 -0.666016
vt 1.999020 -0.333984
vt 0.000000 -0.333984
vt 0.000000 -1.000000
vt 2.000000 -1.000000
vt 1.999020 -0.666016
vt 0.000000 -0.666016
vt 0.000000 -0.333984
vt 2.000000 -0.333984
vt 1.999020 0.000000
vt 0.000000 0.000000
vt 0.000000 -0.666016
vt 2.000000 -0.666016
vt 1.999020 -0.333984
vt 0.000000 -0.333984
vt 0.000000 -1.000000
vt 2.000000 -1.000000
vt 1.999020 -0.666016
vt 0.000000 -0.666016
vt 0.000000 -0.333984
vt 2.000000 -0.333984
vt 1.999020 0.000000
vt 0.000000 0.000000
vt 0.000000 -0.328125
vt 2.000000 -0.328125
vt 1.999020 0.000000
vt 0.000000 0.000000
vt 0.000000 -0.333984
vt 2.000000 -0.333984
vt 1.999020 0.000000
vt 0.000000 0.000000
vt 4.020705 2.046932
vt -0.017997 2.056207
vt -0.018771 1.026714
vt 4.019933 1.017445
vt -0.019333 0.047179
vt 4.019371 0.037911
vt 4.019360 -1.004244
vt -0.019344 -0.994976
vt 7.664060 -3.000000
vt 8.007810 -0.005859
vt 0.343750 0.000000
vt 0.000000 -2.994140
vt 0.000000 -0.005859
vt 0.335938 -3.000000
vt 8.000000 -2.992190
vt 7.664060 0.000000
vt 7.600618 -3.236670
vt 0.370288 -3.328218
vt 0.437500 -3.281250
vt 7.640624 -3.328125
vn -0.0000 1.0000 -0.0000
vn -0.0000 1.0000 -0.0001
vn 0.0000 0.0000 -1.0000
vn -0.6963 -0.6963 0.1741
vn 0.0000 -0.9701 0.2425
vn 0.6963 -0.6963 0.1741
vn -1.0000 -0.0000 0.0000
vn 1.0000 0.0000 -0.0000
usemtl 122_2-0
s off
f 1/1/1 2/2/1 3/3/1
f 1/1/1 3/3/1 4/4/1
f 5/5/1 6/6/1 7/7/1
f 5/5/1 7/7/1 8/8/1
f 9/9/1 10/10/1 11/11/1
f 9/9/1 11/11/1 12/12/1
f 13/13/1 14/14/1 15/15/1
f 13/13/1 15/15/1 16/16/1
f 17/17/1 18/18/1 19/19/1
f 17/17/1 19/19/1 20/20/1
f 21/21/1 22/22/1 23/23/1
f 21/21/1 23/23/1 24/24/1
f 25/25/1 26/26/1 27/27/1
f 25/25/1 27/27/1 28/28/1
f 29/29/2 30/30/2 31/31/2
f 29/29/2 31/31/2 32/32/2
f 33/33/1 34/34/1 35/35/1
f 33/33/1 35/35/1 36/36/1
f 37/37/1 38/38/1 39/39/1
f 37/37/1 39/39/1 40/40/1
f 41/41/1 42/42/1 43/43/1
f 41/41/1 43/43/1 44/44/1
f 45/45/1 46/46/1 47/47/1
f 45/45/1 47/47/1 48/48/1
f 49/49/1 50/50/1 51/51/1
f 49/49/1 51/51/1 52/52/1
f 53/53/1 54/54/1 55/55/1
f 53/53/1 55/55/1 56/56/1
f 57/57/1 58/58/1 59/59/1
f 57/57/1 59/59/1 60/60/1
f 61/61/1 62/62/1 63/63/1
f 61/61/1 63/63/1 64/64/1
usemtl 122_4-0
f 65/65/3 66/66/3 67/67/3
f 65/65/3 67/67/3 68/68/3
f 69/69/3 70/70/3 71/71/3
f 69/69/3 71/71/3 72/72/3
f 73/73/3 74/74/3 75/75/3
f 73/73/3 75/75/3 76/76/3
f 77/77/3 78/78/3 79/79/3
f 77/77/3 79/79/3 80/80/3
f 81/81/3 82/82/3 83/83/3
f 81/81/3 83/83/3 84/84/3
f 85/85/3 86/86/3 87/87/3
f 85/85/3 87/87/3 88/88/3
f 89/89/3 90/90/3 91/91/3
f 89/89/3 91/91/3 92/92/3
f 93/93/3 94/94/3 95/95/3
f 93/93/3 95/95/3 96/96/3
f 97/97/3 98/98/3 99/99/3
f 97/97/3 99/99/3 100/100/3
f 101/101/3 102/102/3 103/103/3
f 101/101/3 103/103/3 104/104/3
f 105/105/3 106/106/3 107/107/3
f 105/105/3 107/107/3 108/108/3
f 109/109/3 110/110/3 111/111/3
f 109/109/3 111/111/3 112/112/3
f 113/113/3 114/114/3 115/115/3
f 113/113/3 115/115/3 116/116/3
f 117/117/3 118/118/3 119/119/3
f 117/117/3 119/119/3 120/120/3
f 121/121/3 122/122/3 123/123/3
f 121/121/3 123/123/3 124/124/3
f 125/125/3 126/126/3 127/127/3
f 125/125/3 127/127/3 128/128/3
f 129/129/4 130/130/4 131/131/4
f 129/129/4 131/131/4 132/132/4
f 135/133/5 132/132/5 131/131/5
f 135/133/5 134/134/5 132/132/5
f 133/135/6 134/134/6 135/133/6
f 133/135/6 135/133/6 136/136/6
usemtl 122_0-0
f 137/137/7 138/138/7 139/139/7
f 137/137/7 139/139/7 140/140/7
f 141/141/8 142/142/8 143/143/8
f 141/141/8 143/143/8 144/144/8
f 142/142/8 146/145/8 143/143/8
f 142/142/8 145/146/8 146/145/8
f 137/137/7 147/147/7 148/148/7
f 137/137/7 140/140/7 147/147/7
