# Blender 3.3.0
# www.blender.org
mtllib 59016.mtl
o model59016-node
v -128.000000 279.999969 -128.000031
v 127.999985 279.999969 -128.000061
v 31.999992 280.000000 -64.000046
v -0.000006 280.000000 -64.000046
v -127.999992 280.000000 -64.000038
v -128.000000 279.999969 -128.000031
v -0.000006 280.000000 -64.000046
v 31.999992 280.000000 -64.000046
v 127.999985 279.999969 -128.000061
v 127.999985 280.000000 -64.000053
v 32.000000 216.000015 63.999962
v 31.999992 280.000000 -64.000046
v 127.999985 280.000000 -64.000053
v 127.999992 216.000015 63.999954
v 0.000006 216.000015 63.999966
v 32.000000 216.000015 63.999962
v 128.000000 216.000015 127.999954
v -127.999985 216.000015 127.999977
v 32.000000 216.000015 63.999962
v 127.999992 216.000015 63.999954
v 128.000000 216.000015 127.999954
v -127.999985 216.000015 63.999977
v 0.000006 216.000015 63.999966
v -127.999985 216.000015 127.999977
v 24.999987 89.999977 -128.000015
v 0.000006 216.000015 63.999966
v -127.999985 216.000015 63.999977
v -25.000010 89.999977 -128.000015
v -0.000006 280.000000 -64.000046
v 25.000010 346.000031 127.999939
v -24.999987 346.000031 127.999947
v -127.999992 280.000000 -64.000038
v 127.999985 159.999985 -128.000031
v 127.999985 279.999969 -128.000061
v -128.000000 279.999969 -128.000031
v -128.000000 159.999985 -128.000015
v -0.000006 159.999985 -64.000023
v -0.000006 280.000000 -64.000046
v 31.999992 280.000000 -64.000046
v 31.999992 159.999985 -64.000031
v -128.000000 159.999985 -128.000015
v -128.000000 279.999969 -128.000031
v -127.999992 280.000000 -64.000038
v -127.999992 159.999985 -64.000015
v 127.999985 159.999985 -128.000031
v 127.999985 159.999985 -64.000038
v 127.999985 280.000000 -64.000053
v 127.999985 279.999969 -128.000061
v 31.999992 159.999985 -64.000031
v 31.999992 280.000000 -64.000046
v 32.000000 216.000015 63.999962
v 32.000000 96.000008 63.999981
v 127.999992 96.000008 63.999973
v 127.999992 216.000015 63.999954
v 127.999985 280.000000 -64.000053
v 127.999985 159.999985 -64.000038
v -127.999985 96.000023 127.999992
v -127.999985 96.000008 63.999996
v -127.999985 216.000015 63.999977
v -127.999985 216.000015 127.999977
v 32.000000 96.000008 63.999981
v 32.000000 216.000015 63.999962
v 0.000006 216.000015 63.999966
v 0.000006 96.000008 63.999985
v -127.999985 96.000023 127.999992
v -127.999985 216.000015 127.999977
v 128.000000 216.000015 127.999954
v 128.000000 96.000023 127.999969
v 128.000000 96.000023 127.999969
v 128.000000 216.000015 127.999954
v 127.999992 216.000015 63.999954
v 127.999992 96.000008 63.999973
v 0.000006 96.000008 63.999985
v 0.000006 216.000015 63.999966
v 24.999987 89.999977 -128.000015
v 24.999987 -0.000021 -128.000000
v -25.000010 -0.000021 -128.000000
v -25.000010 89.999977 -128.000015
v -127.999985 216.000015 63.999977
v -127.999985 96.000008 63.999996
v 25.000010 256.000031 127.999954
v 25.000010 346.000031 127.999939
v -0.000006 280.000000 -64.000046
v -0.000006 159.999985 -64.000023
v -127.999992 159.999985 -64.000015
v -127.999992 280.000000 -64.000038
v -24.999987 346.000031 127.999947
v -24.999987 256.000031 127.999962
v 31.999992 159.999985 -64.000031
v 127.999985 159.999985 -128.000031
v -128.000000 159.999985 -128.000015
v -0.000006 159.999985 -64.000023
v -128.000000 159.999985 -128.000015
v -127.999992 159.999985 -64.000015
v -0.000006 159.999985 -64.000023
v 31.999992 159.999985 -64.000031
v 127.999985 159.999985 -64.000038
v 127.999985 159.999985 -128.000031
v 127.999985 159.999985 -64.000038
v 31.999992 159.999985 -64.000031
v 32.000000 96.000008 63.999981
v 127.999992 96.000008 63.999973
v -127.999985 96.000008 63.999996
v -127.999985 96.000023 127.999992
v 32.000000 96.000008 63.999981
v 128.000000 96.000023 127.999969
v 127.999992 96.000008 63.999973
v 32.000000 96.000008 63.999981
v -127.999985 96.000023 127.999992
v -127.999985 96.000008 63.999996
v 0.000006 96.000008 63.999985
v 24.999987 -0.000021 -128.000000
v -25.000010 -0.000021 -128.000000
v -24.999987 256.000031 127.999962
v 25.000010 256.000031 127.999954
v -0.000006 159.999985 -64.000023
v -127.999992 159.999985 -64.000015
vn -0.0000 -1.0000 -0.0000
vn -0.0000 -0.8944 -0.4472
vn -0.0000 -0.8360 0.5487
vn -0.0000 -0.9457 0.3251
vn -0.0000 -0.0000 1.0000
vn -0.0000 -0.0000 -1.0000
vn 1.0000 -0.0000 -0.0000
vn -1.0000 -0.0000 -0.0000
vn -0.9916 -0.0000 -0.1291
vn 0.8812 -0.0000 0.4727
vn -0.9916 -0.0000 0.1291
vn 0.8812 -0.0000 -0.4727
vn -0.0000 1.0000 -0.0000
vn -0.0000 0.8944 0.4472
vn -0.0000 0.8944 -0.4472
vt 1.000000 0.000000
vt 0.000000 0.000000
vt 0.375000 -0.500000
vt 0.500000 -0.500000
vt 1.000000 -0.500000
vt 1.000000 0.000000
vt 0.500000 -0.500000
vt 0.375000 -0.500000
vt 0.000000 0.000000
vt 0.000000 -0.500000
vt 0.375000 -1.500000
vt 0.375000 -0.500000
vt 0.000000 -0.499023
vt 0.000000 -1.500000
vt 0.500000 -1.500000
vt 0.375000 -1.500000
vt 0.000000 -2.000000
vt 1.000000 -2.000000
vt 0.375000 -1.500000
vt 0.000000 -1.500000
vt 0.000000 -2.000000
vt 1.000000 -1.500000
vt 0.500000 -1.500000
vt 1.000000 -2.000000
vt 0.000000 0.000000
vt 0.163086 -1.000000
vt 1.000000 -0.999023
vt 0.327148 0.000000
vt 0.500000 -0.500000
vt 0.402344 -2.000000
vt 0.596680 -1.999020
vt 1.000000 -0.500000
vt 0.000000 -1.000000
vt 1.000000 -1.000000
vt 1.000000 0.000000
vt 0.000000 0.000000
vt 0.000000 -1.000000
vt 1.000000 -1.000000
vt 1.000000 0.000000
vt 0.000000 0.000000
vt 0.000000 -1.000000
vt 1.000000 -1.000000
vt 1.000000 0.000000
vt 0.000000 0.000000
vt 0.000000 -1.000000
vt 1.000000 -1.000000
vt 1.000000 0.000000
vt 0.000000 0.000000
vt 0.000000 -1.000000
vt 1.000000 -1.000000
vt 0.999023 0.000000
vt 0.000000 0.000000
vt 0.000000 -1.000000
vt 1.000000 -1.000000
vt 0.999023 0.000000
vt 0.000000 0.000000
vt 0.000000 -1.000000
vt 1.000000 -1.000000
vt 1.000000 0.000000
vt 0.000000 0.000000
vt 0.000000 -1.000000
vt 1.000000 -1.000000
vt 1.000000 0.000000
vt 0.000000 0.000000
vt 0.000000 -1.000000
vt 1.000000 -1.000000
vt 1.000000 0.000000
vt 0.000000 0.000000
vt 0.000000 -1.000000
vt 1.000000 -1.000000
vt 1.000000 0.000000
vt 0.000000 0.000000
vt 0.000000 -1.000000
vt 1.000000 -1.000000
vt 0.750000 0.000000
vt 0.000000 0.000000
vt 0.000000 -1.000000
vt 1.000000 -1.000000
vt 1.333010 0.000000
vt 0.000000 0.000000
vt 0.000000 -1.000000
vt 1.000000 -1.000000
vt 1.333010 0.000000
vt 0.000000 0.000000
vt 0.000000 -1.000000
vt 1.000000 -1.000000
vt 0.749023 0.000000
vt 0.000000 0.000000
vt 0.750000 -1.500000
vt 0.000000 -2.000000
vt 2.000000 -2.000000
vt 1.000000 -1.500000
vt 2.000000 -2.000000
vt 2.000000 -1.500000
vt 1.000000 -1.500000
vt 0.750000 -1.500000
vt 0.000000 -1.500000
vt 0.000000 -2.000000
vt 0.000000 -1.500000
vt 0.750000 -1.500000
vt 0.750000 -0.500000
vt 0.000000 -0.500000
vt 2.000000 -0.500000
vt 2.000000 0.000000
vt 0.750000 -0.500000
vt 0.000000 0.000000
vt 0.000000 -0.500000
vt 0.750000 -0.500000
vt 2.000000 0.000000
vt 2.000000 -0.500000
vt 1.000000 -0.500000
vt 0.803711 -1.999020
vt 1.195310 -2.000000
vt 1.195310 0.000000
vt 0.804688 0.000000
vt 1.000000 -1.500000
vt 2.000000 -1.500000
s 0
usemtl TEXTURE.122_3-material
f 1/1/1 2/2/1 3/3/1
f 1/1/1 3/3/1 4/4/1
f 5/5/1 6/6/1 7/7/1
f 8/8/1 9/9/1 10/10/1
f 11/11/2 12/12/2 13/13/2
f 11/11/2 13/13/2 14/14/2
f 15/15/1 16/16/1 17/17/1
f 15/15/1 17/17/1 18/18/1
f 19/19/1 20/20/1 21/21/1
f 22/22/1 23/23/1 24/24/1
f 25/25/3 26/26/3 27/27/3
f 25/25/3 27/27/3 28/28/3
f 29/29/4 30/30/4 31/31/4
f 29/29/4 31/31/4 32/32/4
usemtl TEXTURE.122_0-material
f 33/33/5 34/34/5 35/35/5
f 33/33/5 35/35/5 36/36/5
f 37/37/6 38/38/6 39/39/6
f 37/37/6 39/39/6 40/40/6
f 41/41/7 42/42/7 43/43/7
f 41/41/7 43/43/7 44/44/7
f 45/45/8 46/46/8 47/47/8
f 45/45/8 47/47/8 48/48/8
f 49/49/7 50/50/7 51/51/7
f 49/49/7 51/51/7 52/52/7
f 53/53/8 54/54/8 55/55/8
f 53/53/8 55/55/8 56/56/8
f 57/57/7 58/58/7 59/59/7
f 57/57/7 59/59/7 60/60/7
f 61/61/5 62/62/5 63/63/5
f 61/61/5 63/63/5 64/64/5
f 65/65/6 66/66/6 67/67/6
f 65/65/6 67/67/6 68/68/6
f 69/69/8 70/70/8 71/71/8
f 69/69/8 71/71/8 72/72/8
f 73/73/9 74/74/9 75/75/9
f 73/73/9 75/75/9 76/76/9
f 77/77/10 78/78/10 79/79/10
f 77/77/10 79/79/10 80/80/10
f 81/81/11 82/82/11 83/83/11
f 81/81/11 83/83/11 84/84/11
f 85/85/12 86/86/12 87/87/12
f 85/85/12 87/87/12 88/88/12
usemtl TEXTURE.122_2-material
f 89/89/13 90/90/13 91/91/13
f 89/89/13 91/91/13 92/92/13
f 93/93/13 94/94/13 95/95/13
f 96/96/13 97/97/13 98/98/13
f 99/99/14 100/100/14 101/101/14
f 99/99/14 101/101/14 102/102/14
f 103/103/13 104/104/13 105/105/13
f 106/106/13 107/107/13 108/108/13
f 106/106/13 108/108/13 109/109/13
f 110/110/15 111/111/15 112/112/15
f 110/110/15 112/112/15 113/113/15
f 114/114/15 115/115/15 116/116/15
f 114/114/15 116/116/15 117/117/15
