# Blender 3.3.0
# www.blender.org
mtllib 60203.mtl
o model60203-node
v -191.999985 -176.000015 -79.999954
v -256.000000 -128.000046 -255.999954
v -256.000000 -0.000042 -255.999985
v -255.999985 -0.000016 -95.999977
v -191.999985 -176.000015 -79.999954
v -256.000000 -0.000042 -255.999985
v 255.999969 -128.000046 -256.000000
v 147.999969 -176.000031 -145.999985
v 255.999969 -0.000016 -96.000023
v 255.999969 -0.000042 -256.000031
v 255.999969 -128.000046 -256.000000
v 255.999969 -0.000016 -96.000023
v -111.999969 -175.999954 256.000031
v -191.999969 -175.999985 96.000046
v -255.999969 0.000016 96.000023
v -255.999969 0.000042 256.000031
v -111.999969 -175.999954 256.000031
v -255.999969 0.000016 96.000023
v 176.000000 -127.999985 96.000008
v 112.000015 -215.999954 256.000031
v 256.000000 0.000042 255.999985
v 255.999985 0.000016 95.999977
v 176.000000 -127.999985 96.000008
v 256.000000 0.000042 255.999985
v -205.999985 -331.000000 -76.999931
v -191.999985 -176.000015 -79.999954
v -111.999985 -511.999969 112.000092
v -191.999985 -176.000015 -79.999954
v -191.999969 -175.999985 96.000046
v -111.999985 -511.999969 112.000092
v 255.999969 -128.000046 -256.000000
v 127.999969 -512.000061 -255.999924
v 147.999969 -176.000031 -145.999985
v -111.999969 -511.999969 256.000092
v -111.999985 -511.999969 112.000092
v -191.999969 -175.999985 96.000046
v -111.999969 -175.999954 256.000031
v -111.999969 -511.999969 256.000092
v -191.999969 -175.999985 96.000046
v 112.000000 -511.999969 112.000076
v 112.000015 -511.999969 256.000061
v 112.000015 -215.999954 256.000031
v 176.000000 -127.999985 96.000008
v 112.000000 -511.999969 112.000076
v 112.000015 -215.999954 256.000031
v 255.999969 -0.000016 -96.000023
v 147.999969 -176.000031 -145.999985
v 176.000000 -127.999985 96.000008
v 176.000000 -127.999985 96.000008
v 255.999985 0.000016 95.999977
v 255.999969 -0.000016 -96.000023
v -255.999969 0.000016 96.000023
v -191.999969 -175.999985 96.000046
v -191.999985 -176.000015 -79.999954
v -191.999985 -176.000015 -79.999954
v -255.999985 -0.000016 -95.999977
v -255.999969 0.000016 96.000023
v 256.000000 0.000042 255.999985
v 112.000015 -215.999954 256.000031
v -111.999969 -175.999954 256.000031
v -111.999969 -175.999954 256.000031
v -255.999969 0.000042 256.000031
v 256.000000 0.000042 255.999985
v -208.000000 -339.000031 -175.999924
v -128.000000 -512.000061 -255.999908
v -256.000000 -128.000046 -255.999954
v -191.999985 -176.000015 -79.999954
v -208.000000 -339.000031 -175.999924
v -256.000000 -128.000046 -255.999954
v -111.999992 -512.000000 -31.999907
v -205.999985 -331.000000 -76.999931
v -111.999985 -511.999969 112.000092
v 190.999985 -347.000000 28.000040
v 112.000000 -511.999969 112.000076
v 176.000000 -127.999985 96.000008
v 147.999969 -176.000031 -145.999985
v 190.999985 -347.000000 28.000040
v 176.000000 -127.999985 96.000008
v 190.999985 -347.000000 28.000040
v 147.999969 -176.000031 -145.999985
v 108.999985 -333.000031 -113.999954
v 127.999969 -512.000061 -255.999924
v 111.999992 -512.000000 -31.999926
v 108.999985 -333.000031 -113.999954
v 108.999985 -333.000031 -113.999954
v 147.999969 -176.000031 -145.999985
v 127.999969 -512.000061 -255.999924
v 108.999985 -333.000031 -113.999954
v 111.999992 -512.000000 -31.999926
v 190.999985 -347.000000 28.000040
v 111.999992 -512.000000 -31.999926
v -111.999992 -512.000000 -31.999907
v 112.000000 -511.999969 112.000076
v -111.999992 -512.000000 -31.999907
v -111.999985 -511.999969 112.000092
v 112.000000 -511.999969 112.000076
v -111.999992 -512.000000 -31.999907
v 111.999992 -512.000000 -31.999926
v 127.999969 -512.000061 -255.999924
v -128.000000 -512.000061 -255.999908
v -111.999992 -512.000000 -31.999907
v 127.999969 -512.000061 -255.999924
v -111.999969 -511.999969 256.000092
v 112.000015 -511.999969 256.000061
v 112.000000 -511.999969 112.000076
v -111.999985 -511.999969 112.000092
v -111.999969 -511.999969 256.000092
v 112.000000 -511.999969 112.000076
v 0.000043 -511.999908 496.000092
v 112.000015 -511.999969 256.000061
v -111.999969 -511.999969 256.000092
v 112.000015 -511.999969 256.000061
v 0.000022 -255.999954 256.000031
v 112.000015 -215.999954 256.000031
v -111.999969 -175.999954 256.000031
v 0.000022 -255.999954 256.000031
v -111.999969 -511.999969 256.000092
v -111.999969 -175.999954 256.000031
v 112.000015 -215.999954 256.000031
v 0.000022 -255.999954 256.000031
v -383.999969 -512.000000 16.000116
v -208.000000 -339.000031 -175.999924
v -191.999985 -176.000015 -79.999954
v -383.999969 -287.999969 128.000076
v -383.999969 -512.000000 16.000116
v -191.999985 -176.000015 -79.999954
v -383.999969 -287.999969 128.000076
v -205.999985 -331.000000 -76.999931
v -111.999992 -512.000000 -31.999907
v -383.999939 -511.999969 240.000122
v -383.999969 -287.999969 128.000076
v -111.999992 -512.000000 -31.999907
v -383.999969 -512.000000 16.000116
v -128.000000 -512.000061 -255.999908
v -208.000000 -339.000031 -175.999924
v -383.999969 -287.999969 128.000076
v -191.999985 -176.000015 -79.999954
v -205.999985 -331.000000 -76.999931
v 111.999992 -512.000000 -31.999926
v 383.999969 -512.000000 16.000050
v 383.999969 -255.999985 128.000015
v 112.000000 -511.999969 112.000076
v 190.999985 -347.000000 28.000040
v 384.000000 -511.999969 240.000046
v 111.999992 -512.000000 -31.999926
v 383.999969 -255.999985 128.000015
v 190.999985 -347.000000 28.000040
v 190.999985 -347.000000 28.000040
v 383.999969 -255.999985 128.000015
v 384.000000 -511.999969 240.000046
v -511.999969 -512.000000 16.000128
v -383.999969 -512.000000 16.000116
v -383.999969 -287.999969 128.000076
v -511.999969 -255.999985 128.000092
v -511.999969 -512.000000 16.000128
v -383.999969 -287.999969 128.000076
v -511.999969 -255.999985 128.000092
v -383.999969 -287.999969 128.000076
v -383.999939 -511.999969 240.000122
v -511.999939 -511.999969 240.000122
v -511.999969 -255.999985 128.000092
v -383.999939 -511.999969 240.000122
v 383.999969 -512.000000 16.000050
v 511.999969 -512.000000 16.000038
v 511.999969 -255.999985 128.000000
v 383.999969 -255.999985 128.000015
v 383.999969 -512.000000 16.000050
v 511.999969 -255.999985 128.000000
v 383.999969 -255.999985 128.000015
v 511.999969 -255.999985 128.000000
v 511.999969 -511.999969 240.000046
v 384.000000 -511.999969 240.000046
v 383.999969 -255.999985 128.000015
v 511.999969 -511.999969 240.000046
v 0.000034 -287.999939 384.000061
v 112.000015 -511.999969 256.000061
v 256.000000 -511.999969 272.000061
v 0.000034 -287.999939 384.000061
v 256.000000 -511.999969 272.000061
v 256.000000 -255.999939 384.000031
v 0.000043 -511.999908 496.000092
v 0.000034 -287.999939 384.000061
v 256.000000 -255.999939 384.000031
v 0.000043 -511.999908 496.000092
v 256.000000 -255.999939 384.000031
v 256.000000 -511.999908 496.000061
v -255.999954 -511.999969 272.000092
v -111.999969 -511.999969 256.000092
v 0.000034 -287.999939 384.000061
v -255.999954 -255.999939 384.000061
v -255.999954 -511.999969 272.000092
v 0.000034 -287.999939 384.000061
v -255.999954 -255.999939 384.000061
v 0.000034 -287.999939 384.000061
v 0.000043 -511.999908 496.000092
v -255.999939 -511.999908 496.000092
v -255.999954 -255.999939 384.000061
v 0.000043 -511.999908 496.000092
v 0.000034 -287.999939 384.000061
v -111.999969 -511.999969 256.000092
v 0.000022 -255.999954 256.000031
v 0.000022 -255.999954 256.000031
v 112.000015 -511.999969 256.000061
v 0.000034 -287.999939 384.000061
v -511.999939 -511.999969 240.000122
v -383.999939 -511.999969 240.000122
v -383.999969 -512.000000 16.000116
v -511.999969 -512.000000 16.000128
v -511.999939 -511.999969 240.000122
v -383.999969 -512.000000 16.000116
v 384.000000 -511.999969 240.000046
v 511.999969 -511.999969 240.000046
v 511.999969 -512.000000 16.000038
v 383.999969 -512.000000 16.000050
v 384.000000 -511.999969 240.000046
v 511.999969 -512.000000 16.000038
v -383.999939 -511.999969 240.000122
v -111.999992 -512.000000 -31.999907
v -128.000000 -512.000061 -255.999908
v -383.999969 -512.000000 16.000116
v -383.999939 -511.999969 240.000122
v -128.000000 -512.000061 -255.999908
v 112.000000 -511.999969 112.000076
v 384.000000 -511.999969 240.000046
v 383.999969 -512.000000 16.000050
v 111.999992 -512.000000 -31.999926
v 112.000000 -511.999969 112.000076
v 383.999969 -512.000000 16.000050
v 112.000015 -511.999969 256.000061
v 0.000043 -511.999908 496.000092
v 256.000000 -511.999908 496.000061
v 112.000015 -511.999969 256.000061
v 256.000000 -511.999908 496.000061
v 256.000000 -511.999969 272.000061
v -255.999939 -511.999908 496.000092
v 0.000043 -511.999908 496.000092
v -111.999969 -511.999969 256.000092
v -255.999954 -511.999969 272.000092
v -255.999939 -511.999908 496.000092
v -111.999969 -511.999969 256.000092
vn 0.9398 -0.0000 -0.3417
vn 0.9398 0.3417 -0.0000
vn -0.7011 0.5568 -0.4454
vn -1.0000 -0.0000 -0.0000
vn 0.8506 0.3093 -0.4253
vn 0.7740 0.6332 -0.0000
vn -0.8317 0.5545 -0.0277
vn -0.8480 0.5300 -0.0000
vn 0.8562 -0.0872 -0.5093
vn 0.9728 0.2316 -0.0000
vn -0.7432 0.2477 -0.6216
vn 0.8944 -0.0000 -0.4472
vn -0.9436 0.1449 -0.2978
vn -0.8516 0.5241 -0.0054
vn -0.0000 -0.0000 -1.0000
vn 0.9171 0.3057 0.2560
vn 0.9436 0.0943 -0.3174
vn 0.8875 0.4609 -0.0000
vn -0.8261 0.1147 -0.5517
vn -0.9847 -0.1096 0.1357
vn -0.8119 0.3033 0.4988
vn -0.9962 -0.0493 -0.0712
vn -0.9295 0.1635 -0.3305
vn -0.8359 0.2169 0.5041
vn -0.0000 1.0000 -0.0000
vn 0.8258 -0.3442 0.4468
vn 0.7759 -0.2821 0.5643
vn -0.7055 -0.4930 -0.5092
vn -0.6667 -0.3333 -0.6667
vn 0.7281 0.0198 0.6852
vn -0.7482 0.0548 -0.6612
vn -0.1596 -0.3957 0.9044
vn 0.3546 -0.5535 -0.7536
vn -0.4049 -0.1350 0.9043
vn 0.5530 -0.3340 -0.7633
vn -0.0000 -0.4472 0.8944
vn -0.0997 -0.3988 0.9116
vn -0.1111 -0.4444 -0.8889
vn -0.0000 -0.4008 -0.9162
vn -0.0000 -0.4008 0.9162
vn -0.0937 -0.5289 0.8435
vn 0.0500 -0.4003 0.9150
vn 0.0558 -0.4465 -0.8930
vn 0.0937 -0.5289 0.8435
vn -0.0500 -0.4003 0.9150
vn -0.0558 -0.4465 -0.8930
vn 0.9116 -0.3988 -0.0997
vn -0.9116 -0.3988 -0.0997
vt 0.000000 0.000000
vt 0.000000 -1.000000
vt 1.000000 -1.000000
vt 0.000000 0.000000
vt 0.000000 -1.000000
vt 1.000000 -1.000000
vt 0.000000 0.000000
vt 0.000000 -1.000000
vt 1.000000 -1.000000
vt 0.000000 0.000000
vt 0.000000 -1.000000
vt 1.000000 -1.000000
vt 0.000000 0.000000
vt 0.000000 -1.000000
vt 1.000000 -1.000000
vt 0.000000 0.000000
vt 0.000000 -1.000000
vt 1.000000 -1.000000
vt 0.000000 0.000000
vt 0.000000 -1.000000
vt 1.000000 -1.000000
vt 0.000000 0.000000
vt 0.000000 -1.000000
vt 1.000000 -1.000000
vt 0.000000 0.000000
vt 0.000000 -1.000000
vt 1.000000 -1.000000
vt 0.000000 0.000000
vt 0.000000 -1.000000
vt 1.000000 -1.000000
vt 0.000000 0.000000
vt 0.000000 -1.000000
vt 1.000000 -1.000000
vt 0.000000 0.000000
vt 0.000000 -1.000000
vt 1.000000 -1.000000
vt 0.000000 0.000000
vt 0.000000 -1.000000
vt 1.000000 -1.000000
vt 0.000000 0.000000
vt 0.000000 -1.000000
vt 1.000000 -1.000000
vt 0.000000 0.000000
vt 0.000000 -1.000000
vt 1.000000 -1.000000
vt 0.000000 0.000000
vt 0.000000 -1.000000
vt 1.000000 -1.000000
vt 0.000000 0.000000
vt 0.000000 -1.000000
vt 1.000000 -1.000000
vt 0.000000 0.000000
vt 0.000000 -1.000000
vt 1.000000 -1.000000
vt 0.000000 0.000000
vt 0.000000 -1.000000
vt 1.000000 -1.000000
vt 0.000000 0.000000
vt 0.000000 -1.000000
vt 1.000000 -1.000000
vt 0.000000 0.000000
vt 0.000000 -1.000000
vt 1.000000 -1.000000
vt 0.000000 0.000000
vt 0.000000 -1.000000
vt 1.000000 -1.000000
vt 0.000000 0.000000
vt 0.000000 -1.000000
vt 1.000000 -1.000000
vt 0.000000 0.000000
vt 0.000000 -1.000000
vt 1.000000 -1.000000
vt 0.000000 0.000000
vt 0.000000 -1.000000
vt 1.000000 -1.000000
vt 0.000000 0.000000
vt 0.000000 -1.000000
vt 1.000000 -1.000000
vt 0.000000 0.000000
vt 0.000000 -1.000000
vt 1.000000 -1.000000
vt 0.000000 0.000000
vt 0.000000 -1.000000
vt 1.000000 -1.000000
vt 0.000000 0.000000
vt 0.000000 -1.000000
vt 1.000000 -1.000000
vt 0.000000 0.000000
vt 0.000000 -1.000000
vt 1.000000 -1.000000
vt 2.500000 -2.953130
vt 3.899410 -2.953130
vt 2.500000 -2.149410
vt 4.875000 -4.218750
vt 4.875000 -3.070310
vt 3.125000 -3.070310
vt 4.875000 -4.218750
vt 3.125000 -4.218750
vt 3.000000 -6.005860
vt 1.000000 -1.000000
vt 0.937500 0.000000
vt 0.000000 -1.000000
vt 3.412110 -1.340820
vt 2.187500 -1.340820
vt 2.187500 -2.148440
vt 3.899410 -2.148440
vt 3.899410 -1.340820
vt 2.500000 -2.148440
vt 2.799810 0.000000
vt 2.187500 -1.627930
vt 3.412110 -1.627930
vt 0.609375 -0.699219
vt 0.009766 0.160156
vt 0.789063 0.439453
vt 1.000000 -1.000000
vt 0.000000 -0.761719
vt 0.479492 -0.022461
vt 1.000000 0.000000
vt 0.535156 -1.000000
vt 0.000000 -0.494141
vt 0.099609 -1.849610
vt 0.699219 -0.969727
vt 0.639648 0.030273
vt 0.000000 -0.509766
vt 0.099609 -1.849610
vt 0.659180 0.009766
vt 0.168945 -0.666016
vt 0.862305 -0.921875
vt 1.000000 -2.000000
vt 0.001953 -2.000000
vt 0.168945 -0.666016
vt 1.000000 -2.000000
vt 0.099609 -1.849610
vt 0.979492 -1.989260
vt 0.700195 -0.969727
vt 0.168945 -0.666016
vt 0.897461 0.000000
vt 0.862305 -0.921875
vt 1.000000 -1.000000
vt 0.048828 -1.000000
vt 0.001953 0.000000
vt 1.000000 -1.000000
vt 0.827148 -0.355469
vt 0.000000 -1.000000
vt 1.000000 -1.000000
vt 0.001953 0.000000
vt 0.704102 -0.355469
vt 0.827148 -0.355469
vt 0.109375 0.000000
vt 0.000000 -1.000000
vt 0.000000 -1.000000
vt 1.000000 -1.000000
vt 1.000000 -0.125000
vt 0.000000 0.000000
vt 0.000000 -1.000000
vt 1.000000 -0.125000
vt 0.828125 0.000000
vt 0.000000 -0.250000
vt 0.171875 -2.000000
vt 1.000000 -2.000000
vt 0.828125 0.000000
vt 0.171875 -2.000000
vt 0.000000 -1.000000
vt 1.000000 -1.000000
vt 1.000000 0.000000
vt 0.000000 0.000000
vt 0.000000 -1.000000
vt 1.000000 0.000000
vt 1.000000 0.000000
vt 0.000000 0.000000
vt 0.000000 -1.000000
vt 1.000000 -1.000000
vt 1.000000 0.000000
vt 0.000000 -1.000000
vt 0.000000 -0.180664
vt 1.011720 -1.000000
vt 2.000000 -0.966797
vt 0.000000 -0.180664
vt 2.000000 -0.966797
vt 1.773440 0.000000
vt 2.001950 -0.939453
vt 1.736330 -0.065430
vt 0.000000 0.000000
vt 2.001950 -0.939453
vt 0.000000 0.000000
vt 0.277344 -1.000000
vt 0.251953 -1.000000
vt 1.386720 -0.964844
vt 2.000000 -0.064453
vt 0.000000 0.000000
vt 0.251953 -1.000000
vt 2.000000 -0.064453
vt 1.720700 0.000000
vt 0.000000 -0.175781
vt 0.265625 -1.000000
vt 2.000000 -0.942383
vt 1.720700 0.000000
vt 0.265625 -1.000000
vt 0.000000 0.000000
vt 0.000000 -1.000000
vt 1.000000 -1.000000
vt 0.000000 0.000000
vt 0.000000 -1.000000
vt 1.000000 -1.000000
vt 0.000000 0.000000
vt 0.000000 -1.000000
vt 1.000000 -1.000000
vt 1.000000 0.000000
vt 0.000000 0.000000
vt 1.000000 -1.000000
vt 1.000000 -1.000000
vt 1.000000 0.000000
vt 0.000000 0.000000
vt 0.000000 -1.000000
vt 1.000000 -1.000000
vt 0.000000 0.000000
vt 1.000000 -1.000980
vt 0.625000 -0.187500
vt 0.000000 0.000000
vt 0.396484 -0.781250
vt 1.000000 -1.000980
vt 0.000000 0.000000
vt 0.470703 0.000000
vt 0.000000 -1.000000
vt 0.823242 -1.000000
vt 0.989258 -0.029297
vt 0.459961 -0.029297
vt 0.812500 -1.029300
vt 1.000000 -0.437500
vt 0.000000 0.000000
vt 0.000000 -1.000000
vt 1.000000 -0.419922
vt 0.000000 -0.982422
vt 0.932617 -0.982422
vt 1.000000 -1.000000
vt 1.000000 0.000000
vt 0.000000 -0.437500
vt 0.066406 -1.000000
vt 1.000000 -1.000000
vt 0.000000 -0.437500
s 0
usemtl TEXTURE.047_0-material
f 1/1/1 2/2/1 3/3/1
f 4/4/2 5/5/2 6/6/2
f 7/7/3 8/8/3 9/9/3
f 10/10/4 11/11/4 12/12/4
f 13/13/5 14/14/5 15/15/5
f 16/16/6 17/17/6 18/18/6
f 19/19/7 20/20/7 21/21/7
f 22/22/8 23/23/8 24/24/8
f 25/25/9 26/26/9 27/27/9
f 28/28/10 29/29/10 30/30/10
f 31/31/11 32/32/11 33/33/11
f 34/34/10 35/35/10 36/36/10
f 37/37/12 38/38/12 39/39/12
f 40/40/4 41/41/4 42/42/4
f 43/43/13 44/44/13 45/45/13
f 46/46/14 47/47/14 48/48/14
f 49/49/8 50/50/8 51/51/8
f 52/52/2 53/53/2 54/54/2
f 55/55/2 56/56/2 57/57/2
f 58/58/15 59/59/15 60/60/15
f 61/61/15 62/62/15 63/63/15
f 64/64/16 65/65/16 66/66/16
f 67/67/17 68/68/17 69/69/17
f 70/70/18 71/71/18 72/72/18
f 73/73/19 74/74/19 75/75/19
f 76/76/20 77/77/20 78/78/20
f 79/79/21 80/80/21 81/81/21
f 82/82/22 83/83/22 84/84/22
f 85/85/23 86/86/23 87/87/23
f 88/88/24 89/89/24 90/90/24
usemtl TEXTURE.047_2-material
f 91/91/25 92/92/25 93/93/25
f 94/94/25 95/95/25 96/96/25
f 97/97/25 98/98/25 99/99/25
f 100/100/25 101/101/25 102/102/25
f 103/103/25 104/104/25 105/105/25
f 106/106/25 107/107/25 108/108/25
f 109/109/25 110/110/25 111/111/25
usemtl TEXTURE.147_5-material
f 112/112/15 113/113/15 114/114/15
f 115/115/15 116/116/15 117/117/15
f 118/118/15 119/119/15 120/120/15
f 121/121/26 122/122/26 123/123/26
f 124/124/27 125/125/27 126/126/27
f 127/127/28 128/128/28 129/129/28
f 130/130/29 131/131/29 132/132/29
f 133/133/30 134/134/30 135/135/30
f 136/136/31 137/137/31 138/138/31
f 139/139/32 140/140/32 141/141/32
f 142/142/33 143/143/33 144/144/33
f 145/145/34 146/146/34 147/147/34
f 148/148/35 149/149/35 150/150/35
usemtl TEXTURE.147_3-material
f 151/151/36 152/152/36 153/153/36
f 154/154/37 155/155/37 156/156/37
f 157/157/38 158/158/38 159/159/38
f 160/160/39 161/161/39 162/162/39
f 163/163/40 164/164/40 165/165/40
f 166/166/40 167/167/40 168/168/40
f 169/169/39 170/170/39 171/171/39
f 172/172/39 173/173/39 174/174/39
f 175/175/41 176/176/41 177/177/41
f 178/178/42 179/179/42 180/180/42
f 181/181/43 182/182/43 183/183/43
f 184/184/39 185/185/39 186/186/39
f 187/187/44 188/188/44 189/189/44
f 190/190/45 191/191/45 192/192/45
f 193/193/46 194/194/46 195/195/46
f 196/196/39 197/197/39 198/198/39
f 199/199/47 200/200/47 201/201/47
f 202/202/48 203/203/48 204/204/48
usemtl TEXTURE.147_2-material
f 205/205/25 206/206/25 207/207/25
f 208/208/25 209/209/25 210/210/25
f 211/211/25 212/212/25 213/213/25
f 214/214/25 215/215/25 216/216/25
usemtl TEXTURE.147_6-material
f 217/217/25 218/218/25 219/219/25
f 220/220/25 221/221/25 222/222/25
f 223/223/25 224/224/25 225/225/25
f 226/226/25 227/227/25 228/228/25
f 229/229/25 230/230/25 231/231/25
f 232/232/25 233/233/25 234/234/25
f 235/235/25 236/236/25 237/237/25
f 238/238/25 239/239/25 240/240/25
