# Blender 3.3.0
# www.blender.org
mtllib 63032.mtl
o model63032-node
v -280.000000 23.999928 -447.999969
v -24.000015 23.999969 -192.000000
v -0.000017 -0.000031 -192.000000
v -256.000000 -0.000073 -447.999969
v -256.000000 125.999924 -448.000000
v -0.000017 125.999969 -192.000015
v -24.000015 23.999969 -192.000000
v -280.000000 23.999928 -447.999969
v 151.999969 23.999969 -192.000015
v 407.999939 23.999928 -448.000031
v 383.999939 -0.000073 -448.000031
v 127.999977 -0.000031 -192.000015
v 127.999977 125.999969 -192.000031
v 383.999939 125.999924 -448.000061
v 407.999939 23.999928 -448.000031
v 151.999969 23.999969 -192.000015
v -128.000031 -0.000073 -448.000000
v 63.999973 -0.000042 -256.000000
v 63.999973 23.999954 -280.000000
v -104.000031 23.999928 -448.000000
v 63.999973 125.999962 -256.000031
v -128.000031 125.999924 -448.000000
v -104.000031 23.999928 -448.000000
v 63.999973 23.999954 -280.000000
v 255.999939 125.999924 -448.000031
v 63.999973 125.999962 -256.000031
v 63.999973 23.999954 -280.000000
v 231.999939 23.999928 -448.000031
v 231.999939 23.999928 -448.000031
v 63.999973 23.999954 -280.000000
v 63.999973 -0.000042 -256.000000
v 255.999939 -0.000073 -448.000031
v -23.999992 24.000010 64.000000
v 0.000006 0.000010 64.000000
v -0.000017 -0.000031 -192.000000
v -24.000015 23.999969 -192.000000
v 0.000006 126.000008 63.999981
v -23.999992 24.000010 64.000000
v -24.000015 23.999969 -192.000000
v -0.000017 125.999969 -192.000015
v 151.999969 23.999969 -192.000015
v 127.999977 -0.000031 -192.000015
v 127.999992 0.000010 63.999989
v 151.999985 24.000010 63.999981
v 127.999977 125.999969 -192.000031
v 151.999969 23.999969 -192.000015
v 151.999985 24.000010 63.999981
v 127.999992 126.000008 63.999969
v 63.999973 125.999962 -256.000031
v 127.999977 125.999969 -192.000031
v -0.000017 125.999969 -192.000015
v -128.000031 -0.000073 -448.000000
v -256.000000 -0.000073 -447.999969
v -0.000017 -0.000031 -192.000000
v 127.999977 -0.000031 -192.000015
v 127.999977 -0.000031 -192.000015
v 383.999939 -0.000073 -448.000031
v 255.999939 -0.000073 -448.000031
v 63.999973 -0.000042 -256.000000
v -0.000017 -0.000031 -192.000000
v 0.000006 0.000010 64.000000
v 127.999992 0.000010 63.999989
v 127.999977 -0.000031 -192.000015
v 127.999977 125.999969 -192.000031
v 63.999973 125.999962 -256.000031
v 255.999939 125.999924 -448.000031
v 383.999939 125.999924 -448.000061
v -256.000000 125.999924 -448.000000
v -128.000031 125.999924 -448.000000
v 63.999973 125.999962 -256.000031
v -0.000017 125.999969 -192.000015
v 0.000006 126.000008 63.999981
v -0.000017 125.999969 -192.000015
v 127.999977 125.999969 -192.000031
v 127.999992 126.000008 63.999969
vn 0.5774 0.5774 -0.5774
vn 0.6975 -0.1641 -0.6975
vn -0.5774 0.5774 -0.5774
vn -0.6975 -0.1641 -0.6975
vn -0.5774 0.5774 0.5774
vn -0.6975 -0.1641 0.6975
vn 0.6975 -0.1641 0.6975
vn 0.5774 0.5774 0.5774
vn 0.7071 0.7071 -0.0000
vn 0.9734 -0.2290 -0.0000
vn -0.7071 0.7071 -0.0000
vn -0.9734 -0.2290 -0.0000
vn -0.0000 -1.0000 -0.0000
vn -0.0000 1.0000 -0.0000
vt 4.003910 0.000000
vt 0.179688 0.000000
vt 0.000000 -0.998047
vt 3.824220 -1.000000
vt 3.824220 0.000000
vt 0.000000 0.000000
vt 0.179688 -3.000000
vt 4.003910 -3.000000
vt 3.824220 0.000000
vt 0.000000 0.000000
vt 0.174805 -0.998047
vt 4.000000 -1.000000
vt 4.000000 0.000000
vt 0.179688 0.000000
vt 0.002930 -3.000000
vt 3.824220 -3.000000
vt 0.000000 -1.000000
vt 3.000000 -1.000000
vt 2.811520 0.000000
vt 0.187500 0.000000
vt 3.000000 0.000000
vt 0.000000 0.000000
vt 0.187500 -3.000000
vt 2.812500 -3.000000
vt 3.000000 0.000000
vt 0.000000 0.000000
vt 0.186523 -3.000000
vt 2.812500 -3.000000
vt 2.812500 0.000000
vt 0.187500 0.000000
vt 0.000000 -1.000000
vt 3.000000 -1.000000
vt 0.000000 0.000000
vt 0.000000 -1.000000
vt 3.000000 -1.000000
vt 3.000000 0.000000
vt 0.000000 0.000000
vt 0.000000 -3.000000
vt 3.000000 -2.998050
vt 3.000000 0.000000
vt 0.000000 0.000000
vt 0.000000 -1.000000
vt 3.000000 -1.000000
vt 3.000000 0.000000
vt 0.000000 0.000000
vt 0.000000 -3.000000
vt 3.000000 -2.998050
vt 3.000000 0.000000
vt 0.750000 0.000000
vt 0.000000 -1.000000
vt 1.500000 -1.000000
vt 0.390625 0.000000
vt -0.500000 0.000000
vt -0.916016 -10.583000
vt -0.025391 -10.583000
vt 2.187500 -2.000000
vt 3.984380 0.000000
vt 3.096680 0.000000
vt 1.750000 -1.500000
vt 1.296880 -2.000000
vt 1.296880 -4.000000
vt 2.187500 -4.000000
vt 2.187500 -2.000000
vt 0.000000 0.000000
vt 0.000000 -1.000000
vt 1.499020 -0.999023
vt 2.000000 0.000000
vt 2.000000 -1.000000
vt 1.500000 0.000000
vt 0.000000 0.000000
vt 0.000000 -1.000000
vt 0.000000 -1.000000
vt 2.000000 -1.000000
vt 2.000000 0.000000
vt 0.000000 0.000000
s 0
usemtl TEXTURE.122_4-material
f 1/1/1 2/2/1 3/3/1
f 1/1/1 3/3/1 4/4/1
f 5/5/2 6/6/2 7/7/2
f 5/5/2 7/7/2 8/8/2
f 9/9/3 10/10/3 11/11/3
f 9/9/3 11/11/3 12/12/3
f 13/13/4 14/14/4 15/15/4
f 13/13/4 15/15/4 16/16/4
f 17/17/5 18/18/5 19/19/5
f 17/17/5 19/19/5 20/20/5
f 21/21/6 22/22/6 23/23/6
f 21/21/6 23/23/6 24/24/6
f 25/25/7 26/26/7 27/27/7
f 25/25/7 27/27/7 28/28/7
f 29/29/8 30/30/8 31/31/8
f 29/29/8 31/31/8 32/32/8
f 33/33/9 34/34/9 35/35/9
f 33/33/9 35/35/9 36/36/9
f 37/37/10 38/38/10 39/39/10
f 37/37/10 39/39/10 40/40/10
f 41/41/11 42/42/11 43/43/11
f 41/41/11 43/43/11 44/44/11
f 45/45/12 46/46/12 47/47/12
f 45/45/12 47/47/12 48/48/12
f 49/49/13 50/50/13 51/51/13
usemtl TEXTURE.122_2-material
f 52/52/14 53/53/14 54/54/14
f 52/52/14 54/54/14 55/55/14
f 56/56/14 57/57/14 58/58/14
f 56/56/14 58/58/14 59/59/14
f 60/60/14 61/61/14 62/62/14
f 60/60/14 62/62/14 63/63/14
usemtl TEXTURE.122_3-material
f 64/64/13 65/65/13 66/66/13
f 64/64/13 66/66/13 67/67/13
f 68/68/13 69/69/13 70/70/13
f 68/68/13 70/70/13 71/71/13
f 72/72/13 73/73/13 74/74/13
f 72/72/13 74/74/13 75/75/13
