# Blender 3.3.1
# www.blender.org
mtllib 639.mtl
o model639-node
v -255.999969 129.000031 192.000000
v -255.999954 129.000046 320.000000
v 256.000000 129.000046 319.999969
v 256.000000 129.000031 191.999954
v 127.999992 387.000000 63.999928
v 127.999962 386.999939 -320.000061
v -256.000000 386.999939 -320.000031
v -255.999985 387.000000 63.999958
v -255.999985 258.000000 63.999981
v -255.999969 258.000031 191.999985
v 256.000000 258.000031 191.999939
v 255.999985 258.000000 63.999935
v 255.999954 257.999939 -320.000061
v 127.999962 257.999939 -320.000061
v 127.999992 258.000000 63.999947
v 255.999985 258.000000 63.999935
v -255.999954 0.000052 320.000031
v -255.999954 129.000046 320.000000
v -255.999969 129.000046 256.000000
v -255.999969 0.000042 256.000031
v -256.000000 -0.000052 -319.999969
v -256.000000 -0.000042 -255.999985
v -256.000000 386.999969 -256.000031
v -256.000000 386.999939 -320.000031
v 255.999969 -0.000042 -256.000031
v 255.999954 -0.000052 -320.000031
v 255.999954 257.999939 -320.000061
v 255.999969 257.999969 -256.000061
v 256.000000 129.000046 319.999969
v 256.000000 0.000052 319.999969
v 256.000000 0.000042 255.999985
v 256.000000 129.000046 255.999954
v -192.000015 -0.000052 -319.999969
v -256.000000 -0.000052 -319.999969
v -256.000000 386.999939 -320.000031
v -192.000015 386.999939 -320.000061
v 255.999954 -0.000052 -320.000031
v 191.999954 -0.000052 -320.000031
v 191.999954 257.999939 -320.000061
v 255.999954 257.999939 -320.000061
v -255.999969 129.000031 192.000000
v -255.999969 258.000031 191.999985
v -255.999969 258.000031 127.999977
v -255.999969 129.000015 128.000000
v 256.000000 129.000031 191.999954
v 256.000000 258.000031 191.999939
v 192.000000 258.000031 191.999939
v 192.000000 129.000031 191.999969
v -255.999969 258.000031 191.999985
v -255.999969 129.000031 192.000000
v -191.999969 129.000031 192.000000
v -191.999969 258.000031 191.999969
v 256.000000 258.000031 191.999939
v 256.000000 129.000031 191.999954
v 255.999985 129.000015 127.999954
v 255.999985 258.000031 127.999939
v -255.999985 258.000000 63.999981
v -255.999985 387.000000 63.999958
v -255.999985 387.000000 -0.000041
v -255.999985 258.000000 -0.000020
v 63.999969 386.999939 -320.000061
v 127.999962 386.999939 -320.000061
v 127.999962 257.999939 -320.000061
v 63.999969 257.999939 -320.000061
v 127.999962 257.999939 -320.000061
v 127.999962 386.999939 -320.000061
v 127.999969 386.999969 -256.000061
v 127.999969 257.999969 -256.000061
v 127.999992 387.000000 -0.000074
v 127.999992 387.000000 63.999928
v 127.999992 258.000000 63.999947
v 127.999992 258.000000 -0.000053
v 127.999992 258.000000 63.999947
v 127.999992 387.000000 63.999928
v 64.000000 387.000000 63.999931
v 64.000000 258.000000 63.999954
v -191.999985 387.000000 63.999954
v -255.999985 387.000000 63.999958
v -255.999985 258.000000 63.999981
v -191.999985 258.000000 63.999973
v 256.000000 0.000052 319.999969
v 256.000000 129.000046 319.999969
v 192.000015 129.000046 319.999969
v 192.000015 0.000052 319.999969
v -255.999954 129.000046 320.000000
v -255.999954 0.000052 320.000031
v -191.999954 0.000052 320.000031
v -191.999954 129.000046 320.000000
v -255.999969 129.000031 192.000000
v -255.999969 0.000031 192.000015
v -255.999969 0.000042 256.000031
v -255.999969 129.000046 256.000000
v -256.000000 -0.000042 -255.999985
v -256.000000 -0.000031 -191.999985
v -256.000000 386.999969 -192.000046
v -256.000000 386.999969 -256.000031
v 255.999969 -0.000031 -192.000015
v 255.999969 -0.000042 -256.000031
v 255.999969 257.999969 -256.000061
v 255.999969 257.999969 -192.000061
v 256.000000 129.000031 191.999954
v 256.000000 129.000046 255.999954
v 256.000000 0.000042 255.999985
v 256.000000 0.000031 191.999985
v -0.000028 128.999954 -320.000031
v 63.999969 128.999954 -320.000031
v 63.999969 -0.000052 -320.000000
v -0.000028 -0.000052 -320.000000
v -14.000027 1.999948 -320.000000
v -14.000027 91.999947 -320.000000
v -128.000015 128.999954 -320.000000
v -64.000023 128.999954 -320.000031
v -64.000023 -0.000052 -320.000000
v -128.000015 -0.000052 -320.000000
v -14.000027 91.999947 -320.000000
v -64.000023 91.999947 -320.000000
v -64.000023 128.999954 -320.000031
v -0.000028 128.999954 -320.000031
v -64.000023 1.999948 -320.000000
v -14.000027 1.999948 -320.000000
v -0.000028 -0.000052 -320.000000
v -64.000023 -0.000052 -320.000000
v -128.000015 128.999954 -320.000000
v -192.000015 128.999954 -320.000000
v -192.000015 386.999939 -320.000061
v -128.000015 386.999939 -320.000061
v 127.999962 257.999939 -320.000061
v 191.999954 257.999939 -320.000061
v 191.999954 128.999954 -320.000031
v 127.999962 128.999954 -320.000031
v -255.999969 129.000015 128.000000
v -255.999969 258.000031 127.999977
v -255.999985 258.000000 63.999981
v -255.999985 129.000015 64.000000
v 192.000000 129.000031 191.999969
v 192.000000 258.000031 191.999939
v 128.000000 258.000031 191.999954
v 128.000000 129.000031 191.999969
v -127.999977 258.000031 191.999969
v -191.999969 258.000031 191.999969
v -191.999969 129.000031 192.000000
v -127.999977 129.000031 191.999985
v 255.999985 258.000000 63.999935
v 255.999985 258.000031 127.999939
v 255.999985 129.000015 127.999954
v 255.999985 129.000015 63.999958
v -255.999985 387.000000 -64.000038
v -255.999985 258.000000 -64.000023
v -255.999985 258.000000 -0.000020
v -255.999985 387.000000 -0.000041
v -0.000028 386.999939 -320.000061
v 63.999969 386.999939 -320.000061
v 63.999969 257.999939 -320.000061
v -0.000028 257.999939 -320.000031
v 127.999977 386.999969 -192.000076
v 127.999977 257.999969 -192.000046
v 127.999969 257.999969 -256.000061
v 127.999969 386.999969 -256.000061
v 127.999985 387.000000 -64.000076
v 127.999992 387.000000 -0.000074
v 127.999992 258.000000 -0.000053
v 127.999985 258.000000 -64.000053
v 0.000006 387.000000 63.999935
v 0.000006 258.000000 63.999958
v 64.000000 258.000000 63.999954
v 64.000000 387.000000 63.999931
v -127.999985 387.000000 63.999947
v -191.999985 387.000000 63.999954
v -191.999985 258.000000 63.999973
v -127.999985 258.000000 63.999969
v 192.000015 0.000052 319.999969
v 192.000015 129.000046 319.999969
v 128.000015 129.000046 319.999969
v 128.000015 0.000052 320.000000
v -127.999962 129.000046 320.000000
v -191.999954 129.000046 320.000000
v -191.999954 0.000052 320.000031
v -127.999962 0.000052 320.000000
v -255.999969 0.000031 192.000015
v -255.999969 129.000031 192.000000
v -256.000000 128.999969 -192.000000
v -256.000000 -0.000031 -191.999985
v 255.999969 -0.000031 -192.000015
v 255.999969 128.999969 -192.000046
v 256.000000 129.000031 191.999954
v 256.000000 0.000031 191.999985
v -192.000015 -0.000052 -319.999969
v -192.000015 128.999954 -320.000000
v -128.000015 128.999954 -320.000000
v -128.000015 -0.000052 -320.000000
v 191.999954 128.999954 -320.000031
v 191.999954 -0.000052 -320.000031
v 63.999969 -0.000052 -320.000000
v 63.999969 128.999954 -320.000031
v -128.000015 128.999954 -320.000000
v -128.000015 257.999939 -320.000031
v 127.999962 257.999939 -320.000061
v 127.999962 128.999954 -320.000031
v -255.999985 129.000015 64.000000
v -255.999985 258.000000 63.999981
v -256.000000 257.999969 -192.000015
v -256.000000 128.999969 -192.000000
v 128.000000 129.000031 191.999969
v 128.000000 258.000031 191.999954
v -127.999977 258.000031 191.999969
v -127.999977 129.000031 191.999985
v 255.999969 128.999969 -192.000046
v 255.999969 257.999969 -192.000061
v 255.999985 258.000000 63.999935
v 255.999985 129.000015 63.999958
v -255.999985 258.000000 -64.000023
v -255.999985 387.000000 -64.000038
v -256.000000 386.999969 -192.000046
v -256.000000 257.999969 -192.000015
v -128.000015 257.999939 -320.000031
v -128.000015 386.999939 -320.000061
v -0.000028 386.999939 -320.000061
v -0.000028 257.999939 -320.000031
v 127.999977 257.999969 -192.000046
v 127.999977 386.999969 -192.000076
v 127.999985 387.000000 -64.000076
v 127.999985 258.000000 -64.000053
v 0.000006 258.000000 63.999958
v 0.000006 387.000000 63.999935
v -127.999985 387.000000 63.999947
v -127.999985 258.000000 63.999969
v 128.000015 0.000052 320.000000
v 128.000015 129.000046 319.999969
v -127.999962 129.000046 320.000000
v -127.999962 0.000052 320.000000
v -14.000027 91.999947 -320.000000
v -14.000027 1.999948 -320.000000
v -64.000023 1.999948 -320.000000
v -64.000023 91.999947 -320.000000
vn -0.0000 1.0000 -0.0000
vn -1.0000 -0.0000 -0.0000
vn 1.0000 -0.0000 -0.0000
vn -0.0000 -0.0000 -1.0000
vn -0.0000 -0.0000 1.0000
vt 8.000000 -2.000000
vt 8.000000 0.000000
vt 0.000000 0.000000
vt 0.000000 -2.000000
vt 0.000000 0.000000
vt 0.000000 -6.011720
vt 6.011720 -6.011720
vt 6.011720 0.000000
vt 8.000000 -2.000000
vt 8.000000 0.000000
vt 0.000000 0.000000
vt 0.000000 -2.000000
vt 0.000000 -6.000000
vt 2.000000 -6.000000
vt 2.000000 -0.023438
vt 0.000000 -0.023438
vt 0.000000 -1.000000
vt 0.000000 0.000000
vt 1.000000 0.000000
vt 1.000000 -1.000000
vt 0.000000 -3.000000
vt 1.000000 -3.000000
vt 1.000000 -0.002930
vt 0.000000 -0.002930
vt 1.000000 -2.000000
vt 0.000000 -2.000000
vt 0.000000 0.000000
vt 1.000000 0.000000
vt 0.000000 0.000000
vt 0.000000 -1.000000
vt 1.000000 -1.000000
vt 1.000000 0.000000
vt 1.000000 -3.000000
vt 0.000000 -3.000000
vt 0.000000 -0.002930
vt 1.000000 -0.002930
vt 0.000000 -1.000000
vt 1.000000 -1.000000
vt 1.000000 0.999512
vt 0.000000 0.999512
vt 0.000000 -1.000000
vt 0.000000 0.000000
vt 1.000000 0.000000
vt 1.000000 -1.000000
vt 0.000000 -1.000000
vt 0.000000 0.000000
vt 1.000000 0.000000
vt 1.000000 -1.000000
vt 0.000000 0.000000
vt 0.000000 -1.000000
vt 1.000000 -1.000000
vt 1.000000 0.000000
vt 0.000000 0.000000
vt 0.000000 -1.000000
vt 1.000000 -1.000000
vt 1.000000 0.000000
vt 0.000000 -1.000000
vt 0.000000 0.000000
vt 1.000000 0.000000
vt 1.000000 -1.000000
vt 1.000000 0.000000
vt 0.000000 0.000000
vt 0.000000 -1.000000
vt 1.000000 -1.000000
vt 0.000000 -1.000000
vt 0.000000 0.000000
vt 1.000000 0.000000
vt 1.000000 -1.000000
vt 1.000000 0.000000
vt 0.000000 0.000000
vt 0.000000 -1.000000
vt 1.000000 -1.000000
vt 0.000000 -1.000000
vt 0.000000 0.000000
vt 1.000000 0.000000
vt 1.000000 -1.000000
vt 1.000000 0.000000
vt 0.000000 0.000000
vt 0.000000 -1.000000
vt 1.000000 -1.000000
vt 0.000000 -1.000000
vt 0.000000 0.000000
vt 1.000000 0.000000
vt 1.000000 -1.000000
vt 0.000000 0.000000
vt 0.000000 -1.000000
vt 1.000000 -1.000000
vt 1.000000 0.000000
vt 0.000000 0.000000
vt 0.000000 -1.000000
vt 1.000000 -1.000000
vt 1.000000 0.000000
vt 1.000000 -3.000000
vt 2.000000 -3.000000
vt 2.000000 -0.002930
vt 1.000000 -0.002930
vt 0.000000 -1.000000
vt 1.000000 -1.000000
vt 1.000000 0.999512
vt 0.000000 0.999512
vt 1.000000 0.000000
vt 0.000000 0.000000
vt 0.000000 -1.000000
vt 1.000000 -1.000000
vt 4.000000 0.000000
vt 3.000000 0.000000
vt -10.946300 -0.999023
vt -9.946290 -0.999023
vt -9.510739 -0.983398
vt 0.218750 -0.286621
vt 1.000000 0.000000
vt 0.000000 0.000000
vt 0.000000 -1.000000
vt 1.000000 -1.000000
vt 0.218750 -0.286621
vt 1.000000 -0.286621
vt 0.999023 0.000000
vt 0.000000 0.000000
vt 1.000000 -0.984375
vt 0.218750 -0.984375
vt 0.000000 -1.000000
vt 1.000000 -1.000000
vt 0.000000 -2.000000
vt 1.000000 -2.000000
vt 1.000000 0.000000
vt 0.000000 0.000000
vt 1.000000 0.000000
vt 0.000000 0.000000
vt 0.000000 -1.000000
vt 1.000000 -1.000000
vt 1.000000 -1.000000
vt 1.000000 0.000000
vt 0.000000 0.000000
vt 0.000000 -1.000000
vt 1.000000 -1.000000
vt 1.000000 0.000000
vt 0.000000 0.000000
vt 0.000000 -1.000000
vt 1.000000 0.000000
vt 0.000000 0.000000
vt 0.000000 -1.000000
vt 1.000000 -1.000000
vt 1.000000 0.000000
vt 0.000000 0.000000
vt 0.000000 -1.000000
vt 1.000000 -1.000000
vt 0.000000 0.000000
vt 0.000000 -1.000000
vt 1.000000 -1.000000
vt 1.000000 0.000000
vt 1.000000 0.000000
vt 0.000000 0.000000
vt 0.000000 -1.000000
vt 1.000000 -1.000000
vt 0.000000 0.000000
vt 0.000000 -1.000000
vt 1.000000 -1.000000
vt 1.000000 0.000000
vt 1.000000 0.000000
vt 0.000000 0.000000
vt 0.000000 -1.000000
vt 1.000000 -1.000000
vt 0.000000 0.000000
vt 0.000000 -1.000000
vt 1.000000 -1.000000
vt 1.000000 0.000000
vt 1.000000 0.000000
vt 0.000000 0.000000
vt 0.000000 -1.000000
vt 1.000000 -1.000000
vt 1.000000 -1.000000
vt 1.000000 0.000000
vt 0.000000 0.000000
vt 0.000000 -1.000000
vt 1.000000 0.000000
vt 0.000000 0.000000
vt 0.000000 -1.000000
vt 1.000000 -1.000000
vt 0.000000 -1.000000
vt 0.000000 0.000000
vt 6.000000 0.000000
vt 6.000000 -1.000000
vt 0.000000 -1.000000
vt 0.000000 0.000000
vt 6.000000 0.000000
vt 6.000000 -1.000000
vt 1.000000 -1.000000
vt 1.000000 0.000000
vt 0.000000 0.000000
vt 0.000000 -1.000000
vt 0.000000 0.000000
vt 0.000000 -1.000000
vt 2.000000 -1.000000
vt 2.000000 0.000000
vt 4.000000 -1.000000
vt 4.000000 0.000000
vt 0.000000 0.000000
vt 0.000000 -1.000000
vt 4.000000 -1.000000
vt 4.000000 0.000000
vt 0.000000 0.000000
vt 0.000000 -1.000000
vt 4.000000 -1.000000
vt 4.000000 0.000000
vt 0.000000 0.000000
vt 0.000000 -1.000000
vt 4.000000 -1.000000
vt 4.000000 0.000000
vt 0.000000 0.000000
vt 0.000000 -1.000000
vt 2.000000 -1.000000
vt 2.000000 0.000000
vt 0.000000 0.000000
vt 0.000000 -1.000000
vt 2.000000 -1.000000
vt 2.000000 0.000000
vt 0.000000 0.000000
vt 0.000000 -1.000000
vt 2.000000 -1.000000
vt 2.000000 0.000000
vt 0.000000 0.000000
vt 0.000000 -1.000000
vt 2.000000 -1.000000
vt 2.000000 0.000000
vt 0.000000 0.000000
vt 0.000000 -1.000000
vt 4.000000 -1.000000
vt 4.000000 0.000000
vt 0.000000 0.000000
vt 0.000000 -1.000000
vt 0.000000 0.000000
vt 0.000000 -1.000000
vt 0.999023 -1.000000
vt 1.000000 0.000000
s 0
usemtl TEXTURE.069_0-material
f 1/1/1 2/2/1 3/3/1
f 1/1/1 3/3/1 4/4/1
f 5/5/1 6/6/1 7/7/1
f 5/5/1 7/7/1 8/8/1
f 9/9/1 10/10/1 11/11/1
f 9/9/1 11/11/1 12/12/1
f 13/13/1 14/14/1 15/15/1
f 13/13/1 15/15/1 16/16/1
usemtl TEXTURE.012_0-material
f 17/17/2 18/18/2 19/19/2
f 17/17/2 19/19/2 20/20/2
f 21/21/2 22/22/2 23/23/2
f 21/21/2 23/23/2 24/24/2
f 25/25/3 26/26/3 27/27/3
f 25/25/3 27/27/3 28/28/3
f 29/29/3 30/30/3 31/31/3
f 29/29/3 31/31/3 32/32/3
f 33/33/4 34/34/4 35/35/4
f 33/33/4 35/35/4 36/36/4
f 37/37/4 38/38/4 39/39/4
f 37/37/4 39/39/4 40/40/4
f 41/41/2 42/42/2 43/43/2
f 41/41/2 43/43/2 44/44/2
f 45/45/5 46/46/5 47/47/5
f 45/45/5 47/47/5 48/48/5
f 49/49/5 50/50/5 51/51/5
f 49/49/5 51/51/5 52/52/5
f 53/53/3 54/54/3 55/55/3
f 53/53/3 55/55/3 56/56/3
f 57/57/2 58/58/2 59/59/2
f 57/57/2 59/59/2 60/60/2
f 61/61/4 62/62/4 63/63/4
f 61/61/4 63/63/4 64/64/4
f 65/65/3 66/66/3 67/67/3
f 65/65/3 67/67/3 68/68/3
f 69/69/3 70/70/3 71/71/3
f 69/69/3 71/71/3 72/72/3
f 73/73/5 74/74/5 75/75/5
f 73/73/5 75/75/5 76/76/5
f 77/77/5 78/78/5 79/79/5
f 77/77/5 79/79/5 80/80/5
f 81/81/5 82/82/5 83/83/5
f 81/81/5 83/83/5 84/84/5
f 85/85/5 86/86/5 87/87/5
f 85/85/5 87/87/5 88/88/5
usemtl TEXTURE.012_1-material
f 89/89/2 90/90/2 91/91/2
f 89/89/2 91/91/2 92/92/2
f 93/93/2 94/94/2 95/95/2
f 93/93/2 95/95/2 96/96/2
f 97/97/3 98/98/3 99/99/3
f 97/97/3 99/99/3 100/100/3
f 101/101/3 102/102/3 103/103/3
f 101/101/3 103/103/3 104/104/3
f 105/105/4 106/106/4 107/107/4
f 105/105/4 107/107/4 108/108/4
f 105/105/4 108/108/4 109/109/4
f 105/105/4 109/109/4 110/110/4
f 111/111/4 112/112/4 113/113/4
f 111/111/4 113/113/4 114/114/4
f 115/115/4 116/116/4 117/117/4
f 115/115/4 117/117/4 118/118/4
f 119/119/4 120/120/4 121/121/4
f 119/119/4 121/121/4 122/122/4
f 123/123/4 124/124/4 125/125/4
f 123/123/4 125/125/4 126/126/4
f 127/127/4 128/128/4 129/129/4
f 127/127/4 129/129/4 130/130/4
f 131/131/2 132/132/2 133/133/2
f 131/131/2 133/133/2 134/134/2
f 135/135/5 136/136/5 137/137/5
f 135/135/5 137/137/5 138/138/5
f 139/139/5 140/140/5 141/141/5
f 139/139/5 141/141/5 142/142/5
f 143/143/3 144/144/3 145/145/3
f 143/143/3 145/145/3 146/146/3
f 147/147/2 148/148/2 149/149/2
f 147/147/2 149/149/2 150/150/2
f 151/151/4 152/152/4 153/153/4
f 151/151/4 153/153/4 154/154/4
f 155/155/3 156/156/3 157/157/3
f 155/155/3 157/157/3 158/158/3
f 159/159/3 160/160/3 161/161/3
f 159/159/3 161/161/3 162/162/3
f 163/163/5 164/164/5 165/165/5
f 163/163/5 165/165/5 166/166/5
f 167/167/5 168/168/5 169/169/5
f 167/167/5 169/169/5 170/170/5
f 171/171/5 172/172/5 173/173/5
f 171/171/5 173/173/5 174/174/5
f 175/175/5 176/176/5 177/177/5
f 175/175/5 177/177/5 178/178/5
usemtl TEXTURE.012_3-material
f 179/179/2 180/180/2 181/181/2
f 179/179/2 181/181/2 182/182/2
f 183/183/3 184/184/3 185/185/3
f 183/183/3 185/185/3 186/186/3
f 187/187/4 188/188/4 189/189/4
f 187/187/4 189/189/4 190/190/4
f 191/191/4 192/192/4 193/193/4
f 191/191/4 193/193/4 194/194/4
f 195/195/4 196/196/4 197/197/4
f 195/195/4 197/197/4 198/198/4
f 199/199/2 200/200/2 201/201/2
f 199/199/2 201/201/2 202/202/2
f 203/203/5 204/204/5 205/205/5
f 203/203/5 205/205/5 206/206/5
f 207/207/3 208/208/3 209/209/3
f 207/207/3 209/209/3 210/210/3
f 211/211/2 212/212/2 213/213/2
f 211/211/2 213/213/2 214/214/2
f 215/215/4 216/216/4 217/217/4
f 215/215/4 217/217/4 218/218/4
f 219/219/3 220/220/3 221/221/3
f 219/219/3 221/221/3 222/222/3
f 223/223/5 224/224/5 225/225/5
f 223/223/5 225/225/5 226/226/5
f 227/227/5 228/228/5 229/229/5
f 227/227/5 229/229/5 230/230/5
usemtl TEXTURE.074_0-material
f 231/231/4 232/232/4 233/233/4
f 231/231/4 233/233/4 234/234/4
