# Blender 3.3.0
# www.blender.org
mtllib 67016.mtl
o model67016-node
v -64.000000 127.999977 -128.000015
v 63.999985 127.999977 -128.000031
v 64.000023 384.000061 383.999939
v -63.999962 384.000061 383.999939
v -64.000000 -0.000021 -127.999992
v -64.000000 127.999977 -128.000015
v -63.999962 384.000061 383.999939
v -63.999962 256.000061 383.999969
v 64.000023 256.000061 383.999939
v 64.000023 384.000061 383.999939
v 63.999985 127.999977 -128.000031
v 63.999985 -0.000021 -128.000000
v 63.000031 256.000061 383.999939
v 63.000023 240.000046 319.999969
v -62.999969 240.000046 319.999969
v -62.999962 256.000061 383.999969
v -62.999969 224.000046 319.999969
v -62.999969 240.000046 319.999969
v 63.000023 240.000046 319.999969
v 63.000023 224.000046 319.999969
v 63.000023 224.000046 319.999969
v 63.000019 208.000046 255.999954
v -62.999973 208.000046 255.999969
v -62.999969 224.000046 319.999969
v -62.999973 192.000046 255.999969
v -62.999973 208.000046 255.999969
v 63.000019 208.000046 255.999954
v 63.000019 192.000046 255.999969
v 63.000019 192.000046 255.999969
v 63.000011 176.000031 191.999969
v -62.999981 176.000031 191.999969
v -62.999973 192.000046 255.999969
v -62.999981 160.000031 191.999985
v -62.999981 176.000031 191.999969
v 63.000011 176.000031 191.999969
v 63.000011 160.000031 191.999969
v 63.000011 160.000031 191.999969
v 63.000008 144.000015 127.999969
v -62.999985 144.000015 127.999985
v -62.999981 160.000031 191.999985
v -62.999985 128.000015 127.999985
v -62.999985 144.000015 127.999985
v 63.000008 144.000015 127.999969
v 63.000008 128.000015 127.999977
v 63.000008 128.000015 127.999977
v 63.000000 112.000008 63.999977
v -62.999992 112.000008 63.999989
v -62.999985 128.000015 127.999985
v -62.999992 96.000008 63.999989
v -62.999992 112.000008 63.999989
v 63.000000 112.000008 63.999977
v 63.000000 96.000008 63.999977
v 63.000000 96.000008 63.999977
v 62.999996 80.000000 -0.000019
v -62.999996 80.000000 -0.000008
v -62.999992 96.000008 63.999989
v -62.999996 64.000000 -0.000005
v -62.999996 80.000000 -0.000008
v 62.999996 80.000000 -0.000019
v 62.999996 64.000000 -0.000016
v 62.999996 64.000000 -0.000016
v 62.999992 47.999989 -64.000015
v -63.000000 47.999989 -64.000000
v -62.999996 64.000000 -0.000005
v -63.000000 31.999990 -64.000000
v -63.000000 47.999989 -64.000000
v 62.999992 47.999989 -64.000015
v 62.999992 31.999990 -64.000008
v 62.999992 31.999990 -64.000008
v 62.999985 15.999979 -128.000015
v -63.000008 15.999979 -128.000000
v -63.000000 31.999990 -64.000000
v -63.000008 -0.000021 -127.999992
v -63.000008 15.999979 -128.000000
v 62.999985 15.999979 -128.000015
v 62.999985 -0.000021 -128.000000
vn -0.0000 -0.8944 0.4472
vn 1.0000 -0.0000 -0.0000
vn -1.0000 -0.0000 -0.0000
vn -0.0000 0.9701 -0.2425
vn -0.0000 -0.0000 -1.0000
vt 0.000000 -5.004880
vt 1.000000 -5.004880
vt 1.000000 0.000000
vt 0.000000 0.000000
vt 8.000000 -7.984380
vt 8.000000 -5.328130
vt 0.000000 -0.013672
vt 0.000000 -2.671880
vt 8.000000 -2.671880
vt 8.000000 0.000000
vt 0.000000 -5.310550
vt 0.000000 -7.984380
vt 0.000000 -1.000000
vt 1.000000 -1.000000
vt 0.999023 0.000000
vt 0.000000 0.000000
vt 0.000000 -1.000000
vt 1.000000 -1.000000
vt 1.000000 0.000000
vt 0.000000 0.000000
vt 0.000000 -1.000000
vt 1.000000 -1.000000
vt 1.000000 0.000000
vt 0.000000 0.000000
vt 0.000000 -1.000000
vt 1.000000 -1.000000
vt 1.000000 0.000000
vt 0.000000 0.000000
vt 0.000000 -1.000000
vt 1.000000 -1.000000
vt 1.000000 0.000000
vt 0.000000 0.000000
vt 0.000000 -1.000000
vt 1.000000 -1.000000
vt 1.000000 0.000000
vt 0.000000 0.000000
vt 0.000000 -1.000000
vt 1.000000 -1.000000
vt 1.000000 0.000000
vt 0.000000 0.000000
vt 0.000000 -1.000000
vt 1.000000 -1.000000
vt 1.000000 0.000000
vt 0.000000 0.000000
vt 0.000000 -1.000000
vt 1.000000 -1.000000
vt 1.000000 0.000000
vt 0.000000 0.000000
vt 0.000000 -1.000000
vt 1.000000 -1.000000
vt 1.000000 0.000000
vt 0.000000 0.000000
vt 0.000000 -1.000000
vt 1.000000 -1.000000
vt 0.999023 0.000000
vt 0.000000 0.000000
vt 0.000000 -1.000000
vt 1.000000 -1.000000
vt 1.000000 0.000000
vt 0.000000 0.000000
vt 0.000000 -1.000000
vt 1.000000 -1.000000
vt 1.000000 0.000000
vt 0.000000 0.000000
vt 0.000000 -1.000000
vt 1.000000 -1.000000
vt 1.000000 0.000000
vt 0.000000 0.000000
vt 0.000000 -1.000000
vt 1.000000 -1.000000
vt 0.999023 0.000000
vt 0.000000 0.000000
vt 0.000000 -1.000000
vt 1.000000 -1.000000
vt 1.000000 0.000000
vt 0.000000 0.000000
s 0
usemtl TEXTURE.120_3-material
f 1/1/1 2/2/1 3/3/1
f 1/1/1 3/3/1 4/4/1
usemtl TEXTURE.120_0-material
f 5/5/2 6/6/2 7/7/2
f 5/5/2 7/7/2 8/8/2
f 9/9/3 10/10/3 11/11/3
f 9/9/3 11/11/3 12/12/3
usemtl TEXTURE.120_2-material
f 13/13/4 14/14/4 15/15/4
f 13/13/4 15/15/4 16/16/4
f 17/17/5 18/18/5 19/19/5
f 17/17/5 19/19/5 20/20/5
f 21/21/4 22/22/4 23/23/4
f 21/21/4 23/23/4 24/24/4
f 25/25/5 26/26/5 27/27/5
f 25/25/5 27/27/5 28/28/5
f 29/29/4 30/30/4 31/31/4
f 29/29/4 31/31/4 32/32/4
f 33/33/5 34/34/5 35/35/5
f 33/33/5 35/35/5 36/36/5
f 37/37/4 38/38/4 39/39/4
f 37/37/4 39/39/4 40/40/4
f 41/41/5 42/42/5 43/43/5
f 41/41/5 43/43/5 44/44/5
f 45/45/4 46/46/4 47/47/4
f 45/45/4 47/47/4 48/48/4
f 49/49/5 50/50/5 51/51/5
f 49/49/5 51/51/5 52/52/5
f 53/53/4 54/54/4 55/55/4
f 53/53/4 55/55/4 56/56/4
f 57/57/5 58/58/5 59/59/5
f 57/57/5 59/59/5 60/60/5
f 61/61/4 62/62/4 63/63/4
f 61/61/4 63/63/4 64/64/4
f 65/65/5 66/66/5 67/67/5
f 65/65/5 67/67/5 68/68/5
f 69/69/4 70/70/4 71/71/4
f 69/69/4 71/71/4 72/72/4
f 73/73/5 74/74/5 75/75/5
f 73/73/5 75/75/5 76/76/5
