# Blender v2.82 (sub 7) OBJ File: '63026.blend'
# www.blender.org
mtllib 63026.mtl
o model63026-node_model63026
v -0.600000 3.799999 -4.800001
v -0.000000 6.349999 -4.800001
v 0.000000 3.150000 1.600000
v -0.600000 0.600000 1.600000
v 3.199999 6.349999 -4.800001
v 3.799999 3.799999 -4.800001
v 3.800000 0.600000 1.600000
v 3.200000 3.150000 1.599999
v -0.000000 3.199999 -4.800001
v -0.600000 3.799999 -4.800001
v -0.600000 0.600000 1.600000
v 0.000000 0.000000 1.600000
v 3.200000 0.000000 1.600000
v 3.800000 0.600000 1.600000
v 3.799999 3.799999 -4.800001
v 3.199999 3.199999 -4.800001
v 3.199894 0.000000 1.600000
v 0.000000 0.000000 1.600000
v 3.275000 0.325000 1.100000
v -0.075000 0.325000 1.100000
v -0.325000 0.325000 1.600000
v 3.525000 0.325000 1.600000
v 3.275000 0.650000 0.500000
v -0.075000 0.650000 0.500000
v -0.375000 0.625000 1.100000
v 3.575000 0.625000 1.100000
v 3.275000 0.925000 -0.100000
v -0.075000 0.925000 -0.100000
v -0.375000 0.925000 0.500000
v 3.575000 0.925000 0.500000
v 3.275000 1.225000 -0.700000
v -0.075000 1.225000 -0.700000
v -0.375000 1.225000 -0.100000
v 3.575000 1.225000 -0.100000
v 3.274999 1.525000 -1.300001
v -0.075000 1.525000 -1.300000
v -0.375000 1.525000 -0.700000
v 3.575000 1.525000 -0.700001
v 3.274999 1.825000 -1.900001
v -0.075000 1.825000 -1.900000
v -0.375000 1.825000 -1.300000
v 3.575000 1.825000 -1.300001
v 3.274999 2.125000 -2.500001
v -0.075000 2.125000 -2.500000
v -0.375000 2.125000 -1.900000
v 3.575000 2.125000 -1.900001
v 3.274999 2.424999 -3.100001
v -0.075000 2.424999 -3.100000
v -0.375000 2.425000 -2.500000
v 3.574999 2.425000 -2.500001
v 3.275000 2.724999 -3.700001
v -0.075000 2.724999 -3.700001
v -0.375000 2.724999 -3.100000
v 3.574999 2.724999 -3.100001
v 3.274999 3.024999 -4.300001
v -0.075000 3.024999 -4.300001
v -0.375000 3.024999 -3.700001
v 3.574999 3.024999 -3.700001
v 3.200000 3.200000 -4.800000
v 0.000000 3.200000 -4.800000
v -0.250000 3.200000 -4.300001
v 3.450000 3.200000 -4.300001
v 3.199999 3.200000 -4.800001
v -0.000000 3.200000 -4.800001
v 0.000000 0.000001 1.600000
v 3.200000 0.000001 1.600000
v 0.000000 3.150000 1.600000
v -0.000000 6.349999 -4.800001
v 3.199999 6.349999 -4.800001
v 3.200000 3.150000 1.599999
vt 3.449220 -2.994140
vt 4.000000 0.000000
vt 0.549805 -0.003906
vt 0.000000 -3.000000
vt 0.000000 0.000000
vt 0.546875 -2.970700
vt 3.999020 -3.000000
vt 3.453130 -0.029297
vt 3.855470 -0.955078
vt 4.000000 0.000000
vt 0.144531 -0.042969
vt 0.000000 -1.000000
vt 4.000000 -1.000000
vt 3.855470 -0.042969
vt 0.000000 0.000000
vt 0.144531 -0.955078
vt -0.196382 -1.029634
vt -0.080294 -1.145721
vt 1.062682 -1.145717
vt 1.178807 -1.029629
vt 1.089915 -0.851033
vt -0.107084 -0.851038
vt 1.089913 -0.529373
vt -0.107086 -0.529378
vt -0.214243 -0.743880
vt 1.196666 -0.743875
vt 1.089913 -0.216830
vt -0.107088 -0.216834
vt -0.214245 -0.431150
vt 1.196665 -0.431145
vt 1.089912 0.104643
vt -0.107089 0.104640
vt -0.214247 -0.109675
vt 1.196664 -0.109672
vt 1.089911 0.426116
vt -0.107091 0.426115
vt -0.214248 0.211799
vt 1.196663 0.211801
vt 1.089912 0.747590
vt -0.107093 0.747589
vt -0.214250 0.533274
vt 1.196663 0.533274
vt 1.196666 1.819171
vt -0.214252 1.819173
vt -0.107094 1.712013
vt 1.089914 1.712012
vt -0.178532 2.104928
vt -0.107093 2.033489
vt 1.089914 2.033488
vt 1.160947 2.104927
vt 1.089912 1.069064
vt -0.107094 1.069064
vt -0.214252 0.854749
vt 1.196664 0.854748
vt 1.196664 1.176222
vt -0.214252 1.176223
vt -0.214252 1.497697
vt -0.107094 1.390539
vt 1.089913 1.390538
vt 1.196665 1.497696
vt 1.072055 2.283525
vt -0.089233 2.283525
vt 0.000000 -1.000000
vt 1.000000 -1.000000
vt 1.000000 0.000000
vt 0.000000 0.000000
vt 0.000000 -1.000000
vt 2.000000 -1.000000
vt 1.999020 0.000000
vt 0.000000 0.000000
vn 0.9671 -0.2276 -0.1138
vn -0.9671 -0.2276 -0.1138
vn 0.6667 0.6667 0.3333
vn -0.6667 0.6667 0.3333
vn 0.0000 0.0000 1.0000
vn 0.0000 1.0000 0.0000
vn 0.0000 0.9991 0.0416
vn 0.0000 0.8944 0.4472
vn 0.0000 -0.8944 -0.4472
usemtl 122_4-0
s off
f 1/1/1 2/2/1 3/3/1
f 1/1/1 3/3/1 4/4/1
f 5/5/2 6/6/2 7/7/2
f 5/5/2 7/7/2 8/8/2
f 9/9/3 10/10/3 11/11/3
f 9/9/3 11/11/3 12/12/3
f 13/13/4 14/14/4 15/15/4
f 13/13/4 15/15/4 16/16/4
usemtl 122_2-0
f 21/17/5 18/18/5 17/19/5
f 21/17/5 17/19/5 22/20/5
f 19/21/6 20/22/6 21/17/6
f 19/21/6 21/17/6 22/20/6
f 23/23/7 24/24/7 25/25/7
f 23/23/7 25/25/7 26/26/7
f 27/27/6 28/28/6 29/29/6
f 27/27/6 29/29/6 30/30/6
f 31/31/6 32/32/6 33/33/6
f 31/31/6 33/33/6 34/34/6
f 35/35/6 36/36/6 37/37/6
f 35/35/6 37/37/6 38/38/6
f 39/39/6 40/40/6 41/41/6
f 39/39/6 41/41/6 42/42/6
f 58/43/5 57/44/5 52/45/5 51/46/5
f 61/47/5 56/48/5 55/49/5 62/50/5
f 43/51/6 44/52/6 45/53/6
f 43/51/6 45/53/6 46/54/6
f 43/51/5 50/55/5 49/56/5 44/52/5
f 53/57/5 48/58/5 47/59/5 54/60/5
f 47/59/6 48/58/6 49/56/6
f 47/59/6 49/56/6 50/55/6
f 35/35/5 42/42/5 41/41/5 36/36/5
f 39/39/5 46/54/5 45/53/5 40/40/5
f 51/46/6 52/45/6 53/57/6
f 51/46/6 53/57/6 54/60/6
f 27/27/5 34/34/5 33/33/5 28/28/5
f 31/31/5 38/38/5 37/37/5 32/32/5
f 55/49/6 56/48/6 57/44/6
f 55/49/6 57/44/6 58/43/6
f 19/21/5 26/26/5 25/25/5 20/22/5
f 23/23/5 30/30/5 29/29/5 24/24/5
f 59/61/6 60/62/6 61/47/6
f 59/61/6 61/47/6 62/50/6
f 63/63/8 64/64/8 65/65/8
f 63/63/8 65/65/8 66/66/8
usemtl 122_3-0
f 67/67/9 68/68/9 69/69/9
f 67/67/9 69/69/9 70/70/9
