# Blender v2.91.0 OBJ File: '67028.blend'
# www.blender.org
mtllib 67028.mtl
o model67028-node_model67028
v -1.600000 -9.600001 -3.199998
v -1.600000 -9.600000 -3.000000
v -1.600000 9.600001 3.199999
v -1.600000 -6.400001 -3.199999
v -1.600000 12.800000 -0.000002
v -1.600000 12.800000 3.199998
v 1.600000 9.600001 3.199998
v 1.600000 -9.600000 -3.000000
v 1.600000 -9.600001 -3.199999
v 1.600000 12.800000 3.199998
v 1.600000 12.800000 -0.000002
v 1.600000 -6.400001 -3.199999
v -1.600000 -6.400001 -3.199999
v 1.600000 -6.400001 -3.199999
v 1.600000 12.799999 -0.000002
v -1.600000 12.799999 -0.000002
v 1.600000 -9.600000 -3.000000
v -1.600000 -9.600000 -3.000000
v -1.600000 9.600001 3.199999
v 1.600000 9.600001 3.199998
v -1.600000 12.800000 -0.000002
v 1.600000 12.800000 -0.000002
v 1.600000 12.800000 3.199998
v -1.600000 12.800000 3.199998
v 1.600000 -9.600001 -3.199999
v -1.600000 -9.600001 -3.199998
v -1.600000 -9.600000 -3.000000
v 1.600000 -9.600000 -3.000000
vt 1.937500 -13.968750
vt 2.000000 -13.968750
vt 2.000000 -11.968750
vt 0.000000 -2.000000
vt 1.000000 -0.000000
vt 0.000000 -0.000000
vt -0.890625 -14.031250
vt 1.000000 -2.000000
vt -1.000000 -14.000000
vt 1.000000 0.000000
vt 0.000000 -0.000000
vt -1.000000 -12.000000
vt 0.000000 -12.023399
vt 1.000000 -12.023399
vt 1.000000 0.000000
vt 0.000000 0.000000
vt 0.000000 -12.023399
vt 1.000000 -12.023399
vt 1.000000 0.000000
vt 0.000000 0.000000
vt 0.000000 -1.000000
vt 1.000000 -1.000000
vt 1.000000 0.000000
vt 0.000000 0.000000
vt 0.000025 0.000025
vt 0.999975 0.000025
vt 0.999975 0.062522
vt 0.000025 0.062522
vn 1.0000 0.0000 0.0000
vn -1.0000 -0.0000 0.0000
vn 0.0000 -0.1644 0.9864
vn -0.0000 0.3073 -0.9516
vn 0.0000 -1.0000 0.0000
vn -0.0000 1.0000 -0.0000
usemtl 120_0-0
s off
f 2/1/1 1/2/1 4/3/1
f 4/3/1 3/4/1 2/1/1
f 3/4/1 4/3/1 5/5/1
f 3/4/1 5/5/1 6/6/1
f 8/7/2 7/8/2 9/9/2
f 9/9/2 10/10/2 11/11/2
f 9/9/2 11/11/2 12/12/2
f 13/13/3 14/14/3 15/15/3
f 13/13/3 15/15/3 16/16/3
f 17/17/4 18/18/4 19/19/4
f 17/17/4 19/19/4 20/20/4
f 9/9/2 7/8/2 10/10/2
usemtl 120_3-0
f 21/21/5 22/22/5 23/23/5
f 21/21/5 23/23/5 24/24/5
usemtl 120_2-0
f 25/25/6 26/26/6 27/27/6
f 25/25/6 27/27/6 28/28/6
