# Blender v2.82 (sub 7) OBJ File: '61004.blend'
# www.blender.org
mtllib 61004.mtl
o model61004-node_model61004.002
v 0.850000 -0.000000 -0.900000
v 0.850000 2.399902 -0.900001
v 1.600000 2.400000 -3.200000
v 1.600000 0.000000 -3.200000
v -1.900000 2.399902 -2.500000
v -1.900000 -0.000000 -2.500000
v -1.600000 0.000000 -3.200000
v -1.600000 2.400000 -3.200001
v -2.500000 -0.000000 -1.900000
v -2.500000 2.399902 -1.900000
v -3.200000 2.400000 -1.600000
v -3.200000 0.000000 -1.600000
v -0.900000 2.400000 0.899902
v -0.900000 0.000000 0.900000
v -3.200000 0.000000 1.600000
v -3.200000 2.400000 1.600000
v 0.850000 -0.000000 -0.900000
v -0.900000 0.000000 0.900000
v -0.900000 2.400000 0.899902
v 0.850000 2.399902 -0.900001
v -2.500000 -0.000000 -1.900000
v -1.900000 -0.000000 -2.500000
v -1.900000 2.399902 -2.500000
v -2.500000 2.399902 -1.900000
v -1.900000 -0.000000 -2.500000
v 0.850000 -0.000000 -0.900000
v 1.600000 0.000000 -3.200000
v -1.600000 0.000000 -3.200000
v -0.900000 0.000000 0.900000
v -2.500000 -0.000000 -1.900000
v -3.200000 0.000000 -1.600000
v -3.200000 0.000000 1.600000
v -1.900000 -0.000000 -2.500000
v -2.500000 -0.000000 -1.900000
v -0.900000 0.000000 0.900000
v 0.850000 -0.000000 -0.900000
v 1.600000 2.400000 -3.200000
v 0.850000 2.399902 -0.900001
v 0.200000 3.199900 -1.300001
v 0.800000 3.199900 -3.200000
v 0.200000 3.199900 -1.300001
v -1.200000 3.199900 -2.100000
v -0.800000 3.199900 -3.200001
v 0.800000 3.199900 -3.200000
v -0.800000 3.199900 -3.200001
v -1.200000 3.199900 -2.100000
v -1.900000 2.399902 -2.500000
v -2.500000 2.399902 -1.900000
v -2.100000 3.199900 -1.200000
v -3.200000 3.199900 -0.800000
v -2.100000 3.199900 -1.200000
v -1.300000 3.200000 0.199902
v -3.200001 3.200000 0.800000
v -3.200000 3.199900 -0.800000
v -3.200000 2.400000 1.600000
v -3.200001 3.200000 0.800000
v -1.300000 3.200000 0.199902
v -0.900000 2.400000 0.899902
v -0.900000 2.400000 0.899902
v -1.300000 3.200000 0.199902
v 0.200000 3.199900 -1.300001
v -2.500000 2.399902 -1.900000
v -1.900000 2.399902 -2.500000
v -1.200000 3.199900 -2.100000
v -2.100000 3.199900 -1.200000
v -2.100000 3.199900 -1.200000
v -1.200000 3.199900 -2.100000
v 0.200000 3.199900 -1.300001
v -1.300000 3.200000 0.199902
v -1.900000 2.399902 -2.500000
v -1.600000 2.400000 -3.200001
v -0.800000 3.199900 -3.200001
v -3.200000 3.199900 -0.800000
v -3.200000 2.400000 -1.600000
v -2.500000 2.399902 -1.900000
v 0.200000 3.199900 -1.300001
v 0.850000 2.399902 -0.900001
v -0.900000 2.400000 0.899902
vt 1.269530 -3.000000
vt 1.269530 0.000000
vt 0.000000 -0.029297
vt 0.000000 -3.000000
vt 0.687500 0.000000
vt 0.687500 -3.000000
vt 0.999023 -3.000000
vt 1.000000 0.000000
vt 0.312500 -3.000000
vt 0.312500 0.000000
vt 0.000000 0.000000
vt 0.000000 -3.000000
vt 2.750000 0.000000
vt 2.750000 -3.000000
vt 3.999020 -3.000000
vt 4.000000 0.000000
vt 1.269530 -3.000000
vt 2.750000 -3.000000
vt 2.749020 0.000000
vt 1.269530 0.000000
vt 0.312500 -3.000000
vt 0.687500 -3.000000
vt 0.687500 0.000000
vt 0.312500 0.000000
vt 0.405273 -0.217773
vt 1.264650 -0.718750
vt 1.499020 -0.002930
vt 0.499023 0.000000
vt 0.718750 -1.280270
vt 0.217773 -0.406250
vt 0.000000 -0.500000
vt 0.000000 -1.500000
vt 0.406250 -0.217773
vt 0.218750 -0.405273
vt 0.718750 -1.280270
vt 1.265630 -0.718750
vt 3.002930 -1.011720
vt 2.047850 -1.000000
vt 1.967770 -0.013672
vt 2.750980 0.000000
vt 1.000000 -0.986328
vt 0.819336 0.000000
vt 0.232422 -0.039062
vt 0.000000 -1.000000
vt 0.093750 0.000000
vt 0.456055 0.039062
vt 0.328125 -1.000000
vt 0.625000 -1.000000
vt 0.683594 0.041016
vt 1.000000 0.000000
vt 0.170898 0.000000
vt 0.000000 -1.000000
vt 0.999023 -0.984375
vt 0.757813 -0.031250
vt 0.005859 -1.000000
vt 0.257813 0.011719
vt 1.032230 0.009766
vt 0.940430 -1.000000
vt 0.940430 -1.000000
vt 1.039060 0.019531
vt 1.971680 0.000000
vt 0.609375 -1.000000
vt 0.359375 -1.000000
vt 0.295898 0.000000
vt 0.671875 0.000000
vt 0.799805 0.000000
vt 0.200195 0.000000
vt 0.000000 -1.000000
vt 1.000000 -1.000000
vt 0.328125 -1.000000
vt 0.093750 -1.000000
vt 0.093750 0.000000
vt 1.000000 0.000000
vt 0.833008 -1.000000
vt 0.625000 -1.000000
vt 1.971680 0.000000
vt 2.047850 -1.000000
vt 0.940430 -1.000000
vn -0.9507 -0.0000 -0.3100
vn 0.9191 0.0000 0.3939
vn 0.3939 0.0000 0.9191
vn -0.2912 -0.0000 -0.9567
vn -0.7170 -0.0000 -0.6971
vn 0.7071 0.0000 0.7071
vn -0.0000 1.0000 0.0000
vn -0.6971 -0.6800 -0.2273
vn -0.6901 -0.6902 -0.2179
vn 0.0000 -1.0000 0.0000
vn 0.6668 -0.7047 0.2425
vn 0.2425 -0.7047 0.6668
vn 0.0000 -1.0000 0.0001
vn -0.2180 -0.6901 -0.6901
vn -0.2077 -0.7009 -0.6823
vn -0.5070 -0.6971 -0.5070
vn 0.5070 -0.6971 0.5070
vn 0.6767 -0.6768 0.2899
vn 0.2899 -0.6768 0.6767
vn -0.5248 -0.6814 -0.5102
usemtl 122_0-0
s off
f 1/1/1 2/2/1 3/3/1
f 1/1/1 3/3/1 4/4/1
f 5/5/2 6/6/2 7/7/2
f 5/5/2 7/7/2 8/8/2
f 9/9/3 10/10/3 11/11/3
f 9/9/3 11/11/3 12/12/3
f 13/13/4 14/14/4 15/15/4
f 13/13/4 15/15/4 16/16/4
f 17/17/5 18/18/5 19/19/5
f 17/17/5 19/19/5 20/20/5
f 21/21/6 22/22/6 23/23/6
f 21/21/6 23/23/6 24/24/6
usemtl 122_2-0
f 25/25/7 26/26/7 27/27/7
f 25/25/7 27/27/7 28/28/7
f 29/29/7 30/30/7 31/31/7
f 29/29/7 31/31/7 32/32/7
f 33/33/7 34/34/7 35/35/7
f 33/33/7 35/35/7 36/36/7
usemtl 122_4-0
f 37/37/8 38/38/8 39/39/8
f 37/37/9 39/39/9 40/40/9
f 41/41/10 42/42/10 43/43/10
f 41/41/10 43/43/10 44/44/10
f 45/45/11 46/46/11 47/47/11
f 48/48/12 49/49/12 50/50/12
f 51/51/13 52/52/13 53/53/13
f 51/51/13 53/53/13 54/54/13
f 55/55/14 56/56/14 57/57/14
f 55/55/15 57/57/15 58/58/15
f 59/59/16 60/60/16 61/61/16
f 62/62/17 63/63/17 64/64/17
f 62/62/17 64/64/17 65/65/17
f 66/66/10 67/67/10 68/68/10
f 66/66/13 68/68/13 69/69/13
f 70/70/18 71/71/18 72/72/18
f 73/73/19 74/74/19 75/75/19
f 76/76/20 77/77/20 78/78/20
