# Blender v2.92.0 OBJ File: '41110.blend'
# www.blender.org
mtllib 41110.mtl
o model41110-node_model41110
v -1.424999 -0.481250 -0.572917
v -1.424999 -0.481250 -0.572917
v -1.424999 0.293750 -0.572917
v -1.424999 0.293750 -0.447917
v -1.424999 -0.481250 -0.447917
v 1.500000 0.218750 -0.631250
v 1.500000 0.218750 0.643750
v -1.500000 0.218750 0.643750
v 1.299999 -0.481250 0.568749
v 1.424999 -0.481250 0.443749
v 1.299999 -0.481250 0.568749
v 1.299999 0.293750 0.568749
v 1.424999 -0.481250 0.443749
v -1.425000 -0.481250 0.443750
v -1.300000 -0.481250 0.568750
v -1.425000 -0.481250 0.443750
v -1.425000 0.293750 0.443750
v -1.300000 -0.481250 0.568750
v -1.300000 0.293750 0.568750
v -1.425000 0.293750 0.568750
v -1.425000 -0.481250 0.568750
v -1.299999 0.293750 -0.572917
v -1.299999 -0.481250 -0.572917
v -1.424999 -0.481250 -0.447917
v -1.299999 -0.481250 -0.572917
v 1.424999 0.293750 0.443749
v 1.424999 0.293750 0.568749
v 1.424999 -0.481250 0.568749
v 1.424999 -0.481250 0.568749
v -1.425000 -0.481250 0.568750
v -1.500000 0.218750 -0.631250
v -1.500000 0.343750 0.643750
v 1.500000 0.343750 0.643750
v 1.500000 0.343750 -0.631250
v -1.500000 0.343750 -0.631250
v -1.500000 0.218750 0.643750
v 1.500000 0.218750 0.643750
v 1.500000 0.343750 0.643750
v -1.500000 0.343750 0.643750
v -1.500000 0.343750 -0.631250
v 1.500000 0.343750 -0.631250
v 1.500000 0.218750 -0.631250
v -1.500000 0.218750 -0.631250
v 1.424999 -0.481250 -0.572917
v 1.424999 -0.481250 -0.572917
v 1.424999 0.293750 -0.572917
v 1.299999 0.293750 -0.572917
v 1.299999 -0.481250 -0.572917
v 1.424999 0.293750 -0.447917
v 1.424999 -0.481250 -0.447917
v 1.299999 -0.481250 -0.572917
v 1.424999 -0.481250 -0.447917
vt 0.265625 0.765625
vt 0.000000 0.500000
vt 0.265625 0.203125
vt 0.265625 0.765625
vt 0.000000 0.500000
vt 0.265625 0.203125
vt 0.265625 0.765625
vt 0.000000 0.500000
vt 0.265625 0.203125
vt 0.265625 0.765625
vt 0.000000 0.500000
vt 0.265625 0.203125
vt 0.000000 0.000000
vt 1.000000 0.000000
vt 1.000000 -1.000000
vt 0.000000 -1.000000
vt 0.000000 0.000000
vt 0.000000 -1.000000
vt 1.000000 -1.000000
vt 1.000000 0.000000
vt 0.843750 2.000000
vt -0.000000 0.000000
vt 0.000000 2.000000
vt 0.843750 0.000000
vt 0.843750 1.000000
vt -0.000000 1.000000
vt 0.843750 1.000000
vt 0.843750 2.000000
vt 0.000000 2.000000
vt -0.000000 1.000000
vt -0.000000 0.000000
vt 0.843750 0.000000
vt 0.843750 1.000000
vt 0.843750 2.000000
vt 0.000000 2.000000
vt -0.000000 1.000000
vt -0.000000 0.000000
vt 0.843750 0.000000
vt -2.375000 -0.000000
vt 1.000000 -0.000000
vt 1.000000 1.000000
vt -2.375000 1.000000
vt -0.640625 1.000000
vt 2.671875 1.000000
vt 2.671875 -0.000000
vt -0.640625 -0.000000
vt 0.843750 2.000000
vt -0.000000 0.000000
vt 0.000000 2.000000
vt 0.843750 0.000000
vt 0.843750 1.000000
vt -0.000000 1.000000
vn 0.0000 -1.0000 0.0000
vn -0.0000 1.0000 -0.0000
vn 0.7071 -0.0000 0.7071
vn -1.0000 0.0000 0.0000
vn 0.0000 0.0000 1.0000
vn 1.0000 0.0000 -0.0000
vn -0.0000 0.0000 -1.0000
vn -0.7071 0.0000 -0.7071
vn 0.7071 -0.0000 -0.7071
vn -0.7071 -0.0000 0.7071
usemtl 086_0-0
s off
f 10/1/1 29/2/1 11/3/1
f 15/4/1 30/5/1 16/6/1
f 24/7/1 1/8/1 23/9/1
f 51/10/1 44/11/1 50/12/1
usemtl 067_1-0
f 8/13/1 31/14/1 6/15/1
f 8/13/1 6/15/1 7/16/1
f 32/17/2 33/18/2 34/19/2
f 32/17/2 34/19/2 35/20/2
usemtl 067_9-0
f 22/21/3 5/22/3 25/23/3
f 22/21/3 4/24/3 5/22/3
f 5/22/4 3/25/4 2/26/4
f 5/22/4 4/24/4 3/25/4
f 27/27/5 12/28/5 9/29/5
f 27/27/5 9/29/5 28/30/5
f 13/31/6 26/32/6 27/27/6
f 13/31/6 27/27/6 28/30/6
f 20/33/4 17/34/4 14/35/4
f 20/33/4 14/35/4 21/36/4
f 18/37/5 19/38/5 20/33/5
f 18/37/5 20/33/5 21/36/5
f 3/25/7 25/23/7 2/26/7
f 3/25/7 22/21/7 25/23/7
f 12/28/8 26/32/8 13/31/8
f 12/28/8 13/31/8 9/29/8
f 17/34/9 19/38/9 18/37/9
f 17/34/9 18/37/9 14/35/9
f 36/39/5 37/40/5 38/41/5
f 36/39/5 38/41/5 39/42/5
f 40/43/7 41/44/7 42/45/7
f 40/43/7 42/45/7 43/46/7
f 38/41/6 42/45/6 41/44/6
f 38/41/6 37/40/6 42/45/6
f 39/42/4 43/46/4 36/39/4
f 39/42/4 40/43/4 43/46/4
f 49/47/10 48/48/10 52/49/10
f 49/47/10 47/50/10 48/48/10
f 48/48/7 46/51/7 45/52/7
f 48/48/7 47/50/7 46/51/7
f 46/51/6 52/49/6 45/52/6
f 46/51/6 49/47/6 52/49/6
