# Blender v2.91.0 OBJ File: '43121.blend'
# www.blender.org
mtllib 43121.mtl
o model43121-node_model43121
v 0.292480 0.523829 0.083008
v 0.166894 0.833204 0.083008
v 0.091016 0.713869 0.083008
v 0.139746 0.543654 0.083008
v -0.094629 0.713869 0.083008
v -0.170801 0.833204 0.083008
v -0.295605 0.523829 0.083008
v -0.142871 0.543654 0.083008
v 0.087598 0.168848 0.083008
v -0.001562 0.290918 0.083008
v -0.085156 0.168848 0.083008
v -0.085156 -1.033398 0.083008
v 0.087598 -1.033398 0.083008
v -0.295605 0.523829 -0.084180
v -0.170801 0.833204 -0.084180
v -0.094629 0.713869 -0.084180
v -0.142871 0.543654 -0.084180
v 0.091016 0.713869 -0.084180
v 0.166894 0.833204 -0.084180
v 0.292480 0.523829 -0.084180
v 0.139746 0.543654 -0.084180
v -0.001563 0.290917 -0.084180
v 0.087598 0.168848 -0.084180
v 0.087598 -1.033398 -0.084180
v -0.085156 -1.033398 -0.084180
v -0.085156 0.168848 -0.084180
v -0.295605 0.523829 0.083008
v -0.295605 0.523829 -0.084180
v -0.085156 0.168849 -0.084180
v -0.085156 0.168849 0.083008
v 0.166894 0.833204 0.083008
v 0.166894 0.833204 -0.084180
v -0.170801 0.833204 -0.084180
v -0.170801 0.833204 0.083008
v 0.087598 0.168849 -0.084180
v 0.292480 0.523829 -0.084180
v 0.292480 0.523829 0.083008
v 0.087598 0.168849 0.083008
v -0.142871 0.543654 -0.084180
v -0.142871 0.543654 0.083008
v 0.139746 0.543654 0.083008
v 0.139746 0.543654 -0.084180
v -0.001563 0.290919 -0.084180
v -0.001562 0.290919 0.083008
v 0.091016 0.713869 0.083008
v -0.094629 0.713869 0.083008
v -0.094629 0.713869 -0.084180
v 0.091016 0.713869 -0.084180
v -0.529492 -1.432032 0.322070
v -0.401465 -1.032032 0.200977
v -0.401465 -1.032032 -0.198926
v -0.529492 -1.432033 -0.320117
v 0.398438 -1.032032 0.200977
v 0.526367 -1.432032 0.322070
v 0.526367 -1.432033 -0.320117
v 0.398437 -1.032032 -0.198926
v -0.085156 0.101399 0.083008
v -0.498047 0.004524 0.163770
v -0.498047 0.004524 -0.163281
v -0.085156 0.101399 -0.082520
v -0.498047 0.004524 0.163770
v -0.599220 0.260286 0.163770
v -0.599220 0.260286 -0.163281
v -0.498047 0.004524 -0.163281
v -0.599220 0.260286 0.163770
v -0.085156 0.163411 0.083008
v -0.085156 0.163411 -0.082520
v -0.599220 0.260286 -0.163281
v 0.601661 0.260286 0.163770
v 0.087598 0.163411 0.083008
v 0.087598 0.163411 -0.082520
v 0.601661 0.260286 -0.163281
v 0.500489 0.004524 0.163769
v 0.601661 0.260286 0.163770
v 0.601661 0.260286 -0.163281
v 0.500489 0.004524 -0.163281
v 0.087598 0.101399 0.083008
v 0.500489 0.004524 0.163769
v 0.500489 0.004524 -0.163281
v 0.087598 0.101399 -0.082520
v -0.529492 -1.432032 -0.320118
v -0.401465 -1.032032 -0.198927
v 0.398437 -1.032032 -0.198927
v 0.526367 -1.432032 -0.320118
v 0.398438 -1.032032 0.200976
v -0.401465 -1.032032 0.200976
v -0.529492 -1.432032 0.322069
v 0.526367 -1.432032 0.322069
vt 0.854492 -1.066410
vt 1.144530 -1.066410
vt 1.141600 -2.999020
vt 0.854492 -3.000000
vt 1.142580 -3.000000
vt 0.854492 -2.999020
vt 0.857422 -1.066410
vt 1.142580 -1.066410
vt 0.994141 -0.870117
vt 1.482420 -0.498047
vt 1.228520 -0.465820
vt 1.273440 0.000000
vt 1.147460 -0.191406
vt 0.839844 -0.190430
vt 0.712891 0.000000
vt 0.504883 -0.500977
vt 0.759766 -0.465820
vt 0.726563 0.000000
vt 1.160160 -0.191406
vt 1.287110 0.000000
vt 0.851563 -0.190430
vt 1.494140 -0.498047
vt 1.240230 -0.465820
vt 1.005860 -0.870117
vt 0.519531 -0.500977
vt 0.771484 -0.465820
vt 0.375000 -0.500000
vt 0.125000 -0.500000
vt 0.125000 -1.062500
vt 0.375000 -1.062500
vt 0.375000 1.031250
vt 0.125000 1.031250
vt 0.125000 0.531250
vt 0.375000 0.531250
vt 0.125000 0.000000
vt 0.375000 0.000000
vt 0.125000 1.593750
vt 0.375000 1.593750
vt 1.546875 0.109375
vt 0.515625 0.109375
vt 0.515625 0.765625
vt 1.546875 0.765625
vt -0.578125 0.109375
vt 0.125000 0.109375
vt 0.125000 0.765625
vt -0.578125 0.765625
vt 0.843750 0.109375
vt 0.843750 0.765625
vt 0.046875 1.656250
vt 0.218750 1.046875
vt 0.796875 1.046875
vt 0.984375 1.656250
vt 0.218750 -0.109375
vt 0.796875 -0.109375
vt 0.046875 -0.718750
vt 0.984375 -0.718750
vt 0.500000 -1.315430
vt 0.500000 -0.905273
vt 0.000000 -0.904297
vt 0.000000 -1.315430
vt -0.046875 0.687500
vt 0.437500 1.000000
vt 0.437500 0.015625
vt 0.437500 0.046875
vt 0.531250 0.062500
vt 0.328125 -0.000000
vt 0.000000 0.734375
vt 0.328125 1.031250
vt 0.500000 -1.315430
vt 0.000000 -0.904297
vt 0.000000 -1.315430
vt 0.500000 -0.905273
vt 0.437500 1.000000
vt 0.328125 -0.000000
vt 0.437500 0.015625
vt 0.000000 0.734375
vt 0.531250 0.062500
vt -0.046875 0.687500
vt 0.437500 0.046875
vt 0.328125 1.031250
vt 1.000000 -0.500000
vt 0.878906 0.000000
vt 0.121094 0.000000
vt 0.000000 -0.500000
vt 0.878906 0.000000
vt 0.121094 0.000000
vt 0.000000 -0.500000
vt 1.000000 -0.500000
vn -1.0000 -0.0000 0.0000
vn 1.0000 0.0000 -0.0000
vn 0.0000 0.0000 1.0000
vn -0.0000 -0.0000 -1.0000
vn -0.8602 -0.5100 0.0000
vn 0.9266 0.3761 0.0000
vn 0.0000 1.0000 0.0000
vn 0.8661 -0.4999 0.0000
vn -0.9274 0.3741 0.0000
vn 0.8728 0.4880 -0.0000
vn -0.9614 -0.2752 0.0000
vn -0.8728 0.4880 0.0000
vn 0.9621 -0.2727 -0.0000
vn 0.0000 -1.0000 -0.0000
vn -0.9524 0.3048 0.0000
vn 0.9525 0.3046 -0.0000
vn -0.9299 -0.3678 0.0000
vn -0.2284 -0.9736 -0.0000
vn -0.1852 0.9827 0.0000
vn -0.1670 0.0661 -0.9837
vn -0.1920 0.0000 -0.9814
vn -0.1670 0.0661 0.9837
vn -0.1920 -0.0000 0.9814
vn 0.9299 -0.3678 0.0000
vn 0.1920 -0.0000 -0.9814
vn 0.1670 0.0661 -0.9837
vn 0.1920 0.0000 0.9814
vn 0.1670 0.0661 0.9837
vn 0.1852 0.9827 -0.0000
vn 0.2284 -0.9736 0.0000
vn 0.0000 0.2900 -0.9570
vn 0.0000 0.2897 0.9571
usemtl 041_0-0
s off
f 11/1/1 26/2/1 25/3/1
f 11/1/1 25/3/1 12/4/1
f 13/5/2 24/6/2 23/7/2
f 13/5/2 23/7/2 9/8/2
f 10/9/3 9/8/3 1/10/3
f 10/9/3 1/10/3 4/11/3
f 1/10/3 2/12/3 3/13/3
f 1/10/3 3/13/3 4/11/3
f 5/14/3 3/13/3 2/12/3
f 5/14/3 2/12/3 6/15/3
f 5/14/3 6/15/3 7/16/3
f 5/14/3 7/16/3 8/17/3
f 7/16/3 11/1/3 10/9/3
f 7/16/3 10/9/3 8/17/3
f 9/8/3 10/9/3 11/1/3
f 9/8/3 11/1/3 12/4/3
f 9/8/3 12/4/3 13/5/3
f 19/18/4 16/19/4 15/20/4
f 19/18/4 18/21/4 16/19/4
f 14/22/4 15/20/4 16/19/4
f 14/22/4 16/19/4 17/23/4
f 14/22/4 17/23/4 22/24/4
f 14/22/4 22/24/4 26/2/4
f 18/21/4 19/18/4 20/25/4
f 18/21/4 20/25/4 21/26/4
f 22/24/4 21/26/4 20/25/4
f 22/24/4 20/25/4 23/7/4
f 22/24/4 23/7/4 24/6/4
f 22/24/4 24/6/4 25/3/4
f 22/24/4 25/3/4 26/2/4
f 27/27/5 28/28/5 29/29/5
f 27/27/5 29/29/5 30/30/5
f 37/31/6 36/32/6 32/33/6
f 37/31/6 32/33/6 31/34/6
f 31/34/7 32/33/7 33/35/7
f 31/34/7 33/35/7 34/36/7
f 35/37/8 36/32/8 37/31/8
f 35/37/8 37/31/8 38/38/8
f 34/36/9 33/35/9 28/28/9
f 34/36/9 28/28/9 27/27/9
f 40/39/10 44/40/10 43/41/10
f 40/39/10 43/41/10 39/42/10
f 41/43/11 45/44/11 48/45/11
f 41/43/11 48/45/11 42/46/11
f 41/43/12 42/46/12 43/41/12
f 41/43/12 43/41/12 44/40/12
f 46/47/13 40/39/13 39/42/13
f 46/47/13 39/42/13 47/48/13
f 45/44/14 46/47/14 47/48/14
f 45/44/14 47/48/14 48/45/14
f 49/49/15 50/50/15 51/51/15
f 49/49/15 51/51/15 52/52/15
f 51/51/7 53/53/7 56/54/7
f 53/53/16 54/55/16 55/56/16
f 53/53/16 55/56/16 56/54/16
f 61/57/17 62/58/17 63/59/17
f 61/57/17 63/59/17 64/60/17
f 79/61/18 78/62/18 77/63/18
f 79/61/18 77/63/18 80/64/18
f 71/65/19 70/66/19 69/67/19
f 71/65/19 69/67/19 72/68/19
f 71/65/20 72/68/20 79/61/20
f 71/65/21 79/61/21 80/64/21
f 78/62/22 69/67/22 70/66/22
f 78/62/23 70/66/23 77/63/23
f 76/69/24 74/70/24 73/71/24
f 76/69/24 75/72/24 74/70/24
f 51/51/7 50/50/7 53/53/7
f 55/56/14 49/49/14 52/52/14
f 55/56/14 54/55/14 49/49/14
f 59/73/25 67/74/25 60/75/25
f 59/73/26 68/76/26 67/74/26
f 66/77/27 58/78/27 57/79/27
f 66/77/28 65/80/28 58/78/28
f 66/77/29 68/76/29 65/80/29
f 66/77/29 67/74/29 68/76/29
f 58/78/30 60/75/30 57/79/30
f 58/78/30 59/73/30 60/75/30
usemtl 073_0-0
f 81/81/31 82/82/31 83/83/31
f 81/81/31 83/83/31 84/84/31
f 85/85/32 86/86/32 87/87/32
f 85/85/32 87/87/32 88/88/32
