# Blender v2.92.0 OBJ File: '43139.blend'
# www.blender.org
mtllib 43139.mtl
o model43138-node_model43138
v 6.004300 3.115001 5.821199
v 6.004300 4.115001 5.821199
v -5.995700 4.115001 5.821200
v -5.995700 3.115001 5.821200
v -5.995701 3.114999 -7.778800
v 6.004299 3.114999 -7.778801
v 6.004300 3.115001 5.821199
v -5.995700 3.115001 5.821200
v 6.004299 4.114999 -7.778802
v -5.995701 4.114999 -7.778800
v -5.995700 4.115001 5.821200
v 6.004300 4.115001 5.821199
v -5.995701 4.114999 -7.778800
v 6.004299 4.114999 -7.778802
v 6.004299 3.114999 -7.778801
v -5.995701 3.114999 -7.778800
v 5.056249 -2.084864 -6.978800
v -5.047651 -2.084864 -6.978799
v -5.047651 3.115049 -6.978800
v 5.056249 3.115049 -6.978801
v 1.004298 -0.691699 4.021200
v 1.004298 -0.691699 4.821200
v 1.004298 2.508301 4.821100
v 1.004298 2.508301 4.021100
v -0.995702 2.508301 4.021100
v -0.995702 2.508301 4.821100
v -0.995702 -0.691699 4.821201
v -0.995702 -0.691699 4.021201
v -0.995702 -0.691699 4.821201
v -0.995702 2.508301 4.821100
v -5.047649 3.115051 4.821200
v -5.047649 -2.084862 4.821101
v 5.056250 3.115051 4.821199
v 1.004298 2.508301 4.821100
v 1.004298 -0.691699 4.821200
v 5.056250 -2.084862 4.821100
v 2.737524 -2.091702 4.819904
v 4.137524 -2.091702 4.819903
v 3.079674 -0.891702 5.178894
v 2.931525 -0.891702 4.821168
v 2.931525 3.115000 4.821169
v 3.079774 3.115000 5.178895
v 3.437500 -0.891702 5.327044
v 3.437500 3.115000 5.327045
v 3.943350 -0.891702 4.821168
v 3.795200 -0.891702 5.178894
v 3.795200 3.115000 5.178895
v 3.943350 3.115000 4.821169
v 2.711425 -2.091702 -7.776755
v 4.111425 -2.091702 -7.776755
v 4.111425 -0.891702 -6.976747
v 4.111425 -2.091702 -6.976747
v -0.995702 2.508301 4.021100
v -0.995702 -0.691699 4.021201
v 1.004298 -0.691699 4.021200
v 1.004298 2.508301 4.021100
v 4.137524 -2.091702 5.619895
v 4.137524 -0.891703 5.619895
v 4.137524 -0.891702 4.819895
v 4.137524 -2.091702 4.819903
v 4.137524 -0.891701 5.619895
v 2.737524 -0.891701 5.619895
v 2.737524 -0.891701 4.819895
v 4.137524 -0.891701 4.819895
v 2.737524 -0.891702 5.619895
v 2.737524 -2.091703 5.619904
v 2.737524 -2.091702 4.819895
v 2.737524 -0.891702 4.819895
v 5.563406 3.114999 -4.078346
v 5.563405 -0.891702 -4.078346
v 5.415256 3.115000 -3.720620
v 5.057529 3.115000 -3.572370
v 5.057529 -0.891702 -3.572370
v 5.415255 -0.891702 -3.720520
v 5.056264 -2.091702 -4.778369
v 5.056264 -2.091702 -3.378369
v 5.056264 -2.091702 -4.778369
v 5.056255 -0.891702 -4.778369
v 5.856255 -0.891703 -4.778369
v 5.856255 -2.091702 -4.778369
v 5.057529 3.115000 -4.584196
v 5.415256 3.115000 -4.436045
v 5.415255 -0.891702 -4.436045
v 5.057529 -0.891702 -4.584196
v 2.204298 -2.091699 4.820012
v 2.204298 -1.691699 4.820012
v 2.204298 -1.691601 6.820012
v 2.204298 -2.091699 6.820012
v 2.204298 -1.691699 4.820012
v -2.195702 -1.691699 4.820013
v -2.195702 -1.691601 6.820013
v 2.204298 -1.691601 6.820012
v -2.195702 -1.691699 4.820013
v -2.195702 -2.091699 4.820013
v -2.195702 -2.091699 6.820013
v -2.195702 -1.691601 6.820013
v 1.804298 -1.692613 4.820012
v 1.804298 -1.271679 4.820012
v 1.804298 -1.271679 6.420012
v 1.804298 -1.692612 6.420012
v 1.804298 -1.271679 4.820012
v -1.795702 -1.271679 4.820013
v -1.795702 -1.271679 6.420012
v 1.804298 -1.271679 6.420012
v -1.795702 -1.271679 4.820013
v -1.795702 -1.692613 4.820013
v -1.795702 -1.692612 6.420013
v -1.795702 -1.271679 6.420012
v 1.404298 -1.273129 4.820012
v 1.404298 -0.851659 4.820012
v 1.404298 -0.851659 6.020012
v 1.404298 -1.273128 6.020012
v 1.404298 -0.851659 4.820012
v -1.395702 -0.851659 4.820013
v -1.395702 -0.851659 6.020012
v 1.404298 -0.851659 6.020012
v -1.395702 -0.851659 4.820013
v -1.395702 -1.273129 4.820013
v -1.395702 -1.273128 6.020012
v -1.395702 -0.851659 6.020012
v -2.695250 -2.091703 -7.776756
v -2.695250 -0.891702 -7.776747
v -4.095250 -0.891701 -6.976747
v -2.695250 -0.891701 -6.976747
v -2.695250 -0.891701 -7.776747
v -4.095249 -0.891701 -7.776746
v -4.095250 -2.091702 -6.976755
v -4.095250 -0.891702 -6.976747
v -4.095250 -2.091702 -7.776755
v -2.695250 -2.091702 -7.776750
v -2.695250 -0.891702 -6.976747
v -2.695250 -2.091702 -6.976747
v -4.095249 -0.891703 -7.776746
v -4.095249 -2.091702 -7.776746
v -4.095250 -2.091702 -6.976755
v -2.695249 -2.091702 -6.976750
v -3.901076 3.115000 -6.978016
v -3.752926 3.115000 -7.335742
v -3.752926 -0.891702 -7.335741
v -3.901076 -0.891702 -6.978015
v -3.395226 3.115000 -7.483891
v -3.395226 -0.891702 -7.483891
v -3.037500 3.115000 -7.335742
v -2.889250 3.115000 -6.978016
v -2.889250 -0.891702 -6.978015
v -3.037400 -0.891702 -7.335741
v 2.905588 3.115000 -6.978016
v 3.053739 3.115000 -7.335742
v 3.053739 -0.891702 -7.335741
v 2.905588 -0.891702 -6.978015
v 3.411438 3.115000 -7.483891
v 3.411438 -0.891702 -7.483891
v 3.769164 3.115000 -7.335742
v 3.917414 3.115000 -6.978016
v 3.917414 -0.891702 -6.978015
v 3.769264 -0.891702 -7.335741
v 2.737524 -2.091702 5.619904
v 4.137524 -2.091702 5.619903
v 4.111425 -2.091703 -7.776755
v 4.111425 -0.891702 -7.776747
v 2.711425 -0.891701 -6.976746
v 4.111425 -0.891701 -6.976747
v 4.111425 -0.891701 -7.776747
v 2.711425 -0.891701 -7.776746
v 2.711425 -2.091702 -6.976755
v 2.711425 -0.891702 -6.976746
v 2.711425 -0.891703 -7.776746
v 2.711425 -2.091702 -7.776746
v 2.711425 -2.091702 -6.976755
v 4.111425 -2.091702 -6.976755
v -3.056650 3.115000 4.821170
v -3.204801 3.115000 5.178895
v -3.204801 -0.891702 5.178895
v -3.056650 -0.891702 4.821169
v -3.562500 3.115000 5.327045
v -3.562500 -0.891702 5.327045
v -3.920226 3.115000 5.178895
v -4.068476 3.115000 4.821170
v -4.068476 -0.891702 4.821170
v -3.920326 -0.891702 5.178895
v -4.262475 -2.091702 4.819904
v -2.862475 -2.091702 4.819903
v -2.862475 -2.091702 5.619895
v -2.862475 -0.891703 5.619895
v -2.862475 -0.891702 4.819895
v -2.862475 -2.091702 4.819903
v -2.862475 -0.891701 5.619895
v -4.262475 -0.891701 5.619895
v -4.262475 -0.891701 4.819895
v -2.862475 -0.891701 4.819895
v -4.262475 -0.891702 5.619895
v -4.262475 -2.091703 5.619904
v -4.262475 -2.091702 4.819895
v -4.262475 -0.891702 4.819895
v -4.262475 -2.091702 5.619904
v -2.862475 -2.091702 5.619903
v 5.856255 -0.891701 -4.778369
v 5.856256 -0.891701 -3.378369
v 5.056255 -0.891701 -3.378369
v 5.056255 -0.891701 -4.778369
v 5.856256 -0.891702 -3.378369
v 5.856264 -2.091703 -3.378370
v 5.056255 -2.091702 -3.378369
v 5.056255 -0.891702 -3.378369
v 5.856264 -2.091702 -3.378370
v 5.856263 -2.091702 -4.778369
v 5.057531 3.115000 1.214766
v 5.415257 3.115000 1.362916
v 5.415256 -0.891702 1.362916
v 5.057531 -0.891702 1.214766
v 5.563407 3.114999 1.720616
v 5.563406 -0.891702 1.720616
v 5.415257 3.115000 2.078341
v 5.057532 3.115000 2.226592
v 5.057531 -0.891702 2.226592
v 5.415256 -0.891702 2.078441
v 5.056265 -2.091702 2.420590
v 5.056264 -2.091702 1.020591
v 5.856256 -2.091702 1.020591
v 5.856256 -0.891703 1.020591
v 5.056256 -0.891702 1.020591
v 5.056264 -2.091702 1.020591
v 5.856256 -0.891701 1.020591
v 5.856256 -0.891701 2.420590
v 5.056257 -0.891701 2.420590
v 5.056256 -0.891701 1.020591
v 5.856256 -0.891702 2.420590
v 5.856265 -2.091703 2.420590
v 5.056257 -2.091702 2.420590
v 5.056257 -0.891702 2.420590
v 5.856265 -2.091702 2.420590
v 5.856265 -2.091702 1.020591
v -5.554662 3.114999 1.899489
v -5.554661 -0.891702 1.899489
v -5.406512 3.115000 1.541763
v -5.048787 3.115000 1.393513
v -5.048786 -0.891702 1.393513
v -5.406511 -0.891702 1.541663
v -5.047521 -2.091702 2.599512
v -5.047521 -2.091702 1.199512
v -5.047521 -2.091702 2.599512
v -5.047513 -0.891702 2.599512
v -5.847512 -0.891703 2.599512
v -5.847512 -2.091702 2.599512
v -5.048787 3.115000 2.405339
v -5.406512 3.115000 2.257188
v -5.406511 -0.891702 2.257188
v -5.048786 -0.891702 2.405339
v -5.847512 -0.891701 2.599512
v -5.847512 -0.891701 1.199512
v -5.047513 -0.891701 1.199512
v -5.047513 -0.891701 2.599512
v -5.847512 -0.891702 1.199512
v -5.847521 -2.091703 1.199513
v -5.047513 -2.091702 1.199512
v -5.047513 -0.891702 1.199512
v -5.847521 -2.091702 1.199513
v -5.847520 -2.091702 2.599512
v -5.048788 3.115000 -3.393623
v -5.406513 3.115000 -3.541773
v -5.406512 -0.891702 -3.541773
v -5.048787 -0.891702 -3.393623
v -5.554663 3.114999 -3.899473
v -5.554662 -0.891702 -3.899473
v -5.406513 3.115000 -4.257198
v -5.048788 3.115000 -4.405448
v -5.048788 -0.891702 -4.405448
v -5.406512 -0.891702 -4.257298
v -5.047521 -2.091702 -4.599447
v -5.047521 -2.091702 -3.199447
v -5.847512 -2.091702 -3.199447
v -5.847512 -0.891703 -3.199447
v -5.047513 -0.891702 -3.199447
v -5.047521 -2.091702 -3.199447
v -5.847512 -0.891701 -3.199447
v -5.847512 -0.891701 -4.599447
v -5.047513 -0.891701 -4.599447
v -5.047513 -0.891701 -3.199447
v -5.847512 -0.891702 -4.599447
v -5.847521 -2.091703 -4.599447
v -5.047513 -2.091702 -4.599447
v -5.047513 -0.891702 -4.599447
v -5.847521 -2.091702 -4.599447
v -5.847521 -2.091702 -3.199447
vt 4.000000 -0.250000
vt 4.000000 0.000000
vt 0.000000 0.000000
vt 0.000000 -0.250000
vt 0.000000 -5.000000
vt 5.000000 -5.000000
vt 5.000000 0.000000
vt 0.000000 0.000000
vt 0.000000 -0.249023
vt 0.000000 0.000000
vt 5.000000 0.000000
vt 0.000000 0.000000
vt 0.000000 -5.000000
vt 5.000000 -5.000000
vt 4.000000 0.000000
vt 4.000000 -0.250000
vt 7.015625 0.000000
vt 3.002930 0.000000
vt 3.002930 -2.000000
vt 7.015625 -2.000000
vt 4.015625 -2.000000
vt 4.015625 0.000000
vt 0.000000 -2.000000
vt 0.000000 0.000000
vt 0.000000 -2.953125
vt 0.500000 -2.953125
vt 0.500000 -0.953125
vt 0.015625 -0.953125
vt 0.500000 -2.000000
vt 0.000000 -2.000000
vt 0.500000 0.000000
vt 0.015625 -0.000000
vt 0.500000 -2.000000
vt 0.000000 -2.000000
vt 1.204100 -1.462890
vt 1.204100 -0.232422
vt 1.798830 -0.232422
vt 1.798830 -1.462890
vt 7.503910 -5.423830
vt 7.503910 -6.009770
vt 6.332030 -6.009770
vt 6.332030 -5.423830
vt 1.781250 -1.000000
vt 1.000000 -0.000000
vt 1.000000 -1.000000
vt -1.046875 0.000000
vt -1.046875 -1.000000
vt -0.296875 -1.000000
vt 7.503910 -5.423830
vt 6.332030 -5.423830
vt 6.332030 -6.009770
vt -0.296875 0.000000
vt 1.781250 -0.000000
vt 7.503910 -6.009770
vt 7.503910 -5.423830
vt 6.332030 -5.423830
vt 6.332030 -6.009770
vt -1.046875 0.000000
vt -1.046875 -1.000000
vt -0.296875 -1.000000
vt 1.781250 -1.000000
vt 1.000000 -0.000000
vt 1.000000 -1.000000
vt 7.503910 -5.423830
vt 6.332030 -6.009770
vt 7.503910 -6.009770
vt 1.781250 -1.000000
vt 1.781250 -0.000000
vt 1.000000 -0.000000
vt 6.332030 -5.423830
vt -1.046875 0.000000
vt -0.296875 -1.000000
vt -0.296875 0.000000
vt 7.503910 -5.423830
vt 7.503910 -6.009770
vt 6.332030 -6.009770
vt 6.332030 -5.423830
vt -1.046875 -1.000000
vt 1.000000 -1.000000
vt 7.503910 -5.423830
vt 6.332030 -6.009770
vt 6.332030 -5.423830
vt 7.503910 -6.009770
vt 7.503910 -5.423830
vt 6.332030 -5.423830
vt 6.332030 -6.009770
vt 7.503910 -6.009770
vt 1.781250 -1.000000
vt 1.781250 -0.000000
vt 1.000000 -0.000000
vt -1.046875 0.000000
vt -1.046875 -1.000000
vt -0.296875 -1.000000
vt 1.000000 -1.000000
vt -0.296875 0.000000
vt 1.781250 -1.000000
vt 1.000000 -0.000000
vt 1.000000 -1.000000
vt -1.046875 0.000000
vt -1.046875 -1.000000
vt -0.296875 -1.000000
vt 7.503910 -5.423830
vt 6.332030 -5.423830
vt 6.332030 -6.009770
vt -0.296875 0.000000
vt 1.781250 -0.000000
vt 7.503910 -6.009770
vt 7.503910 -5.423830
vt 6.332030 -6.009770
vt 6.332030 -5.423830
vt 7.503910 -6.009770
vt -0.296875 0.000000
vt 1.781250 -0.000000
vt 7.503910 -6.009770
vt 7.503910 -5.423830
vt 6.332030 -6.009770
vt 6.332030 -5.423830
vt 7.503910 -6.009770
vt 1.781250 -1.000000
vt 1.000000 -0.000000
vt 1.000000 -1.000000
vt -1.046875 0.000000
vt -1.046875 -1.000000
vt -0.296875 -1.000000
vt 7.503910 -5.423830
vt 6.332030 -5.423830
vt 6.332030 -6.009770
vt -0.296875 0.000000
vt 1.781250 -0.000000
vt 7.503910 -6.009770
vt 7.503910 -5.423830
vt 6.332030 -6.009770
vt 6.332030 -5.423830
vt 7.503910 -6.009770
vt 7.503910 -5.423830
vt 6.332030 -5.423830
vt 6.332030 -6.009770
vt -1.046875 0.000000
vt -1.046875 -1.000000
vt -0.296875 -1.000000
vt 1.781250 -1.000000
vt 1.000000 -0.000000
vt 1.000000 -1.000000
vt -0.296875 0.000000
vt 1.781250 -0.000000
vt 7.503910 -6.009770
vt 7.503910 -5.423830
vt 6.332030 -6.009770
vt 6.332030 -5.423830
vt 7.503910 -6.009770
vt 1.781250 -1.000000
vt 1.000000 -0.000000
vt 1.000000 -1.000000
vt -1.046875 0.000000
vt -1.046875 -1.000000
vt -0.296875 -1.000000
vt 7.503910 -5.423830
vt 6.332030 -5.423830
vt 6.332030 -6.009770
vt -0.296875 0.000000
vt 1.781250 -0.000000
vt 7.503910 -6.009770
vt 7.503910 -5.423830
vt 6.332030 -6.009770
vt 6.332030 -5.423830
vt 7.503910 -6.009770
vt 0.000000 0.000000
vt 0.000000 -1.000000
vt 0.999023 -0.999512
vt 1.000000 0.000000
vt 0.292969 0.000000
vt 0.292969 -2.000000
vt 1.000000 -2.000000
vt 1.706060 -1.999020
vt 1.000000 0.000000
vt 1.707030 0.000000
vt 2.000000 0.000000
vt 2.000000 -2.000000
vt 2.000000 0.000000
vt 1.706060 -1.999020
vt 2.000000 -2.000000
vt 1.707030 0.000000
vt 1.000000 0.000000
vt 1.000000 -2.000000
vt 0.292969 0.000000
vt 0.292969 -2.000000
vt 1.984375 -1.000000
vt 1.984375 -0.671875
vt -0.015625 -0.671875
vt -0.015625 -1.000000
vt 3.484375 -1.000000
vt 3.484375 -0.671875
vt 1.500000 0.000000
vt 0.000000 0.000000
vt 0.000000 -0.999023
vt 1.500000 -1.000000
vt -1.515625 -0.671875
vt -1.515625 -1.000000
vt 1.812500 -0.656250
vt 1.812500 -0.343750
vt 0.187500 -0.343750
vt 0.187500 -0.656250
vt 3.015625 -0.656250
vt 3.015625 -0.343750
vt 1.363280 0.000000
vt 0.135742 0.000000
vt 0.135742 -0.799805
vt 1.363280 -0.799805
vt -1.015625 -0.343750
vt -1.015625 -0.656250
vt 1.640625 -0.328125
vt 1.640625 0.000000
vt 0.359375 0.000000
vt 0.359375 -0.328125
vt 2.531250 -0.328125
vt 2.531250 0.000000
vt 1.227540 0.000000
vt 0.272461 0.000000
vt 0.272461 -0.599609
vt 1.227540 -0.599609
vt -0.531250 0.000000
vt -0.531250 -0.328125
vt 2.000000 0.000000
vt 1.707030 0.000000
vt 1.706060 -1.999020
vt 2.000000 -2.000000
vt 1.000000 0.000000
vt 1.000000 -2.000000
vt 0.292969 0.000000
vt 0.292969 -2.000000
vt 0.000000 0.000000
vt 0.000000 -2.000000
vt 2.000000 0.000000
vt 1.707030 0.000000
vt 1.706060 -1.999020
vt 2.000000 -2.000000
vt 1.000000 0.000000
vt 1.000000 -2.000000
vt 0.292969 0.000000
vt 0.292969 -2.000000
vt 0.000000 0.000000
vt 0.000000 -2.000000
vt 0.000000 0.000000
vt 0.000000 -2.000000
vt 2.000000 0.000000
vt 1.707030 0.000000
vt 1.706060 -1.999020
vt 2.000000 -2.000000
vt 1.000000 0.000000
vt 1.000000 -2.000000
vt 0.292969 0.000000
vt 0.292969 -2.000000
vt 0.000000 0.000000
vt 0.000000 -2.000000
vt 0.000000 0.000000
vt 0.000000 -2.000000
vt 2.000000 0.000000
vt 1.707030 0.000000
vt 1.706060 -1.999020
vt 2.000000 -2.000000
vt 1.000000 0.000000
vt 1.000000 -2.000000
vt 0.292969 0.000000
vt 0.292969 -2.000000
vt 0.000000 0.000000
vt 0.000000 -2.000000
vt 2.000000 0.000000
vt 1.706060 -1.999020
vt 2.000000 -2.000000
vt 1.707030 0.000000
vt 1.000000 0.000000
vt 1.000000 -2.000000
vt 0.292969 0.000000
vt 0.292969 -2.000000
vt 0.000000 0.000000
vt 0.000000 -2.000000
vt 2.000000 0.000000
vt 1.707030 0.000000
vt 1.706060 -1.999020
vt 2.000000 -2.000000
vt 1.000000 0.000000
vt 1.000000 -2.000000
vt 0.292969 0.000000
vt 0.292969 -2.000000
vt 0.000000 0.000000
vt 0.000000 -2.000000
vn 0.0000 0.0000 1.0000
vn 0.0000 -1.0000 0.0000
vn 1.0000 0.0000 -0.0000
vn -0.0000 1.0000 -0.0000
vn -1.0000 0.0000 0.0000
vn -0.0000 -0.0000 -1.0000
vn 0.0000 -0.0002 1.0000
vn 0.0000 -0.0001 1.0000
vn -0.3825 0.0000 0.9239
vn 0.3827 -0.0000 0.9239
vn 0.9239 -0.0000 0.3826
vn 0.3826 0.0000 -0.9239
vn 0.9239 0.0000 -0.3827
vn 0.9239 0.0000 0.3825
vn -0.9239 -0.0000 -0.3826
vn -0.3826 -0.0000 -0.9239
vn -0.3827 -0.0000 -0.9239
vn 0.3825 0.0000 -0.9239
vn 0.9238 -0.0000 -0.3829
vn 0.9239 0.0000 -0.3826
vn -0.3826 -0.0000 0.9239
vn -0.9238 -0.0000 0.3828
vn -0.9239 0.0000 0.3826
vn 0.3828 -0.0000 0.9238
vn 0.3826 0.0000 0.9239
vn 0.3829 -0.0000 0.9238
vn -0.9239 0.0000 0.3827
vn -0.9239 0.0000 -0.3825
vn -0.3828 -0.0000 -0.9238
vn -0.3829 -0.0000 -0.9238
usemtl 041_3-0
s off
f 1/1/1 2/2/1 3/3/1
f 1/1/1 3/3/1 4/4/1
f 5/5/2 6/6/2 7/7/2
f 5/5/2 7/7/2 8/8/2
f 15/9/3 14/10/3 2/2/3
f 15/9/3 2/2/3 1/1/3
f 9/11/4 10/12/4 11/13/4
f 9/11/4 11/13/4 12/14/4
f 4/4/5 3/3/5 13/15/5
f 4/4/5 13/15/5 16/16/5
f 13/15/6 14/10/6 15/9/6
f 13/15/6 15/9/6 16/16/6
f 20/17/3 33/18/3 36/19/3
f 20/17/3 36/19/3 17/20/3
f 17/20/6 18/21/6 19/22/6
f 17/20/6 19/22/6 20/17/6
f 32/23/5 31/24/5 19/22/5
f 32/23/5 19/22/5 18/21/5
f 28/25/4 27/26/4 22/27/4
f 28/25/4 22/27/4 21/28/4
f 21/28/5 22/27/5 23/29/5
f 21/28/5 23/29/5 24/30/5
f 24/30/2 23/29/2 26/31/2
f 24/30/2 26/31/2 25/32/2
f 25/32/3 26/31/3 27/33/3
f 25/32/3 27/33/3 28/34/3
f 29/35/1 30/36/1 31/24/1
f 29/35/1 31/24/1 32/23/1
f 31/24/7 30/36/7 34/37/7
f 31/24/7 34/37/7 33/18/7
f 33/18/1 34/37/1 35/38/1
f 33/18/1 35/38/1 36/19/1
f 32/23/8 36/19/8 35/38/8
f 32/23/8 35/38/8 29/35/8
f 169/39/2 49/40/2 50/41/2
f 169/39/2 50/41/2 170/42/2
f 68/43/5 66/44/5 65/45/5
f 60/46/3 59/47/3 58/48/3
f 64/49/4 63/50/4 62/51/4
f 60/46/3 58/48/3 57/52/3
f 68/43/5 67/53/5 66/44/5
f 64/49/4 62/51/4 61/54/4
f 200/55/4 199/56/4 198/57/4
f 77/58/6 78/59/6 79/60/6
f 204/61/1 202/62/1 201/63/1
f 123/64/4 125/65/4 126/66/4
f 131/67/3 132/68/3 121/69/3
f 123/64/4 124/70/4 125/65/4
f 127/71/5 133/72/5 134/73/5
f 135/74/2 129/75/2 130/76/2
f 135/74/2 130/76/2 136/77/2
f 127/71/5 128/78/5 133/72/5
f 131/67/3 121/69/3 122/79/3
f 38/80/2 157/81/2 37/82/2
f 38/80/2 158/83/2 157/81/2
f 161/84/4 162/85/4 163/86/4
f 161/84/4 163/86/4 164/87/4
f 51/88/3 52/89/3 159/90/3
f 165/91/5 166/92/5 167/93/5
f 51/88/3 159/90/3 160/94/3
f 121/69/6 134/73/6 133/72/6
f 121/69/6 133/72/6 122/79/6
f 165/91/5 167/93/5 168/95/5
f 66/44/1 58/48/1 65/45/1
f 66/44/1 57/52/1 58/48/1
f 194/96/5 192/97/5 191/98/5
f 186/99/3 185/100/3 184/101/3
f 190/102/4 189/103/4 188/104/4
f 186/99/3 184/101/3 183/105/3
f 194/96/5 193/106/5 192/97/5
f 190/102/4 188/104/4 187/107/4
f 182/108/2 195/109/2 181/110/2
f 182/108/2 196/111/2 195/109/2
f 192/97/1 184/101/1 191/98/1
f 192/97/1 183/105/1 184/101/1
f 159/90/6 167/93/6 160/94/6
f 159/90/6 168/95/6 167/93/6
f 77/58/6 79/60/6 80/112/6
f 204/61/1 203/113/1 202/62/1
f 200/55/4 198/57/4 197/114/4
f 75/115/2 205/116/2 76/117/2
f 75/115/2 206/118/2 205/116/2
f 202/62/3 79/60/3 201/63/3
f 202/62/3 80/112/3 79/60/3
f 230/119/1 228/120/1 227/121/1
f 222/122/6 221/123/6 220/124/6
f 226/125/4 225/126/4 224/127/4
f 222/122/6 220/124/6 219/128/6
f 230/119/1 229/129/1 228/120/1
f 226/125/4 224/127/4 223/130/4
f 218/131/2 231/132/2 217/133/2
f 218/131/2 232/134/2 231/132/2
f 228/120/3 220/124/3 227/121/3
f 228/120/3 219/128/3 220/124/3
f 252/135/4 251/136/4 250/137/4
f 241/138/1 242/139/1 243/140/1
f 256/141/6 254/142/6 253/143/6
f 241/138/1 243/140/1 244/144/1
f 256/141/6 255/145/6 254/142/6
f 252/135/4 250/137/4 249/146/4
f 239/147/2 257/148/2 240/149/2
f 239/147/2 258/150/2 257/148/2
f 254/142/5 243/140/5 253/143/5
f 254/142/5 244/144/5 243/140/5
f 282/151/6 280/152/6 279/153/6
f 274/154/1 273/155/1 272/156/1
f 278/157/4 277/158/4 276/159/4
f 274/154/1 272/156/1 271/160/1
f 282/151/6 281/161/6 280/152/6
f 278/157/4 276/159/4 275/162/4
f 270/163/2 283/164/2 269/165/2
f 270/163/2 284/166/2 283/164/2
f 280/152/5 272/156/5 279/153/5
f 280/152/5 271/160/5 272/156/5
usemtl 056_7-0
f 53/167/1 54/168/1 55/169/1
f 53/167/1 55/169/1 56/170/1
usemtl 141_1-0
f 42/171/9 39/172/9 43/173/9
f 46/174/10 44/175/10 43/173/10
f 46/174/10 47/176/10 44/175/10
f 48/177/11 46/174/11 45/178/11
f 48/177/11 47/176/11 46/174/11
f 81/179/12 83/180/12 84/181/12
f 83/180/13 82/182/13 69/183/13
f 83/180/13 69/183/13 70/184/13
f 71/185/14 74/186/14 70/184/14
f 81/179/12 82/182/12 83/180/12
f 88/187/1 87/188/1 96/189/1
f 88/187/1 96/189/1 95/190/1
f 85/191/3 86/192/3 87/188/3
f 85/191/3 87/188/3 88/187/3
f 89/193/4 90/194/4 91/195/4
f 89/193/4 91/195/4 92/196/4
f 93/197/5 94/198/5 95/190/5
f 93/197/5 95/190/5 96/189/5
f 100/199/1 99/200/1 108/201/1
f 100/199/1 108/201/1 107/202/1
f 97/203/3 98/204/3 99/200/3
f 97/203/3 99/200/3 100/199/3
f 101/205/4 102/206/4 103/207/4
f 101/205/4 103/207/4 104/208/4
f 105/209/5 106/210/5 107/202/5
f 105/209/5 107/202/5 108/201/5
f 112/211/1 111/212/1 120/213/1
f 112/211/1 120/213/1 119/214/1
f 109/215/3 110/216/3 111/212/3
f 109/215/3 111/212/3 112/211/3
f 113/217/4 114/218/4 115/219/4
f 113/217/4 115/219/4 116/220/4
f 117/221/5 118/222/5 119/214/5
f 117/221/5 119/214/5 120/213/5
f 137/223/15 138/224/15 139/225/15
f 137/223/15 139/225/15 140/226/15
f 139/225/16 138/224/16 141/227/16
f 139/225/17 141/227/17 142/228/17
f 143/229/18 146/230/18 142/228/18
f 143/229/12 142/228/12 141/227/12
f 143/229/19 144/231/19 145/232/19
f 143/229/20 145/232/20 146/230/20
f 147/233/15 148/234/15 149/235/15
f 147/233/15 149/235/15 150/236/15
f 149/235/16 148/234/16 151/237/16
f 149/235/17 151/237/17 152/238/17
f 153/239/18 156/240/18 152/238/18
f 153/239/12 152/238/12 151/237/12
f 153/239/19 154/241/19 155/242/19
f 153/239/20 155/242/20 156/240/20
f 42/171/21 43/173/21 44/175/21
f 42/171/22 41/243/22 40/244/22
f 42/171/23 40/244/23 39/172/23
f 171/245/11 172/246/11 173/247/11
f 171/245/11 173/247/11 174/248/11
f 173/247/10 172/246/10 175/249/10
f 173/247/10 175/249/10 176/250/10
f 177/251/9 180/252/9 176/250/9
f 177/251/21 176/250/21 175/249/21
f 177/251/22 178/253/22 179/254/22
f 177/251/23 179/254/23 180/252/23
f 71/185/11 70/184/11 69/183/11
f 71/185/24 72/255/24 73/256/24
f 71/185/25 73/256/25 74/186/25
f 207/257/12 208/258/12 209/259/12
f 207/257/12 209/259/12 210/260/12
f 209/259/13 208/258/13 211/261/13
f 209/259/13 211/261/13 212/262/13
f 213/263/14 216/264/14 212/262/14
f 213/263/11 212/262/11 211/261/11
f 213/263/26 214/265/26 215/266/26
f 213/263/25 215/266/25 216/264/25
f 245/267/21 247/268/21 248/269/21
f 247/268/27 246/270/27 233/271/27
f 247/268/27 233/271/27 234/272/27
f 235/273/28 238/274/28 234/272/28
f 245/267/21 246/270/21 247/268/21
f 235/273/15 234/272/15 233/271/15
f 235/273/29 236/275/29 237/276/29
f 235/273/16 237/276/16 238/274/16
f 259/277/21 260/278/21 261/279/21
f 259/277/21 261/279/21 262/280/21
f 261/279/27 260/278/27 263/281/27
f 261/279/27 263/281/27 264/282/27
f 265/283/28 268/284/28 264/282/28
f 265/283/15 264/282/15 263/281/15
f 265/283/30 266/285/30 267/286/30
f 265/283/16 267/286/16 268/284/16
