# Blender v2.82 (sub 7) OBJ File: '63243.blend'
# www.blender.org
mtllib 63243.mtl
o model63243-node_model63243
v -1.600000 3.150001 3.200000
v -2.200000 0.600001 3.200000
v 0.999999 3.799999 -9.600001
v 1.599999 6.349998 -9.600001
v -2.200000 0.600001 3.200000
v -1.600000 0.000001 3.200000
v 1.599999 3.199999 -9.600001
v 0.999999 3.799999 -9.600001
v 4.799999 6.349998 -9.600001
v 5.399999 3.799999 -9.600001
v 2.200000 0.600001 3.200000
v 1.600000 3.150001 3.200000
v 4.799999 3.199999 -9.600001
v 1.600000 0.000001 3.200000
v 2.200000 0.600001 3.200000
v 1.599999 6.349998 -9.600001
v 0.999999 3.799999 -9.600001
v 0.999999 3.799998 -15.000000
v 1.599999 6.349998 -14.400002
v 0.999999 3.799999 -9.600001
v 1.599999 3.199999 -9.600001
v 1.599999 3.199998 -14.400001
v 0.999999 3.799998 -15.000000
v 14.400000 9.550001 3.199997
v 11.199999 6.349998 -9.600002
v 11.799999 3.799999 -9.600001
v 14.999999 7.000001 3.199998
v 14.400000 6.400001 3.199998
v 7.999999 6.349998 -9.600001
v 11.199999 9.550001 3.199998
v 10.599999 7.000001 3.199998
v 7.399999 3.799999 -9.600001
v 11.199999 6.400001 3.199998
v 7.999999 3.199999 -9.600001
v 7.399999 3.799999 -9.600001
v 10.599999 7.000001 3.199998
v 11.199999 6.349998 -9.600002
v 11.199998 6.349998 -14.400002
v 11.799997 3.799998 -15.000002
v 11.799998 3.799999 -9.600001
v 11.799999 3.799999 -9.600001
v 11.799997 3.799998 -15.000002
v 11.199998 3.199998 -14.400002
v 11.199999 3.199999 -9.600001
v 0.999999 3.799998 -15.000000
v 11.799997 3.799998 -15.000002
v 11.199998 6.349998 -14.400002
v 1.599999 6.349998 -14.400002
v 11.199998 3.199998 -14.400002
v 11.799997 3.799998 -15.000002
v 0.999999 3.799998 -15.000000
v 1.599999 3.199998 -14.400001
v 5.399999 3.799999 -9.600001
v 4.799999 3.199998 -10.200001
v 4.799999 3.199999 -9.600001
v 7.399999 3.799999 -9.600001
v 7.999999 3.199999 -9.600001
v 7.999999 3.199998 -10.200002
v 7.399999 3.799999 -9.600001
v 7.999999 3.199998 -10.200002
v 4.799999 3.199998 -10.200001
v 5.399999 3.799999 -9.600001
v 7.999999 6.349998 -9.600001
v 7.399999 3.799999 -9.600001
v 5.399999 3.799999 -9.600001
v 4.799999 6.349998 -9.600001
v 2.200000 0.600001 3.200000
v 5.399999 3.799999 -9.600001
v 4.799999 3.199999 -9.600001
v 11.199999 3.199999 -9.600001
v 14.400000 6.400001 3.199998
v -1.600000 0.000001 3.200000
v 1.600000 0.000001 3.200000
v 4.799999 3.199999 -9.600001
v 1.599999 3.199999 -9.600001
v 14.400000 6.400002 3.199998
v 11.199999 3.199999 -9.600001
v 7.999999 3.199999 -9.600001
v 11.199999 6.400002 3.199998
v 4.799999 3.199999 -10.200001
v 7.999999 3.199999 -10.200002
v 11.199998 3.199998 -14.400002
v 1.599999 3.199998 -14.400001
v 1.600000 3.150001 3.200000
v -1.600000 3.150001 3.200000
v 1.599999 6.349998 -9.600001
v 4.799999 6.349998 -9.600001
v 11.199999 9.550001 3.199998
v 7.999999 6.349998 -9.600001
v 11.199999 6.349998 -9.600002
v 14.400000 9.550001 3.199997
v 1.599999 6.349998 -9.600001
v 1.599999 6.349998 -14.400002
v 11.199998 6.349998 -14.400002
v 11.199999 6.349998 -9.600002
vt 0.000000 0.000000
vt 0.000000 -3.103520
vt 6.000000 -3.103520
vt 6.000000 0.000000
vt 0.064453 0.000000
vt 0.000000 -0.990234
vt 5.929690 -0.998047
vt 5.994140 -0.009766
vt 0.000000 -3.677730
vt 0.000000 -6.781250
vt 5.999020 -6.998050
vt 6.000000 -3.896480
vt 0.064453 -1.000000
vt 5.979490 -0.990234
vt 5.929690 0.000000
vt 0.000000 0.000000
vt 0.000000 -3.000000
vt 2.999020 -3.000000
vt 2.666020 0.000000
vt 0.000000 0.000000
vt 0.000000 -1.000000
vt 2.666020 -0.998047
vt 3.000000 0.000000
vt 6.000000 0.000000
vt 0.000000 0.000000
vt 0.000000 -2.656250
vt 6.000000 -2.656250
vt 0.000000 -3.000000
vt 6.000000 -3.000000
vt 6.000000 0.000000
vt 0.000000 0.000000
vt 0.000000 -1.000000
vt 6.000000 -1.000000
vt 5.999020 0.000000
vt 0.000000 0.000000
vt 3.000000 0.000000
vt 0.333984 0.000000
vt 0.000000 -3.000000
vt 3.000000 -3.000000
vt 3.000000 0.000000
vt 0.000000 0.000000
vt 0.333008 -0.998047
vt 3.000000 -1.000000
vt 0.000000 -3.000000
vt 6.000000 -3.000000
vt 5.666990 0.000000
vt 0.333984 0.000000
vt 5.666020 -1.000000
vt 6.000000 0.000000
vt 0.000977 0.000000
vt 0.333984 -1.000000
vt 0.500000 0.000000
vt 0.000000 -1.000000
vt 0.500000 -1.000000
vt 0.000000 0.000000
vt 0.000000 -1.000000
vt 0.500000 -1.000000
vt 0.187500 0.000000
vt 0.000000 -1.000000
vt 1.000000 -0.998047
vt 0.812500 0.000000
vt 0.000000 0.000000
vt 0.187500 -3.000000
vt 0.811523 -2.998050
vt 1.000000 0.000000
vt 5.929690 0.000000
vt 0.006836 -0.009766
vt 0.064453 -1.000000
vt -0.062500 -3.406250
vt 6.031250 -3.406250
vt -1.203125 -3.000000
vt -0.453125 -3.000000
vt 0.156250 -0.968750
vt -0.500000 -0.968750
vt 2.218750 -3.000000
vt 1.468750 -0.968750
vt 0.812500 -0.968750
vt 1.468750 -3.000000
vt 0.156250 -0.859375
vt -0.500000 0.000000
vt 0.812500 -0.859375
vt 1.468750 0.000000
vt 0.000000 -4.000000
vt 1.000000 -4.000000
vt 1.000000 0.000000
vt 0.000000 0.000000
vt 0.000000 -1.000000
vt 4.000000 -1.000000
vt 4.000000 0.000000
vt 0.000000 0.000000
vt 0.000000 -4.000000
vt 2.000000 -4.000000
vt 2.000000 -0.003906
vt 0.000000 -0.003906
vn 0.9570 -0.2252 0.1830
vn 0.6667 0.6667 0.3333
vn -0.9322 -0.2193 -0.2879
vn -0.7071 0.7071 -0.0000
vn 0.9734 -0.2290 -0.0000
vn 0.7071 0.7071 -0.0000
vn -0.9322 -0.2193 0.2879
vn 0.9570 -0.2252 -0.1830
vn 0.6667 0.6667 -0.3333
vn -0.9734 -0.2290 0.0000
vn 0.0000 -0.2290 0.9734
vn 0.0000 0.7071 0.7071
vn 0.0000 0.7071 -0.7071
vn 0.0000 0.0000 -1.0000
vn 0.0000 0.9701 0.2425
vn 0.0000 0.9701 -0.2425
vn 0.0000 1.0000 -0.0000
vn 0.0000 -0.9701 -0.2425
vn 0.0000 -0.9701 0.2425
vn 0.0000 -1.0000 0.0000
usemtl 124_4-0
s off
f 1/1/1 2/2/1 3/3/1
f 1/1/1 3/3/1 4/4/1
f 5/5/2 6/6/2 7/7/2
f 5/5/2 7/7/2 8/8/2
f 9/9/3 10/10/3 11/11/3
f 9/9/3 11/11/3 12/12/3
f 13/13/4 14/14/4 15/15/4
f 16/16/5 17/17/5 18/18/5
f 16/16/5 18/18/5 19/19/5
f 20/20/6 21/21/6 22/22/6
f 20/20/6 22/22/6 23/23/6
f 24/24/7 25/25/7 26/26/7
f 24/24/7 26/26/7 27/27/7
f 29/28/8 30/29/8 31/30/8
f 29/28/8 31/30/8 32/31/8
f 33/32/9 34/33/9 35/34/9
f 33/32/9 35/34/9 36/35/9
f 37/36/10 38/37/10 39/38/10
f 37/36/10 39/38/10 40/39/10
f 41/40/4 42/41/4 43/42/4
f 41/40/4 43/42/4 44/43/4
f 45/44/11 46/45/11 47/46/11
f 45/44/11 47/46/11 48/47/11
f 49/48/12 50/49/12 51/50/12
f 49/48/12 51/50/12 52/51/12
f 53/52/4 54/53/4 55/54/4
f 56/55/6 57/56/6 58/57/6
f 59/58/13 60/59/13 61/60/13
f 59/58/13 61/60/13 62/61/13
f 63/62/14 64/63/14 65/64/14
f 63/62/14 65/64/14 66/65/14
f 67/66/4 68/67/4 69/68/4
f 27/27/4 26/26/4 70/69/4 71/70/4
usemtl 124_2-0
f 72/71/15 73/72/15 74/73/15
f 72/71/15 74/73/15 75/74/15
f 76/75/16 77/76/16 78/77/16
f 76/75/16 78/77/16 79/78/16
f 75/74/17 80/79/17 83/80/17
f 75/74/17 74/73/17 80/79/17
f 77/76/17 81/81/17 78/77/17
f 77/76/17 82/82/17 81/81/17
f 80/79/17 81/81/17 82/82/17
f 80/79/17 82/82/17 83/80/17
usemtl 124_3-0
f 84/83/18 85/84/18 86/85/18
f 84/83/18 86/85/18 87/86/18
f 88/87/19 89/88/19 90/89/19
f 88/87/19 90/89/19 91/90/19
f 92/91/20 93/92/20 94/93/20
f 92/91/20 94/93/20 95/94/20
