# Blender v2.82 (sub 7) OBJ File: '56300.blend'
# www.blender.org
mtllib 56300.mtl
o model56300-node_model56300
v -3.050000 6.100000 3.050000
v -2.400000 6.100000 3.050000
v -0.000000 6.100000 -0.000001
v -2.400000 5.850000 3.050000
v -1.600000 5.850000 3.050000
v -0.000000 5.850000 -0.000001
v -1.600000 5.550001 3.050000
v -0.800000 5.550001 3.050000
v -0.000000 5.550000 -0.000001
v -0.800000 5.300001 3.050000
v 0.000000 5.300001 3.049999
v -0.000000 5.300000 -0.000001
v 0.000000 5.000000 3.050000
v 0.800000 5.000000 3.049999
v -0.000000 5.000000 -0.000001
v 0.800000 4.750000 3.050000
v 1.600000 4.750000 3.049999
v -0.000000 4.750000 -0.000001
v 1.600000 4.450000 3.049999
v 2.400000 4.450000 3.049999
v -0.000000 4.450000 -0.000001
v 2.400000 4.200000 3.049999
v 3.049999 4.200000 3.049999
v -0.000000 4.200000 -0.000001
v 3.049999 3.900000 3.049999
v 3.049999 3.900000 2.399999
v -0.000000 3.900000 -0.000001
v 3.049999 3.650000 2.399999
v 3.049999 3.650000 1.599999
v -0.000000 3.650000 -0.000001
v 3.049999 3.350000 1.599999
v 3.049999 3.350000 0.799999
v -0.000000 3.350000 -0.000001
v 3.049999 3.100000 0.799999
v 3.049999 3.100000 -0.000001
v -0.000000 3.100000 -0.000001
v 3.049999 2.800000 -0.000001
v 3.049999 2.800000 -0.800001
v -0.000000 2.800000 -0.000000
v 3.049999 2.550000 -0.800001
v 3.049998 2.550000 -1.600001
v -0.000000 2.550000 -0.000000
v 3.049998 2.250000 -1.600001
v 3.049998 2.250000 -2.400001
v -0.000000 2.250000 -0.000000
v 3.049998 2.000000 -2.400001
v 3.049998 1.999999 -3.050000
v -0.000000 2.000000 -0.000000
v 3.049998 1.749999 -3.050000
v 2.400000 1.749999 -3.050000
v -0.000000 1.750000 -0.000000
v 2.400000 1.500000 -3.049999
v 1.600000 1.500000 -3.049999
v -0.000000 1.500000 -0.000000
v 1.600000 1.250000 -3.049999
v 0.800000 1.250000 -3.049999
v -0.000000 1.250000 -0.000000
v 0.800000 1.000000 -3.049999
v -0.000000 1.000000 -3.049999
v -0.000000 1.000000 -0.000000
v -0.000000 0.750000 -3.049999
v -0.800000 0.750000 -3.049999
v -0.000000 0.750000 -0.000000
v -0.800000 0.500000 -3.049999
v -1.600000 0.500000 -3.049999
v -0.000000 0.500000 -0.000000
v -1.600000 0.250000 -3.049999
v -2.400000 0.250000 -3.049999
v -0.000000 0.250000 -0.000000
v -3.050000 -0.000000 -3.050000
v -3.050000 0.000000 3.050000
v 0.000000 0.000000 0.000000
v -2.400000 -0.000000 -3.049999
v 0.000000 0.000000 0.000000
v -3.050000 0.000000 3.050000
v 3.050000 0.000000 3.050000
v 3.049999 0.000000 -0.000000
v 0.000000 0.000000 0.000000
v -0.000000 0.250000 -0.000000
v -2.400000 0.250000 -3.049999
v -2.400000 -0.000000 -3.049999
v -0.000000 0.250000 -0.000000
v -0.000000 0.500000 -0.000000
v -1.600000 0.500000 -3.049999
v -1.600000 0.250000 -3.049999
v -0.000000 0.500000 -0.000000
v -0.000000 0.750000 -0.000000
v -0.800000 0.750000 -3.049999
v -0.800000 0.500000 -3.049999
v -0.000000 0.750000 -0.000000
v -0.000000 1.000000 -0.000000
v -0.000000 1.000000 -3.049999
v -0.000000 0.750000 -3.049999
v -0.000000 1.000000 -0.000000
v -0.000000 1.250000 -0.000000
v 0.800000 1.250000 -3.049999
v 0.800000 1.000000 -3.049999
v -0.000000 1.250000 -0.000000
v -0.000000 1.500000 -0.000000
v 1.600000 1.500000 -3.049999
v 1.600000 1.250000 -3.049999
v -0.000000 1.500000 -0.000000
v -0.000000 1.750000 -0.000000
v 2.400000 1.749999 -3.050000
v 2.400000 1.500000 -3.049999
v -0.000000 1.750000 -0.000000
v -0.000000 2.000000 -0.000000
v 3.049998 1.999999 -3.050000
v 3.049998 1.749999 -3.050000
v -0.000000 2.000000 -0.000000
v -0.000000 2.250000 -0.000000
v 3.049998 2.250000 -2.400001
v 3.049998 2.000000 -2.400001
v -0.000000 2.250000 -0.000000
v -0.000000 2.550000 -0.000000
v 3.049998 2.550000 -1.600001
v 3.049998 2.250000 -1.600001
v -0.000000 2.550000 -0.000000
v -0.000000 2.800000 -0.000000
v 3.049999 2.800000 -0.800001
v 3.049999 2.550000 -0.800001
v -0.000000 2.800000 -0.000000
v -0.000000 3.100000 -0.000001
v 3.049999 3.100000 -0.000001
v 3.049999 2.800000 -0.000001
v -0.000000 3.100000 -0.000001
v -0.000000 3.350000 -0.000001
v 3.049999 3.350000 0.799999
v 3.049999 3.100000 0.799999
v -0.000000 3.350000 -0.000001
v -0.000000 3.650000 -0.000001
v 3.049999 3.650000 1.599999
v 3.049999 3.350000 1.599999
v -0.000000 3.650000 -0.000001
v -0.000000 3.900000 -0.000001
v 3.049999 3.900000 2.399999
v 3.049999 3.650000 2.399999
v -0.000000 3.900000 -0.000001
v -0.000000 4.200000 -0.000001
v 3.049999 4.200000 3.049999
v 3.049999 3.900000 3.049999
v -0.000000 4.200000 -0.000001
v -0.000000 4.450000 -0.000001
v 2.400000 4.450000 3.049999
v 2.400000 4.200000 3.049999
v -0.000000 4.450000 -0.000001
v -0.000000 4.750000 -0.000001
v 1.600000 4.750000 3.049999
v 1.600000 4.450000 3.049999
v -0.000000 4.750000 -0.000001
v -0.000000 5.000000 -0.000001
v 0.800000 5.000000 3.049999
v 0.800000 4.750000 3.050000
v -0.000000 5.000000 -0.000001
v -0.000000 5.300000 -0.000001
v 0.000000 5.300001 3.049999
v 0.000000 5.000000 3.050000
v -0.000000 5.300000 -0.000001
v -0.000000 5.550000 -0.000001
v -0.800000 5.550001 3.050000
v -0.800000 5.300001 3.050000
v -0.000000 5.550000 -0.000001
v -0.000000 5.850000 -0.000001
v -1.600000 5.850000 3.050000
v -1.600000 5.550001 3.050000
v -0.000000 5.850000 -0.000001
v -0.000000 6.100000 -0.000001
v -2.400000 6.100000 3.050000
v -2.400000 5.850000 3.050000
v -0.000000 6.100000 -0.000001
v -0.000000 6.400000 -0.000001
v -3.050000 6.400001 3.050000
v -3.050000 6.100000 3.050000
v -0.000000 4.450000 -0.000001
v 0.000000 4.450000 3.050000
v -3.050000 5.550001 3.050000
v -3.050000 5.550001 3.050000
v -0.000000 5.550000 -0.000001
v -0.000000 4.450000 -0.000001
v -0.000000 3.350000 -0.000001
v 3.049999 3.350000 3.050000
v 0.000000 4.450000 3.050000
v 0.000000 4.450000 3.050000
v -0.000000 4.450000 -0.000001
v -0.000000 3.350000 -0.000001
v -0.000000 2.250000 -0.000000
v 3.049999 2.250000 -0.000001
v 3.049999 3.350000 3.050000
v 3.049999 3.350000 3.050000
v -0.000000 3.350000 -0.000001
v -0.000000 2.250000 -0.000000
v 0.000000 0.000000 0.000000
v 3.049999 0.000000 -0.000000
v 3.049999 2.250000 -0.000001
v -0.000000 2.250000 -0.000000
vt 0.015625 -1.982420
vt 0.212891 -1.982420
vt 1.000000 -1.000000
vt 0.212891 -1.982420
vt 0.474609 -1.982420
vt 1.000000 -1.000000
vt 0.474609 -1.982420
vt 0.738281 -1.982420
vt 1.000000 -1.000000
vt 0.738281 -1.982420
vt 1.000000 -1.982420
vt 1.000000 -1.000000
vt 1.000000 -1.982420
vt 1.261720 -1.982420
vt 1.000000 -1.000000
vt 1.261720 -1.982420
vt 1.523440 -1.982420
vt 1.000000 -1.000000
vt 1.523440 -1.982420
vt 1.787110 -1.982420
vt 1.000000 -1.000000
vt 1.787110 -1.982420
vt 1.982420 -1.982420
vt 1.000000 -1.000000
vt 1.982420 -1.982420
vt 1.982420 -1.787110
vt 1.000000 -1.000000
vt 1.982420 -1.787110
vt 1.982420 -1.523440
vt 1.000000 -1.000000
vt 1.982420 -1.523440
vt 1.982420 -1.261720
vt 1.000000 -1.000000
vt 1.982420 -1.261720
vt 1.982420 -1.000000
vt 1.000000 -1.000000
vt 1.982420 -1.000000
vt 1.982420 -0.738281
vt 1.000000 -1.000000
vt 1.982420 -0.738281
vt 1.982420 -0.474609
vt 1.000000 -1.000000
vt 1.982420 -0.474609
vt 1.982420 -0.212891
vt 1.000000 -1.000000
vt 1.982420 -0.212891
vt 1.982420 -0.015625
vt 1.000000 -1.000000
vt 1.982420 -0.015625
vt 1.787110 -0.015625
vt 1.000000 -1.000000
vt 1.787110 -0.015625
vt 1.523440 -0.015625
vt 1.000000 -1.000000
vt 1.523440 -0.015625
vt 1.261720 -0.015625
vt 1.000000 -1.000000
vt 1.261720 -0.015625
vt 1.000000 -0.015625
vt 1.000000 -1.000000
vt 1.000000 -0.015625
vt 0.738281 -0.015625
vt 1.000000 -1.000000
vt 0.738281 -0.015625
vt 0.474609 -0.015625
vt 1.000000 -1.000000
vt 0.474609 -0.015625
vt 0.212891 -0.015625
vt 1.000000 -1.000000
vt 0.000000 0.000000
vt 0.000000 -2.000000
vt 0.998047 -0.996094
vt 0.212891 -0.015625
vt 1.000000 -1.000000
vt 0.000000 -2.000000
vt 1.997070 -1.999020
vt 1.982420 -1.000000
vt 0.000000 -2.000000
vt 1.000000 -2.000000
vt 1.000000 0.000000
vt 0.000000 0.000000
vt 0.000000 -2.000000
vt 1.000000 -2.000000
vt 1.000000 0.000000
vt 0.000000 0.000000
vt 0.000000 -2.000000
vt 1.000000 -2.000000
vt 1.000000 0.000000
vt 0.000000 0.000000
vt 0.000000 -2.000000
vt 1.000000 -2.000000
vt 1.000000 0.000000
vt 0.000000 0.000000
vt 0.000000 -2.000000
vt 1.000000 -2.000000
vt 1.000000 0.000000
vt 0.000000 0.000000
vt 0.000000 -2.000000
vt 1.000000 -2.000000
vt 1.000000 0.000000
vt 0.000000 0.000000
vt 0.000000 -2.000000
vt 1.000000 -2.000000
vt 1.000000 0.000000
vt 0.000000 0.000000
vt 0.000000 -2.000000
vt 1.000000 -2.000000
vt 1.000000 0.000000
vt 0.000000 0.000000
vt 0.000000 -2.000000
vt 1.000000 -2.000000
vt 1.000000 0.000000
vt 0.000000 0.000000
vt 0.000000 -2.000000
vt 1.000000 -2.000000
vt 1.000000 0.000000
vt 0.000000 0.000000
vt 0.000000 -2.000000
vt 1.000000 -2.000000
vt 1.000000 0.000000
vt 0.000000 0.000000
vt 0.000000 -2.000000
vt 1.000000 -2.000000
vt 1.000000 0.000000
vt 0.000000 0.000000
vt 0.000000 -2.000000
vt 1.000000 -2.000000
vt 1.000000 0.000000
vt 0.000000 0.000000
vt 0.000000 -2.000000
vt 1.000000 -2.000000
vt 1.000000 0.000000
vt 0.000000 0.000000
vt 0.000000 -2.000000
vt 1.000000 -2.000000
vt 0.999023 0.000000
vt 0.000000 0.000000
vt 0.000000 -2.000000
vt 1.000000 -2.000000
vt 1.000000 0.000000
vt 0.000000 0.000000
vt 0.000000 -2.000000
vt 1.000000 -2.000000
vt 1.000000 0.000000
vt 0.000000 0.000000
vt 0.000000 -2.000000
vt 1.000000 -2.000000
vt 1.000000 0.000000
vt 0.000000 0.000000
vt 0.000000 -2.000000
vt 1.000000 -2.000000
vt 1.000000 0.000000
vt 0.000000 0.000000
vt 0.000000 -2.000000
vt 1.000000 -2.000000
vt 1.000000 0.000000
vt 0.000000 0.000000
vt 0.000000 -2.000000
vt 1.000000 -2.000000
vt 0.999023 0.000000
vt 0.000000 0.000000
vt 0.000000 -2.000000
vt 1.000000 -2.000000
vt 1.000000 0.000000
vt 0.000000 0.000000
vt 0.000000 -2.000000
vt 1.000000 -2.000000
vt 1.000000 0.000000
vt 0.000000 0.000000
vt 0.000000 -2.000000
vt 1.000000 -2.000000
vt 1.000000 0.000000
vt 0.000000 0.000000
vt 0.000000 0.000000
vt 0.000000 -2.000000
vt 1.000000 -2.000000
vt 0.000000 0.000000
vt 0.000000 -2.000000
vt 1.000000 -2.000000
vt 0.000000 0.000000
vt 0.000000 -2.000000
vt 1.000000 -2.000000
vt 0.000000 0.000000
vt 0.000000 -2.000000
vt 1.000000 -2.000000
vt 0.000000 0.000000
vt 0.000000 -2.000000
vt 1.000000 -2.000000
vt 0.000000 0.000000
vt 0.000000 -2.000000
vt 1.000000 -2.000000
vt 0.000000 -2.000000
vt 1.000000 -2.000000
vt 1.000000 0.000000
vt 0.000000 0.000000
vn 0.0000 1.0000 0.0000
vn -0.7859 0.0000 0.6184
vn -0.8855 0.0000 0.4645
vn -0.9673 0.0000 0.2537
vn -1.0000 -0.0000 0.0000
vn -0.9673 0.0000 -0.2537
vn -0.8855 0.0000 -0.4645
vn -0.7859 0.0000 -0.6184
vn -0.7071 0.0000 -0.7071
vn -0.6184 -0.0000 -0.7859
vn -0.4646 0.0000 -0.8855
vn -0.4645 -0.0000 -0.8855
vn -0.2537 -0.0000 -0.9673
vn -0.0000 -0.0000 -1.0000
vn 0.2537 -0.0000 -0.9673
vn 0.4645 0.0000 -0.8855
vn 0.6184 -0.0000 -0.7859
vn 0.7071 0.0000 -0.7071
vn 0.7859 0.0000 -0.6184
vn 0.8855 0.0000 -0.4645
vn 0.9673 0.0000 -0.2537
vn 1.0000 -0.0000 -0.0000
vn 0.9673 0.0000 0.2537
vn 0.8855 0.0000 0.4645
vn 0.8855 0.0000 0.4646
vn 0.7859 0.0000 0.6184
vn 0.7071 0.0000 0.7071
vn -0.3393 -0.9407 0.0000
vn -0.3213 -0.8908 0.3213
vn 0.0000 -0.9407 0.3393
vn -0.7071 0.0000 0.7071
vn 0.0000 0.0000 1.0000
usemtl 122_2-0
s off
f 1/1/1 2/2/1 3/3/1
f 4/4/1 5/5/1 6/6/1
f 7/7/1 8/8/1 9/9/1
f 10/10/1 11/11/1 12/12/1
f 13/13/1 14/14/1 15/15/1
f 16/16/1 17/17/1 18/18/1
f 19/19/1 20/20/1 21/21/1
f 22/22/1 23/23/1 24/24/1
f 25/25/1 26/26/1 27/27/1
f 28/28/1 29/29/1 30/30/1
f 31/31/1 32/32/1 33/33/1
f 34/34/1 35/35/1 36/36/1
f 37/37/1 38/38/1 39/39/1
f 40/40/1 41/41/1 42/42/1
f 43/43/1 44/44/1 45/45/1
f 46/46/1 47/47/1 48/48/1
f 49/49/1 50/50/1 51/51/1
f 52/52/1 53/53/1 54/54/1
f 55/55/1 56/56/1 57/57/1
f 58/58/1 59/59/1 60/60/1
f 61/61/1 62/62/1 63/63/1
f 64/64/1 65/65/1 66/66/1
f 67/67/1 68/68/1 69/69/1
f 70/70/1 71/71/1 72/72/1
f 70/70/1 72/72/1 73/73/1
f 74/74/1 75/75/1 76/76/1
f 74/74/1 76/76/1 77/77/1
usemtl 122_4-0
f 78/78/2 79/79/2 80/80/2
f 78/78/2 80/80/2 81/81/2
f 82/82/3 83/83/3 84/84/3
f 82/82/3 84/84/3 85/85/3
f 86/86/4 87/87/4 88/88/4
f 86/86/4 88/88/4 89/89/4
f 90/90/5 91/91/5 92/92/5
f 90/90/5 92/92/5 93/93/5
f 94/94/6 95/95/6 96/96/6
f 94/94/6 96/96/6 97/97/6
f 98/98/7 99/99/7 100/100/7
f 98/98/7 100/100/7 101/101/7
f 102/102/8 103/103/8 104/104/8
f 102/102/8 104/104/8 105/105/8
f 106/106/9 107/107/9 108/108/9
f 106/106/9 108/108/9 109/109/9
f 110/110/10 111/111/10 112/112/10
f 110/110/10 112/112/10 113/113/10
f 114/114/11 115/115/11 116/116/11
f 114/114/12 116/116/12 117/117/12
f 118/118/13 119/119/13 120/120/13
f 118/118/13 120/120/13 121/121/13
f 122/122/14 123/123/14 124/124/14
f 122/122/14 124/124/14 125/125/14
f 126/126/15 127/127/15 128/128/15
f 126/126/15 128/128/15 129/129/15
f 130/130/16 131/131/16 132/132/16
f 130/130/16 132/132/16 133/133/16
f 134/134/17 135/135/17 136/136/17
f 134/134/17 136/136/17 137/137/17
f 138/138/18 139/139/18 140/140/18
f 138/138/18 140/140/18 141/141/18
f 142/142/19 143/143/19 144/144/19
f 142/142/19 144/144/19 145/145/19
f 146/146/20 147/147/20 148/148/20
f 146/146/20 148/148/20 149/149/20
f 150/150/21 151/151/21 152/152/21
f 150/150/21 152/152/21 153/153/21
f 154/154/22 155/155/22 156/156/22
f 154/154/22 156/156/22 157/157/22
f 158/158/23 159/159/23 160/160/23
f 158/158/23 160/160/23 161/161/23
f 162/162/24 163/163/24 164/164/24
f 162/162/25 164/164/25 165/165/25
f 166/166/26 167/167/26 168/168/26
f 166/166/26 168/168/26 169/169/26
f 170/170/27 171/171/27 172/172/27
f 170/170/27 172/172/27 173/173/27
f 174/174/28 175/175/28 176/176/28
f 177/177/9 178/178/9 179/179/9
f 180/180/29 181/181/29 182/182/29
f 183/183/5 184/184/5 185/185/5
f 186/186/30 187/187/30 188/188/30
f 189/189/31 190/190/31 191/191/31
f 192/192/32 193/193/32 194/194/32
f 192/192/32 194/194/32 195/195/32
