# Blender v2.92.0 OBJ File: '43137.blend'
# www.blender.org
mtllib 43137.mtl
o model43138-node_model43138
v 6.004300 3.115001 5.821199
v 6.004300 4.115001 5.821199
v -5.995700 4.115001 5.821200
v -5.995700 3.115001 5.821200
v -5.995701 3.114999 -7.778800
v 6.004299 3.114999 -7.778801
v 6.004300 3.115001 5.821199
v -5.995700 3.115001 5.821200
v 6.004299 4.114999 -7.778802
v -5.995701 4.114999 -7.778800
v -5.995700 4.115001 5.821200
v 6.004300 4.115001 5.821199
v -5.995701 4.114999 -7.778800
v 6.004299 4.114999 -7.778802
v 6.004299 3.114999 -7.778801
v -5.995701 3.114999 -7.778800
v 5.056249 -2.084864 -6.978800
v -5.047651 -2.084864 -6.978799
v -5.047651 3.115049 -6.978800
v 5.056249 3.115049 -6.978801
v 1.004298 -0.691699 4.021200
v 1.004298 -0.691699 4.821200
v 1.004298 2.508301 4.821100
v 1.004298 2.508301 4.021100
v -0.995702 2.508301 4.021100
v -0.995702 2.508301 4.821100
v -0.995702 -0.691699 4.821201
v -0.995702 -0.691699 4.021201
v -0.995702 -0.691699 4.821201
v -0.995702 2.508301 4.821100
v -5.047649 3.115051 4.821200
v -5.047649 -2.084862 4.821101
v 5.056250 3.115051 4.821199
v 1.004298 2.508301 4.821100
v 1.004298 -0.691699 4.821200
v 5.056250 -2.084862 4.821100
v 2.737524 -2.091702 4.819904
v 4.137524 -2.091702 4.819903
v 3.079674 -0.891702 5.178894
v 2.931525 -0.891702 4.821168
v 2.931525 3.115000 4.821169
v 3.079774 3.115000 5.178895
v 3.437500 -0.891702 5.327044
v 3.437500 3.115000 5.327045
v 3.943350 -0.891702 4.821168
v 3.795200 -0.891702 5.178894
v 3.795200 3.115000 5.178895
v 3.943350 3.115000 4.821169
v 2.711425 -2.091702 -7.776755
v 4.111425 -2.091702 -7.776755
v 4.111425 -0.891702 -6.976747
v 4.111425 -2.091702 -6.976747
v -0.995702 2.508301 4.021100
v -0.995702 -0.691699 4.021201
v 1.004298 -0.691699 4.021200
v 1.004298 2.508301 4.021100
v 4.137524 -2.091702 5.619895
v 4.137524 -0.891703 5.619895
v 4.137524 -0.891702 4.819895
v 4.137524 -2.091702 4.819903
v 4.137524 -0.891701 5.619895
v 2.737524 -0.891701 5.619895
v 2.737524 -0.891701 4.819895
v 4.137524 -0.891701 4.819895
v 2.737524 -0.891702 5.619895
v 2.737524 -2.091703 5.619904
v 2.737524 -2.091702 4.819895
v 2.737524 -0.891702 4.819895
v 5.563406 3.114999 -4.078346
v 5.563405 -0.891702 -4.078346
v 5.415256 3.115000 -3.720620
v 5.057529 3.115000 -3.572370
v 5.057529 -0.891702 -3.572370
v 5.415255 -0.891702 -3.720520
v 5.056264 -2.091702 -4.778369
v 5.056264 -2.091702 -3.378369
v 5.056264 -2.091702 -4.778369
v 5.056255 -0.891702 -4.778369
v 5.856255 -0.891703 -4.778369
v 5.856255 -2.091702 -4.778369
v 5.057529 3.115000 -4.584196
v 5.415256 3.115000 -4.436045
v 5.415255 -0.891702 -4.436045
v 5.057529 -0.891702 -4.584196
v 2.204298 -2.091699 4.820012
v 2.204298 -1.691699 4.820012
v 2.204298 -1.691601 6.820012
v 2.204298 -2.091699 6.820012
v 2.204298 -1.691699 4.820012
v -2.195702 -1.691699 4.820013
v -2.195702 -1.691601 6.820013
v 2.204298 -1.691601 6.820012
v -2.195702 -1.691699 4.820013
v -2.195702 -2.091699 4.820013
v -2.195702 -2.091699 6.820013
v -2.195702 -1.691601 6.820013
v 1.804298 -1.692613 4.820012
v 1.804298 -1.271679 4.820012
v 1.804298 -1.271679 6.420012
v 1.804298 -1.692612 6.420012
v 1.804298 -1.271679 4.820012
v -1.795702 -1.271679 4.820013
v -1.795702 -1.271679 6.420012
v 1.804298 -1.271679 6.420012
v -1.795702 -1.271679 4.820013
v -1.795702 -1.692613 4.820013
v -1.795702 -1.692612 6.420013
v -1.795702 -1.271679 6.420012
v 1.404298 -1.273129 4.820012
v 1.404298 -0.851659 4.820012
v 1.404298 -0.851659 6.020012
v 1.404298 -1.273128 6.020012
v 1.404298 -0.851659 4.820012
v -1.395702 -0.851659 4.820013
v -1.395702 -0.851659 6.020012
v 1.404298 -0.851659 6.020012
v -1.395702 -0.851659 4.820013
v -1.395702 -1.273129 4.820013
v -1.395702 -1.273128 6.020012
v -1.395702 -0.851659 6.020012
v -2.695250 -2.091703 -7.776756
v -2.695250 -0.891702 -7.776747
v -4.095250 -0.891701 -6.976747
v -2.695250 -0.891701 -6.976747
v -2.695250 -0.891701 -7.776747
v -4.095249 -0.891701 -7.776746
v -4.095250 -2.091702 -6.976755
v -4.095250 -0.891702 -6.976747
v -4.095250 -2.091702 -7.776755
v -2.695250 -2.091702 -7.776750
v -2.695250 -0.891702 -6.976747
v -2.695250 -2.091702 -6.976747
v -4.095249 -0.891703 -7.776746
v -4.095249 -2.091702 -7.776746
v -4.095250 -2.091702 -6.976755
v -2.695249 -2.091702 -6.976750
v -3.901076 3.115000 -6.978016
v -3.752926 3.115000 -7.335742
v -3.752926 -0.891702 -7.335741
v -3.901076 -0.891702 -6.978015
v -3.395226 3.115000 -7.483891
v -3.395226 -0.891702 -7.483891
v -3.037500 3.115000 -7.335742
v -2.889250 3.115000 -6.978016
v -2.889250 -0.891702 -6.978015
v -3.037400 -0.891702 -7.335741
v 2.905588 3.115000 -6.978016
v 3.053739 3.115000 -7.335742
v 3.053739 -0.891702 -7.335741
v 2.905588 -0.891702 -6.978015
v 3.411438 3.115000 -7.483891
v 3.411438 -0.891702 -7.483891
v 3.769164 3.115000 -7.335742
v 3.917414 3.115000 -6.978016
v 3.917414 -0.891702 -6.978015
v 3.769264 -0.891702 -7.335741
v 2.737524 -2.091702 5.619904
v 4.137524 -2.091702 5.619903
v 4.111425 -2.091703 -7.776755
v 4.111425 -0.891702 -7.776747
v 2.711425 -0.891701 -6.976746
v 4.111425 -0.891701 -6.976747
v 4.111425 -0.891701 -7.776747
v 2.711425 -0.891701 -7.776746
v 2.711425 -2.091702 -6.976755
v 2.711425 -0.891702 -6.976746
v 2.711425 -0.891703 -7.776746
v 2.711425 -2.091702 -7.776746
v 2.711425 -2.091702 -6.976755
v 4.111425 -2.091702 -6.976755
v -3.056650 3.115000 4.821170
v -3.204801 3.115000 5.178895
v -3.204801 -0.891702 5.178895
v -3.056650 -0.891702 4.821169
v -3.562500 3.115000 5.327045
v -3.562500 -0.891702 5.327045
v -3.920226 3.115000 5.178895
v -4.068476 3.115000 4.821170
v -4.068476 -0.891702 4.821170
v -3.920326 -0.891702 5.178895
v -4.262475 -2.091702 4.819904
v -2.862475 -2.091702 4.819903
v -2.862475 -2.091702 5.619895
v -2.862475 -0.891703 5.619895
v -2.862475 -0.891702 4.819895
v -2.862475 -2.091702 4.819903
v -2.862475 -0.891701 5.619895
v -4.262475 -0.891701 5.619895
v -4.262475 -0.891701 4.819895
v -2.862475 -0.891701 4.819895
v -4.262475 -0.891702 5.619895
v -4.262475 -2.091703 5.619904
v -4.262475 -2.091702 4.819895
v -4.262475 -0.891702 4.819895
v -4.262475 -2.091702 5.619904
v -2.862475 -2.091702 5.619903
v 5.856255 -0.891701 -4.778369
v 5.856256 -0.891701 -3.378369
v 5.056255 -0.891701 -3.378369
v 5.056255 -0.891701 -4.778369
v 5.856256 -0.891702 -3.378369
v 5.856264 -2.091703 -3.378370
v 5.056255 -2.091702 -3.378369
v 5.056255 -0.891702 -3.378369
v 5.856264 -2.091702 -3.378370
v 5.856263 -2.091702 -4.778369
v 5.057531 3.115000 1.214766
v 5.415257 3.115000 1.362916
v 5.415256 -0.891702 1.362916
v 5.057531 -0.891702 1.214766
v 5.563407 3.114999 1.720616
v 5.563406 -0.891702 1.720616
v 5.415257 3.115000 2.078341
v 5.057532 3.115000 2.226592
v 5.057531 -0.891702 2.226592
v 5.415256 -0.891702 2.078441
v 5.056265 -2.091702 2.420590
v 5.056264 -2.091702 1.020591
v 5.856256 -2.091702 1.020591
v 5.856256 -0.891703 1.020591
v 5.056256 -0.891702 1.020591
v 5.056264 -2.091702 1.020591
v 5.856256 -0.891701 1.020591
v 5.856256 -0.891701 2.420590
v 5.056257 -0.891701 2.420590
v 5.056256 -0.891701 1.020591
v 5.856256 -0.891702 2.420590
v 5.856265 -2.091703 2.420590
v 5.056257 -2.091702 2.420590
v 5.056257 -0.891702 2.420590
v 5.856265 -2.091702 2.420590
v 5.856265 -2.091702 1.020591
v -5.554662 3.114999 1.899489
v -5.554661 -0.891702 1.899489
v -5.406512 3.115000 1.541763
v -5.048787 3.115000 1.393513
v -5.048786 -0.891702 1.393513
v -5.406511 -0.891702 1.541663
v -5.047521 -2.091702 2.599512
v -5.047521 -2.091702 1.199512
v -5.047521 -2.091702 2.599512
v -5.047513 -0.891702 2.599512
v -5.847512 -0.891703 2.599512
v -5.847512 -2.091702 2.599512
v -5.048787 3.115000 2.405339
v -5.406512 3.115000 2.257188
v -5.406511 -0.891702 2.257188
v -5.048786 -0.891702 2.405339
v -5.847512 -0.891701 2.599512
v -5.847512 -0.891701 1.199512
v -5.047513 -0.891701 1.199512
v -5.047513 -0.891701 2.599512
v -5.847512 -0.891702 1.199512
v -5.847521 -2.091703 1.199513
v -5.047513 -2.091702 1.199512
v -5.047513 -0.891702 1.199512
v -5.847521 -2.091702 1.199513
v -5.847520 -2.091702 2.599512
v -5.048788 3.115000 -3.393623
v -5.406513 3.115000 -3.541773
v -5.406512 -0.891702 -3.541773
v -5.048787 -0.891702 -3.393623
v -5.554663 3.114999 -3.899473
v -5.554662 -0.891702 -3.899473
v -5.406513 3.115000 -4.257198
v -5.048788 3.115000 -4.405448
v -5.048788 -0.891702 -4.405448
v -5.406512 -0.891702 -4.257298
v -5.047521 -2.091702 -4.599447
v -5.047521 -2.091702 -3.199447
v -5.847512 -2.091702 -3.199447
v -5.847512 -0.891703 -3.199447
v -5.047513 -0.891702 -3.199447
v -5.047521 -2.091702 -3.199447
v -5.847512 -0.891701 -3.199447
v -5.847512 -0.891701 -4.599447
v -5.047513 -0.891701 -4.599447
v -5.047513 -0.891701 -3.199447
v -5.847512 -0.891702 -4.599447
v -5.847521 -2.091703 -4.599447
v -5.047513 -2.091702 -4.599447
v -5.047513 -0.891702 -4.599447
v -5.847521 -2.091702 -4.599447
v -5.847521 -2.091702 -3.199447
vt 0.000000 -5.000000
vt 5.000000 -5.000000
vt 5.000000 0.000000
vt 0.000000 0.000000
vt 7.015625 0.000000
vt 3.002930 0.000000
vt 3.002930 -2.000000
vt 7.015625 -2.000000
vt 4.015625 -2.000000
vt 4.015625 0.000000
vt 0.000000 -2.000000
vt 0.000000 0.000000
vt 1.204100 -1.462890
vt 1.204100 -0.232422
vt 1.798830 -0.232422
vt 1.798830 -1.462890
vt 0.000000 0.000000
vt 0.000000 -1.000000
vt 0.999023 -0.999512
vt 1.000000 0.000000
vt 4.000000 -0.250000
vt 4.000000 0.000000
vt 0.000000 0.000000
vt 0.000000 -0.250000
vt 0.000000 -0.249023
vt 0.000000 0.000000
vt 5.000000 0.000000
vt 0.000000 0.000000
vt 0.000000 -5.000000
vt 5.000000 -5.000000
vt 4.000000 0.000000
vt 4.000000 -0.250000
vt 0.292969 0.000000
vt 0.292969 -2.000000
vt 1.000000 -2.000000
vt 1.706060 -1.999020
vt 1.000000 0.000000
vt 1.707030 0.000000
vt 2.000000 0.000000
vt 2.000000 -2.000000
vt 2.000000 0.000000
vt 1.706060 -1.999020
vt 2.000000 -2.000000
vt 1.707030 0.000000
vt 1.000000 0.000000
vt 1.000000 -2.000000
vt 0.292969 0.000000
vt 0.292969 -2.000000
vt 1.500000 0.000000
vt 0.000000 0.000000
vt 0.000000 -0.999023
vt 1.500000 -1.000000
vt 1.363280 0.000000
vt 0.135742 0.000000
vt 0.135742 -0.799805
vt 1.363280 -0.799805
vt 1.227540 0.000000
vt 0.272461 0.000000
vt 0.272461 -0.599609
vt 1.227540 -0.599609
vt 2.000000 0.000000
vt 1.707030 0.000000
vt 1.706060 -1.999020
vt 2.000000 -2.000000
vt 1.000000 0.000000
vt 1.000000 -2.000000
vt 0.292969 0.000000
vt 0.292969 -2.000000
vt 0.000000 0.000000
vt 0.000000 -2.000000
vt 2.000000 0.000000
vt 1.707030 0.000000
vt 1.706060 -1.999020
vt 2.000000 -2.000000
vt 1.000000 0.000000
vt 1.000000 -2.000000
vt 0.292969 0.000000
vt 0.292969 -2.000000
vt 0.000000 0.000000
vt 0.000000 -2.000000
vt 0.000000 0.000000
vt 0.000000 -2.000000
vt 2.000000 0.000000
vt 1.707030 0.000000
vt 1.706060 -1.999020
vt 2.000000 -2.000000
vt 1.000000 0.000000
vt 1.000000 -2.000000
vt 0.292969 0.000000
vt 0.292969 -2.000000
vt 0.000000 0.000000
vt 0.000000 -2.000000
vt 0.000000 0.000000
vt 0.000000 -2.000000
vt 2.000000 0.000000
vt 1.707030 0.000000
vt 1.706060 -1.999020
vt 2.000000 -2.000000
vt 1.000000 0.000000
vt 1.000000 -2.000000
vt 0.292969 0.000000
vt 0.292969 -2.000000
vt 0.000000 0.000000
vt 0.000000 -2.000000
vt 2.000000 0.000000
vt 1.706060 -1.999020
vt 2.000000 -2.000000
vt 1.707030 0.000000
vt 1.000000 0.000000
vt 1.000000 -2.000000
vt 0.292969 0.000000
vt 0.292969 -2.000000
vt 0.000000 0.000000
vt 0.000000 -2.000000
vt 2.000000 0.000000
vt 1.707030 0.000000
vt 1.706060 -1.999020
vt 2.000000 -2.000000
vt 1.000000 0.000000
vt 1.000000 -2.000000
vt 0.292969 0.000000
vt 0.292969 -2.000000
vt 0.000000 0.000000
vt 0.000000 -2.000000
vt 7.503910 -5.423830
vt 7.503910 -6.009770
vt 6.332030 -6.009770
vt 6.332030 -5.423830
vt 1.781250 -1.000000
vt 1.000000 -0.000000
vt 1.000000 -1.000000
vt -1.046875 0.000000
vt -1.046875 -1.000000
vt -0.296875 -1.000000
vt 7.503910 -5.423830
vt 6.332030 -5.423830
vt 6.332030 -6.009770
vt -0.296875 0.000000
vt 1.781250 -0.000000
vt 7.503910 -6.009770
vt 7.503910 -5.423830
vt 6.332030 -5.423830
vt 6.332030 -6.009770
vt -1.046875 0.000000
vt -1.046875 -1.000000
vt -0.296875 -1.000000
vt 1.781250 -1.000000
vt 1.000000 -0.000000
vt 1.000000 -1.000000
vt 1.984375 -1.000000
vt 1.984375 -0.671875
vt -0.015625 -0.671875
vt -0.015625 -1.000000
vt 3.484375 -1.000000
vt 3.484375 -0.671875
vt -1.515625 -0.671875
vt -1.515625 -1.000000
vt 1.812500 -0.656250
vt 1.812500 -0.343750
vt 0.187500 -0.343750
vt 0.187500 -0.656250
vt 3.015625 -0.656250
vt 3.015625 -0.343750
vt -1.015625 -0.343750
vt -1.015625 -0.656250
vt 1.640625 -0.328125
vt 1.640625 0.000000
vt 0.359375 0.000000
vt 0.359375 -0.328125
vt 2.531250 -0.328125
vt 2.531250 0.000000
vt -0.531250 0.000000
vt -0.531250 -0.328125
vt 7.503910 -5.423830
vt 6.332030 -6.009770
vt 7.503910 -6.009770
vt 1.781250 -1.000000
vt 1.781250 -0.000000
vt 1.000000 -0.000000
vt 6.332030 -5.423830
vt -1.046875 0.000000
vt -0.296875 -1.000000
vt -0.296875 0.000000
vt 7.503910 -5.423830
vt 7.503910 -6.009770
vt 6.332030 -6.009770
vt 6.332030 -5.423830
vt -1.046875 -1.000000
vt 1.000000 -1.000000
vt 7.503910 -5.423830
vt 6.332030 -6.009770
vt 6.332030 -5.423830
vt 7.503910 -6.009770
vt 7.503910 -5.423830
vt 6.332030 -5.423830
vt 6.332030 -6.009770
vt 7.503910 -6.009770
vt 1.781250 -1.000000
vt 1.781250 -0.000000
vt 1.000000 -0.000000
vt -1.046875 0.000000
vt -1.046875 -1.000000
vt -0.296875 -1.000000
vt 1.000000 -1.000000
vt -0.296875 0.000000
vt 1.781250 -1.000000
vt 1.000000 -0.000000
vt 1.000000 -1.000000
vt -1.046875 0.000000
vt -1.046875 -1.000000
vt -0.296875 -1.000000
vt 7.503910 -5.423830
vt 6.332030 -5.423830
vt 6.332030 -6.009770
vt -0.296875 0.000000
vt 1.781250 -0.000000
vt 7.503910 -6.009770
vt 7.503910 -5.423830
vt 6.332030 -6.009770
vt 6.332030 -5.423830
vt 7.503910 -6.009770
vt -0.296875 0.000000
vt 1.781250 -0.000000
vt 7.503910 -6.009770
vt 7.503910 -5.423830
vt 6.332030 -6.009770
vt 6.332030 -5.423830
vt 7.503910 -6.009770
vt 1.781250 -1.000000
vt 1.000000 -0.000000
vt 1.000000 -1.000000
vt -1.046875 0.000000
vt -1.046875 -1.000000
vt -0.296875 -1.000000
vt 7.503910 -5.423830
vt 6.332030 -5.423830
vt 6.332030 -6.009770
vt -0.296875 0.000000
vt 1.781250 -0.000000
vt 7.503910 -6.009770
vt 7.503910 -5.423830
vt 6.332030 -6.009770
vt 6.332030 -5.423830
vt 7.503910 -6.009770
vt 7.503910 -5.423830
vt 6.332030 -5.423830
vt 6.332030 -6.009770
vt -1.046875 0.000000
vt -1.046875 -1.000000
vt -0.296875 -1.000000
vt 1.781250 -1.000000
vt 1.000000 -0.000000
vt 1.000000 -1.000000
vt -0.296875 0.000000
vt 1.781250 -0.000000
vt 7.503910 -6.009770
vt 7.503910 -5.423830
vt 6.332030 -6.009770
vt 6.332030 -5.423830
vt 7.503910 -6.009770
vt 1.781250 -1.000000
vt 1.000000 -0.000000
vt 1.000000 -1.000000
vt -1.046875 0.000000
vt -1.046875 -1.000000
vt -0.296875 -1.000000
vt 7.503910 -5.423830
vt 6.332030 -5.423830
vt 6.332030 -6.009770
vt -0.296875 0.000000
vt 1.781250 -0.000000
vt 7.503910 -6.009770
vt 7.503910 -5.423830
vt 6.332030 -6.009770
vt 6.332030 -5.423830
vt 7.503910 -6.009770
vt 0.000000 -2.953125
vt 0.500000 -2.953125
vt 0.500000 -0.953125
vt 0.015625 -0.953125
vt 0.500000 -2.000000
vt 0.000000 -2.000000
vt 0.500000 0.000000
vt 0.015625 -0.000000
vt 0.500000 -2.000000
vt 0.000000 -2.000000
vn 0.0000 -1.0000 0.0000
vn 1.0000 0.0000 -0.0000
vn -0.0000 -0.0000 -1.0000
vn -1.0000 0.0000 0.0000
vn 0.0000 0.0000 1.0000
vn 0.0000 -0.0002 1.0000
vn 0.0000 -0.0001 1.0000
vn -0.0000 1.0000 -0.0000
vn -0.3825 0.0000 0.9239
vn 0.3827 -0.0000 0.9239
vn 0.9239 -0.0000 0.3826
vn 0.3826 0.0000 -0.9239
vn 0.9239 0.0000 -0.3827
vn 0.9239 0.0000 0.3825
vn -0.9239 -0.0000 -0.3826
vn -0.3826 -0.0000 -0.9239
vn -0.3827 -0.0000 -0.9239
vn 0.3825 0.0000 -0.9239
vn 0.9238 -0.0000 -0.3829
vn 0.9239 0.0000 -0.3826
vn -0.3826 -0.0000 0.9239
vn -0.9238 -0.0000 0.3828
vn -0.9239 0.0000 0.3826
vn 0.3828 -0.0000 0.9238
vn 0.3826 0.0000 0.9239
vn 0.3829 -0.0000 0.9238
vn -0.9239 0.0000 0.3827
vn -0.9239 0.0000 -0.3825
vn -0.3828 -0.0000 -0.9238
vn -0.3829 -0.0000 -0.9238
usemtl 341_0-0
s off
f 5/1/1 6/2/1 7/3/1
f 5/1/1 7/3/1 8/4/1
f 20/5/2 33/6/2 36/7/2
f 20/5/2 36/7/2 17/8/2
f 17/8/3 18/9/3 19/10/3
f 17/8/3 19/10/3 20/5/3
f 32/11/4 31/12/4 19/10/4
f 32/11/4 19/10/4 18/9/4
f 29/13/5 30/14/5 31/12/5
f 29/13/5 31/12/5 32/11/5
f 31/12/6 30/14/6 34/15/6
f 31/12/6 34/15/6 33/6/6
f 33/6/5 34/15/5 35/16/5
f 33/6/5 35/16/5 36/7/5
f 32/11/7 36/7/7 35/16/7
f 32/11/7 35/16/7 29/13/7
usemtl 056_3-0
f 53/17/5 54/18/5 55/19/5
f 53/17/5 55/19/5 56/20/5
usemtl 341_1-0
f 1/21/5 2/22/5 3/23/5
f 1/21/5 3/23/5 4/24/5
f 15/25/2 14/26/2 2/22/2
f 15/25/2 2/22/2 1/21/2
f 9/27/8 10/28/8 11/29/8
f 9/27/8 11/29/8 12/30/8
f 4/24/4 3/23/4 13/31/4
f 4/24/4 13/31/4 16/32/4
f 13/31/3 14/26/3 15/25/3
f 13/31/3 15/25/3 16/32/3
f 42/33/9 39/34/9 43/35/9
f 46/36/10 44/37/10 43/35/10
f 46/36/10 47/38/10 44/37/10
f 48/39/11 46/36/11 45/40/11
f 48/39/11 47/38/11 46/36/11
f 81/41/12 83/42/12 84/43/12
f 83/42/13 82/44/13 69/45/13
f 83/42/13 69/45/13 70/46/13
f 71/47/14 74/48/14 70/46/14
f 81/41/12 82/44/12 83/42/12
f 89/49/8 90/50/8 91/51/8
f 89/49/8 91/51/8 92/52/8
f 101/53/8 102/54/8 103/55/8
f 101/53/8 103/55/8 104/56/8
f 113/57/8 114/58/8 115/59/8
f 113/57/8 115/59/8 116/60/8
f 137/61/15 138/62/15 139/63/15
f 137/61/15 139/63/15 140/64/15
f 139/63/16 138/62/16 141/65/16
f 139/63/17 141/65/17 142/66/17
f 143/67/18 146/68/18 142/66/18
f 143/67/12 142/66/12 141/65/12
f 143/67/19 144/69/19 145/70/19
f 143/67/20 145/70/20 146/68/20
f 147/71/15 148/72/15 149/73/15
f 147/71/15 149/73/15 150/74/15
f 149/73/16 148/72/16 151/75/16
f 149/73/17 151/75/17 152/76/17
f 153/77/18 156/78/18 152/76/18
f 153/77/12 152/76/12 151/75/12
f 153/77/19 154/79/19 155/80/19
f 153/77/20 155/80/20 156/78/20
f 42/33/21 43/35/21 44/37/21
f 42/33/22 41/81/22 40/82/22
f 42/33/23 40/82/23 39/34/23
f 171/83/11 172/84/11 173/85/11
f 171/83/11 173/85/11 174/86/11
f 173/85/10 172/84/10 175/87/10
f 173/85/10 175/87/10 176/88/10
f 177/89/9 180/90/9 176/88/9
f 177/89/21 176/88/21 175/87/21
f 177/89/22 178/91/22 179/92/22
f 177/89/23 179/92/23 180/90/23
f 71/47/11 70/46/11 69/45/11
f 71/47/24 72/93/24 73/94/24
f 71/47/25 73/94/25 74/48/25
f 207/95/12 208/96/12 209/97/12
f 207/95/12 209/97/12 210/98/12
f 209/97/13 208/96/13 211/99/13
f 209/97/13 211/99/13 212/100/13
f 213/101/14 216/102/14 212/100/14
f 213/101/11 212/100/11 211/99/11
f 213/101/26 214/103/26 215/104/26
f 213/101/25 215/104/25 216/102/25
f 245/105/21 247/106/21 248/107/21
f 247/106/27 246/108/27 233/109/27
f 247/106/27 233/109/27 234/110/27
f 235/111/28 238/112/28 234/110/28
f 245/105/21 246/108/21 247/106/21
f 235/111/15 234/110/15 233/109/15
f 235/111/29 236/113/29 237/114/29
f 235/111/16 237/114/16 238/112/16
f 259/115/21 260/116/21 261/117/21
f 259/115/21 261/117/21 262/118/21
f 261/117/27 260/116/27 263/119/27
f 261/117/27 263/119/27 264/120/27
f 265/121/28 268/122/28 264/120/28
f 265/121/15 264/120/15 263/119/15
f 265/121/30 266/123/30 267/124/30
f 265/121/16 267/124/16 268/122/16
usemtl 341_2-0
f 169/125/1 49/126/1 50/127/1
f 169/125/1 50/127/1 170/128/1
f 68/129/4 66/130/4 65/131/4
f 60/132/2 59/133/2 58/134/2
f 64/135/8 63/136/8 62/137/8
f 60/132/2 58/134/2 57/138/2
f 68/129/4 67/139/4 66/130/4
f 64/135/8 62/137/8 61/140/8
f 200/141/8 199/142/8 198/143/8
f 77/144/3 78/145/3 79/146/3
f 204/147/5 202/148/5 201/149/5
f 88/150/5 87/151/5 96/152/5
f 88/150/5 96/152/5 95/153/5
f 85/154/2 86/155/2 87/151/2
f 85/154/2 87/151/2 88/150/2
f 93/156/4 94/157/4 95/153/4
f 93/156/4 95/153/4 96/152/4
f 100/158/5 99/159/5 108/160/5
f 100/158/5 108/160/5 107/161/5
f 97/162/2 98/163/2 99/159/2
f 97/162/2 99/159/2 100/158/2
f 105/164/4 106/165/4 107/161/4
f 105/164/4 107/161/4 108/160/4
f 112/166/5 111/167/5 120/168/5
f 112/166/5 120/168/5 119/169/5
f 109/170/2 110/171/2 111/167/2
f 109/170/2 111/167/2 112/166/2
f 117/172/4 118/173/4 119/169/4
f 117/172/4 119/169/4 120/168/4
f 123/174/8 125/175/8 126/176/8
f 131/177/2 132/178/2 121/179/2
f 123/174/8 124/180/8 125/175/8
f 127/181/4 133/182/4 134/183/4
f 135/184/1 129/185/1 130/186/1
f 135/184/1 130/186/1 136/187/1
f 127/181/4 128/188/4 133/182/4
f 131/177/2 121/179/2 122/189/2
f 38/190/1 157/191/1 37/192/1
f 38/190/1 158/193/1 157/191/1
f 161/194/8 162/195/8 163/196/8
f 161/194/8 163/196/8 164/197/8
f 51/198/2 52/199/2 159/200/2
f 165/201/4 166/202/4 167/203/4
f 51/198/2 159/200/2 160/204/2
f 121/179/3 134/183/3 133/182/3
f 121/179/3 133/182/3 122/189/3
f 165/201/4 167/203/4 168/205/4
f 66/130/5 58/134/5 65/131/5
f 66/130/5 57/138/5 58/134/5
f 194/206/4 192/207/4 191/208/4
f 186/209/2 185/210/2 184/211/2
f 190/212/8 189/213/8 188/214/8
f 186/209/2 184/211/2 183/215/2
f 194/206/4 193/216/4 192/207/4
f 190/212/8 188/214/8 187/217/8
f 182/218/1 195/219/1 181/220/1
f 182/218/1 196/221/1 195/219/1
f 192/207/5 184/211/5 191/208/5
f 192/207/5 183/215/5 184/211/5
f 159/200/3 167/203/3 160/204/3
f 159/200/3 168/205/3 167/203/3
f 77/144/3 79/146/3 80/222/3
f 204/147/5 203/223/5 202/148/5
f 200/141/8 198/143/8 197/224/8
f 75/225/1 205/226/1 76/227/1
f 75/225/1 206/228/1 205/226/1
f 202/148/2 79/146/2 201/149/2
f 202/148/2 80/222/2 79/146/2
f 230/229/5 228/230/5 227/231/5
f 222/232/3 221/233/3 220/234/3
f 226/235/8 225/236/8 224/237/8
f 222/232/3 220/234/3 219/238/3
f 230/229/5 229/239/5 228/230/5
f 226/235/8 224/237/8 223/240/8
f 218/241/1 231/242/1 217/243/1
f 218/241/1 232/244/1 231/242/1
f 228/230/2 220/234/2 227/231/2
f 228/230/2 219/238/2 220/234/2
f 252/245/8 251/246/8 250/247/8
f 241/248/5 242/249/5 243/250/5
f 256/251/3 254/252/3 253/253/3
f 241/248/5 243/250/5 244/254/5
f 256/251/3 255/255/3 254/252/3
f 252/245/8 250/247/8 249/256/8
f 239/257/1 257/258/1 240/259/1
f 239/257/1 258/260/1 257/258/1
f 254/252/4 243/250/4 253/253/4
f 254/252/4 244/254/4 243/250/4
f 282/261/3 280/262/3 279/263/3
f 274/264/5 273/265/5 272/266/5
f 278/267/8 277/268/8 276/269/8
f 274/264/5 272/266/5 271/270/5
f 282/261/3 281/271/3 280/262/3
f 278/267/8 276/269/8 275/272/8
f 270/273/1 283/274/1 269/275/1
f 270/273/1 284/276/1 283/274/1
f 280/262/4 272/266/4 279/263/4
f 280/262/4 271/270/4 272/266/4
usemtl 341_3-0
f 28/277/8 27/278/8 22/279/8
f 28/277/8 22/279/8 21/280/8
f 21/280/4 22/279/4 23/281/4
f 21/280/4 23/281/4 24/282/4
f 24/282/1 23/281/1 26/283/1
f 24/282/1 26/283/1 25/284/1
f 25/284/2 26/283/2 27/285/2
f 25/284/2 27/285/2 28/286/2
