# Blender v2.82 (sub 7) OBJ File: '67219.blend'
# www.blender.org
mtllib 67219.mtl
o model67219-node_model67219
v -1.600000 3.200001 3.200000
v -1.600000 3.200000 -1.600000
v 1.600000 3.200000 -1.600001
v 1.600000 3.200001 3.200000
v 1.600000 -0.000000 -1.600000
v 1.600000 0.000001 3.200000
v 1.600000 3.200001 3.200000
v 1.600000 3.200000 -1.600001
v -0.800000 2.800000 -1.600000
v 0.800000 2.800000 -1.600001
v -0.800000 -0.000000 -1.600000
v 0.800000 -0.000000 -1.600000
v -1.600000 3.200001 3.200000
v -1.600000 0.000001 3.200000
v -1.600000 -0.000000 -1.600000
v -1.600000 3.200000 -1.600000
v -1.600000 -0.000000 -1.600000
v -1.600000 0.000001 3.200000
v 1.600000 0.000001 3.200000
v 1.600000 -0.000000 -1.600000
v 0.625000 -0.000000 -3.200000
v -0.625000 -0.000000 -3.200000
v -0.800000 -0.000000 -1.600000
v 0.800000 -0.000000 -1.600000
v -0.625000 2.249999 -3.200000
v -0.800000 2.799999 -1.600000
v -0.800000 -0.000001 -1.600000
v -0.625000 -0.000001 -3.200000
v 0.800000 2.799999 -1.600000
v 0.625000 2.249999 -3.200000
v 0.625000 -0.000001 -3.200000
v 0.800000 -0.000001 -1.600000
v -0.800000 2.799999 -1.600000
v -0.625000 2.249999 -3.200000
v 0.625000 2.249999 -3.200000
v 0.800000 2.799999 -1.600000
vt 0.000000 -1.000000
vt 1.500000 -1.000000
vt 1.500000 0.000000
vt 0.000000 0.000000
vt 0.000000 -2.000000
vt 2.000000 -2.000000
vt 2.000000 0.000000
vt 0.000000 0.000000
vt 1.531250 -0.250000
vt 2.000000 0.000000
vt 0.000000 -0.000000
vt 0.000000 -2.000000
vt 2.000000 -2.000000
vt 0.500000 -0.250000
vt 1.531250 -2.000000
vt 0.500000 -2.000000
vt 0.484375 -1.500000
vt 0.484375 0.000000
vt -0.453125 0.000000
vt -0.453125 -1.500000
vt -0.218750 -2.000000
vt 0.156250 -2.000000
vt 0.229492 -1.499020
vt -0.250000 -1.500000
vt 1.000000 -0.591797
vt 0.000000 0.000000
vt 0.000000 -2.996090
vt 1.000000 -3.000000
vt 1.000000 0.000000
vt 0.000000 -0.591797
vt 0.000000 -3.001950
vt 1.000000 -3.000000
vt 0.000000 0.000000
vt 0.109375 -2.000000
vt 0.889648 -2.000000
vt 1.000000 0.000000
vn 0.0000 -1.0000 0.0000
vn -1.0000 -0.0000 0.0000
vn 0.0000 0.0000 1.0000
vn 1.0000 -0.0000 -0.0000
vn -0.0000 1.0000 -0.0000
vn 0.9941 0.0000 0.1087
vn -0.9941 0.0000 0.1087
vn 0.0000 -0.9457 0.3251
usemtl 124_3-0
s off
f 1/1/1 2/2/1 3/3/1
f 1/1/1 3/3/1 4/4/1
usemtl 124_0-0
f 5/5/2 6/6/2 7/7/2
f 5/5/2 7/7/2 8/8/2
f 9/9/3 8/8/3 16/10/3
f 13/11/4 14/12/4 15/13/4
f 13/11/4 15/13/4 16/10/4
f 10/14/3 5/5/3 8/8/3
f 15/13/3 9/9/3 16/10/3
f 9/9/3 10/14/3 8/8/3
f 15/13/3 11/15/3 9/9/3
f 10/14/3 12/16/3 5/5/3
usemtl 124_2-0
f 17/17/5 18/18/5 19/19/5
f 17/17/5 19/19/5 20/20/5
f 21/21/5 22/22/5 23/23/5
f 21/21/5 23/23/5 24/24/5
usemtl 124_4-0
f 25/25/6 26/26/6 27/27/6
f 25/25/6 27/27/6 28/28/6
f 29/29/7 30/30/7 31/31/7
f 29/29/7 31/31/7 32/32/7
f 33/33/8 34/34/8 35/35/8
f 33/33/8 35/35/8 36/36/8
