# Blender v2.82 (sub 7) OBJ File: '70809.blend'
# www.blender.org
mtllib 70809.mtl
o model70809-node_model70809
v 3.825000 0.000000 1.600000
v 3.825000 2.250000 1.600000
v 3.825000 2.250000 1.450000
v 3.825000 0.000000 1.450000
v 2.575000 0.000000 1.450000
v 2.575000 2.250000 1.450000
v 2.575000 2.250000 1.600000
v 2.575000 0.000000 1.600000
v 3.825000 2.250000 1.449999
v 11.049999 6.350000 1.449998
v 11.049999 0.000000 1.449999
v 3.825000 0.000000 1.450000
v 2.575000 2.250000 1.449999
v 2.575000 0.000000 1.450000
v -1.450000 0.000000 1.450000
v -1.450000 6.350000 1.449999
v 4.799998 12.699997 -17.450003
v 4.800000 12.700000 1.449998
v 2.574998 2.249997 -17.750000
v 2.574998 -0.000003 -17.750000
v 7.024998 2.249997 -17.450003
v 7.024998 -0.000003 -17.450001
v 11.049998 -0.000003 -17.450003
v 11.049998 6.349998 -17.450003
v 11.049998 6.349998 -17.450003
v -1.450001 6.349998 -17.450003
v -1.450001 -0.000003 -17.450001
v 2.574998 -0.000003 -17.450001
v 2.574998 2.249997 -17.450001
v 11.049998 2.249996 -21.775002
v 11.049998 -0.000004 -21.775002
v 11.049998 -0.000003 -17.750002
v 11.049998 3.149997 -17.750002
v 11.049997 3.149996 -23.700003
v 11.049997 -0.000004 -23.700003
v 11.049997 -0.000004 -23.025002
v 11.049997 2.249996 -23.025002
v -1.450002 2.249997 -19.825001
v -1.450002 -0.000003 -19.825001
v -1.450002 -0.000004 -23.700001
v -1.450002 3.149996 -23.700001
v -1.450001 3.149997 -17.750000
v -1.450001 -0.000003 -17.750000
v -1.450001 -0.000003 -18.575001
v -1.450001 2.249997 -18.575001
v 7.024998 -0.000003 -17.750000
v 7.024998 2.249997 -17.750002
v 11.049998 6.350006 -17.450003
v 11.049999 6.350009 1.449998
v 4.800000 12.700009 1.449998
v 4.799998 12.700006 -17.450003
v -1.450000 6.350009 1.449999
v -1.450001 6.350006 -17.450003
v 11.049997 3.150000 -23.700003
v 11.049998 3.150001 -17.750002
v -1.450001 3.150001 -17.750000
v -1.450002 3.150000 -23.700001
v 7.024998 -0.000003 -17.450001
v 7.024998 2.249998 -17.450003
v 7.024998 2.249998 -17.750002
v 7.024998 -0.000003 -17.750000
v 2.574998 -0.000003 -17.750000
v 2.574998 2.249998 -17.750000
v 2.574998 2.249998 -17.450001
v 2.574998 -0.000003 -17.450001
v 11.199999 -0.000003 -23.025002
v 11.199999 2.249997 -23.025002
v 11.049998 2.249997 -23.025002
v 11.049998 -0.000003 -23.025002
v 11.049999 -0.000002 -21.775002
v 11.049999 2.249998 -21.775002
v 11.199999 2.249998 -21.775002
v 11.199999 -0.000002 -21.775002
v -1.450000 -0.000003 -19.825001
v -1.450000 2.249997 -19.825001
v -1.600000 2.249997 -19.825001
v -1.600000 -0.000003 -19.825001
v -1.600000 -0.000003 -18.575001
v -1.600000 2.249997 -18.575001
v -1.450000 2.249997 -18.575001
v -1.450000 -0.000003 -18.575001
v -1.300000 6.500000 -0.150001
v 10.924999 6.500000 -0.150002
v 10.924999 6.500000 0.099998
v -1.300000 6.500000 0.099999
v 10.575000 6.850000 -0.150002
v -0.950000 6.850000 -0.150001
v -0.950000 6.850000 0.099999
v 10.575000 6.850000 0.099998
v 10.575000 6.850000 -15.200000
v -0.950000 6.850000 -15.200000
v -0.950000 6.850000 -15.450000
v 10.575000 6.850000 -15.450000
v -1.300000 6.500000 -12.150000
v 10.924999 6.500000 -12.150001
v 10.924999 6.500000 -11.900001
v -1.300000 6.500000 -11.900000
v 10.575000 6.850000 -8.550001
v -0.950000 6.850000 -8.549999
v -0.950000 6.850000 -8.799999
v 10.575000 6.850000 -8.800001
v 10.575000 6.850000 -2.650001
v -0.950000 6.850000 -2.649999
v -0.950000 6.850000 -2.899999
v 10.575000 6.850000 -2.900001
v -1.300000 6.500000 -2.649999
v 10.924999 6.500000 -2.650001
v 10.924999 6.500000 -2.900000
v -1.300000 6.500000 -2.899999
v 11.049999 0.000000 1.449999
v -1.450000 0.000000 1.450000
v 11.199999 -0.000003 -23.025002
v 11.049998 -0.000003 -23.025002
v 11.049999 -0.000002 -21.775002
v 11.199999 -0.000002 -21.775002
v -1.450000 -0.000003 -19.825001
v -1.600000 -0.000003 -19.825001
v -1.600000 -0.000003 -18.575001
v -1.450000 -0.000003 -18.575001
v 11.049999 -0.000004 -23.700001
v -1.450002 -0.000004 -23.700001
v -1.450002 -0.000004 -23.700001
v -1.600000 2.249997 -18.575001
v -1.600000 -0.000003 -18.575001
v -1.600000 -0.000003 -19.825001
v -1.600000 2.249997 -19.825001
v -1.300000 6.500000 -8.549999
v 10.924999 6.500000 -8.550001
v 10.924999 6.500000 -8.800000
v -1.300000 6.500000 -8.799999
v 10.575000 6.850000 -12.150001
v -0.950000 6.850000 -12.150000
v -0.950000 6.850000 -11.900000
v 10.575000 6.850000 -11.900001
v -1.300000 6.500000 -15.200000
v 10.924999 6.500000 -15.200000
v 10.924999 6.500000 -15.450000
v -1.300000 6.500000 -15.450000
v -1.300000 6.500000 -5.899999
v 10.924999 6.500000 -5.900001
v 10.924999 6.500000 -5.650001
v -1.300000 6.500000 -5.649999
v 10.575000 6.850000 -5.900001
v -0.950000 6.850000 -5.899999
v -0.950000 6.850000 -5.649999
v 10.575000 6.850000 -5.650001
vt 1.000000 0.000000
vt 0.000000 0.000000
vt 0.000000 -1.000000
vt 1.000000 -1.000000
vt 0.000000 -1.000000
vt 1.000000 -1.000000
vt 1.000000 0.000000
vt 0.000000 0.000000
vt -1.921875 0.000000
vt -0.015625 0.000000
vt -0.015625 1.000000
vt -1.921875 1.000000
vt 2.937500 1.000000
vt 1.031250 1.000000
vt 1.031250 0.000000
vt 2.937500 0.000000
vt 2.578125 0.875000
vt 0.953125 0.875000
vt 0.953125 -0.000000
vt 2.578125 0.000000
vt -1.546875 -0.000000
vt 0.062500 -0.000000
vt 0.062500 0.875000
vt -1.546875 0.875000
vt 4.625000 -13.164100
vt 0.000000 -8.000000
vt 0.000000 -16.002001
vt 4.625000 -16.000000
vt 5.421880 -13.164100
vt 5.421880 -16.000000
vt 7.992190 -16.002001
vt 7.992190 -8.000000
vt 7.992190 -8.000000
vt 7.992190 -16.002001
vt 0.000000 -16.000000
vt 0.000000 -8.000000
vt 2.578130 -13.164100
vt 4.062500 -0.187500
vt 2.625000 2.875000
vt -0.000000 0.000000
vt 2.625000 0.000000
vt 7.984375 0.000000
vt 5.468750 2.875000
vt 5.468750 0.000000
vt 5.421880 -13.164100
vt 5.421880 -16.000000
vt 2.578130 -15.998001
vt 2.671875 2.875000
vt 2.671875 0.000000
vt 0.000000 4.031250
vt 3.890625 4.031250
vt 11.953125 0.000000
vt 3.890625 0.000000
vt 3.453125 -0.000000
vt 3.453125 2.875000
vt 11.953125 4.031250
vt 9.359375 3.187500
vt 9.359375 0.000000
vt 7.984375 4.031250
vt 8.500000 0.000000
vt 8.500000 3.187500
vt 4.093750 0.156250
vt 6.000000 0.000000
vt 11.984375 0.000000
vt 11.984375 -4.000000
vt 6.000000 -4.000000
vt 6.000000 0.000000
vt 11.984375 -0.000000
vt 4.000000 0.000000
vt 0.000000 0.000000
vt 0.000000 -7.992190
vt 4.000000 -7.992190
vt -0.000000 0.000000
vt 3.125000 1.000000
vt -0.125000 1.000000
vt 3.125000 -0.000000
vt -0.125000 -0.000000
vt 0.000000 1.000000
vt 3.000000 1.000000
vt 3.000000 0.000000
vt 3.000000 1.000000
vt -0.125000 -0.000000
vt 3.125000 -0.000000
vt 0.000000 1.000000
vt 3.000000 0.000000
vt -0.000000 0.000000
vt 3.125000 -0.000000
vt -0.125000 1.000000
vt 3.125000 1.000000
vt 3.000000 1.000000
vt -0.125000 -0.000000
vt 3.125000 -0.000000
vt -0.125000 -0.000000
vt -0.125000 1.000000
vt 3.125000 1.000000
vt 3.125000 -0.000000
vt -0.125000 -0.000000
vt -0.125000 1.000000
vt 0.000000 1.000000
vt 3.000000 0.000000
vt -0.000000 0.000000
vt 3.125000 1.000000
vt 3.000000 1.000000
vt -0.000000 0.000000
vt 3.000000 0.000000
vt 3.000000 1.000000
vt 0.000000 1.000000
vt 0.000000 1.000000
vt 3.000000 0.000000
vt -0.000000 0.000000
vt -0.125000 1.000000
vt 3.125000 1.000000
vt 0.000000 1.000000
vt 3.000000 0.000000
vt -0.000000 0.000000
vt 3.125000 1.000000
vt -0.125000 1.000000
vt 3.000000 1.000000
vt -0.125000 -0.000000
vt 3.125000 -0.000000
vt 4.015625 4.718750
vt 3.921875 4.718750
vt 3.921875 4.218750
vt 4.015625 4.218750
vt -3.972445 4.345983
vt -4.068648 4.345983
vt -4.068648 3.784799
vt -3.972445 3.784799
vt -3.968750 5.015625
vt 3.921875 -5.890625
vt 3.921875 5.015625
vt -3.968750 -5.890625
vt 3.346917 0.921122
vt 1.666353 0.921459
vt 1.666341 0.077880
vt 3.346904 0.077543
vt -3.337994 0.078879
vt -1.657436 0.078545
vt -1.657424 0.922122
vt -3.337983 0.922455
vt 0.015625 -0.007812
vt 0.015625 -0.695313
vt 0.750000 -0.695313
vt 0.750000 -0.007812
vn -1.0000 0.0000 0.0000
vn 1.0000 0.0000 0.0000
vn 0.0000 0.0000 1.0000
vn 0.0000 0.0000 -1.0000
vn 0.0000 -1.0000 0.0000
vn -0.0000 1.0000 -0.0000
vn -0.7127 -0.7015 0.0000
vn 0.7127 -0.7015 -0.0000
usemtl 067_14-0
s off
f 1/1/1 2/2/1 3/3/1
f 1/1/1 3/3/1 4/4/1
f 5/5/2 6/6/2 7/7/2
f 5/5/2 7/7/2 8/8/2
f 66/9/3 67/10/3 68/11/3
f 66/9/3 68/11/3 69/12/3
f 70/13/4 71/14/4 72/15/4
f 70/13/4 72/15/4 73/16/4
f 74/17/3 75/18/3 76/19/3
f 74/17/3 76/19/3 77/20/3
f 78/21/4 79/22/4 80/23/4
f 78/21/4 80/23/4 81/24/4
f 72/15/5 68/11/5 67/10/5
f 72/15/5 71/14/5 68/11/5
f 80/23/5 76/19/5 75/18/5
f 80/23/5 79/22/5 76/19/5
f 7/7/5 3/3/5 2/2/5
f 7/7/5 6/6/5 3/3/5
f 4/4/6 8/8/6 1/1/6
f 4/4/6 5/5/6 8/8/6
usemtl 122_0-0
f 9/25/4 10/26/4 11/27/4
f 9/25/4 11/27/4 12/28/4
f 13/29/4 14/30/4 15/31/4
f 13/29/4 15/31/4 16/32/4
f 24/33/1 11/27/1 10/26/1
f 24/33/1 23/34/1 11/27/1
f 27/35/2 16/32/2 15/31/2
f 27/35/2 26/36/2 16/32/2
f 24/33/3 26/36/3 29/37/3
f 26/36/3 24/33/3 17/38/3
f 47/39/4 32/40/4 46/41/4
f 43/42/4 19/43/4 20/44/4
f 21/45/3 22/46/3 23/34/3
f 21/45/3 23/34/3 24/33/3
f 24/33/3 29/37/3 21/45/3
f 26/36/3 27/35/3 28/47/3
f 26/36/3 28/47/3 29/37/3
f 30/48/1 31/49/1 32/40/1
f 30/48/1 32/40/1 33/50/1
f 34/51/3 121/52/3 120/53/3
f 34/51/1 36/54/1 37/55/1
f 34/51/3 41/56/3 121/52/3
f 36/54/1 34/51/1 120/53/1
f 121/52/2 38/57/2 39/58/2
f 121/52/2 41/56/2 38/57/2
f 42/59/2 43/42/2 44/60/2
f 42/59/2 44/60/2 45/61/2
f 30/48/1 33/50/1 34/51/1
f 30/48/1 34/51/1 37/55/1
f 9/25/4 16/32/4 10/26/4
f 9/25/4 13/29/4 16/32/4
f 10/26/4 16/32/4 18/62/4
f 38/57/2 42/59/2 45/61/2
f 38/57/2 41/56/2 42/59/2
f 42/59/4 47/39/4 19/43/4
f 42/59/4 33/50/4 47/39/4
f 43/42/4 42/59/4 19/43/4
f 47/39/4 33/50/4 32/40/4
usemtl 122_3-0
f 48/63/7 49/64/7 50/65/7
f 48/63/7 50/65/7 51/66/7
f 50/65/8 53/67/8 51/66/8
f 50/65/8 52/68/8 53/67/8
f 54/69/5 55/70/5 56/71/5
f 54/69/5 56/71/5 57/72/5
usemtl 067_8-0
f 89/73/3 85/74/3 84/75/3
f 82/76/5 83/77/5 84/75/5
f 82/76/5 84/75/5 85/74/5
f 86/78/6 87/79/6 88/80/6
f 86/78/6 88/80/6 89/73/6
f 92/81/4 137/82/4 138/83/4
f 93/84/6 91/85/6 90/86/6
f 94/87/5 96/88/5 97/89/5
f 132/90/4 95/91/4 94/87/4
f 130/92/5 129/93/5 128/94/5
f 130/92/5 128/94/5 127/95/5
f 109/96/5 108/97/5 107/98/5
f 105/99/6 103/100/6 102/101/6
f 102/101/3 103/100/3 106/102/3
f 109/96/5 107/98/5 106/102/5
f 102/101/3 106/102/3 107/98/3
f 104/103/4 105/99/4 108/97/4
f 105/99/6 104/103/6 103/100/6
f 104/103/4 108/97/4 109/96/4
f 89/73/3 88/80/3 85/74/3
f 87/79/4 83/77/4 82/76/4
f 87/79/4 86/78/4 83/77/4
f 98/104/3 99/105/3 127/95/3
f 100/106/4 129/93/4 130/92/4
f 98/104/3 127/95/3 128/94/3
f 101/107/6 99/105/6 98/104/6
f 101/107/6 100/106/6 99/105/6
f 100/106/4 101/107/4 129/93/4
f 131/108/6 132/90/6 133/109/6
f 134/110/3 133/109/3 97/89/3
f 94/87/5 95/91/5 96/88/5
f 132/90/4 131/108/4 95/91/4
f 131/108/6 133/109/6 134/110/6
f 134/110/3 97/89/3 96/88/3
f 138/83/5 136/111/5 135/112/5
f 90/86/3 135/112/3 136/111/3
f 92/81/4 93/84/4 137/82/4
f 90/86/3 91/85/3 135/112/3
f 138/83/5 137/82/5 136/111/5
f 93/84/6 92/81/6 91/85/6
f 143/113/6 145/114/6 146/115/6
f 146/115/3 142/116/3 141/117/3
f 144/118/4 143/113/4 140/119/4
f 146/115/3 145/114/3 142/116/3
f 139/120/5 140/119/5 141/117/5
f 144/118/4 140/119/4 139/120/4
f 139/120/5 141/117/5 142/116/5
f 143/113/6 144/118/6 145/114/6
usemtl 122_2-0
f 112/121/6 113/122/6 114/123/6
f 112/121/6 114/123/6 115/124/6
f 116/125/6 117/126/6 118/127/6
f 116/125/6 118/127/6 119/128/6
f 40/129/6 110/130/6 35/131/6
f 40/129/6 111/132/6 110/130/6
usemtl 087_1-0
f 58/133/1 59/134/1 60/135/1
f 58/133/1 60/135/1 61/136/1
f 62/137/2 63/138/2 64/139/2
f 62/137/2 64/139/2 65/140/2
f 64/139/5 60/135/5 59/134/5
f 64/139/5 63/138/5 60/135/5
usemtl 074_0-0
f 123/141/2 124/142/2 125/143/2
f 123/141/2 125/143/2 126/144/2
