# Blender v2.91.0 OBJ File: '749.blend'
# www.blender.org
mtllib 749.mtl
o model749-node_model749
v 6.400000 1.600000 0.399999
v 6.400000 1.800000 -0.000001
v 3.000000 1.800000 -0.000001
v 2.800000 1.600000 0.399999
v 6.400000 0.000000 0.399999
v 6.400000 1.600000 0.399999
v 2.800000 1.600000 0.399999
v 2.800000 0.000000 0.400000
v 6.400000 1.600000 -0.400001
v 6.400000 -0.000000 -0.400001
v 2.800000 -0.000000 -0.400000
v 2.800000 1.600000 -0.400001
v 6.400000 1.800000 -0.000001
v 6.400000 1.600000 -0.400001
v 2.800000 1.600000 -0.400001
v 3.000000 1.800000 -0.000001
v -6.400000 1.800000 0.000000
v -6.400000 1.600000 0.400000
v 0.400000 1.600000 0.400000
v 0.200000 1.800000 -0.000000
v -6.400000 1.600000 0.400000
v -6.400000 0.000000 0.400001
v 0.400000 0.000000 0.400000
v 0.400000 1.600000 0.400000
v -6.400000 -0.000000 -0.399999
v -6.400000 1.600000 -0.400000
v 0.400000 1.600000 -0.400000
v 0.400000 -0.000000 -0.400000
v -6.400000 1.600000 -0.400000
v -6.400000 1.800000 0.000000
v 0.200000 1.800000 -0.000000
v 0.400000 1.600000 -0.400000
v 0.400000 -0.000000 -0.400000
v 0.400000 1.600000 -0.400000
v 0.400000 1.600000 0.400000
v 0.400000 0.000000 0.400000
v 0.400000 1.600000 -0.400000
v 0.200000 1.800000 -0.000000
v 0.400000 1.600000 0.400000
v 2.800000 0.000000 0.400000
v 2.800000 1.600000 0.399999
v 2.800000 1.600000 -0.400001
v 2.800000 -0.000000 -0.400000
v 2.800000 1.600000 0.399999
v 3.000000 1.800000 -0.000001
v 2.800000 1.600000 -0.400001
v 6.400001 0.000000 0.400000
v 6.400001 1.600000 0.399999
v 6.400001 1.600000 -0.400001
v 6.400001 -0.000000 -0.400000
v 6.400001 1.800000 -0.000001
v -6.400001 0.000000 0.400000
v -6.400001 1.600000 0.399999
v -6.400001 1.600000 -0.400001
v -6.400001 -0.000000 -0.400000
v -6.400001 1.800000 -0.000001
vt 2.000000 -0.299805
vt 2.000000 -0.020508
vt -0.125000 -0.019531
vt -0.250000 -0.298828
vt 2.000000 -0.969727
vt 2.000000 -0.230469
vt -0.250000 -0.230469
vt -0.250000 -0.969727
vt -2.000000 -0.239258
vt -2.000000 -0.958984
vt 0.250000 -0.958984
vt 0.250000 -0.239258
vt -2.000000 -0.019531
vt -2.000000 -0.279297
vt 0.249023 -0.279297
vt 0.124023 -0.018555
vt -2.000000 -0.029297
vt -2.000000 -0.289063
vt 2.249020 -0.289063
vt 2.124020 -0.028320
vt -2.000000 -0.239258
vt -2.000000 -0.958984
vt 2.250000 -0.958984
vt 2.250000 -0.239258
vt 2.000000 -0.979492
vt 2.000000 -0.240234
vt -2.250000 -0.240234
vt -2.250000 -0.979492
vt 2.000000 -0.309570
vt 2.000000 -0.030273
vt -2.125000 -0.029297
vt -2.250000 -0.308594
vt 0.500000 -0.979492
vt 0.500000 -0.179688
vt 0.000000 -0.179688
vt 0.000000 -0.979492
vt 0.500000 -0.200195
vt 0.250000 0.000000
vt 0.000000 -0.200195
vt 0.500000 -0.979492
vt 0.500000 -0.179688
vt 0.000000 -0.179688
vt 0.000000 -0.979492
vt 0.500000 -0.200195
vt 0.250000 0.000000
vt 0.000000 -0.200195
vt 0.500000 -0.979492
vt 0.000000 -0.179688
vt 0.500000 -0.179688
vt 0.000000 -0.979492
vt 0.250000 0.000000
vt 0.500000 -0.979492
vt 0.500000 -0.179688
vt 0.000000 -0.179688
vt 0.000000 -0.979492
vt 0.250000 0.000000
vn 0.0000 0.8944 0.4472
vn 0.0000 0.0000 1.0000
vn -0.0000 -0.0000 -1.0000
vn -0.0000 0.8944 -0.4472
vn 1.0000 0.0000 -0.0000
vn 0.7071 0.7071 0.0000
vn -1.0000 0.0000 0.0000
vn -0.7071 0.7071 0.0000
usemtl 033_0-0
s off
f 1/1/1 2/2/1 3/3/1
f 1/1/1 3/3/1 4/4/1
f 5/5/2 6/6/2 7/7/2
f 5/5/2 7/7/2 8/8/2
f 9/9/3 10/10/3 11/11/3
f 9/9/3 11/11/3 12/12/3
f 13/13/4 14/14/4 15/15/4
f 13/13/4 15/15/4 16/16/4
f 17/17/1 18/18/1 19/19/1
f 17/17/1 19/19/1 20/20/1
f 21/21/2 22/22/2 23/23/2
f 21/21/2 23/23/2 24/24/2
f 25/25/3 26/26/3 27/27/3
f 25/25/3 27/27/3 28/28/3
f 29/29/4 30/30/4 31/31/4
f 29/29/4 31/31/4 32/32/4
f 33/33/5 34/34/5 35/35/5
f 33/33/5 35/35/5 36/36/5
f 37/37/6 38/38/6 39/39/6
f 40/40/7 41/41/7 42/42/7
f 40/40/7 42/42/7 43/43/7
f 44/44/8 45/45/8 46/46/8
f 47/47/5 49/48/5 48/49/5
f 47/47/5 50/50/5 49/48/5
f 51/51/5 48/49/5 49/48/5
f 52/52/7 53/53/7 54/54/7
f 52/52/7 54/54/7 55/55/7
f 56/56/7 54/54/7 53/53/7
