# Blender 3.3.1
# www.blender.org
mtllib 639.mtl
o model639-node
v -6.399999 3.225001 4.800000
v -6.399999 3.225001 8.000000
v 6.400000 3.225001 8.000000
v 6.400000 3.225001 4.799999
v 3.200000 9.675000 1.599998
v 3.199999 9.674998 -8.000002
v -6.400000 9.674998 -8.000001
v -6.400000 9.675000 1.599999
v -6.400000 6.450000 1.600000
v -6.399999 6.450001 4.800000
v 6.400000 6.450001 4.799999
v 6.400000 6.450000 1.599998
v 6.399999 6.449998 -8.000002
v 3.199999 6.449998 -8.000002
v 3.200000 6.450000 1.599999
v 6.400000 6.450000 1.599998
v -6.399999 0.000001 8.000001
v -6.399999 3.225001 8.000000
v -6.399999 3.225001 6.400000
v -6.399999 0.000001 6.400001
v -6.400000 -0.000001 -8.000000
v -6.400000 -0.000001 -6.400000
v -6.400000 9.674999 -6.400001
v -6.400000 9.674998 -8.000001
v 6.399999 -0.000001 -6.400001
v 6.399999 -0.000001 -8.000001
v 6.399999 6.449998 -8.000002
v 6.399999 6.449999 -6.400002
v 6.400000 3.225001 8.000000
v 6.400000 0.000001 8.000000
v 6.400000 0.000001 6.400000
v 6.400000 3.225001 6.399999
v -4.800001 -0.000001 -8.000000
v -6.400000 -0.000001 -8.000000
v -6.400000 9.674998 -8.000001
v -4.800001 9.674998 -8.000002
v 6.399999 -0.000001 -8.000001
v 4.799999 -0.000001 -8.000001
v 4.799999 6.449998 -8.000002
v 6.399999 6.449998 -8.000002
v -6.399999 3.225001 4.800000
v -6.399999 6.450001 4.800000
v -6.399999 6.450001 3.200000
v -6.399999 3.225000 3.200000
v 6.400000 3.225001 4.799999
v 6.400000 6.450001 4.799999
v 4.800000 6.450001 4.799999
v 4.800000 3.225001 4.799999
v -6.399999 6.450001 4.800000
v -6.399999 3.225001 4.800000
v -4.799999 3.225001 4.800000
v -4.799999 6.450001 4.799999
v 6.400000 6.450001 4.799999
v 6.400000 3.225001 4.799999
v 6.400000 3.225000 3.199999
v 6.400000 6.450001 3.199999
v -6.400000 6.450000 1.600000
v -6.400000 9.675000 1.599999
v -6.400000 9.675000 -0.000001
v -6.400000 6.450000 -0.000000
v 1.599999 9.674998 -8.000002
v 3.199999 9.674998 -8.000002
v 3.199999 6.449998 -8.000002
v 1.599999 6.449998 -8.000002
v 3.199999 6.449998 -8.000002
v 3.199999 9.674998 -8.000002
v 3.199999 9.674999 -6.400002
v 3.199999 6.449999 -6.400002
v 3.200000 9.675000 -0.000002
v 3.200000 9.675000 1.599998
v 3.200000 6.450000 1.599999
v 3.200000 6.450000 -0.000001
v 3.200000 6.450000 1.599999
v 3.200000 9.675000 1.599998
v 1.600000 9.675000 1.599998
v 1.600000 6.450000 1.599999
v -4.800000 9.675000 1.599999
v -6.400000 9.675000 1.599999
v -6.400000 6.450000 1.600000
v -4.800000 6.450000 1.599999
v 6.400000 0.000001 8.000000
v 6.400000 3.225001 8.000000
v 4.800001 3.225001 8.000000
v 4.800001 0.000001 8.000000
v -6.399999 3.225001 8.000000
v -6.399999 0.000001 8.000001
v -4.799999 0.000001 8.000001
v -4.799999 3.225001 8.000000
v -6.399999 3.225001 4.800000
v -6.399999 0.000001 4.800001
v -6.399999 0.000001 6.400001
v -6.399999 3.225001 6.400000
v -6.400000 -0.000001 -6.400000
v -6.400000 -0.000001 -4.800000
v -6.400000 9.674999 -4.800001
v -6.400000 9.674999 -6.400001
v 6.399999 -0.000001 -4.800001
v 6.399999 -0.000001 -6.400001
v 6.399999 6.449999 -6.400002
v 6.399999 6.449999 -4.800002
v 6.400000 3.225001 4.799999
v 6.400000 3.225001 6.399999
v 6.400000 0.000001 6.400000
v 6.400000 0.000001 4.800000
v -0.000001 3.224999 -8.000001
v 1.599999 3.224999 -8.000001
v 1.599999 -0.000001 -8.000000
v -0.000001 -0.000001 -8.000000
v -0.350001 0.049999 -8.000000
v -0.350001 2.299999 -8.000000
v -3.200001 3.224999 -8.000000
v -3.200001 -0.000001 -8.000000
v -1.600001 2.299999 -8.000000
v -1.600001 3.224999 -8.000001
v -1.600001 0.049999 -8.000000
v -1.600001 -0.000001 -8.000000
v -3.200001 3.224999 -8.000000
v -4.800001 3.224999 -8.000000
v -4.800001 9.674998 -8.000002
v -3.200001 9.674998 -8.000002
v 3.199999 6.449998 -8.000002
v 4.799999 6.449998 -8.000002
v 4.799999 3.224999 -8.000001
v 3.199999 3.224999 -8.000001
v -6.399999 3.225000 3.200000
v -6.399999 6.450001 3.200000
v -6.400000 6.450000 1.600000
v -6.400000 3.225000 1.600000
v 4.800000 3.225001 4.799999
v 4.800000 6.450001 4.799999
v 3.200000 6.450001 4.799999
v 3.200000 3.225001 4.799999
v -3.200000 6.450001 4.799999
v -4.799999 6.450001 4.799999
v -4.799999 3.225001 4.800000
v -3.200000 3.225001 4.800000
v 6.400000 6.450000 1.599998
v 6.400000 6.450001 3.199999
v 6.400000 3.225000 3.199999
v 6.400000 3.225000 1.599999
v -6.400000 9.675000 -1.600001
v -6.400000 6.450000 -1.600001
v -6.400000 6.450000 -0.000000
v -6.400000 9.675000 -0.000001
v -0.000001 9.674998 -8.000002
v 1.599999 9.674998 -8.000002
v 1.599999 6.449998 -8.000002
v -0.000001 6.449998 -8.000001
v 3.200000 9.674999 -4.800002
v 3.200000 6.449999 -4.800001
v 3.199999 6.449999 -6.400002
v 3.199999 9.674999 -6.400002
v 3.200000 9.675000 -1.600002
v 3.200000 9.675000 -0.000002
v 3.200000 6.450000 -0.000001
v 3.200000 6.450000 -1.600001
v 0.000000 9.675000 1.599998
v 0.000000 6.450000 1.599999
v 1.600000 6.450000 1.599999
v 1.600000 9.675000 1.599998
v -3.200000 9.675000 1.599999
v -4.800000 9.675000 1.599999
v -4.800000 6.450000 1.599999
v -3.200000 6.450000 1.599999
v 4.800001 0.000001 8.000000
v 4.800001 3.225001 8.000000
v 3.200001 3.225001 8.000000
v 3.200001 0.000001 8.000000
v -3.199999 3.225001 8.000000
v -4.799999 3.225001 8.000000
v -4.799999 0.000001 8.000001
v -3.199999 0.000001 8.000000
v -6.399999 0.000001 4.800001
v -6.399999 3.225001 4.800000
v -6.400000 3.224999 -4.800000
v -6.400000 -0.000001 -4.800000
v 6.399999 -0.000001 -4.800001
v 6.399999 3.224999 -4.800001
v 6.400000 3.225001 4.799999
v 6.400000 0.000001 4.800000
v -4.800001 -0.000001 -8.000000
v -4.800001 3.224999 -8.000000
v -3.200001 3.224999 -8.000000
v -3.200001 -0.000001 -8.000000
v 4.799999 3.224999 -8.000001
v 4.799999 -0.000001 -8.000001
v 1.599999 -0.000001 -8.000000
v 1.599999 3.224999 -8.000001
v -3.200001 3.224999 -8.000000
v -3.200001 6.449998 -8.000001
v 3.199999 6.449998 -8.000002
v 3.199999 3.224999 -8.000001
v -6.400000 3.225000 1.600000
v -6.400000 6.450000 1.600000
v -6.400000 6.449999 -4.800001
v -6.400000 3.224999 -4.800000
v 3.200000 3.225001 4.799999
v 3.200000 6.450001 4.799999
v -3.200000 6.450001 4.799999
v -3.200000 3.225001 4.800000
v 6.399999 3.224999 -4.800001
v 6.399999 6.449999 -4.800002
v 6.400000 6.450000 1.599998
v 6.400000 3.225000 1.599999
v -6.400000 6.450000 -1.600001
v -6.400000 9.675000 -1.600001
v -6.400000 9.674999 -4.800001
v -6.400000 6.449999 -4.800001
v -3.200001 6.449998 -8.000001
v -3.200001 9.674998 -8.000002
v -0.000001 9.674998 -8.000002
v -0.000001 6.449998 -8.000001
v 3.200000 6.449999 -4.800001
v 3.200000 9.674999 -4.800002
v 3.200000 9.675000 -1.600002
v 3.200000 6.450000 -1.600001
v 0.000000 6.450000 1.599999
v 0.000000 9.675000 1.599998
v -3.200000 9.675000 1.599999
v -3.200000 6.450000 1.599999
v 3.200001 0.000001 8.000000
v 3.200001 3.225001 8.000000
v -3.199999 3.225001 8.000000
v -3.199999 0.000001 8.000000
v -0.350001 2.299999 -8.000000
v -0.350001 0.049999 -8.000000
v -1.600001 0.049999 -8.000000
v -1.600001 2.299999 -8.000000
vn -0.0000 1.0000 -0.0000
vn -1.0000 -0.0000 -0.0000
vn 1.0000 -0.0000 -0.0000
vn -0.0000 -0.0000 -1.0000
vn -0.0000 -0.0000 1.0000
vt 8.000000 -2.000000
vt 8.000000 0.000000
vt 0.000000 0.000000
vt 0.000000 -2.000000
vt 0.000000 0.000000
vt 0.000000 -6.011720
vt 6.011720 -6.011720
vt 6.011720 0.000000
vt 8.000000 -2.000000
vt 8.000000 0.000000
vt 0.000000 0.000000
vt 0.000000 -2.000000
vt 0.000000 -6.000000
vt 2.000000 -6.000000
vt 2.000000 -0.023438
vt 0.000000 -0.023438
vt 0.000000 -1.000000
vt 0.000000 0.000000
vt 1.000000 0.000000
vt 1.000000 -1.000000
vt 0.000000 -3.000000
vt 1.000000 -3.000000
vt 1.000000 -0.002930
vt 0.000000 -0.002930
vt 1.000000 -2.000000
vt 0.000000 -2.000000
vt 0.000000 0.000000
vt 1.000000 0.000000
vt 0.000000 0.000000
vt 0.000000 -1.000000
vt 1.000000 -1.000000
vt 1.000000 0.000000
vt 1.000000 -3.000000
vt 0.000000 -3.000000
vt 0.000000 -0.002930
vt 1.000000 -0.002930
vt 0.000000 -1.000000
vt 1.000000 -1.000000
vt 1.000000 0.999512
vt 0.000000 0.999512
vt 0.000000 -1.000000
vt 0.000000 0.000000
vt 1.000000 0.000000
vt 1.000000 -1.000000
vt 0.000000 -1.000000
vt 0.000000 0.000000
vt 1.000000 0.000000
vt 1.000000 -1.000000
vt 0.000000 0.000000
vt 0.000000 -1.000000
vt 1.000000 -1.000000
vt 1.000000 0.000000
vt 0.000000 0.000000
vt 0.000000 -1.000000
vt 1.000000 -1.000000
vt 1.000000 0.000000
vt 0.000000 -1.000000
vt 0.000000 0.000000
vt 1.000000 0.000000
vt 1.000000 -1.000000
vt 1.000000 0.000000
vt 0.000000 0.000000
vt 0.000000 -1.000000
vt 1.000000 -1.000000
vt 0.000000 -1.000000
vt 0.000000 0.000000
vt 1.000000 0.000000
vt 1.000000 -1.000000
vt 1.000000 0.000000
vt 0.000000 0.000000
vt 0.000000 -1.000000
vt 1.000000 -1.000000
vt 0.000000 -1.000000
vt 0.000000 0.000000
vt 1.000000 0.000000
vt 1.000000 -1.000000
vt 1.000000 0.000000
vt 0.000000 0.000000
vt 0.000000 -1.000000
vt 1.000000 -1.000000
vt 0.000000 -1.000000
vt 0.000000 0.000000
vt 1.000000 0.000000
vt 1.000000 -1.000000
vt 0.000000 0.000000
vt 0.000000 -1.000000
vt 1.000000 -1.000000
vt 1.000000 0.000000
vt 0.000000 0.000000
vt 0.000000 -1.000000
vt 1.000000 -1.000000
vt 1.000000 0.000000
vt 1.000000 -3.000000
vt 2.000000 -3.000000
vt 2.000000 -0.002930
vt 1.000000 -0.002930
vt 0.000000 -1.000000
vt 1.000000 -1.000000
vt 1.000000 0.999512
vt 0.000000 0.999512
vt 1.000000 0.000000
vt 0.000000 0.000000
vt 0.000000 -1.000000
vt 1.000000 -1.000000
vt 1.000000 2.000000
vt 0.000000 2.000000
vt 0.000000 1.000000
vt 1.000000 1.000000
vt 1.218750 1.015625
vt 1.218750 1.718750
vt 3.000000 2.000000
vt 3.000000 1.000000
vt 2.000000 1.718750
vt 2.000000 2.000000
vt 2.000000 1.015625
vt 2.000000 1.000000
vt 0.000000 -2.000000
vt 1.000000 -2.000000
vt 1.000000 0.000000
vt 0.000000 0.000000
vt 1.000000 0.000000
vt 0.000000 0.000000
vt 0.000000 -1.000000
vt 1.000000 -1.000000
vt 1.000000 -1.000000
vt 1.000000 0.000000
vt 0.000000 0.000000
vt 0.000000 -1.000000
vt 1.000000 -1.000000
vt 1.000000 0.000000
vt 0.000000 0.000000
vt 0.000000 -1.000000
vt 1.000000 0.000000
vt 0.000000 0.000000
vt 0.000000 -1.000000
vt 1.000000 -1.000000
vt 1.000000 0.000000
vt 0.000000 0.000000
vt 0.000000 -1.000000
vt 1.000000 -1.000000
vt 0.000000 0.000000
vt 0.000000 -1.000000
vt 1.000000 -1.000000
vt 1.000000 0.000000
vt 1.000000 0.000000
vt 0.000000 0.000000
vt 0.000000 -1.000000
vt 1.000000 -1.000000
vt 0.000000 0.000000
vt 0.000000 -1.000000
vt 1.000000 -1.000000
vt 1.000000 0.000000
vt 1.000000 0.000000
vt 0.000000 0.000000
vt 0.000000 -1.000000
vt 1.000000 -1.000000
vt 0.000000 0.000000
vt 0.000000 -1.000000
vt 1.000000 -1.000000
vt 1.000000 0.000000
vt 1.000000 0.000000
vt 0.000000 0.000000
vt 0.000000 -1.000000
vt 1.000000 -1.000000
vt 1.000000 -1.000000
vt 1.000000 0.000000
vt 0.000000 0.000000
vt 0.000000 -1.000000
vt 1.000000 0.000000
vt 0.000000 0.000000
vt 0.000000 -1.000000
vt 1.000000 -1.000000
vt 0.000000 -1.000000
vt 0.000000 0.000000
vt 6.000000 0.000000
vt 6.000000 -1.000000
vt 0.000000 -1.000000
vt 0.000000 0.000000
vt 6.000000 0.000000
vt 6.000000 -1.000000
vt 1.000000 -1.000000
vt 1.000000 0.000000
vt 0.000000 0.000000
vt 0.000000 -1.000000
vt 0.000000 0.000000
vt 0.000000 -1.000000
vt 2.000000 -1.000000
vt 2.000000 0.000000
vt 4.000000 -1.000000
vt 4.000000 0.000000
vt 0.000000 0.000000
vt 0.000000 -1.000000
vt 4.000000 -1.000000
vt 4.000000 0.000000
vt 0.000000 0.000000
vt 0.000000 -1.000000
vt 4.000000 -1.000000
vt 4.000000 0.000000
vt 0.000000 0.000000
vt 0.000000 -1.000000
vt 4.000000 -1.000000
vt 4.000000 0.000000
vt 0.000000 0.000000
vt 0.000000 -1.000000
vt 2.000000 -1.000000
vt 2.000000 0.000000
vt 0.000000 0.000000
vt 0.000000 -1.000000
vt 2.000000 -1.000000
vt 2.000000 0.000000
vt 0.000000 0.000000
vt 0.000000 -1.000000
vt 2.000000 -1.000000
vt 2.000000 0.000000
vt 0.000000 0.000000
vt 0.000000 -1.000000
vt 2.000000 -1.000000
vt 2.000000 0.000000
vt 0.000000 0.000000
vt 0.000000 -1.000000
vt 4.000000 -1.000000
vt 4.000000 0.000000
vt 0.000000 0.000000
vt 0.000000 -1.000000
vt 0.000000 0.000000
vt 0.000000 -1.000000
vt 0.999023 -1.000000
vt 1.000000 0.000000
s 0
usemtl TEXTURE.069_0-material
f 1/1/1 2/2/1 3/3/1
f 1/1/1 3/3/1 4/4/1
f 5/5/1 6/6/1 7/7/1
f 5/5/1 7/7/1 8/8/1
f 9/9/1 10/10/1 11/11/1
f 9/9/1 11/11/1 12/12/1
f 13/13/1 14/14/1 15/15/1
f 13/13/1 15/15/1 16/16/1
usemtl TEXTURE.012_0-material
f 17/17/2 18/18/2 19/19/2
f 17/17/2 19/19/2 20/20/2
f 21/21/2 22/22/2 23/23/2
f 21/21/2 23/23/2 24/24/2
f 25/25/3 26/26/3 27/27/3
f 25/25/3 27/27/3 28/28/3
f 29/29/3 30/30/3 31/31/3
f 29/29/3 31/31/3 32/32/3
f 33/33/4 34/34/4 35/35/4
f 33/33/4 35/35/4 36/36/4
f 37/37/4 38/38/4 39/39/4
f 37/37/4 39/39/4 40/40/4
f 41/41/2 42/42/2 43/43/2
f 41/41/2 43/43/2 44/44/2
f 45/45/5 46/46/5 47/47/5
f 45/45/5 47/47/5 48/48/5
f 49/49/5 50/50/5 51/51/5
f 49/49/5 51/51/5 52/52/5
f 53/53/3 54/54/3 55/55/3
f 53/53/3 55/55/3 56/56/3
f 57/57/2 58/58/2 59/59/2
f 57/57/2 59/59/2 60/60/2
f 61/61/4 62/62/4 63/63/4
f 61/61/4 63/63/4 64/64/4
f 65/65/3 66/66/3 67/67/3
f 65/65/3 67/67/3 68/68/3
f 69/69/3 70/70/3 71/71/3
f 69/69/3 71/71/3 72/72/3
f 73/73/5 74/74/5 75/75/5
f 73/73/5 75/75/5 76/76/5
f 77/77/5 78/78/5 79/79/5
f 77/77/5 79/79/5 80/80/5
f 81/81/5 82/82/5 83/83/5
f 81/81/5 83/83/5 84/84/5
f 85/85/5 86/86/5 87/87/5
f 85/85/5 87/87/5 88/88/5
usemtl TEXTURE.012_1-material
f 89/89/2 90/90/2 91/91/2
f 89/89/2 91/91/2 92/92/2
f 93/93/2 94/94/2 95/95/2
f 93/93/2 95/95/2 96/96/2
f 97/97/3 98/98/3 99/99/3
f 97/97/3 99/99/3 100/100/3
f 101/101/3 102/102/3 103/103/3
f 101/101/3 103/103/3 104/104/3
f 105/105/4 106/106/4 107/107/4
f 105/105/4 107/107/4 108/108/4
f 105/105/4 108/108/4 109/109/4
f 105/105/4 109/109/4 110/110/4
f 114/114/4 105/105/4 110/110/4
f 113/113/4 115/115/4 112/112/4
f 114/114/4 110/110/4 113/113/4
f 111/111/4 114/114/4 113/113/4
f 116/116/4 115/115/4 109/109/4
f 108/108/4 116/116/4 109/109/4
f 117/117/4 118/118/4 119/119/4
f 117/117/4 119/119/4 120/120/4
f 121/121/4 122/122/4 123/123/4
f 121/121/4 123/123/4 124/124/4
f 125/125/2 126/126/2 127/127/2
f 125/125/2 127/127/2 128/128/2
f 129/129/5 130/130/5 131/131/5
f 129/129/5 131/131/5 132/132/5
f 133/133/5 134/134/5 135/135/5
f 133/133/5 135/135/5 136/136/5
f 137/137/3 138/138/3 139/139/3
f 137/137/3 139/139/3 140/140/3
f 141/141/2 142/142/2 143/143/2
f 141/141/2 143/143/2 144/144/2
f 145/145/4 146/146/4 147/147/4
f 145/145/4 147/147/4 148/148/4
f 149/149/3 150/150/3 151/151/3
f 149/149/3 151/151/3 152/152/3
f 153/153/3 154/154/3 155/155/3
f 153/153/3 155/155/3 156/156/3
f 157/157/5 158/158/5 159/159/5
f 157/157/5 159/159/5 160/160/5
f 161/161/5 162/162/5 163/163/5
f 161/161/5 163/163/5 164/164/5
f 165/165/5 166/166/5 167/167/5
f 165/165/5 167/167/5 168/168/5
f 169/169/5 170/170/5 171/171/5
f 169/169/5 171/171/5 172/172/5
f 116/116/4 112/112/4 115/115/4
f 113/113/4 112/112/4 111/111/4
usemtl TEXTURE.012_3-material
f 173/173/2 174/174/2 175/175/2
f 173/173/2 175/175/2 176/176/2
f 177/177/3 178/178/3 179/179/3
f 177/177/3 179/179/3 180/180/3
f 181/181/4 182/182/4 183/183/4
f 181/181/4 183/183/4 184/184/4
f 185/185/4 186/186/4 187/187/4
f 185/185/4 187/187/4 188/188/4
f 189/189/4 190/190/4 191/191/4
f 189/189/4 191/191/4 192/192/4
f 193/193/2 194/194/2 195/195/2
f 193/193/2 195/195/2 196/196/2
f 197/197/5 198/198/5 199/199/5
f 197/197/5 199/199/5 200/200/5
f 201/201/3 202/202/3 203/203/3
f 201/201/3 203/203/3 204/204/3
f 205/205/2 206/206/2 207/207/2
f 205/205/2 207/207/2 208/208/2
f 209/209/4 210/210/4 211/211/4
f 209/209/4 211/211/4 212/212/4
f 213/213/3 214/214/3 215/215/3
f 213/213/3 215/215/3 216/216/3
f 217/217/5 218/218/5 219/219/5
f 217/217/5 219/219/5 220/220/5
f 221/221/5 222/222/5 223/223/5
f 221/221/5 223/223/5 224/224/5
usemtl TEXTURE.074_0-material
f 225/225/4 226/226/4 227/227/4
f 225/225/4 227/227/4 228/228/4
