# Blender v2.82 (sub 7) OBJ File: '56304.blend'
# www.blender.org
mtllib 56304.mtl
o model56304-node_model56304
v -3.050000 5.550001 3.049999
v -3.050000 5.550000 -3.050001
v 3.050000 5.550000 -3.050001
v -3.050000 6.400000 -3.050001
v -3.050000 6.400001 3.049999
v 3.050000 6.400000 -3.050001
vt 0.988528 0.710195
vt 0.281629 0.003163
vt 0.988662 -0.703735
vt 0.000000 0.000000
vt 0.000000 -2.000000
vt 2.000000 0.000000
vn 0.0000 -1.0000 0.0000
vn -0.0000 1.0000 -0.0000
usemtl 122_3-0
s off
f 1/1/1 2/2/1 3/3/1
usemtl 122_2-0
f 4/4/2 5/5/2 6/6/2
