# Blender v2.82 (sub 7) OBJ File: '71101.blend'
# www.blender.org
mtllib 71101.mtl
o model71101-node_model71101
v 0.625000 0.000000 1.600000
v 0.625000 2.250000 1.600000
v 0.625000 2.250000 1.450000
v 0.625000 0.000000 1.450000
v -0.625000 0.000000 1.450000
v -0.625000 2.250000 1.450000
v -0.625000 2.250000 1.600000
v -0.625000 0.000000 1.600000
v -1.600000 -0.000000 -2.575000
v -1.600000 2.250000 -2.575000
v -1.450000 2.250000 -2.575000
v -1.450000 -0.000000 -2.575000
v -1.450000 -0.000001 -3.825000
v -1.450000 2.250000 -3.825001
v -1.600000 2.250000 -3.825001
v -1.600000 -0.000001 -3.825000
v 0.625000 2.250000 1.450000
v 4.650000 3.150000 1.449999
v 4.650000 0.000000 1.450000
v 0.625000 0.000000 1.450000
v -0.625000 2.250000 1.450000
v -0.625000 0.000000 1.450000
v -1.450000 0.000000 1.450000
v -1.450000 3.150000 1.450000
v -1.450000 -0.000000 -2.575000
v -1.450000 2.250000 -2.575000
v -1.450000 -0.000001 -3.825000
v -1.450000 2.250000 -3.825001
v -1.450000 -0.000001 -4.650000
v 4.649999 -0.000001 -4.650001
v 4.649999 3.149999 -4.650001
v -1.450000 3.149999 -4.650001
v -1.450000 -0.000001 -4.650000
v -1.450000 0.000000 1.450000
v 4.650000 0.000000 1.450000
v 4.649999 -0.000001 -4.650001
v 4.649999 3.150000 -4.650001
v 4.650000 3.150001 1.449999
v -1.450000 3.150001 1.450000
v -1.450000 3.150000 -4.650001
vt 1.000000 -1.000000
vt 0.000000 0.000000
vt 1.000000 0.000000
vt 0.000000 -1.000000
vt 0.000000 0.000000
vt 0.000000 -1.000000
vt 1.000000 -1.000000
vt 1.000000 0.000000
vt 1.000000 0.000000
vt 0.000000 -1.000000
vt 0.000000 0.000000
vt 1.000000 -1.000000
vt 0.000000 0.000000
vt 0.000000 -1.000000
vt 1.000000 -1.000000
vt 1.000000 0.000000
vt 2.640625 -1.125000
vt 0.000000 0.000000
vt 0.000000 -4.000000
vt 2.636720 -4.000000
vt 3.453125 -1.125000
vt 3.457030 -4.000000
vt 4.000000 -4.000000
vt 4.000000 0.000000
vt 1.234375 -1.093750
vt 1.234375 -4.000000
vt 0.000000 0.000000
vt 0.437500 -1.093750
vt 4.000000 0.000000
vt 4.000000 -4.000000
vt 0.000000 -4.000000
vt 0.437500 -4.000000
vt 0.097656 0.000000
vt 0.097656 -3.906250
vt 3.999020 -3.905270
vt 4.000000 0.000000
vt 4.000000 0.000000
vt 0.000000 0.000000
vt 0.000000 -3.999020
vt 4.000000 -4.000000
vn 0.0000 1.0000 -0.0000
vn -1.0000 0.0000 0.0000
vn 1.0000 0.0000 0.0000
vn 0.0000 -1.0000 0.0000
vn 0.0000 -0.0000 -1.0000
vn 0.0000 0.0000 1.0000
usemtl 067_14-0
s off
f 4/1/1 8/2/1 1/3/1
f 4/1/1 5/4/1 8/2/1
f 1/3/2 2/5/2 3/6/2
f 1/3/2 3/6/2 4/1/2
f 5/4/3 6/7/3 7/8/3
f 5/4/3 7/8/3 8/2/3
f 7/8/4 3/6/4 2/5/4
f 7/8/4 6/7/4 3/6/4
f 9/9/1 13/10/1 16/11/1
f 9/9/1 12/12/1 13/10/1
f 9/9/5 10/13/5 11/14/5
f 9/9/5 11/14/5 12/12/5
f 13/10/6 14/15/6 15/16/6
f 13/10/6 15/16/6 16/11/6
f 15/16/4 11/14/4 10/13/4
f 15/16/4 14/15/4 11/14/4
usemtl 122_0-0
f 17/17/5 18/18/5 19/19/5
f 17/17/5 19/19/5 20/20/5
f 21/21/5 22/22/5 23/23/5
f 21/21/5 23/23/5 24/24/5
f 17/17/5 24/24/5 18/18/5
f 17/17/5 21/21/5 24/24/5
f 23/23/3 26/25/3 24/24/3
f 23/23/3 25/26/3 26/25/3
f 26/25/3 32/27/3 24/24/3
f 26/25/3 28/28/3 32/27/3
usemtl 122_1-0
f 31/29/2 19/19/2 18/18/2
f 31/29/2 30/30/2 19/19/2
f 29/31/6 30/30/6 31/29/6
f 29/31/6 31/29/6 32/27/6
f 28/28/3 29/31/3 32/27/3
f 28/28/3 27/32/3 29/31/3
usemtl 122_2-0
f 33/33/1 34/34/1 35/35/1
f 33/33/1 35/35/1 36/36/1
usemtl 122_3-0
f 37/37/4 38/38/4 39/39/4
f 37/37/4 39/39/4 40/40/4
