# Blender v2.91.0 OBJ File: '13200.blend'
# www.blender.org
mtllib 13200.mtl
o model13200-node_model13200
v -0.900000 -1.575000 3.125000
v -0.900000 0.675000 3.125000
v -0.900000 0.675000 2.975000
v -0.900000 -1.575000 2.975000
v -2.150000 -1.575000 2.975000
v -2.150000 0.675000 2.975000
v -2.150000 0.675000 3.125000
v -2.150000 -1.575000 3.125000
v -3.125000 -1.575000 -1.050000
v -3.125000 0.675000 -1.050000
v -2.975000 0.675000 -1.050000
v -2.975000 -1.575000 -1.050000
v -2.975001 -1.575000 -2.300000
v -2.975001 0.675000 -2.300000
v -3.125001 0.675000 -2.300000
v -3.125001 -1.575000 -2.300000
v -0.900000 0.675000 2.975000
v 3.125000 1.575001 2.974999
v 3.125000 -1.575000 2.975000
v -0.900000 -1.575000 2.975000
v -2.150000 0.675000 2.975000
v -2.150000 -1.575000 2.975000
v -2.975000 -1.575000 2.975000
v -2.975000 1.575001 2.975000
v -2.975000 -1.575000 -1.050000
v -2.975000 0.675000 -1.050000
v -2.975000 -1.575000 -2.299999
v -2.975000 -1.575001 -3.125000
v -2.975000 1.575000 -3.125000
v -2.975000 0.675000 -2.300000
v 3.125000 -1.575000 2.975000
v 3.125000 1.575001 2.974999
v -2.975000 -1.575001 -3.125000
v 3.125000 -1.575001 -3.125000
v 3.125000 1.575000 -3.125001
v -2.975000 1.575000 -3.125000
v -2.975000 -1.575000 -3.125000
v -2.975000 -1.575000 2.975001
v 3.125000 -1.575000 2.975000
v 3.125000 -1.575000 -3.125000
v 3.125000 1.575000 -3.125001
v 3.125000 1.575000 2.974999
v -2.975000 1.575000 2.975000
v -2.975000 1.575000 -3.125000
vt 0.000000 0.000000
vt 1.000000 0.000000
vt 1.000000 -1.000000
vt 0.000000 -1.000000
vt 1.000000 -1.000000
vt 1.000000 0.000000
vt 0.000000 0.000000
vt 0.000000 -0.992188
vt 0.000000 0.000000
vt 1.000000 0.000000
vt 1.000000 -1.000000
vt 0.000000 -1.000000
vt 1.000000 -1.000000
vt 1.000000 0.000000
vt 0.000000 0.000000
vt 0.000000 -0.992188
vt 2.636720 -0.293457
vt 0.000000 0.000000
vt 0.000000 -1.000000
vt 2.636720 -1.000000
vt 3.457030 -0.293457
vt 4.000000 0.000000
vt 3.457030 -1.000000
vt 4.000000 -1.000000
vt 6.637338 -1.000000
vt 6.637338 -0.293457
vt 7.999638 0.000000
vt 7.457647 -1.000000
vt 8.000618 -1.000000
vt 7.457647 -0.293457
vt 0.000000 -1.000000
vt -4.011718 -0.996094
vt -3.988280 0.007812
vt 0.000000 0.000000
vt 4.000000 -1.000000
vt 4.000000 0.000000
vt 0.097656 0.000000
vt 0.097656 -3.906250
vt 3.999020 -3.905270
vt 4.000000 0.000000
vt 4.000000 0.000000
vt 0.000000 0.000000
vt 0.000000 -3.999020
vt 4.000000 -4.000000
vn 0.0000 1.0000 0.0000
vn -1.0000 0.0000 0.0000
vn 1.0000 0.0000 0.0000
vn 0.0000 -1.0000 0.0000
vn 0.0000 -0.0000 -1.0000
vn 0.0000 0.0000 1.0000
usemtl 067_14-0
s off
f 4/1/1 5/2/1 8/3/1
f 4/1/1 8/3/1 1/4/1
f 1/4/2 2/5/2 3/6/2
f 1/4/2 3/6/2 4/1/2
f 5/2/3 6/7/3 7/8/3
f 5/2/3 7/8/3 8/3/3
f 7/8/4 6/7/4 3/6/4
f 7/8/4 3/6/4 2/5/4
f 12/9/1 13/10/1 16/11/1
f 12/9/1 16/11/1 9/12/1
f 9/12/5 10/13/5 11/14/5
f 9/12/5 11/14/5 12/9/5
f 13/10/6 14/15/6 15/16/6
f 13/10/6 15/16/6 16/11/6
f 10/13/4 15/16/4 14/15/4
f 10/13/4 14/15/4 11/14/4
usemtl 137_0-0
f 17/17/5 18/18/5 19/19/5
f 17/17/5 19/19/5 20/20/5
f 17/17/5 21/21/5 24/22/5
f 17/17/5 24/22/5 18/18/5
f 21/21/5 22/23/5 23/24/5
f 21/21/5 23/24/5 24/22/5
f 24/22/3 23/24/3 25/25/3 26/26/3 29/27/3
f 27/28/3 28/29/3 29/27/3
f 27/28/3 29/27/3 30/30/3
f 29/27/3 26/26/3 30/30/3
usemtl 137_1-0
f 34/31/2 31/32/2 32/33/2
f 34/31/2 32/33/2 35/34/2
f 33/35/6 34/31/6 35/34/6
f 33/35/6 35/34/6 36/36/6
usemtl 137_3-0
f 37/37/1 38/38/1 39/39/1
f 37/37/1 39/39/1 40/40/1
usemtl 137_4-0
f 41/41/4 42/42/4 43/43/4
f 41/41/4 43/43/4 44/44/4
