# Blender v2.82 (sub 7) OBJ File: '62319.blend'
# www.blender.org
mtllib 62319.mtl
o model62319-node_model62319
v -1.550000 0.200000 -0.200000
v -1.550000 0.200000 0.200000
v 1.550000 0.200000 0.200000
v 1.550000 0.200000 -0.200000
v 1.550000 -0.200000 0.200000
v -1.550000 -0.200000 0.200000
v -1.550000 -0.200000 -0.200000
v 1.550000 -0.200000 -0.200000
v -1.550000 -0.200000 -0.200000
v -1.550000 -0.200000 0.200000
v -1.550000 0.200000 0.200000
v -1.550000 0.200000 -0.200000
v 1.550000 -0.200000 0.200000
v 1.550000 -0.200000 -0.200000
v 1.550000 0.200000 -0.200000
v 1.550000 0.200000 0.200000
vt 0.000000 -0.889648
vt 1.000000 -0.889648
vt 1.000000 -0.389648
vt 0.000000 -0.389648
vt 0.000000 -0.919922
vt 0.000000 -0.419922
vt 1.000000 -0.419922
vt 1.000000 -0.919434
vt 0.000100 0.000100
vt 0.965796 0.000100
vt 0.965796 0.965796
vt 0.000100 0.965796
vt 0.000100 0.000100
vt 0.968896 0.000100
vt 0.968896 0.971996
vt 0.000100 0.971996
vn -0.0000 1.0000 -0.0000
vn 0.0000 0.0000 1.0000
vn -0.0000 -0.0000 -1.0000
vn 0.0000 -1.0000 0.0000
vn -1.0000 0.0000 0.0000
vn 1.0000 -0.0000 0.0000
usemtl 146_1-0-material
s off
f 1/1/1 2/2/1 3/3/1
f 1/1/1 3/3/1 4/4/1
f 6/5/2 3/3/2 2/2/2
f 6/5/2 5/6/2 3/3/2
f 8/7/3 1/1/3 4/4/3
f 8/7/3 7/8/3 1/1/3
f 5/6/4 6/5/4 7/8/4
f 5/6/4 7/8/4 8/7/4
usemtl 086_0-0-material
f 9/9/5 10/10/5 11/11/5
f 9/9/5 11/11/5 12/12/5
f 13/13/6 14/14/6 15/15/6
f 13/13/6 15/15/6 16/16/6
