# Blender 3.3.0
# www.blender.org
mtllib 59016.mtl
v -3.200000 7.000000 -1.600001
v -3.200000 7.000000 -3.200001
v -0.000000 7.000000 -1.600001
v 0.800000 7.000000 -1.600001
v 3.200000 7.000000 -3.200001
v 3.200000 7.000000 -1.600001
v 0.800000 5.400000 1.599999
v 3.200000 5.400000 1.599999
v 3.200000 5.400000 3.199999
v -3.200000 5.400000 1.599999
v 0.000000 5.400000 1.599999
v -3.200000 5.400000 3.199999
v 0.625000 2.249999 -3.200001
v -0.625000 2.249999 -3.200001
v 0.625000 8.650001 3.199999
v -0.625000 8.650001 3.199999
v -0.000000 4.000000 -1.600001
v -0.000000 7.000000 -1.600001
v 0.800000 7.000000 -1.600001
v 0.800000 4.000000 -1.600001
v -3.200000 4.000000 -3.200001
v -3.200000 7.000000 -3.200001
v -3.200000 7.000000 -1.600001
v -3.200000 4.000000 -1.600000
v 3.200000 4.000000 -3.200001
v 3.200000 4.000000 -1.600001
v 3.200000 7.000000 -1.600001
v 3.200000 7.000000 -3.200001
v -3.200000 2.400001 3.200000
v -3.200000 2.400000 1.600000
v -3.200000 5.400001 1.599999
v -3.200000 5.400001 3.199999
v 0.800000 2.400000 1.600000
v 0.800000 5.400001 1.599999
v 0.000000 5.400001 1.599999
v 0.000000 2.400000 1.600000
v 3.200000 2.400001 3.200000
v 3.200000 5.400001 3.199999
v 3.200000 5.400001 1.599999
v 3.200000 2.400000 1.599999
v 0.625000 2.250000 -3.200001
v 0.625000 0.000000 -3.200000
v -0.625000 0.000000 -3.200000
v -0.625000 2.250000 -3.200001
v 0.625000 6.400001 3.199999
v 0.625000 8.650001 3.199999
v -0.625000 8.650001 3.199999
v -0.625000 6.400001 3.199999
v -3.200000 3.999999 -3.200001
v -3.200000 3.999999 -1.600000
v -0.000000 3.999999 -1.600001
v 0.800000 3.999999 -1.600001
v 3.200000 3.999999 -1.600001
v 3.200000 3.999999 -3.200001
v -3.200000 2.400000 1.600000
v -3.200000 2.400000 3.200000
v 0.800000 2.400000 1.600000
v 3.200000 2.400000 3.200000
v 3.200000 2.400000 1.599999
v 0.000000 2.400000 1.600000
v 0.625000 0.000000 -3.200000
v -0.625000 0.000000 -3.200000
v -0.625000 6.400001 3.199999
v 0.625000 6.400001 3.199999
vn -0.0000 -0.9457 0.3251
vn -0.0000 -1.0000 -0.0000
vn -0.0000 -0.0000 1.0000
vn -0.0000 -0.0000 -1.0000
vn 1.0000 -0.0000 -0.0000
vn -1.0000 -0.0000 -0.0000
vn 0.8812 -0.0000 0.4727
vn 0.8812 -0.0000 -0.4727
vn -0.0000 0.8944 -0.4472
vn -0.0000 1.0000 -0.0000
vn -0.0000 -0.8360 0.5487
vn -0.0000 -0.8944 -0.4472
vn -0.0000 0.8944 0.4472
vn -0.9916 -0.0000 0.1291
vn -0.9916 -0.0000 -0.1291
vt 1.000000 0.500000
vt 1.000000 0.000000
vt 1.500000 0.500000
vt 1.656250 0.500000
vt 2.000000 0.000000
vt 2.000000 0.500000
vt 1.656250 1.500000
vt 2.000000 1.500000
vt 2.000000 2.000000
vt 1.000000 1.500000
vt 1.500000 1.500000
vt 1.000000 2.000000
vt 1.593750 0.000000
vt 1.390625 0.000000
vt 1.593750 2.000000
vt 1.390625 2.000000
vt 3.171875 1.687500
vt 3.171875 3.031250
vt 3.000000 3.031250
vt 3.000000 1.687500
vt 6.343750 1.687500
vt 6.343750 3.000000
vt 6.671875 3.000000
vt 6.671875 1.687500
vt 5.000000 1.687500
vt 4.671875 1.687500
vt 4.671875 3.000000
vt 5.000000 3.000000
vt 2.328125 1.000000
vt 2.000000 1.000000
vt 2.000000 2.343750
vt 2.328125 2.343750
vt 2.171875 1.031250
vt 2.171875 2.375000
vt 2.000000 2.375000
vt 2.000000 1.031250
vt 3.671875 1.000000
vt 3.671875 2.343750
vt 4.000000 2.343750
vt 4.000000 1.000000
vt 1.000000 1.000000
vt 1.000000 0.000000
vt 1.000000 0.000000
vt 1.000000 1.000000
vt 4.171875 2.718750
vt 4.171875 3.718750
vt 8.000000 4.031250
vt 8.000000 2.656250
vt 3.000000 0.000000
vt 3.000000 0.500000
vt 2.015625 0.500000
vt 1.765625 0.500000
vt 1.000000 0.500000
vt 1.000000 0.000000
vt 3.000000 1.500000
vt 3.000000 2.000000
vt 1.765625 1.500000
vt 1.000000 2.000000
vt 1.000000 1.500000
vt 2.015625 1.500000
vt 1.796875 -0.000000
vt 2.203125 -0.000000
vt 2.203125 2.000000
vt 1.796875 2.000000
s 0
usemtl TEXTURE.122_3-material
f 16/16/1 1/1/1 3/3/1
f 1/1/2 2/2/2 3/3/2
f 4/4/2 5/5/2 6/6/2
f 7/7/2 8/8/2 9/9/2
f 10/10/2 11/11/2 12/12/2
f 11/11/2 9/9/2 12/12/2
f 9/9/2 11/11/2 7/7/2
f 5/5/2 3/3/2 2/2/2
f 5/5/2 4/4/2 3/3/2
f 10/10/11 14/14/11 11/11/11
f 16/16/1 3/3/1 15/15/1
f 11/11/11 14/14/11 13/13/11
f 6/6/12 8/8/12 7/7/12
f 6/6/12 7/7/12 4/4/12
usemtl TEXTURE.122_0-material
f 21/21/3 25/25/3 22/22/3
f 28/28/3 22/22/3 25/25/3
f 17/17/4 18/18/4 19/19/4
f 17/17/4 19/19/4 20/20/4
f 21/21/5 22/22/5 23/23/5
f 21/21/5 23/23/5 24/24/5
f 25/25/6 26/26/6 27/27/6
f 25/25/6 27/27/6 28/28/6
f 26/26/6 40/40/6 39/39/6
f 27/27/6 26/26/6 39/39/6
f 29/29/5 30/30/5 31/31/5
f 29/29/5 31/31/5 32/32/5
f 33/33/3 34/34/3 35/35/3
f 33/33/3 35/35/3 36/36/3
f 37/37/4 29/29/4 38/38/4
f 32/32/4 38/38/4 29/29/4
f 37/37/6 38/38/6 39/39/6
f 37/37/6 39/39/6 40/40/6
f 43/43/7 44/44/7 30/30/7
f 31/31/7 30/30/7 44/44/7
f 23/23/8 47/47/8 48/48/8
f 23/23/8 48/48/8 24/24/8
f 45/45/14 46/46/14 17/17/14
f 18/18/14 17/17/14 46/46/14
f 33/33/5 19/19/5 34/34/5
f 19/19/5 33/33/5 20/20/5
f 35/35/15 41/41/15 36/36/15
f 42/42/15 36/36/15 41/41/15
usemtl TEXTURE.122_2-material
f 63/63/9 51/51/9 50/50/9
f 49/49/10 50/50/10 51/51/10
f 52/52/10 53/53/10 54/54/10
f 64/64/9 51/51/9 63/63/9
f 49/49/10 51/51/10 52/52/10
f 52/52/10 54/54/10 49/49/10
f 52/52/13 57/57/13 59/59/13
f 52/52/13 59/59/13 53/53/13
f 57/57/10 58/58/10 59/59/10
f 57/57/10 56/56/10 58/58/10
f 57/57/10 60/60/10 56/56/10
f 56/56/10 60/60/10 55/55/10
f 60/60/9 61/61/9 62/62/9
f 60/60/9 62/62/9 55/55/9
