# Blender v2.91.0 OBJ File: '9004.blend'
# www.blender.org
mtllib 9004.mtl
o model9004-node_model9004
v -1.200000 -1.125000 -0.175000
v -1.200000 -1.125000 -0.025000
v -1.200000 1.125000 -0.025000
v -1.200000 1.125000 -0.175000
v 0.050000 -1.125000 -0.025000
v 0.050000 -1.125000 -0.175000
v 0.050000 1.125000 -0.175000
v 0.050000 1.125000 -0.025000
v 0.050000 -1.125000 -0.175000
v -1.200000 -1.125000 -0.175000
v -1.200000 1.125000 -0.175000
v 0.050000 1.125000 -0.175000
v -1.200000 -1.125000 -0.025000
v 0.050000 -1.125000 -0.025000
v 0.050000 1.125000 -0.025000
v -1.200000 1.125000 -0.025000
vt 0.000000 -1.000000
vt 1.000000 -1.000000
vt 1.000000 0.000000
vt 0.000000 0.000000
vt 1.000000 -1.000000
vt 0.000000 -1.000000
vt 0.000000 0.000000
vt 1.000000 0.000000
vt 0.968750 0.000000
vt 0.000000 1.000000
vt 0.000000 0.000000
vt 0.968750 1.000000
vt 1.390625 1.000000
vt 1.390625 -0.000000
vt 2.156250 0.000000
vt 2.156250 1.000000
vn -0.0000 -0.0000 -1.0000
vn 0.0000 0.0000 1.0000
vn 0.0000 1.0000 0.0000
vn -1.0000 0.0000 0.0000
vn 1.0000 0.0000 -0.0000
vn 0.0000 -1.0000 0.0000
usemtl 074_3-0
s off
f 9/1/1 10/2/1 11/3/1
f 9/1/1 11/3/1 12/4/1
f 13/5/2 14/6/2 15/7/2
f 13/5/2 15/7/2 16/8/2
usemtl 067-10-0
f 8/9/3 4/10/3 3/11/3
f 8/9/3 7/12/3 4/10/3
f 1/13/4 2/14/4 3/11/4
f 1/13/4 3/11/4 4/10/4
f 5/15/5 6/16/5 7/12/5
f 5/15/5 7/12/5 8/9/5
f 6/16/6 2/14/6 1/13/6
f 6/16/6 5/15/6 2/14/6
