# Blender v2.82 (sub 7) OBJ File: '58033.blend'
# www.blender.org
mtllib 58033.mtl
o model58033-node_model58033
v 3.200000 3.200001 3.199999
v 3.200000 3.200000 -3.200001
v -3.200000 3.200000 -3.200001
v -3.200000 3.200001 3.200000
v 3.200000 -3.200001 -3.200000
v -3.200000 -3.200001 -3.199999
v -3.200000 3.200000 -3.200001
v 3.200000 3.200000 -3.200001
v -3.200000 3.200001 3.200000
v -3.200000 -3.200000 3.200001
v -0.625000 -3.200000 3.200001
v -0.625000 -0.950000 3.200001
v 0.625000 -3.200000 3.200001
v 3.200000 -3.200000 3.200001
v 3.200000 3.200001 3.199999
v 0.625000 -0.950000 3.200000
vt 0.000000 0.000000
vt 0.000000 -2.000000
vt 2.000000 -2.000000
vt 2.000000 0.000000
vt 2.000000 0.000000
vt 0.804688 -2.593750
vt 1.195310 -2.593750
vt 0.000000 0.000000
vt 0.000000 -4.000000
vt 2.000000 -4.000000
vt 2.000000 0.000000
vt 0.000000 0.000000
vt 0.000000 -4.000000
vt 0.804688 -4.000000
vt 1.195310 -4.000000
vt 2.000000 -4.000000
vn -0.0000 1.0000 -0.0000
vn 0.0000 -0.0000 1.0000
vn -0.0000 -0.0000 -1.0000
vn -1.0000 -0.0000 0.0000
vn 1.0000 -0.0000 -0.0000
usemtl 122_2-0
s off
f 1/1/1 2/2/1 3/3/1
f 1/1/1 3/3/1 4/4/1
usemtl 122_4-0
f 15/5/2 12/6/2 16/7/2
f 15/5/2 9/8/2 12/6/2
f 5/9/3 6/10/3 7/11/3
f 5/9/3 7/11/3 8/12/3
f 7/11/4 10/13/4 9/8/4
f 7/11/4 6/10/4 10/13/4
f 9/8/2 10/13/2 11/14/2
f 9/8/2 11/14/2 12/6/2
f 13/15/2 14/16/2 15/5/2
f 13/15/2 15/5/2 16/7/2
f 15/5/5 5/9/5 8/12/5
f 15/5/5 14/16/5 5/9/5
