# Blender v2.92.0 OBJ File: '60606.blend'
# www.blender.org
mtllib 60606.mtl
o model60606-node_model60606
v -1.750000 2.123925 -0.130664
v 1.750000 2.123925 -0.130664
v 1.750000 1.123925 -0.130664
v -1.750000 1.123925 -0.130664
v 1.750000 1.123925 0.119336
v 1.750000 2.123925 0.119335
v -1.750000 2.123925 0.119336
v -1.750000 1.123925 0.119336
v 1.750000 1.123925 -0.130664
v 1.750000 1.123925 0.119336
v -1.750000 1.123925 0.119336
v -1.750000 1.123925 -0.130664
v -1.750000 2.123925 -0.130664
v -1.750000 2.123925 0.119336
v 1.750000 2.123925 0.119335
v 1.750000 2.123925 -0.130664
v 1.750000 -0.676075 -0.130664
v 1.750000 -0.676075 0.119336
v -1.750000 -0.676075 0.119336
v -1.750000 -0.676075 -0.130664
v -1.750000 -0.526075 -0.130664
v -1.750000 -0.526075 0.119336
v 1.750000 -0.526075 0.119336
v 1.750000 -0.526075 -0.130664
v 1.250000 -0.690409 -0.050000
v 1.250000 1.125000 -0.050000
v 1.250000 1.125000 0.050000
v 1.250000 -0.690409 0.050000
v 1.150000 -0.690409 0.050000
v 1.150000 1.125000 0.050000
v 1.150000 1.125000 -0.050000
v 1.150000 -0.690409 -0.050000
v 0.550000 -1.326075 0.000000
v 0.500000 -0.690409 -0.050000
v 0.500000 1.125000 -0.050000
v 0.500000 1.125000 0.050000
v 0.500000 -0.690409 0.050000
v 0.600000 -0.690409 0.050000
v 0.600000 1.125000 0.050000
v 0.600000 1.125000 -0.050000
v 0.600000 -0.690409 -0.050000
v -1.750000 -0.526075 -0.130664
v 1.750000 -0.526075 -0.130664
v 1.750000 -0.676075 -0.130664
v -1.750000 -0.676075 -0.130664
v 1.750000 -0.676075 0.119336
v 1.750000 -0.526075 0.119336
v -1.750000 -0.526075 0.119336
v -1.750000 -0.676075 0.119336
v 0.050000 -0.690409 -0.050000
v 0.050000 1.125000 -0.050000
v 0.050000 1.125000 0.050000
v 0.050000 -0.690409 0.050000
v -0.050000 -0.690409 0.050000
v -0.050000 1.125000 0.050000
v -0.050000 1.125000 -0.050000
v -0.050000 -0.690409 -0.050000
v 0.000000 -1.326075 0.000000
v -0.550000 -1.326075 0.000000
v -0.600000 -0.690409 -0.050000
v -0.600000 1.125000 -0.050000
v -0.600000 1.125000 0.050000
v -0.600000 -0.690409 0.050000
v -0.500000 -0.690409 0.050000
v -0.500000 1.125000 0.050000
v -0.500000 1.125000 -0.050000
v -0.500000 -0.690409 -0.050000
v 1.200000 -1.326075 0.000000
v -1.200000 -1.326075 0.000000
v -1.250000 -0.690409 -0.050000
v -1.250000 1.125000 -0.050000
v -1.250000 1.125000 0.050000
v -1.250000 -0.690409 0.050000
v -1.150000 -0.690409 0.050000
v -1.150000 1.125000 0.050000
v -1.150000 1.125000 -0.050000
v -1.150000 -0.690409 -0.050000
v 1.750000 2.123925 -0.130664
v 1.750000 1.123925 -0.130664
v 1.750000 1.123925 0.119336
v 1.750000 2.123925 0.119335
v -1.750000 2.123925 -0.130664
v -1.750000 1.123925 -0.130664
v -1.750000 1.123925 0.119336
v -1.750000 2.123925 0.119335
v -1.750000 -0.676075 0.119336
v -1.750000 -0.676075 -0.130664
v -1.750000 -0.526075 -0.130664
v -1.750000 -0.526075 0.119336
v 1.750000 -0.676075 0.119336
v 1.750000 -0.676075 -0.130664
v 1.750000 -0.526075 -0.130664
v 1.750000 -0.526075 0.119336
vt 2.000000 0.000000
vt 0.000000 0.000000
vt 0.000000 -0.998047
vt 2.000000 -1.000000
vt 2.000000 -1.000000
vt 2.000000 0.000000
vt 0.000000 0.000000
vt 0.000000 -1.000000
vt 10.000000 -1.000000
vt 10.000000 0.000000
vt 0.000000 0.000000
vt 0.000000 -1.000000
vt 0.000000 0.000000
vt 0.000000 -1.000000
vt 10.000000 -1.000000
vt 10.000000 0.000000
vt 10.000000 -1.000000
vt 10.000000 0.000000
vt 0.000000 0.000000
vt 0.000000 -1.000000
vt 0.000000 0.000000
vt 0.000000 -1.000000
vt 10.000000 -1.000000
vt 10.000000 0.000000
vt -0.093750 0.000000
vt 1.000000 0.000000
vt 1.000000 -1.000000
vt -0.093750 -2.000000
vt -0.593750 -1.000000
vt -0.093750 -1.000000
vt 1.000000 -2.000000
vt 1.000000 -1.000000
vt -0.093750 -1.000000
vt -0.093750 -1.000000
vt 1.000000 0.000000
vt -0.093750 0.000000
vt 1.000000 -1.000000
vt -0.093750 -1.000000
vt 1.000000 -1.000000
vt 1.000000 -2.000000
vt -0.093750 -2.000000
vt -0.093750 -1.000000
vt 1.000000 -1.000000
vt 1.000000 -2.000000
vt -0.093750 -2.000000
vt -0.093750 0.000000
vt 1.000000 -1.000000
vt -0.093750 -1.000000
vt 1.000000 0.000000
vt -0.093750 -1.000000
vt 1.000000 -1.000000
vt 1.000000 0.000000
vt -0.093750 0.000000
vt 1.000000 -1.000000
vt -0.093750 -1.000000
vt -0.093750 -2.000000
vt 1.000000 -2.000000
vt 2.000000 0.000000
vt 0.000000 0.000000
vt 0.000000 -1.000000
vt 2.000000 -1.000000
vt 2.000000 -1.000000
vt 2.000000 0.000000
vt 0.000000 0.000000
vt 0.000000 -1.000000
vt -0.593750 -1.000000
vt -0.593750 -1.000000
vt -0.593750 -1.000000
vt -0.093750 -1.000000
vt 1.000000 0.000000
vt -0.093750 0.000000
vt 1.000000 -1.000000
vt -0.093750 -1.000000
vt 1.000000 -1.000000
vt 1.000000 -2.000000
vt -0.093750 -2.000000
vt -0.593750 -1.000000
vt -0.062500 -1.000000
vt 1.000000 1.000000
vt -0.062500 1.000000
vt 1.000000 -1.000000
vt -0.062500 -1.000000
vt -0.062500 1.000000
vt 1.000000 1.000000
vt 1.000000 -1.000000
vt 0.281250 1.000000
vt 0.000000 -0.000000
vt 0.281250 0.000000
vt -0.000000 1.000000
vt 0.281250 1.000000
vt 0.281250 0.000000
vt 0.000000 -0.000000
vt -0.000000 1.000000
vn -0.0000 -0.0000 -1.0000
vn 0.0000 0.0000 1.0000
vn 0.0000 -1.0000 0.0000
vn 0.0000 1.0000 0.0000
vn 0.9969 -0.0784 0.0000
vn 1.0000 0.0000 0.0000
vn -1.0000 -0.0000 0.0000
vn 0.0000 -0.0784 0.9969
vn -0.9969 -0.0784 0.0000
vn -0.0000 -0.0784 -0.9969
usemtl 090_2-0
s off
f 1/1/1 2/2/1 3/3/1
f 1/1/1 3/3/1 4/4/1
f 5/5/2 6/6/2 7/7/2
f 5/5/2 7/7/2 8/8/2
usemtl 090_12-0
f 9/9/3 10/10/3 11/11/3
f 9/9/3 11/11/3 12/12/3
f 13/13/4 14/14/4 15/15/4
f 13/13/4 15/15/4 16/16/4
f 17/17/3 18/18/3 19/19/3
f 17/17/3 19/19/3 20/20/3
f 21/21/4 22/22/4 23/23/4
f 21/21/4 23/23/4 24/24/4
usemtl 067_15-0
f 57/25/1 56/26/1 51/27/1
f 53/28/5 58/29/5 50/30/5
f 50/30/6 52/31/6 53/28/6
f 55/32/2 54/33/2 53/28/2
f 55/32/2 53/28/2 52/31/2
f 50/30/6 51/27/6 52/31/6
f 63/34/7 61/35/7 60/36/7
f 63/34/7 62/37/7 61/35/7
f 67/38/6 66/39/6 65/40/6
f 60/36/1 66/39/1 67/38/1
f 62/37/2 63/34/2 64/41/2
f 62/37/2 64/41/2 65/40/2
f 25/42/6 26/43/6 27/44/6
f 25/42/6 27/44/6 28/45/6
f 32/46/1 26/43/1 25/42/1
f 30/47/2 28/45/2 27/44/2
f 29/48/7 30/47/7 31/49/7
f 29/48/7 31/49/7 32/46/7
f 37/50/7 36/51/7 35/52/7
f 37/50/7 35/52/7 34/53/7
f 34/53/1 40/54/1 41/55/1
f 36/51/2 38/56/2 39/57/2
f 41/55/6 40/54/6 39/57/6
f 41/55/6 39/57/6 38/56/6
f 42/58/1 43/59/1 44/60/1
f 42/58/1 44/60/1 45/61/1
f 46/62/2 47/63/2 48/64/2
f 46/62/2 48/64/2 49/65/2
f 57/25/1 51/27/1 50/30/1
f 54/33/7 56/26/7 57/25/7
f 54/33/7 55/32/7 56/26/7
f 67/38/6 65/40/6 64/41/6
f 64/41/5 59/66/5 67/38/5
f 60/36/1 61/35/1 66/39/1
f 54/33/8 58/29/8 53/28/8
f 57/25/9 58/29/9 54/33/9
f 50/30/10 58/29/10 57/25/10
f 30/47/2 29/48/2 28/45/2
f 32/46/1 31/49/1 26/43/1
f 28/45/5 68/67/5 25/42/5
f 25/42/10 68/67/10 32/46/10
f 32/46/9 68/67/9 29/48/9
f 29/48/8 68/67/8 28/45/8
f 36/51/2 37/50/2 38/56/2
f 34/53/1 35/52/1 40/54/1
f 38/56/5 33/68/5 41/55/5
f 41/55/10 33/68/10 34/53/10
f 34/53/9 33/68/9 37/50/9
f 37/50/8 33/68/8 38/56/8
f 63/34/8 59/66/8 64/41/8
f 60/36/9 59/66/9 63/34/9
f 67/38/10 59/66/10 60/36/10
f 73/69/7 71/70/7 70/71/7
f 73/69/7 72/72/7 71/70/7
f 77/73/6 76/74/6 75/75/6
f 70/71/1 76/74/1 77/73/1
f 72/72/2 73/69/2 74/76/2
f 72/72/2 74/76/2 75/75/2
f 77/73/6 75/75/6 74/76/6
f 74/76/5 69/77/5 77/73/5
f 70/71/1 71/70/1 76/74/1
f 73/69/8 69/77/8 74/76/8
f 70/71/9 69/77/9 73/69/9
f 77/73/10 69/77/10 70/71/10
f 81/78/6 79/79/6 78/80/6
f 81/78/6 80/81/6 79/79/6
f 85/82/7 82/83/7 83/84/7
f 85/82/7 83/84/7 84/85/7
f 89/86/7 87/87/7 86/88/7
f 89/86/7 88/89/7 87/87/7
f 93/90/6 90/91/6 91/92/6
f 93/90/6 91/92/6 92/93/6
