# Blender v2.92.0 OBJ File: '41002.blend'
# www.blender.org
mtllib 41002.mtl
o model41002-node_model41002
v -0.974415 1.037695 0.586915
v -0.974415 -1.019727 0.586915
v -0.905567 -1.019727 0.586915
v -0.905567 1.037695 0.586915
v -1.008887 1.037695 0.612792
v 1.264745 1.037695 0.612792
v 1.333595 0.689745 0.661230
v -1.077832 0.689745 0.661230
v 1.264745 1.037695 -0.621193
v -1.008888 1.037695 -0.621193
v -1.077833 0.689745 -0.669630
v 1.333595 0.689745 -0.669630
v -0.974415 1.037695 0.518067
v -0.974415 -1.019727 0.518068
v 1.230239 1.037695 -0.584244
v 1.230239 -1.019727 -0.584245
v -0.905568 -1.019727 -0.584244
v -0.905567 1.037695 -0.584244
v -0.905567 -0.640820 -0.521290
v -0.905567 -1.019728 -0.521290
v -0.905567 -1.019727 0.524023
v -0.905567 -0.640820 0.524023
v 1.333595 1.106542 -0.669630
v -1.077833 1.106542 -0.669630
v -1.077832 1.106543 0.661230
v 1.333595 1.106543 0.661230
v 1.161392 -1.019727 -0.584245
v 1.161392 1.037695 -0.584244
v 1.230239 1.037695 -0.515397
v 1.230240 -1.019727 -0.515397
v -0.974415 1.037695 -0.515397
v -0.974415 -1.019727 -0.515397
v -0.974415 -1.019727 -0.584244
v -0.974415 1.037695 -0.584244
v 1.264745 1.037695 0.612792
v -1.008887 1.037695 0.612792
v -1.008888 1.037695 -0.621193
v 1.264745 1.037695 -0.621193
v 1.161327 -0.640820 -0.521290
v 1.161327 -1.019728 -0.521290
v -0.905567 -1.019728 -0.521290
v -0.905567 -0.640820 -0.521290
v -0.905567 -0.640820 0.524023
v -0.905567 -1.019727 0.524023
v 1.161327 -1.019727 0.524023
v 1.161327 -0.640820 0.524023
v -0.601270 -0.571324 -0.206055
v -0.790722 -0.571324 -0.206055
v -0.790722 -0.571324 0.208789
v -0.601270 -0.571324 0.208789
v -0.601270 -0.571324 -0.206055
v -0.601270 -0.571324 0.208789
v -0.570605 -0.640171 0.309570
v -0.570605 -0.640171 -0.306932
v -0.790722 -0.571324 -0.206055
v -0.852050 -0.640171 -0.306932
v -0.852050 -0.640171 0.309570
v -0.790722 -0.571324 0.208789
v -0.601270 -0.571324 -0.206055
v -0.570605 -0.640171 -0.306932
v -0.852050 -0.640171 -0.306932
v -0.790722 -0.571324 -0.206055
v -0.790722 -0.571324 0.208789
v -0.852050 -0.640171 0.309570
v -0.570605 -0.640171 0.309570
v -0.601270 -0.571324 0.208789
v 1.161327 -0.640820 -0.521290
v -0.905567 -0.640820 -0.521290
v -0.905567 -0.640820 0.524023
v 1.161327 -0.640820 0.524023
v 1.161327 -0.640820 -0.521290
v 1.161327 -0.640820 0.524023
v 1.161327 -1.019727 0.524023
v 1.161327 -1.019728 -0.521290
v 1.333595 1.106542 -0.669630
v 1.333595 0.689745 -0.669630
v -1.077833 0.689745 -0.669630
v -1.077833 1.106542 -0.669630
v -1.077833 1.106542 -0.669630
v -1.077833 0.689745 -0.669630
v -1.077832 0.689745 0.661230
v -1.077832 1.106543 0.661230
v -1.077832 1.106543 0.661230
v -1.077832 0.689745 0.661230
v 1.333595 0.689745 0.661230
v 1.333595 1.106543 0.661230
v 1.333595 1.106542 -0.669630
v 1.333595 1.106543 0.661230
v 1.333595 0.689745 0.661230
v 1.333595 0.689745 -0.669630
v -0.905567 -1.019728 -0.521290
v -0.905567 -1.019727 0.524023
v 1.161327 -1.019728 -0.521290
v 1.161327 -1.019727 0.524023
v 1.230239 1.037695 0.586914
v 1.230240 -1.019727 0.586914
v 1.230240 -1.019727 0.518067
v 1.230239 1.037695 0.518067
v 1.161392 1.037695 0.586914
v 1.161392 -1.019727 0.586914
vt 0.000000 1.000000
vt 3.750000 1.000000
vt 3.750000 2.000000
vt 0.000000 2.000000
vt 0.000000 1.000000
vt 3.750000 1.000000
vt 3.750000 2.000000
vt 0.000000 2.000000
vt 3.687500 0.000000
vt 0.000000 2.000000
vt 3.750000 2.000000
vt 0.000000 0.000000
vt 0.000000 0.000000
vt 3.687500 0.000000
vt 0.000000 0.000000
vt 3.687500 0.000000
vt 0.000000 1.000000
vt 3.750000 1.000000
vt 0.000000 1.000000
vt 3.750000 1.000000
vt 3.750000 2.000000
vt 0.000000 2.000000
vt 0.000000 0.000000
vt 3.687500 0.000000
vt 1.000000 -0.000000
vt 1.000000 2.875000
vt 0.000000 2.875000
vt 0.000000 -0.000000
vt 1.000000 4.375000
vt 0.000000 4.375000
vt 0.000000 0.000000
vt 1.000000 0.000000
vt 1.000000 4.375000
vt 0.000000 4.375000
vt 0.000000 0.000000
vt 1.000000 0.000000
vt 0.937500 -0.976563
vt 0.062500 -0.976563
vt 0.058594 -0.023438
vt 0.937500 -0.023438
vt 0.937500 -0.023438
vt 0.062500 -0.023438
vt 0.058594 -0.976563
vt 0.937500 -0.976563
vt 0.000000 -0.002490
vt 0.002306 -0.002490
vt 0.002306 0.000000
vt 0.000000 0.000000
vt 0.000000 -0.002490
vt 0.002306 -0.002490
vt 0.003425 0.000000
vt 0.000000 0.000000
vt 0.000000 -0.002490
vt 0.002306 -0.002490
vt 0.002303 0.001208
vt 0.000000 0.000000
vt 0.000000 -0.002490
vt 0.002306 -0.002490
vt 0.002303 0.001208
vt 0.000000 0.000000
vt 0.000000 -0.002490
vt 0.002306 -0.002490
vt 0.002303 0.001208
vt 0.000000 0.000000
vt 1.000000 -0.984375
vt 1.000000 -0.031250
vt 0.000000 -0.031250
vt 0.000000 -0.984375
vt 1.000000 -0.062500
vt 0.000000 -0.062500
vt 0.000000 -1.000000
vt 1.000000 -1.000000
vt 1.000000 2.000000
vt 1.000000 -0.000000
vt -0.000000 -0.000000
vt 0.000000 2.000000
vt 1.000000 1.000000
vt 1.000000 3.000000
vt 0.000000 3.000000
vt 0.000000 1.000000
vt 0.000000 -2.000000
vt 1.000000 -2.000000
vt 0.998047 0.000000
vt 0.000000 0.000000
vt 0.000000 -1.000000
vt 1.000000 -1.000000
vt 0.998047 0.000000
vt 0.000000 0.000000
vt 0.000000 -2.000000
vt 1.000000 -2.000000
vt 0.998047 0.000000
vt 0.000000 0.000000
vt 0.000000 0.000000
vt 0.000000 -1.000000
vt 0.998047 -0.999023
vt 1.000000 0.000000
vt 0.000099 0.988552
vt 0.999901 0.000099
vt 0.999901 0.988552
vt 0.000100 0.000099
vn 0.0000 0.0000 1.0000
vn -0.0000 0.0000 -1.0000
vn 0.7071 -0.0000 0.7071
vn -1.0000 -0.0000 0.0000
vn 1.0000 0.0000 0.0000
vn 0.7071 -0.0000 -0.7071
vn -0.7071 -0.0000 0.7071
vn -0.7071 -0.0000 -0.7071
vn -0.0000 1.0000 -0.0000
vn 0.0000 -1.0000 0.0000
vn 0.9135 0.4069 0.0000
vn -0.7467 0.6652 -0.0000
vn -0.0000 0.8260 -0.5637
vn 0.0000 0.8257 0.5641
vn -0.0000 -0.1379 -0.9904
vn 0.0000 -0.1379 0.9904
vn 0.9809 -0.1944 -0.0000
vn -0.9810 -0.1941 0.0000
usemtl 067-14-0
s off
f 1/1/1 2/2/1 3/3/1
f 1/1/1 3/3/1 4/4/1
f 15/5/2 16/6/2 27/7/2
f 15/5/2 27/7/2 28/8/2
f 17/9/3 31/10/3 32/11/3
f 17/9/3 18/12/3 31/10/3
f 1/1/4 13/13/4 14/14/4
f 1/1/4 14/14/4 2/2/4
f 15/5/5 29/15/5 30/16/5
f 15/5/5 30/16/5 16/6/5
f 34/17/2 17/9/2 33/18/2
f 34/17/2 18/12/2 17/9/2
f 14/14/6 13/13/6 4/4/6
f 14/14/6 4/4/6 3/3/6
f 30/16/7 29/15/7 28/8/7
f 30/16/7 28/8/7 27/7/7
f 34/17/4 32/11/4 31/10/4
f 34/17/4 33/18/4 32/11/4
f 95/19/5 96/20/5 97/21/5
f 95/19/5 97/21/5 98/22/5
f 95/19/1 99/23/1 100/24/1
f 95/19/1 100/24/1 96/20/1
f 100/24/8 99/23/8 98/22/8
f 100/24/8 98/22/8 97/21/8
usemtl 067-15-0
f 19/25/4 20/26/4 21/27/4
f 19/25/4 21/27/4 22/28/4
f 23/29/9 24/30/9 25/31/9
f 23/29/9 25/31/9 26/32/9
usemtl 067-11-0
f 35/33/10 36/34/10 37/35/10
f 35/33/10 37/35/10 38/36/10
usemtl 090_6-0
f 39/37/2 40/38/2 41/39/2
f 39/37/2 41/39/2 42/40/2
f 43/41/1 44/42/1 45/43/1
f 43/41/1 45/43/1 46/44/1
usemtl 000_81-0
f 47/45/9 48/46/9 49/47/9
f 47/45/9 49/47/9 50/48/9
usemtl 000_82-0
f 51/49/11 52/50/11 53/51/11
f 51/49/11 53/51/11 54/52/11
f 55/53/12 56/54/12 57/55/12
f 55/53/12 57/55/12 58/56/12
usemtl 000_83-0
f 59/57/13 60/58/13 61/59/13
f 59/57/13 61/59/13 62/60/13
f 63/61/14 64/62/14 65/63/14
f 63/61/14 65/63/14 66/64/14
usemtl 090_5-0
f 67/65/9 68/66/9 69/67/9
f 67/65/9 69/67/9 70/68/9
usemtl 090_7-0
f 71/69/5 72/70/5 73/71/5
f 71/69/5 73/71/5 74/72/5
usemtl 067_0-0
f 5/73/15 6/74/15 7/75/15
f 5/73/15 7/75/15 8/76/15
f 9/77/16 10/78/16 11/79/16
f 9/77/16 11/79/16 12/80/16
f 11/79/17 10/78/17 5/73/17
f 11/79/17 5/73/17 8/76/17
f 7/75/18 6/74/18 9/77/18
f 7/75/18 9/77/18 12/80/18
f 75/81/2 76/82/2 77/83/2
f 75/81/2 77/83/2 78/84/2
f 79/85/4 80/86/4 81/87/4
f 79/85/4 81/87/4 82/88/4
f 83/89/1 84/90/1 85/91/1
f 83/89/1 85/91/1 86/92/1
f 87/93/5 88/94/5 89/95/5
f 87/93/5 89/95/5 90/96/5
f 91/97/10 94/98/10 92/99/10
f 91/97/10 93/100/10 94/98/10
