# Blender 3.3.0
# www.blender.org
mtllib 41001.mtl
o model41001-node
v 1.130762 -0.232813 0.458234
v 1.130762 -0.232813 0.389289
v 1.130762 -0.055371 0.389289
v 1.130762 -0.232813 0.389289
v 1.061914 -0.232813 0.458234
v 1.061914 -0.055371 0.458234
v 1.061914 -0.232813 0.458234
v 1.130762 -0.055371 0.458234
v 1.130762 -0.232813 0.458234
v -0.867187 0.276368 -0.512305
v -0.867187 -0.102441 -0.512305
v -0.867187 -0.102442 0.533105
v -0.867187 0.276368 0.533105
v -0.798275 -0.232813 0.471842
v -0.798275 -0.055371 0.471842
v -0.798275 -0.232813 0.402994
v -0.729395 -0.232813 -0.471875
v -0.798243 -0.232813 -0.471875
v -0.798243 -0.055371 -0.471875
v -0.798243 -0.232813 -0.402930
v -0.798243 -0.232813 -0.471875
v -0.798243 -0.055371 -0.402930
v -0.798243 -0.232813 -0.402930
v -0.729395 -0.232813 -0.471875
v -0.729395 -0.055371 -0.471875
v 1.130794 -0.232813 -0.471842
v 1.130794 -0.055371 -0.471842
v 1.130794 -0.232813 -0.402994
v 1.130794 -0.055371 -0.402994
v 1.130794 -0.232813 -0.402994
v -0.562890 0.345475 -0.197070
v -0.752345 0.345475 -0.197070
v -0.752345 0.345475 0.217871
v -0.562890 0.345475 0.217871
v -0.798275 -0.055371 0.402994
v -0.798275 -0.232813 0.402994
v -0.562890 0.345485 -0.197070
v -0.532227 0.276540 -0.297852
v -0.813672 0.276540 -0.297852
v -0.752345 0.345485 -0.197070
v -0.729330 -0.232813 0.471842
v -0.729330 -0.055371 0.471842
v -0.729330 -0.232813 0.471842
v -0.798275 -0.232813 0.471842
v -0.752345 0.345485 0.217871
v -0.813672 0.276540 0.318653
v -0.532227 0.276540 0.318653
v -0.562890 0.345485 0.217871
v 1.199707 0.276368 -0.512305
v -0.867187 0.276368 -0.512305
v -0.867187 0.276368 0.533105
v 1.199707 0.276368 0.533105
v 1.199707 0.276368 -0.512305
v 1.199707 0.276368 0.533105
v 1.199707 -0.102442 0.533105
v 1.199707 -0.102441 -0.512305
v 1.199707 0.276368 -0.512305
v 1.199707 -0.102441 -0.512305
v -0.867187 -0.102441 -0.512305
v -0.867187 0.276368 -0.512305
v -0.867187 0.276368 0.533105
v -0.867187 -0.102442 0.533105
v 1.199707 -0.102442 0.533105
v 1.199707 0.276368 0.533105
v 1.199707 -0.102442 0.533105
v -0.867187 -0.102442 0.533105
v -0.867187 -0.102442 -0.512305
v 1.199707 -0.102442 -0.512305
v 1.061849 -0.232813 -0.471842
v 1.061849 -0.055371 -0.471842
v 1.061849 -0.232813 -0.471842
v 1.130794 -0.232813 -0.471842
vn -0.7076 -0.0000 -0.7066
vn -0.0000 -0.0000 1.0000
vn 1.0000 -0.0000 -0.0000
vn -1.0000 -0.0000 -0.0000
vn -0.0000 -0.0000 -1.0000
vn 0.7076 -0.0000 0.7066
vn -0.0000 1.0000 -0.0000
vn 0.9137 0.4064 -0.0000
vn -0.0000 0.8254 -0.5646
vn -0.7472 0.6646 -0.0000
vn -0.0000 0.8253 0.5646
vn -0.0000 -1.0000 -0.0000
vn -0.7066 -0.0000 0.7076
vn 0.7066 -0.0000 -0.7076
vt 0.812500 0.812500
vt 0.812500 -0.000000
vt 0.375000 1.500000
vt 0.375000 1.000000
vt -0.000000 1.000000
vt -0.000000 1.500000
vt -0.000000 0.812500
vt 0.187500 1.500000
vt 0.156250 1.000000
vt 0.875000 1.000000
vt 0.125000 1.000000
vt 0.125000 0.000000
vt 0.875000 0.000000
vt 0.156250 1.000000
vt 0.187500 1.500000
vt -0.000000 0.812500
vt -0.000000 0.812500
vt 0.156250 1.000000
vt 0.187500 1.500000
vt 0.812500 -0.000000
vt 0.812500 0.812500
vt 0.375000 1.500000
vt 0.375000 1.000000
vt -0.000000 1.000000
vt -0.000000 1.500000
vt 0.156250 1.000000
vt 0.187500 1.500000
vt -0.000000 0.812500
vt -0.000000 1.500000
vt -0.000000 1.000000
vt 0.000000 -0.002490
vt 0.002306 -0.002490
vt 0.002306 0.000000
vt 0.000000 0.000000
vt -0.000000 1.500000
vt -0.000000 1.000000
vt 0.000000 -0.002490
vt 0.002306 -0.002490
vt 0.002303 0.001208
vt 0.000000 0.000000
vt 0.375000 1.000000
vt 0.375000 1.500000
vt 0.812500 -0.000000
vt 0.812500 0.812500
vt 0.000000 -0.002490
vt 0.002306 -0.002490
vt 0.000000 0.000000
vt 0.002303 0.001208
vt 0.000000 0.000000
vt 1.015630 -0.968750
vt 1.031250 -0.015625
vt 0.030273 -0.015625
vt 0.015625 -0.968750
vt 1.000000 0.000000
vt 0.000000 0.000000
vt 0.000000 -1.000000
vt 1.000000 -1.000000
vt 0.937500 -0.929688
vt 0.062500 -0.929688
vt 0.058594 -0.015625
vt 0.937500 -0.015625
vt 0.937500 -0.023438
vt 0.062500 -0.023438
vt 0.058594 -0.976074
vt 0.937500 -0.976563
vt 1.000000 1.000000
vt 1.000000 2.890625
vt 3.000000 2.890625
vt 3.000000 1.000000
vt 0.375000 1.000000
vt 0.375000 1.500000
vt 0.812500 -0.000000
vt 0.812500 0.812500
s 0
usemtl TEXTURE.067_6-material
f 3/3/1 5/5/1 6/6/1
f 3/3/1 4/4/1 5/5/1
f 9/9/2 8/8/2 6/6/2
f 6/6/2 5/5/2 9/9/2
f 9/9/3 3/3/3 8/8/3
f 9/9/3 4/4/3 3/3/3
f 10/10/4 11/11/4 12/12/4
f 10/10/4 12/12/4 13/13/4
f 18/18/4 23/23/4 22/22/4
f 18/18/4 22/22/4 19/19/4
f 25/25/5 24/24/5 18/18/5
f 18/18/5 19/19/5 25/25/5
f 22/22/6 23/23/6 24/24/6
f 22/22/6 24/24/6 25/25/6
f 26/26/5 69/70/5 70/71/5
f 26/26/5 70/71/5 27/27/5
f 29/29/3 30/30/3 26/26/3
f 26/26/3 27/27/3 29/29/3
f 68/69/12 65/66/12 66/67/12
f 68/69/12 66/67/12 67/68/12
f 70/71/13 30/30/13 29/29/13
f 70/71/13 69/70/13 30/30/13
f 14/14/2 41/41/2 42/42/2
f 14/14/2 42/42/2 15/15/2
f 35/35/4 36/36/4 14/14/4
f 14/14/4 15/15/4 35/35/4
f 42/42/14 41/41/14 36/36/14
f 42/42/14 36/36/14 35/35/14
usemtl TEXTURE.000_114-material
f 31/31/7 32/32/7 33/33/7
f 31/31/7 33/33/7 34/34/7
f 47/47/8 38/38/8 37/37/8
f 45/45/10 40/40/10 46/46/10
usemtl TEXTURE.000_115-material
f 37/37/8 48/49/8 47/47/8
f 37/37/9 38/38/9 39/39/9
f 37/37/9 39/39/9 40/40/9
f 46/46/10 40/40/10 39/39/10
f 45/45/11 46/46/11 47/48/11
f 45/45/11 47/48/11 48/49/11
usemtl TEXTURE.090_5-material
f 49/50/7 50/51/7 51/52/7
f 49/50/7 51/52/7 52/53/7
usemtl TEXTURE.090_7-material
f 53/54/3 54/55/3 55/56/3
f 53/54/3 55/56/3 56/57/3
usemtl TEXTURE.090_6-material
f 57/58/5 58/59/5 59/60/5
f 57/58/5 59/60/5 60/61/5
f 61/62/2 62/63/2 63/64/2
f 61/62/2 63/64/2 64/65/2
usemtl TEXTURE.086_0-material
f 17/17/12 20/20/12 21/21/12
f 16/16/12 43/43/12 44/44/12
f 7/7/12 2/2/12 1/1/12
f 28/28/12 71/72/12 72/73/12
