# Blender 3.3.0
# www.blender.org
mtllib 63034.mtl
o model63034-node
v -2.875000 0.000000 0.600000
v -4.799999 0.000000 6.400001
v -1.599999 0.000000 6.400000
v -0.600000 0.000000 2.875000
v 0.600000 -0.000000 -2.875000
v 2.875000 -0.000000 -0.600000
v 6.400000 0.000000 -1.600001
v 6.400000 0.000000 -4.800001
v -5.399999 0.600001 6.400000
v -4.799999 0.000001 6.400001
v -2.875000 0.000000 0.600000
v -3.300000 0.600000 0.175000
v -4.799999 3.150001 6.400000
v -5.399999 0.600001 6.400000
v -3.300000 0.600000 0.175000
v -2.875000 3.150000 0.600000
v -1.000000 0.600000 6.400000
v -0.175000 0.600001 3.300000
v -0.600000 0.000000 2.875000
v -0.600000 0.000000 2.875000
v -1.600000 0.000000 6.400000
v -1.000000 0.600000 6.400000
v -0.600000 3.150000 2.875000
v -0.175000 0.600001 3.300000
v -1.000000 0.600000 6.400000
v -1.600000 3.150000 6.400000
v 6.400000 0.600000 -5.400000
v 0.175000 0.599999 -3.300000
v 0.600000 -0.000000 -2.875000
v 6.400000 0.000000 -4.800001
v 6.400000 3.150000 -4.800000
v 0.600000 3.150000 -2.875001
v 0.175000 0.599999 -3.300000
v 6.400000 0.600000 -5.400000
v 2.875000 -0.000000 -0.600000
v 3.300000 0.600000 -0.175000
v 6.400000 0.600000 -1.000000
v 6.400000 0.600000 -1.000000
v 6.400000 0.000000 -1.600001
v 2.875000 -0.000000 -0.600000
v 2.875000 3.150000 -0.600001
v 6.400000 3.150000 -1.600000
v 6.400000 0.600000 -1.000000
v 3.300000 0.600000 -0.175000
v -2.875000 3.150000 0.600000
v -3.300000 0.600000 0.175000
v 0.175000 0.599999 -3.300000
v 0.600000 3.150000 -2.875001
v -3.300000 0.600000 0.175000
v -2.875000 0.000000 0.600000
v 0.600000 -0.000000 -2.875000
v 0.175000 0.599999 -3.300000
v 2.875000 3.150000 -0.600001
v 3.300000 0.600000 -0.175000
v -0.175000 0.600001 3.300000
v -0.600000 3.150000 2.875000
v 3.300000 0.600000 -0.175000
v 2.875000 -0.000000 -0.600000
v -0.600000 0.000000 2.875000
v -0.175000 0.600001 3.300000
v -4.799999 3.150001 6.400000
v -2.875000 3.150000 0.600000
v -0.600000 3.150000 2.875000
v -1.600000 3.150000 6.400000
v 6.400000 3.150000 -4.800000
v 6.400000 3.150000 -1.600000
v 2.875000 3.150000 -0.600001
v 0.600000 3.150000 -2.875001
v -0.600000 3.150000 2.875000
v -2.875000 3.150000 0.600000
v 0.600000 3.150000 -2.875001
v 2.875000 3.150000 -0.600001
vn -0.0000 1.0000 -0.0000
vn 0.6884 0.6884 0.2285
vn 0.7051 0.6680 0.2379
vn 0.9248 -0.2176 0.3120
vn 0.9287 -0.2062 0.3082
vn -0.7303 0.6549 -0.1943
vn -0.6933 0.6933 -0.1967
vn -0.9469 -0.1998 -0.2520
vn -0.9383 -0.2208 -0.2662
vn 0.2379 0.6680 0.7051
vn 0.2285 0.6884 0.6884
vn 0.3082 -0.2062 0.9287
vn 0.3120 -0.2176 0.9248
vn -0.1943 0.6549 -0.7303
vn -0.1967 0.6933 -0.6933
vn -0.2662 -0.2208 -0.9383
vn -0.2520 -0.1998 -0.9469
vn 0.6882 -0.2294 0.6882
vn 0.4996 0.7077 0.4996
vn -0.6882 -0.2294 -0.6882
vn -0.4996 0.7077 -0.4996
vn -0.0000 -1.0000 -0.0000
vt 3.312500 2.921875
vt 4.000000 5.000000
vt 2.859375 5.000000
vt 2.500000 3.734375
vt 2.062500 1.687500
vt 1.250000 2.500000
vt -0.000000 2.140625
vt -0.000000 1.000000
vt 0.000000 0.000000
vt 0.289063 -1.000000
vt 4.004880 -0.974609
vt 4.000000 0.000000
vt 0.000000 0.000000
vt 0.000000 -3.000000
vt 4.004880 -2.990230
vt 3.726560 0.000000
vt 3.000000 0.000000
vt 0.360352 0.000000
vt 0.000000 -1.000000
vt 0.000000 -1.000000
vt 3.000000 -1.000000
vt 3.000000 0.000000
vt 0.000000 0.000000
vt 0.360352 -3.000000
vt 2.986330 -3.009770
vt 3.000000 -0.011719
vt 3.000980 0.015625
vt 0.000000 0.000000
vt 0.125977 -0.970703
vt 2.917970 -1.000000
vt 4.000000 -0.011719
vt 0.273438 0.000000
vt -0.006836 -2.996090
vt 4.000000 -2.976560
vt 3.000000 -1.000000
vt 2.636720 0.000000
vt 0.000000 0.000000
vt 0.000000 0.000000
vt 0.000000 -1.000000
vt 3.000000 -1.000000
vt 3.000000 0.000000
vt 0.008789 -0.025391
vt 0.016602 -3.021480
vt 2.636720 -3.000000
vt 0.000000 0.000000
vt 0.000000 -3.000000
vt 3.000000 -3.000000
vt 3.000000 0.000000
vt 0.000000 0.000000
vt 0.000000 -1.000000
vt 3.000000 -1.000000
vt 3.000000 0.000000
vt 0.000000 0.000000
vt 0.000000 -3.000000
vt 3.000000 -3.000000
vt 3.000000 0.000000
vt 0.000000 0.000000
vt 0.000000 -1.000000
vt 3.000000 -1.000000
vt 3.000000 0.000000
vt 0.000000 -1.000000
vt 2.000000 -0.923828
vt 1.495120 -0.009766
vt 0.295898 0.015625
vt 1.992190 -1.007810
vt 1.676760 0.020508
vt 0.483398 -0.036133
vt 0.000000 -0.972656
vt 0.000000 0.000000
vt 0.000000 -1.000000
vt 2.000000 -0.999023
vt 2.000000 0.000000
s 0
usemtl TEXTURE.122_2-material
f 1/1/1 2/2/1 3/3/1
f 1/1/1 3/3/1 4/4/1
f 5/5/1 6/6/1 7/7/1
f 5/5/1 7/7/1 8/8/1
f 4/4/1 5/5/1 1/1/1
f 5/5/1 4/4/1 6/6/1
usemtl TEXTURE.122_4-material
f 9/9/2 10/10/2 11/11/2
f 9/9/3 11/11/3 12/12/3
f 13/13/4 14/14/4 15/15/4
f 13/13/5 15/15/5 16/16/5
f 17/17/6 18/18/6 19/19/6
f 20/20/7 21/21/7 22/22/7
f 23/23/8 24/24/8 25/25/8
f 23/23/9 25/25/9 26/26/9
f 27/27/10 28/28/10 29/29/10
f 27/27/11 29/29/11 30/30/11
f 31/31/12 32/32/12 33/33/12
f 31/31/13 33/33/13 34/34/13
f 35/35/14 36/36/14 37/37/14
f 38/38/15 39/39/15 40/40/15
f 41/41/16 42/42/16 43/43/16
f 41/41/17 43/43/17 44/44/17
f 45/45/18 46/46/18 47/47/18
f 45/45/18 47/47/18 48/48/18
f 49/49/19 50/50/19 51/51/19
f 49/49/19 51/51/19 52/52/19
f 53/53/20 54/54/20 55/55/20
f 53/53/20 55/55/20 56/56/20
f 57/57/21 58/58/21 59/59/21
f 57/57/21 59/59/21 60/60/21
usemtl TEXTURE.122_3-material
f 61/61/22 62/62/22 63/63/22
f 61/61/22 63/63/22 64/64/22
f 65/65/22 66/66/22 67/67/22
f 65/65/22 67/67/22 68/68/22
f 69/69/22 70/70/22 71/71/22
f 69/69/22 71/71/22 72/72/22
