# Blender v2.82 (sub 7) OBJ File: '59004.blend'
# www.blender.org
mtllib 59004.mtl
o model59004-node_model59004
v -0.599999 -6.399999 5.900001
v -0.599999 -6.024999 5.900001
v -6.249999 -6.024999 5.900002
v -6.249999 -6.399999 5.900002
v -0.599999 -6.024999 5.475001
v -0.599999 -5.625000 5.475001
v -6.249999 -5.625000 5.475002
v -6.249999 -6.024999 5.475002
v -0.599999 -5.625000 5.100001
v -0.599999 -5.224999 5.100001
v -6.249999 -5.224999 5.100002
v -6.249999 -5.625000 5.100002
v -0.599999 -5.224999 4.675001
v -0.599999 -4.824999 4.675001
v -6.249999 -4.824999 4.675001
v -6.249999 -5.224999 4.675002
v -0.599999 -4.824999 4.300001
v -0.599999 -4.424999 4.300001
v -6.249999 -4.424999 4.300001
v -6.249999 -4.824999 4.300001
v -0.599999 -4.424999 3.925001
v -0.599999 -4.024999 3.925001
v -6.249999 -4.024999 3.925001
v -6.249999 -4.424999 3.925001
v -0.599999 -4.025000 3.500001
v -0.599999 -3.625000 3.500001
v -6.249999 -3.625000 3.500001
v -6.249999 -4.025000 3.500001
v -0.599999 -3.625000 3.100001
v -0.599999 -3.225000 3.100001
v -6.249999 -3.225000 3.100001
v -6.249999 -3.625000 3.100001
v -0.599999 -3.225000 2.700001
v -0.599999 -2.825000 2.700001
v -6.249999 -2.825000 2.700001
v -6.249999 -3.225000 2.700001
v -0.599999 -2.825000 2.300001
v -0.599999 -2.425000 2.300000
v -6.249999 -2.425000 2.300001
v -6.249999 -2.825000 2.300001
v -0.599999 -2.425000 1.900000
v -0.599999 -2.025000 1.900000
v -6.250000 -2.025000 1.900001
v -6.250000 -2.425000 1.900001
v -0.599999 -2.025000 1.500000
v -0.599999 -1.625000 1.500000
v -6.250000 -1.625000 1.500001
v -6.250000 -2.025000 1.500001
v -0.599999 -1.625000 1.100000
v -0.599999 -1.225000 1.100000
v -6.250000 -1.225000 1.100001
v -6.250000 -1.625000 1.100001
v -0.599999 -1.225000 0.700000
v -0.599999 -0.825000 0.700000
v -6.250000 -0.825000 0.700001
v -6.250000 -1.225000 0.700001
v -0.599999 -0.825000 0.300000
v -0.599999 -0.425000 0.300000
v -6.250000 -0.425000 0.300001
v -6.250000 -0.825000 0.300001
v -0.600000 -0.425000 0.000000
v -0.600000 -0.050000 0.000000
v -6.250000 -0.050000 0.000001
v -6.250000 -0.425000 0.000001
v -0.600000 -0.050000 0.000000
v -0.600000 -6.400000 0.000001
v -0.599999 -6.399999 6.400001
v -0.600000 -0.050000 0.000000
v -0.599999 -6.399999 6.400001
v 0.000001 -6.399999 6.400001
v 0.000000 -0.050000 0.000000
v 0.500000 -0.050000 -0.600000
v 0.500000 0.375000 -0.600000
v 0.499999 0.374999 -6.250000
v 0.499999 -0.050001 -6.250000
v 0.925000 0.375000 -0.600000
v 0.925000 0.775000 -0.600000
v 0.924999 0.774999 -6.250000
v 0.924999 0.374999 -6.250000
v 1.300000 0.775000 -0.600000
v 1.300000 1.175000 -0.600000
v 1.299999 1.174999 -6.250000
v 1.299999 0.774999 -6.250000
v 1.725000 1.175000 -0.600000
v 1.725000 1.575000 -0.600000
v 1.724999 1.574999 -6.250000
v 1.724999 1.174999 -6.250000
v 2.100000 1.575000 -0.600000
v 2.100000 1.975000 -0.600000
v 2.099999 1.974999 -6.250000
v 2.099999 1.574999 -6.250000
v 2.475000 1.975000 -0.600000
v 2.475000 2.375000 -0.600000
v 2.474999 2.374999 -6.250001
v 2.474999 1.974999 -6.250000
v 2.900000 2.375000 -0.600000
v 2.900000 2.775000 -0.600000
v 2.899999 2.774999 -6.250001
v 2.899999 2.374999 -6.250001
v 3.300000 2.775000 -0.600001
v 3.300000 3.175000 -0.600001
v 3.299999 3.174999 -6.250001
v 3.299999 2.774999 -6.250001
v 3.700000 3.175000 -0.600001
v 3.700000 3.575000 -0.600001
v 3.699999 3.574999 -6.250001
v 3.699999 3.174999 -6.250001
v 4.100000 3.575000 -0.600001
v 4.100000 3.975000 -0.600001
v 4.099999 3.974999 -6.250001
v 4.099999 3.574999 -6.250001
v 4.500000 3.975000 -0.600001
v 4.500000 4.375000 -0.600001
v 4.500000 4.374999 -6.250001
v 4.500000 3.974999 -6.250001
v 4.900000 4.375000 -0.600001
v 4.900000 4.775000 -0.600001
v 4.899999 4.774999 -6.250001
v 4.899999 4.374999 -6.250001
v 5.300000 4.775000 -0.600001
v 5.300000 5.175000 -0.600001
v 5.299999 5.174999 -6.250001
v 5.299999 4.774999 -6.250001
v 5.700000 5.175000 -0.600001
v 5.700000 5.575000 -0.600001
v 5.699999 5.574999 -6.250001
v 5.699999 5.174999 -6.250001
v 6.099999 5.575000 -0.600001
v 6.099999 5.975000 -0.600001
v 6.099999 5.974999 -6.250001
v 6.099999 5.574999 -6.250001
v 6.400000 5.975000 -0.600001
v 6.400000 6.350000 -0.600002
v 6.399999 6.349999 -6.250001
v 6.399999 5.974999 -6.250001
v 6.400000 6.350000 -0.600002
v 6.400000 0.050000 -0.600001
v -0.000000 -0.050000 -0.600000
v 6.400000 6.350000 -0.600002
v -0.000000 -0.050000 -0.600000
v 0.000000 -0.050000 0.000000
v 6.400000 6.350000 -0.000002
v 6.400000 -0.050000 -0.000001
v 0.000000 -6.400000 0.000001
v -0.000001 -6.400001 -6.249999
v 6.399999 -0.050001 -6.250000
v -0.599999 -6.024999 5.475001
v -6.249999 -6.024999 5.475002
v -6.249999 -6.024999 5.900002
v -0.599999 -6.024999 5.900001
v -0.599999 -5.625000 5.100001
v -6.249999 -5.625000 5.100002
v -6.249999 -5.625000 5.475002
v -0.599999 -5.625000 5.475001
v -0.599999 -5.224999 4.675001
v -6.249999 -5.224999 4.675002
v -6.249999 -5.224999 5.100002
v -0.599999 -5.224999 5.100001
v -0.599999 -4.824999 4.300001
v -6.249999 -4.824999 4.300001
v -6.249999 -4.824999 4.675001
v -0.599999 -4.824999 4.675001
v -0.599999 -4.424999 3.925001
v -6.249999 -4.424999 3.925001
v -6.249999 -4.424999 4.300001
v -0.599999 -4.424999 4.300001
v -0.599999 -4.025000 3.500001
v -6.249999 -4.025000 3.500001
v -6.249999 -4.024999 3.925001
v -0.599999 -4.024999 3.925001
v -0.599999 -3.625000 3.100001
v -6.249999 -3.625000 3.100001
v -6.249999 -3.625000 3.500001
v -0.599999 -3.625000 3.500001
v -0.599999 -3.225000 2.700001
v -6.249999 -3.225000 2.700001
v -6.249999 -3.225000 3.100001
v -0.599999 -3.225000 3.100001
v -0.599999 -2.825000 2.300001
v -6.249999 -2.825000 2.300001
v -6.249999 -2.825000 2.700001
v -0.599999 -2.825000 2.700001
v -0.599999 -2.425000 1.900000
v -6.250000 -2.425000 1.900001
v -6.249999 -2.425000 2.300001
v -0.599999 -2.425000 2.300000
v -0.599999 -2.025000 1.500000
v -6.250000 -2.025000 1.500001
v -6.250000 -2.025000 1.900001
v -0.599999 -2.025000 1.900000
v -0.599999 -1.625000 1.100000
v -6.250000 -1.625000 1.100001
v -6.250000 -1.625000 1.500001
v -0.599999 -1.625000 1.500000
v -0.599999 -1.225000 0.700000
v -6.250000 -1.225000 0.700001
v -6.250000 -1.225000 1.100001
v -0.599999 -1.225000 1.100000
v -0.599999 -0.825000 0.300000
v -6.250000 -0.825000 0.300001
v -6.250000 -0.825000 0.700001
v -0.599999 -0.825000 0.700000
v -0.600000 -0.425000 0.000000
v -6.250000 -0.425000 0.000001
v -6.250000 -0.425000 0.300001
v -0.599999 -0.425000 0.300000
v 0.925000 0.375000 -0.600000
v 0.924999 0.374999 -6.250000
v 0.499999 0.374999 -6.250000
v 0.500000 0.375000 -0.600000
v 1.300000 0.775000 -0.600000
v 1.299999 0.774999 -6.250000
v 0.924999 0.774999 -6.250000
v 0.925000 0.775000 -0.600000
v 1.725000 1.175000 -0.600000
v 1.724999 1.174999 -6.250000
v 1.299999 1.174999 -6.250000
v 1.300000 1.175000 -0.600000
v 2.100000 1.575000 -0.600000
v 2.099999 1.574999 -6.250000
v 1.724999 1.574999 -6.250000
v 1.725000 1.575000 -0.600000
v 2.475000 1.975000 -0.600000
v 2.474999 1.974999 -6.250000
v 2.099999 1.974999 -6.250000
v 2.100000 1.975000 -0.600000
v 2.900000 2.375000 -0.600000
v 2.899999 2.374999 -6.250001
v 2.474999 2.374999 -6.250001
v 2.475000 2.375000 -0.600000
v 3.300000 2.775000 -0.600001
v 3.299999 2.774999 -6.250001
v 2.899999 2.774999 -6.250001
v 2.900000 2.775000 -0.600000
v 3.700000 3.175000 -0.600001
v 3.699999 3.174999 -6.250001
v 3.299999 3.174999 -6.250001
v 3.300000 3.175000 -0.600001
v 4.100000 3.575000 -0.600001
v 4.099999 3.574999 -6.250001
v 3.699999 3.574999 -6.250001
v 3.700000 3.575000 -0.600001
v 4.500000 3.975000 -0.600001
v 4.500000 3.974999 -6.250001
v 4.099999 3.974999 -6.250001
v 4.100000 3.975000 -0.600001
v 4.900000 4.375000 -0.600001
v 4.899999 4.374999 -6.250001
v 4.500000 4.374999 -6.250001
v 4.500000 4.375000 -0.600001
v 5.300000 4.775000 -0.600001
v 5.299999 4.774999 -6.250001
v 4.899999 4.774999 -6.250001
v 4.900000 4.775000 -0.600001
v 5.700000 5.175000 -0.600001
v 5.699999 5.174999 -6.250001
v 5.299999 5.174999 -6.250001
v 5.300000 5.175000 -0.600001
v 6.099999 5.575000 -0.600001
v 6.099999 5.574999 -6.250001
v 5.699999 5.574999 -6.250001
v 5.700000 5.575000 -0.600001
v 6.400000 5.975000 -0.600001
v 6.399999 5.974999 -6.250001
v 6.099999 5.974999 -6.250001
v 6.099999 5.975000 -0.600001
v -0.000001 -0.050001 -6.250000
v -0.000000 -0.050000 -0.600000
v 0.500000 -0.050000 -0.600000
v 0.499999 -0.050001 -6.250000
v -0.000000 -0.050000 -0.600000
v -0.000001 -0.050001 -6.250000
v -6.250000 -0.050001 -6.250000
v -0.600000 -0.050000 0.000000
v 0.000000 -0.050000 0.000000
v -6.250000 -0.050001 -6.250000
v -6.249999 -6.399999 5.900002
v -6.249999 -6.399999 6.400002
v -0.599999 -6.399999 6.400001
v -0.599999 -6.399999 5.900001
v -6.250000 -0.050001 -6.250000
v 0.000000 -0.050000 0.000000
v -0.000000 -0.050000 -0.600000
v -6.250000 -0.050001 -6.250000
v -6.250000 -0.050000 0.000001
v -0.600000 -0.050000 0.000000
v 0.000000 -0.050000 0.000000
v 0.000001 -6.399999 6.400001
v 0.000000 -6.400000 0.000001
v 6.400000 6.350000 -0.000002
v 0.000000 -0.050000 0.000000
v 0.000000 -6.400000 0.000001
v 6.400000 -0.050000 -0.000001
vt 2.000000 -0.562500
vt 2.000000 -0.062500
vt 0.000000 -0.062500
vt 0.000000 -0.562500
vt 2.093750 -0.562500
vt 2.093750 -0.062500
vt 0.093750 -0.062500
vt 0.093750 -0.562500
vt 2.000000 -0.562500
vt 2.000000 -0.062500
vt 0.000000 -0.062500
vt 0.000000 -0.562500
vt 2.093750 -0.562500
vt 2.093750 -0.062500
vt 0.093750 -0.062500
vt 0.093750 -0.562500
vt 2.000000 -0.562500
vt 2.000000 -0.062500
vt 0.000000 -0.062500
vt 0.000000 -0.562500
vt 2.093750 -0.562500
vt 2.093750 -0.062500
vt 0.093750 -0.062500
vt 0.093750 -0.562500
vt 2.000000 -0.562500
vt 2.000000 -0.062500
vt 0.000000 -0.062500
vt 0.000000 -0.562500
vt 2.093750 -0.562500
vt 2.093750 -0.062500
vt 0.092773 -0.062500
vt 0.093750 -0.562500
vt 2.000000 -0.562500
vt 2.000000 -0.062500
vt 0.000000 -0.062500
vt 0.000000 -0.562500
vt 2.093750 -0.562500
vt 2.093750 -0.062500
vt 0.092773 -0.062500
vt 0.093750 -0.562500
vt 2.000000 -0.562500
vt 2.000000 -0.062500
vt 0.000000 -0.062500
vt 0.000000 -0.562500
vt 2.093750 -0.562500
vt 2.093750 -0.062500
vt 0.092773 -0.060547
vt 0.093750 -0.562500
vt 2.000000 -0.562500
vt 2.000000 -0.062500
vt 0.000000 -0.060547
vt 0.000000 -0.562500
vt 2.093750 -0.562500
vt 2.093750 -0.062500
vt 0.093750 -0.062500
vt 0.093750 -0.562500
vt 2.000000 -0.562500
vt 2.000000 -0.062500
vt 0.000000 -0.062500
vt 0.000000 -0.562500
vt 2.076170 -0.562500
vt 2.093750 -0.062500
vt 0.092773 -0.062500
vt 0.093750 -0.562500
vt 0.000000 -0.046875
vt 2.988280 -6.000000
vt 6.000000 0.000000
vt 0.000000 0.000000
vt 0.000000 -6.986330
vt 0.399414 -6.984380
vt 0.399414 0.000000
vt 2.046880 -0.562500
vt 2.046880 -0.062500
vt 0.046875 -0.062500
vt 0.046875 -0.562500
vt 2.250000 -0.562500
vt 2.250000 -0.062500
vt 0.249023 -0.060547
vt 0.250000 -0.562500
vt 2.046880 -0.562500
vt 2.046880 -0.062500
vt 0.045898 -0.060547
vt 0.046875 -0.562500
vt 2.250000 -0.562500
vt 2.250000 -0.062500
vt 0.249023 -0.062500
vt 0.250000 -0.562500
vt 2.046880 -0.562500
vt 2.046880 -0.062500
vt 0.045898 -0.062500
vt 0.046875 -0.562500
vt 2.250000 -0.562500
vt 2.250000 -0.062500
vt 0.249023 -0.062500
vt 0.250000 -0.562500
vt 2.046880 -0.562500
vt 2.046880 -0.062500
vt 0.045898 -0.062500
vt 0.046875 -0.562500
vt 2.250000 -0.562500
vt 2.250000 -0.062500
vt 0.250000 -0.062500
vt 0.250000 -0.562500
vt 2.046880 -0.562500
vt 2.046880 -0.062500
vt 0.046875 -0.062500
vt 0.046875 -0.562500
vt 2.250000 -0.562500
vt 2.250000 -0.062500
vt 0.250000 -0.062500
vt 0.250000 -0.562500
vt 2.046880 -0.562500
vt 2.046880 -0.062500
vt 0.046875 -0.062500
vt 0.046875 -0.562500
vt 2.250000 -0.562500
vt 2.250000 -0.062500
vt 0.250000 -0.062500
vt 0.250000 -0.562500
vt 2.046880 -0.562500
vt 2.046880 -0.062500
vt 0.046875 -0.062500
vt 0.046875 -0.562500
vt 2.250000 -0.562500
vt 2.250000 -0.062500
vt 0.250000 -0.062500
vt 0.250000 -0.562500
vt 2.046880 -0.562500
vt 2.046880 -0.062500
vt 0.046875 -0.062500
vt 0.046875 -0.562500
vt 2.232420 -0.562500
vt 2.250000 -0.062500
vt 0.249023 -0.060547
vt 0.250000 -0.562500
vt 0.000000 0.000000
vt 2.953130 -6.000000
vt 6.000000 0.000000
vt 0.000000 0.000000
vt 0.000000 -7.000000
vt 0.399414 -6.998050
vt 0.399414 0.000000
vt 0.000000 0.000000
vt 0.000000 -5.988280
vt 1.999020 -5.988280
vt 2.000000 0.000000
vt 2.000000 -1.855470
vt 0.000000 -1.855470
vt 0.000000 -2.000000
vt 2.000000 -2.000000
vt 1.572270 -0.017578
vt 1.572270 -2.000000
vt 1.694340 -1.999020
vt 1.695310 -0.017578
vt 2.000000 -1.585940
vt 0.000000 -1.585940
vt 0.000000 -1.728520
vt 2.000000 -1.728520
vt 1.310550 -0.017578
vt 1.310550 -2.000000
vt 1.433590 -1.999020
vt 1.433590 -0.017578
vt 2.000000 -1.330080
vt 0.000000 -1.330080
vt 0.000000 -1.457030
vt 2.000000 -1.457030
vt 1.048830 -0.017578
vt 1.048830 -2.000000
vt 1.186520 -1.999020
vt 1.187500 -0.017578
vt 2.000000 -1.050780
vt 0.000000 -1.050780
vt 0.000000 -1.187500
vt 2.000000 -1.187500
vt 0.787109 -0.017578
vt 0.787109 -2.000000
vt 0.916992 -1.999020
vt 0.917969 -0.017578
vt 2.000000 -0.779297
vt 0.000000 -0.779297
vt 0.000000 -0.915039
vt 2.000000 -0.916016
vt 0.525391 -0.017578
vt 0.525391 -2.000000
vt 0.655273 -1.999020
vt 0.656250 -0.017578
vt 2.000000 -0.507813
vt 0.000000 -0.507813
vt 0.000000 -0.643555
vt 2.000000 -0.644531
vt 0.261719 -0.017578
vt 0.261719 -2.000000
vt 0.391602 -1.999020
vt 0.392578 -0.017578
vt 2.000000 -0.236328
vt 0.000000 -0.236328
vt 0.000000 -0.372070
vt 2.000000 -0.373047
vt 0.000000 -0.017578
vt 0.000000 -2.000000
vt 0.130859 -1.999020
vt 0.130859 -0.017578
vt 2.000000 0.000000
vt 0.000000 0.000000
vt 0.000000 -0.101563
vt 2.000000 -0.101563
vt 2.000000 -1.855470
vt 0.000000 -1.855470
vt 0.000000 -1.999020
vt 2.000000 -2.000000
vt 1.853520 0.000000
vt 1.853520 -2.000000
vt 2.000000 -1.999020
vt 2.000000 0.000000
vt 2.000000 -1.585940
vt 0.000000 -1.585940
vt 0.000000 -1.728520
vt 2.000000 -1.728520
vt 1.544920 0.000000
vt 1.544920 -2.000000
vt 1.688480 -1.999020
vt 1.689450 0.000000
vt 2.000000 -1.330080
vt 0.000000 -1.330080
vt 0.000000 -1.456060
vt 2.000000 -1.457030
vt 1.236330 0.000000
vt 1.236330 -2.000000
vt 1.399410 -1.999020
vt 1.400390 0.000000
vt 2.000000 -1.050780
vt 0.000000 -1.050780
vt 0.000000 -1.187500
vt 2.000000 -1.187500
vt 0.927734 0.000000
vt 0.927734 -2.000000
vt 1.082030 -1.999020
vt 1.082030 0.000000
vt 2.000000 -0.779297
vt 0.000000 -0.779297
vt 0.000000 -0.916016
vt 2.000000 -0.916016
vt 0.617188 0.000000
vt 0.617188 -2.000000
vt 0.773438 -1.999020
vt 0.773438 0.000000
vt 2.000000 -0.507813
vt 0.000000 -0.507813
vt 0.000000 -0.644531
vt 2.000000 -0.644531
vt 0.308594 0.000000
vt 0.308594 -2.000000
vt 0.462891 -1.999020
vt 0.462891 0.000000
vt 2.000000 -0.238281
vt 0.000000 -0.238281
vt 0.000000 -0.373047
vt 2.000000 -0.373047
vt 0.000000 0.000000
vt 0.000000 -2.000000
vt 0.154297 -1.999020
vt 0.154297 0.000000
vt 2.000000 0.000000
vt 0.000000 0.000000
vt 0.000000 -0.101563
vt 2.000000 -0.101563
vt 0.000000 -0.150391
vt 1.804690 -0.150391
vt 1.788090 0.000000
vt 0.000000 0.000000
vt 1.804690 -0.150391
vt 0.000000 -0.150391
vt 0.000000 -2.001950
vt 2.000000 -0.330078
vt 2.000000 -0.150391
vt 0.000000 -2.001950
vt 1.835940 -2.000000
vt 2.000000 -2.000000
vt 1.999020 0.000000
vt 1.835940 -0.017578
vt 0.000000 -2.001950
vt 2.000000 -0.150391
vt 1.804690 -0.150391
vt 0.000000 -2.001950
vt 2.000000 -2.001950
vt 2.000000 -0.330078
vt 2.000000 0.000000
vt 0.000000 -4.000000
vt 2.000000 -4.000000
vt 2.000000 0.000000
vt 0.000000 -4.015630
vt 0.000000 -7.998050
vt 2.000000 -4.015630
vn 0.0000 0.0000 1.0000
vn -1.0000 0.0000 0.0000
vn 0.0000 0.7099 0.7043
vn -0.0000 -0.0000 -1.0000
vn -0.7071 0.7071 0.0000
vn 0.7043 -0.7099 0.0000
vn 0.0000 1.0000 0.0000
vn 1.0000 0.0000 -0.0000
usemtl 122_4-0
s off
f 1/1/1 2/2/1 3/3/1
f 1/1/1 3/3/1 4/4/1
f 5/5/1 6/6/1 7/7/1
f 5/5/1 7/7/1 8/8/1
f 9/9/1 10/10/1 11/11/1
f 9/9/1 11/11/1 12/12/1
f 13/13/1 14/14/1 15/15/1
f 13/13/1 15/15/1 16/16/1
f 17/17/1 18/18/1 19/19/1
f 17/17/1 19/19/1 20/20/1
f 21/21/1 22/22/1 23/23/1
f 21/21/1 23/23/1 24/24/1
f 25/25/1 26/26/1 27/27/1
f 25/25/1 27/27/1 28/28/1
f 29/29/1 30/30/1 31/31/1
f 29/29/1 31/31/1 32/32/1
f 33/33/1 34/34/1 35/35/1
f 33/33/1 35/35/1 36/36/1
f 37/37/1 38/38/1 39/39/1
f 37/37/1 39/39/1 40/40/1
f 41/41/1 42/42/1 43/43/1
f 41/41/1 43/43/1 44/44/1
f 45/45/1 46/46/1 47/47/1
f 45/45/1 47/47/1 48/48/1
f 49/49/1 50/50/1 51/51/1
f 49/49/1 51/51/1 52/52/1
f 53/53/1 54/54/1 55/55/1
f 53/53/1 55/55/1 56/56/1
f 57/57/1 58/58/1 59/59/1
f 57/57/1 59/59/1 60/60/1
f 61/61/1 62/62/1 63/63/1
f 61/61/1 63/63/1 64/64/1
f 65/65/2 66/66/2 67/67/2
f 68/68/3 69/69/3 70/70/3
f 68/68/3 70/70/3 71/71/3
f 72/72/2 73/73/2 74/74/2
f 72/72/2 74/74/2 75/75/2
f 76/76/2 77/77/2 78/78/2
f 76/76/2 78/78/2 79/79/2
f 80/80/2 81/81/2 82/82/2
f 80/80/2 82/82/2 83/83/2
f 84/84/2 85/85/2 86/86/2
f 84/84/2 86/86/2 87/87/2
f 88/88/2 89/89/2 90/90/2
f 88/88/2 90/90/2 91/91/2
f 92/92/2 93/93/2 94/94/2
f 92/92/2 94/94/2 95/95/2
f 96/96/2 97/97/2 98/98/2
f 96/96/2 98/98/2 99/99/2
f 100/100/2 101/101/2 102/102/2
f 100/100/2 102/102/2 103/103/2
f 104/104/2 105/105/2 106/106/2
f 104/104/2 106/106/2 107/107/2
f 108/108/2 109/109/2 110/110/2
f 108/108/2 110/110/2 111/111/2
f 112/112/2 113/113/2 114/114/2
f 112/112/2 114/114/2 115/115/2
f 116/116/2 117/117/2 118/118/2
f 116/116/2 118/118/2 119/119/2
f 120/120/2 121/121/2 122/122/2
f 120/120/2 122/122/2 123/123/2
f 124/124/2 125/125/2 126/126/2
f 124/124/2 126/126/2 127/127/2
f 128/128/2 129/129/2 130/130/2
f 128/128/2 130/130/2 131/131/2
f 132/132/2 133/133/2 134/134/2
f 132/132/2 134/134/2 135/135/2
f 136/136/4 137/137/4 138/138/4
f 139/139/5 140/140/5 141/141/5
f 139/139/5 141/141/5 142/142/5
f 143/143/6 144/144/6 145/145/6
f 143/143/6 145/145/6 146/146/6
usemtl 122_2-0
f 147/147/7 148/148/7 149/149/7
f 147/147/7 149/149/7 150/150/7
f 151/151/7 152/152/7 153/153/7
f 151/151/7 153/153/7 154/154/7
f 155/155/7 156/156/7 157/157/7
f 155/155/7 157/157/7 158/158/7
f 159/159/7 160/160/7 161/161/7
f 159/159/7 161/161/7 162/162/7
f 163/163/7 164/164/7 165/165/7
f 163/163/7 165/165/7 166/166/7
f 167/167/7 168/168/7 169/169/7
f 167/167/7 169/169/7 170/170/7
f 171/171/7 172/172/7 173/173/7
f 171/171/7 173/173/7 174/174/7
f 175/175/7 176/176/7 177/177/7
f 175/175/7 177/177/7 178/178/7
f 179/179/7 180/180/7 181/181/7
f 179/179/7 181/181/7 182/182/7
f 183/183/7 184/184/7 185/185/7
f 183/183/7 185/185/7 186/186/7
f 187/187/7 188/188/7 189/189/7
f 187/187/7 189/189/7 190/190/7
f 191/191/7 192/192/7 193/193/7
f 191/191/7 193/193/7 194/194/7
f 195/195/7 196/196/7 197/197/7
f 195/195/7 197/197/7 198/198/7
f 199/199/7 200/200/7 201/201/7
f 199/199/7 201/201/7 202/202/7
f 203/203/7 204/204/7 205/205/7
f 203/203/7 205/205/7 206/206/7
f 207/207/7 208/208/7 209/209/7
f 207/207/7 209/209/7 210/210/7
f 211/211/7 212/212/7 213/213/7
f 211/211/7 213/213/7 214/214/7
f 215/215/7 216/216/7 217/217/7
f 215/215/7 217/217/7 218/218/7
f 219/219/7 220/220/7 221/221/7
f 219/219/7 221/221/7 222/222/7
f 223/223/7 224/224/7 225/225/7
f 223/223/7 225/225/7 226/226/7
f 227/227/7 228/228/7 229/229/7
f 227/227/7 229/229/7 230/230/7
f 231/231/7 232/232/7 233/233/7
f 231/231/7 233/233/7 234/234/7
f 235/235/7 236/236/7 237/237/7
f 235/235/7 237/237/7 238/238/7
f 239/239/7 240/240/7 241/241/7
f 239/239/7 241/241/7 242/242/7
f 243/243/7 244/244/7 245/245/7
f 243/243/7 245/245/7 246/246/7
f 247/247/7 248/248/7 249/249/7
f 247/247/7 249/249/7 250/250/7
f 251/251/7 252/252/7 253/253/7
f 251/251/7 253/253/7 254/254/7
f 255/255/7 256/256/7 257/257/7
f 255/255/7 257/257/7 258/258/7
f 259/259/7 260/260/7 261/261/7
f 259/259/7 261/261/7 262/262/7
f 263/263/7 264/264/7 265/265/7
f 263/263/7 265/265/7 266/266/7
f 267/267/7 268/268/7 269/269/7
f 267/267/7 269/269/7 270/270/7
f 271/271/7 272/272/7 273/273/7
f 274/274/7 275/275/7 276/276/7
f 277/277/7 278/278/7 279/279/7
f 277/277/7 279/279/7 280/280/7
f 281/281/7 282/282/7 283/283/7
f 284/284/7 285/285/7 286/286/7
usemtl 122_0-0
f 287/287/8 288/288/8 289/289/8
f 290/290/1 291/291/1 292/292/1
f 290/290/1 292/292/1 293/293/1
