# Blender v2.82 (sub 7) OBJ File: '58050.blend'
# www.blender.org
mtllib 58050.mtl
o model58050-node_model58050
v 3.799999 1.600000 -0.650001
v 8.999997 1.600000 -0.650001
v 8.999997 2.000000 -0.650001
v 3.799999 2.000000 -0.650001
v 3.799999 2.000000 -1.075001
v 8.999997 2.000000 -1.075001
v 8.999997 2.400000 -1.075001
v 3.799999 2.400000 -1.075001
v 3.799999 2.400000 -1.450001
v 8.999997 2.400000 -1.450001
v 8.999997 2.800000 -1.450001
v 3.799999 2.800000 -1.450001
v 3.799999 2.800000 -1.875001
v 8.999997 2.800000 -1.875001
v 8.999997 3.200000 -1.875001
v 3.799999 3.200000 -1.875001
v 3.799999 3.200000 -2.250001
v 8.999997 3.200000 -2.250001
v 8.999997 3.600000 -2.250001
v 3.799999 3.600000 -2.250001
v 3.799999 3.600000 -2.625001
v 8.999997 3.600000 -2.625001
v 8.999997 4.000000 -2.625002
v 3.799999 4.000000 -2.625001
v 3.799999 4.000000 -3.050001
v 8.999997 4.000000 -3.050002
v 8.999997 4.400000 -3.050002
v 3.799999 4.400000 -3.050001
v 3.799999 4.400000 -3.450001
v 8.999997 4.400000 -3.450001
v 8.999997 4.800000 -3.450001
v 3.799999 4.800000 -3.450001
v 3.799999 4.799999 -3.850001
v 8.999997 4.799999 -3.850002
v 8.999997 5.199999 -3.850002
v 3.799999 5.199999 -3.850001
v 3.799999 5.199999 -4.250001
v 8.999997 5.199999 -4.250001
v 8.999997 5.599999 -4.250001
v 3.799999 5.599999 -4.250001
v 3.799999 5.599999 -4.650001
v 8.999996 5.599999 -4.650002
v 8.999996 6.000000 -4.650002
v 3.799999 6.000000 -4.650001
v 3.799999 6.000000 -5.050001
v 8.999996 6.000000 -5.050002
v 8.999996 6.399999 -5.050002
v 3.799999 6.399999 -5.050002
v 3.799999 6.399999 -5.450002
v 8.999996 6.399999 -5.450002
v 8.999996 6.799999 -5.450002
v 3.799999 6.799999 -5.450002
v 3.799999 6.799999 -5.850002
v 8.999996 6.799999 -5.850002
v 8.999996 7.199999 -5.850002
v 3.799999 7.199999 -5.850002
v 3.799999 7.199999 -6.250001
v 8.999996 7.199999 -6.250002
v 8.999996 7.599999 -6.250002
v 3.799999 7.599999 -6.250001
v 3.799999 7.599999 -6.550002
v 8.999996 7.599999 -6.550003
v 8.999999 8.000000 -6.550003
v 3.799999 8.000000 -6.550002
v 9.599998 11.199998 -12.800003
v 7.024999 10.249998 -12.800002
v 7.024999 7.999998 -12.800002
v 9.599998 7.999998 -12.800002
v 5.774999 7.999998 -12.800002
v 5.774999 10.249998 -12.800002
v 3.049999 11.199998 -12.800002
v 3.049999 7.999998 -12.800002
v 9.599998 11.199998 -12.800003
v 3.049999 11.199998 -12.800002
v 5.774999 10.249998 -12.800002
v 7.024999 10.249998 -12.800002
v 9.599998 11.199998 -12.800003
v 9.599998 7.999998 -12.800002
v 9.599998 8.000000 -6.550003
v 9.599998 11.200000 -6.550003
v 3.050000 1.600000 -0.150001
v 0.625000 -8.950000 -0.149999
v -0.625000 -8.950000 -0.149998
v -3.200000 1.600000 -0.150000
v 3.050000 -11.200000 -0.149998
v 0.625000 -11.200000 -0.149998
v 0.625000 -8.950000 -0.149999
v 3.050000 1.600000 -0.150001
v -0.625000 -8.950000 -0.149998
v -0.625000 -11.200000 -0.149998
v -3.200000 -11.200000 -0.149998
v -3.200000 1.600000 -0.150000
v -3.199999 8.600002 11.799999
v -3.199999 11.150002 11.199999
v -3.199999 11.150002 7.999999
v -3.199999 10.400001 6.249999
v -3.199999 8.000001 6.249999
v -3.199999 8.000002 11.200000
v 9.599998 11.200000 -6.550003
v 9.599998 8.000000 -6.550003
v 9.599999 2.200000 0.999999
v 9.599999 4.750000 1.599998
v 9.599998 8.000000 -6.550003
v 9.599999 1.600000 -0.150001
v 9.599999 1.600000 1.599999
v 9.599999 2.200000 0.999999
v 9.599998 11.200000 -6.550003
v 9.599999 4.750000 1.599998
v 9.600000 4.750001 4.799999
v 9.600000 11.200001 6.249998
v 9.600000 4.750001 4.799999
v 9.600000 2.200001 5.399999
v 9.600000 1.600001 6.249999
v 9.600000 11.200001 6.249998
v 9.600000 1.600001 4.799999
v 9.600000 1.600001 6.249999
v 9.600000 2.200001 5.399999
v 9.600000 11.200001 6.249998
v 9.600000 1.600001 6.249999
v -3.199999 8.000001 6.249999
v -3.199999 10.400001 6.249999
v 3.799999 8.000000 -6.550002
v 3.800000 1.600000 -0.150001
v 3.799999 1.599999 -6.550001
v 8.999999 1.599999 -6.550001
v 8.999999 1.600000 -0.150001
v 8.999999 8.000000 -6.550003
v 3.049999 7.999998 -12.800002
v 3.049999 -11.200003 -12.799998
v 3.050000 -11.200000 -0.149998
v 3.050000 1.600000 -0.150001
v 3.049999 8.000000 -6.550002
v -3.199999 8.000001 6.249999
v 9.600000 1.600001 6.249999
v -9.599998 1.600001 6.250001
v -9.599998 8.000001 6.250000
v -9.599998 10.400001 6.250000
v -3.199999 10.400001 6.249999
v -3.199999 11.150002 7.999999
v -9.599998 11.150002 8.000000
v -3.199999 11.150002 11.199999
v -3.199999 8.600002 11.799999
v -9.599998 8.600002 11.799999
v -9.599998 11.150002 11.200000
v -3.199999 8.600002 11.799999
v -3.199999 8.000002 11.200000
v -9.599998 8.000002 11.200000
v -9.599998 8.600002 11.799999
v 9.600000 11.200001 6.249998
v -3.199999 10.400001 6.249999
v -9.599998 10.400001 6.250000
v -9.599998 11.200001 6.249999
v 3.799999 2.000000 -1.075001
v 3.799999 2.000000 -0.650001
v 8.999997 2.000000 -0.650001
v 8.999997 2.000000 -1.075001
v 3.799999 2.400000 -1.450001
v 3.799999 2.400000 -1.075001
v 8.999997 2.400000 -1.075001
v 8.999997 2.400000 -1.450001
v 3.799999 2.800000 -1.875001
v 3.799999 2.800000 -1.450001
v 8.999997 2.800000 -1.450001
v 8.999997 2.800000 -1.875001
v 3.799999 3.200000 -2.250001
v 3.799999 3.200000 -1.875001
v 8.999997 3.200000 -1.875001
v 8.999997 3.200000 -2.250001
v 3.799999 3.600000 -2.625001
v 3.799999 3.600000 -2.250001
v 8.999997 3.600000 -2.250001
v 8.999997 3.600000 -2.625001
v 3.799999 4.000000 -3.050001
v 3.799999 4.000000 -2.625001
v 8.999997 4.000000 -2.625002
v 8.999997 4.000000 -3.050002
v 3.799999 4.400000 -3.450001
v 3.799999 4.400000 -3.050001
v 8.999997 4.400000 -3.050002
v 8.999997 4.400000 -3.450001
v 3.799999 4.799999 -3.850001
v 3.799999 4.800000 -3.450001
v 8.999997 4.800000 -3.450001
v 8.999997 4.799999 -3.850002
v 3.799999 5.199999 -4.250001
v 3.799999 5.199999 -3.850001
v 8.999997 5.199999 -3.850002
v 8.999997 5.199999 -4.250001
v 3.799999 5.599999 -4.650001
v 3.799999 5.599999 -4.250001
v 8.999997 5.599999 -4.250001
v 8.999996 5.599999 -4.650002
v 3.799999 6.000000 -5.050001
v 3.799999 6.000000 -4.650001
v 8.999996 6.000000 -4.650002
v 8.999996 6.000000 -5.050002
v 3.799999 6.399999 -5.450002
v 3.799999 6.399999 -5.050002
v 8.999996 6.399999 -5.050002
v 8.999996 6.399999 -5.450002
v 3.799999 6.799999 -5.850002
v 3.799999 6.799999 -5.450002
v 8.999996 6.799999 -5.450002
v 8.999996 6.799999 -5.850002
v 3.799999 7.199999 -6.250001
v 3.799999 7.199999 -5.850002
v 8.999996 7.199999 -5.850002
v 8.999996 7.199999 -6.250002
v 3.799999 7.599999 -6.550002
v 3.799999 7.599999 -6.250001
v 8.999996 7.599999 -6.250002
v 8.999996 7.599999 -6.550003
v 8.999999 1.600000 -0.150001
v 8.999997 1.600000 -0.650001
v 3.799999 1.600000 -0.650001
v 3.800000 1.600000 -0.150001
v 3.049999 7.999998 -12.800002
v 3.049999 8.000000 -6.550002
v 9.599998 8.000000 -6.550003
v 9.599998 7.999998 -12.800002
v 0.625000 -11.200000 -0.149998
v -0.625000 -11.200000 -0.149998
v -0.625000 -11.200000 0.000002
v 0.625000 -11.200000 0.000002
v -0.625000 -11.200000 -0.149998
v -0.625000 -8.950000 -0.149998
v -0.625000 -8.950000 0.000002
v -0.625000 -11.200000 0.000002
v -0.625000 -8.950000 -0.149998
v 0.625000 -8.950000 -0.149999
v 0.625000 -8.950000 0.000001
v -0.625000 -8.950000 0.000002
v 0.625000 -8.950000 -0.149999
v 0.625000 -11.200000 -0.149998
v 0.625000 -11.200000 0.000002
v 0.625000 -8.950000 0.000001
v 3.050000 -11.200000 -0.149998
v 3.049999 -11.200003 -12.799998
v -3.200001 -11.200003 -12.949999
v -3.200000 -11.200000 -0.149998
v 9.600000 1.600001 6.249999
v 9.599999 1.600000 -0.150001
v -9.599999 1.600000 -0.149999
v -9.599998 1.600001 6.250001
v -9.599998 8.000001 6.250000
v -9.599998 8.000002 11.200000
v -3.199999 8.000002 11.200000
v -3.199999 8.000001 6.249999
v 3.799999 8.000000 -6.550002
v 3.049999 8.000000 -6.550002
v 3.050000 1.600000 -0.150001
v 3.800000 1.600000 -0.150001
v 9.599999 1.600000 -0.150001
v 9.599998 8.000000 -6.550003
v 8.999999 8.000000 -6.550003
v 8.999999 1.600000 -0.150001
v -3.199999 11.150002 11.199999
v -9.599998 11.150002 11.200000
v -9.599998 11.150002 8.000000
v -3.199999 11.150002 7.999999
v 9.600000 11.200001 6.249998
v -9.599998 11.200001 6.249999
v -9.600000 11.199998 -12.800002
v 9.599998 11.199998 -12.800003
vt 0.187500 -0.593750
vt 2.187500 -0.593750
vt 2.187500 -0.093750
vt 0.187500 -0.093750
vt 0.000000 -0.593750
vt 2.000000 -0.593750
vt 2.000000 -0.093750
vt 0.000000 -0.093750
vt 0.187500 -0.593750
vt 2.187500 -0.593750
vt 2.187500 -0.093750
vt 0.187500 -0.093750
vt 0.000000 -0.593750
vt 2.000000 -0.593750
vt 2.000000 -0.093750
vt 0.000000 -0.093750
vt 0.187500 -0.593750
vt 2.187500 -0.593750
vt 2.187500 -0.093750
vt 0.187500 -0.093750
vt 0.000000 -0.593750
vt 2.000000 -0.593750
vt 2.000000 -0.093750
vt 0.000000 -0.093750
vt 0.187500 -0.593750
vt 2.187500 -0.593750
vt 2.187500 -0.093750
vt 0.187500 -0.093750
vt 0.000000 -0.593750
vt 2.000000 -0.593750
vt 2.000000 -0.093750
vt 0.000000 -0.093750
vt 0.187500 -0.593750
vt 2.187500 -0.593750
vt 2.187500 -0.093750
vt 0.187500 -0.093750
vt 0.000000 -0.593750
vt 2.000000 -0.593750
vt 2.000000 -0.093750
vt 0.000000 -0.093750
vt 0.187500 -0.593750
vt 2.187500 -0.593750
vt 2.187500 -0.093750
vt 0.187500 -0.093750
vt 0.000000 -0.593750
vt 2.000000 -0.593750
vt 2.000000 -0.093750
vt 0.000000 -0.093750
vt 0.187500 -0.593750
vt 2.187500 -0.593750
vt 2.187500 -0.093750
vt 0.187500 -0.093750
vt 0.000000 -0.593750
vt 2.000000 -0.593750
vt 2.000000 -0.093750
vt 0.000000 -0.093750
vt 0.187500 -0.593750
vt 2.187500 -0.593750
vt 2.187500 -0.093750
vt 0.187500 -0.093750
vt 0.000000 -0.593750
vt 2.000000 -0.593750
vt 2.039060 -0.091797
vt 0.000000 -0.093750
vt 1.000000 0.000000
vt 0.607422 -0.296875
vt 0.606445 -0.998047
vt 1.000000 -1.000000
vt 0.416016 -1.000000
vt 0.416016 -0.296875
vt 0.000000 0.000000
vt 0.000000 -1.000000
vt 1.000000 0.000000
vt 0.000000 0.000000
vt 0.416016 -0.296875
vt 0.607422 -0.296875
vt 0.000000 0.000000
vt 0.000000 -0.996094
vt 0.984375 -0.996094
vt 0.984375 0.000000
vt 0.000000 0.000000
vt 0.387695 -3.296880
vt 0.586914 -3.296880
vt 1.000000 0.000000
vt 0.000000 -4.000000
vt 0.387695 -4.000000
vt 0.386719 -3.296880
vt 0.000000 0.000000
vt 0.587891 -3.296880
vt 0.587891 -4.000000
vt 1.000000 -3.998050
vt 1.000000 0.000000
vt 3.000000 -3.234380
vt 2.674810 0.000000
vt 0.939453 -0.019531
vt -0.007812 -0.982422
vt -0.007812 -4.029300
vt 2.674810 -4.000000
vt 0.984375 0.000000
vt 0.984375 -0.996094
vt 2.172850 -2.808590
vt 2.267580 -2.015630
vt 0.984375 -0.996094
vt 1.992190 -2.994140
vt 2.267580 -2.998050
vt 2.173830 -2.812500
vt 0.984375 0.000000
vt 2.267580 -2.015630
vt 2.770510 -2.015630
vt 3.000000 0.000000
vt 2.771480 -2.015630
vt 2.865230 -2.812500
vt 2.998050 -2.998050
vt 3.000000 0.000000
vt 2.771480 -2.994140
vt 3.000000 -2.994140
vt 2.865230 -2.812500
vt 0.000000 0.000000
vt 0.000000 -3.000000
vt 1.997070 -1.000000
vt 1.998050 -0.251953
vt 5.000000 0.000000
vt 0.000000 0.000000
vt 2.500000 -6.000000
vt 2.500000 -6.000000
vt 5.000000 0.000000
vt 0.000000 0.000000
vt 0.000000 0.000000
vt 0.000000 -6.011720
vt 2.000000 -6.011720
vt 2.000000 -2.003910
vt 0.988281 0.000000
vt 1.998050 -1.001950
vt 0.000000 -3.000000
vt 2.997070 -3.000000
vt 2.997070 -1.001950
vt 0.000000 -2.000000
vt 3.000000 -2.000000
vt 3.000000 0.000000
vt 0.000000 0.000000
vt 0.000000 0.000000
vt 0.000000 -3.000000
vt 3.000000 -3.000000
vt 3.000000 0.000000
vt 0.000000 0.000000
vt 0.000000 -1.000000
vt 3.000000 -0.998047
vt 3.000000 0.000000
vt 0.000000 0.000000
vt 1.998050 -0.251953
vt 2.997070 -0.251953
vt 2.997070 0.000000
vt 0.144531 0.000000
vt 0.000000 0.000000
vt 0.000000 -2.000000
vt 0.144531 -2.000000
vt 0.019531 -1.572270
vt 0.019531 -1.695310
vt 1.980470 -1.694340
vt 1.980470 -1.572270
vt 0.416016 0.000000
vt 0.271484 0.000000
vt 0.270508 -2.000000
vt 0.416016 -2.000000
vt 0.019531 -1.310550
vt 0.019531 -1.433590
vt 1.980470 -1.432620
vt 1.980470 -1.310550
vt 0.669922 0.000000
vt 0.542969 0.000000
vt 0.541992 -2.000000
vt 0.669922 -2.000000
vt 0.019531 -1.048830
vt 0.019531 -1.187500
vt 1.980470 -1.187500
vt 1.980470 -1.048830
vt 0.949219 0.000000
vt 0.814453 0.000000
vt 0.813477 -2.000000
vt 0.949219 -2.000000
vt 0.019531 -0.787109
vt 0.019531 -0.917969
vt 1.980470 -0.917969
vt 1.980470 -0.787109
vt 1.220700 0.000000
vt 1.083980 0.000000
vt 1.083010 -2.000000
vt 1.220700 -2.000000
vt 0.019531 -0.523438
vt 0.019531 -0.656250
vt 1.980470 -0.656250
vt 1.980470 -0.523438
vt 1.492190 0.000000
vt 1.355470 0.000000
vt 1.354490 -2.000000
vt 1.492190 -2.000000
vt 0.019531 -0.261719
vt 0.019531 -0.392578
vt 1.980470 -0.392578
vt 1.980470 -0.261719
vt 1.763670 0.000000
vt 1.626950 0.000000
vt 1.625980 -2.000000
vt 1.763670 -2.000000
vt 0.019531 0.000000
vt 0.019531 -0.130859
vt 1.980470 -0.130859
vt 1.980470 0.000000
vt 2.000000 0.000000
vt 1.898440 0.000000
vt 1.897460 -2.000000
vt 2.000000 -2.000000
vt 2.000000 -2.000000
vt 1.980470 -1.835940
vt 0.018555 -1.835940
vt 0.000000 -2.000000
vt 0.000000 0.000000
vt 0.000000 -2.000000
vt 1.999020 -2.000000
vt 1.999020 0.000000
vt 0.000000 -1.000000
vt 1.000000 -1.000000
vt 0.999023 0.000000
vt 0.000000 0.000000
vt 0.000000 -1.000000
vt 1.000000 -1.000000
vt 1.000000 0.000000
vt 0.000000 0.000000
vt 0.000000 -1.000000
vt 1.000000 -1.000000
vt 0.999023 0.000000
vt 0.000000 0.000000
vt 0.000000 -1.000000
vt 1.000000 -1.000000
vt 1.000000 0.000000
vt 0.000000 0.000000
vt 2.000000 -4.000000
vt 2.000000 -0.046875
vt 0.000977 0.000000
vt 0.000977 -4.000000
vt 5.994140 -2.000000
vt 5.993160 0.000000
vt 0.000000 0.000000
vt 0.000000 -2.000000
vt 1.500000 0.000000
vt 0.000000 0.000000
vt 0.000000 -2.000000
vt 1.500000 -2.000000
vt 0.129883 3.500000
vt -0.209961 3.500000
vt -0.208984 0.000000
vt 0.129883 0.000000
vt 1.199220 0.000000
vt 1.199220 3.500000
vt 0.919922 3.499020
vt 0.919922 0.000000
vt 1.000000 -2.000000
vt 1.000000 0.000000
vt 0.000000 0.000000
vt 0.000000 -2.000000
vt 3.000000 -2.997070
vt 3.000000 0.000000
vt 0.000000 0.000000
vt 0.000000 -2.997070
vn 0.0000 0.0000 1.0000
vn -1.0000 0.0000 0.0000
vn -0.0000 -0.0000 -1.0000
vn 1.0000 0.0000 -0.0000
vn 0.0000 -0.9191 0.3939
vn 0.0000 -0.2290 -0.9734
vn 0.0000 0.7071 -0.7071
vn 0.0000 1.0000 0.0000
vn 0.0000 -1.0000 0.0000
vn 0.0000 0.7071 0.7071
usemtl 122_4-0
s off
f 1/1/1 2/2/1 3/3/1
f 1/1/1 3/3/1 4/4/1
f 5/5/1 6/6/1 7/7/1
f 5/5/1 7/7/1 8/8/1
f 9/9/1 10/10/1 11/11/1
f 9/9/1 11/11/1 12/12/1
f 13/13/1 14/14/1 15/15/1
f 13/13/1 15/15/1 16/16/1
f 17/17/1 18/18/1 19/19/1
f 17/17/1 19/19/1 20/20/1
f 21/21/1 22/22/1 23/23/1
f 21/21/1 23/23/1 24/24/1
f 25/25/1 26/26/1 27/27/1
f 25/25/1 27/27/1 28/28/1
f 29/29/1 30/30/1 31/31/1
f 29/29/1 31/31/1 32/32/1
f 33/33/1 34/34/1 35/35/1
f 33/33/1 35/35/1 36/36/1
f 37/37/1 38/38/1 39/39/1
f 37/37/1 39/39/1 40/40/1
f 41/41/1 42/42/1 43/43/1
f 41/41/1 43/43/1 44/44/1
f 45/45/1 46/46/1 47/47/1
f 45/45/1 47/47/1 48/48/1
f 49/49/1 50/50/1 51/51/1
f 49/49/1 51/51/1 52/52/1
f 53/53/1 54/54/1 55/55/1
f 53/53/1 55/55/1 56/56/1
f 57/57/1 58/58/1 59/59/1
f 57/57/1 59/59/1 60/60/1
f 61/61/1 62/62/1 63/63/1
f 61/61/1 63/63/1 64/64/1
f 65/65/1 66/66/1 67/67/1
f 65/65/1 67/67/1 68/68/1
f 69/69/1 70/70/1 71/71/1
f 69/69/1 71/71/1 72/72/1
f 73/73/1 74/74/1 75/75/1
f 73/73/1 75/75/1 76/76/1
f 77/77/2 78/78/2 79/79/2
f 77/77/2 79/79/2 80/80/2
f 81/81/3 82/82/3 83/83/3
f 81/81/3 83/83/3 84/84/3
f 85/85/3 86/86/3 87/87/3
f 85/85/3 87/87/3 88/88/3
f 89/89/3 90/90/3 91/91/3
f 89/89/3 91/91/3 92/92/3
f 93/93/2 94/94/2 95/95/2
f 93/93/2 95/95/2 96/96/2
f 93/93/2 96/96/2 97/97/2
f 93/93/2 97/97/2 98/98/2
f 99/99/2 100/100/2 101/101/2
f 99/99/2 101/101/2 102/102/2
f 103/103/2 104/104/2 105/105/2
f 103/103/2 105/105/2 106/106/2
f 107/107/2 108/108/2 109/109/2
f 107/107/2 109/109/2 110/110/2
f 111/111/2 112/112/2 113/113/2
f 111/111/2 113/113/2 114/114/2
f 115/115/2 116/116/2 117/117/2
f 118/118/3 119/119/3 120/120/3
f 118/118/3 120/120/3 121/121/3
f 122/122/4 123/123/4 124/124/4
f 125/125/2 126/126/2 127/127/2
f 128/128/2 129/129/2 130/130/2
f 128/128/2 130/130/2 131/131/2
f 128/128/2 131/131/2 132/132/2
f 133/133/3 134/134/3 135/135/3
f 133/133/3 135/135/3 136/136/3
f 137/137/5 138/138/5 139/139/5
f 137/137/5 139/139/5 140/140/5
f 141/141/6 142/142/6 143/143/6
f 141/141/6 143/143/6 144/144/6
f 145/145/7 146/146/7 147/147/7
f 145/145/7 147/147/7 148/148/7
f 149/149/3 150/150/3 151/151/3
f 149/149/3 151/151/3 152/152/3
usemtl 122_2-0
f 153/153/8 154/154/8 155/155/8
f 153/153/8 155/155/8 156/156/8
f 157/157/8 158/158/8 159/159/8
f 157/157/8 159/159/8 160/160/8
f 161/161/8 162/162/8 163/163/8
f 161/161/8 163/163/8 164/164/8
f 165/165/8 166/166/8 167/167/8
f 165/165/8 167/167/8 168/168/8
f 169/169/8 170/170/8 171/171/8
f 169/169/8 171/171/8 172/172/8
f 173/173/8 174/174/8 175/175/8
f 173/173/8 175/175/8 176/176/8
f 177/177/8 178/178/8 179/179/8
f 177/177/8 179/179/8 180/180/8
f 181/181/8 182/182/8 183/183/8
f 181/181/8 183/183/8 184/184/8
f 185/185/8 186/186/8 187/187/8
f 185/185/8 187/187/8 188/188/8
f 189/189/8 190/190/8 191/191/8
f 189/189/8 191/191/8 192/192/8
f 193/193/8 194/194/8 195/195/8
f 193/193/8 195/195/8 196/196/8
f 197/197/8 198/198/8 199/199/8
f 197/197/8 199/199/8 200/200/8
f 201/201/8 202/202/8 203/203/8
f 201/201/8 203/203/8 204/204/8
f 205/205/8 206/206/8 207/207/8
f 205/205/8 207/207/8 208/208/8
f 209/209/8 210/210/8 211/211/8
f 209/209/8 211/211/8 212/212/8
f 213/213/8 214/214/8 215/215/8
f 213/213/8 215/215/8 216/216/8
f 217/217/8 218/218/8 219/219/8
f 217/217/8 219/219/8 220/220/8
f 221/221/8 222/222/8 223/223/8
f 221/221/8 223/223/8 224/224/8
f 225/225/4 226/226/4 227/227/4
f 225/225/4 227/227/4 228/228/4
f 229/229/9 230/230/9 231/231/9
f 229/229/9 231/231/9 232/232/9
f 233/233/2 234/234/2 235/235/2
f 233/233/2 235/235/2 236/236/2
f 237/237/8 238/238/8 239/239/8
f 237/237/8 239/239/8 240/240/8
f 241/241/8 242/242/8 243/243/8
f 241/241/8 243/243/8 244/244/8
f 245/245/8 246/246/8 247/247/8
f 245/245/8 247/247/8 248/248/8
usemtl 122_3-0
f 249/249/10 250/250/10 251/251/10
f 249/249/10 251/251/10 252/252/10
f 253/253/10 254/254/10 255/255/10
f 253/253/10 255/255/10 256/256/10
f 257/257/9 258/258/9 259/259/9
f 257/257/9 259/259/9 260/260/9
f 261/261/9 262/262/9 263/263/9
f 261/261/9 263/263/9 264/264/9
