# Blender v2.82 (sub 7) OBJ File: '58049.blend'
# www.blender.org
mtllib 58049.mtl
o model58049-node_model58049
v 6.250000 11.200002 9.599998
v 6.249999 11.199999 -9.600002
v 6.249999 -11.200002 -9.599998
v 6.250000 -11.199999 9.600001
v 6.249999 -11.200002 -9.599998
v 6.249999 11.199999 -9.600002
v -2.575001 -8.950002 -9.599998
v -2.575001 -11.200002 -9.599998
v 6.249999 11.199999 -9.600002
v -6.400001 11.199999 -9.600001
v -3.825001 -8.950002 -9.599998
v -2.575001 -8.950002 -9.599998
v -6.400001 11.199999 -9.600001
v -6.400001 -11.200002 -9.599998
v -3.825001 -11.200002 -9.599998
v -3.825001 -8.950002 -9.599998
v -3.825001 -11.200002 -9.599998
v 0.000001 -11.199999 9.450002
v 6.250000 -11.199999 9.600001
v 6.249999 -11.200002 -9.599998
v -6.400001 -11.200002 -9.599998
v -6.399999 -11.199999 9.450003
v 0.000001 -11.199999 9.450002
v -3.825001 -11.200002 -9.599998
v -6.400001 11.199999 -9.600001
v 6.249999 11.199999 -9.600002
v 6.250000 11.200002 9.599998
v -6.399999 11.200002 9.599998
vt 2.997070 0.000000
vt 0.000000 0.000000
vt 0.000000 -6.986330
vt 2.997070 -6.986330
vt 2.000000 -6.986330
vt 2.000000 0.000000
vt 0.605469 -6.283200
vt 0.605469 -6.986330
vt 2.000000 0.000000
vt 0.000000 0.000000
vt 0.407227 -6.289060
vt 0.605469 -6.289060
vt 0.000000 0.000000
vt 0.000000 -6.986330
vt 0.406250 -6.990230
vt 0.406250 -6.289060
vt 0.812500 0.000000
vt 2.023440 -5.947270
vt 4.014650 -5.993160
vt 4.023440 0.000000
vt 0.000000 0.000000
vt 0.000000 -5.947270
vt 2.018560 -5.946290
vt 0.812500 0.000000
vt 0.000000 -5.994140
vt 4.000000 -5.994140
vt 4.000000 0.000000
vt 0.000000 0.000000
vn -1.0000 -0.0000 0.0000
vn 0.0000 0.0000 1.0000
vn 0.0000 1.0000 -0.0000
vn 0.0000 -1.0000 0.0000
usemtl 122_4-0
s off
f 1/1/1 2/2/1 3/3/1
f 1/1/1 3/3/1 4/4/1
f 5/5/2 6/6/2 7/7/2
f 5/5/2 7/7/2 8/8/2
f 9/9/2 10/10/2 11/11/2
f 9/9/2 11/11/2 12/12/2
f 13/13/2 14/14/2 15/15/2
f 13/13/2 15/15/2 16/16/2
usemtl 122_2-0
f 17/17/3 18/18/3 19/19/3
f 17/17/3 19/19/3 20/20/3
f 21/21/3 22/22/3 23/23/3
f 21/21/3 23/23/3 24/24/3
usemtl 122_3-0
f 25/25/4 26/26/4 27/27/4
f 25/25/4 27/27/4 28/28/4
