# Blender v2.91.0 OBJ File: '80001.blend'
# www.blender.org
mtllib 80001.mtl
o model55004-node_model55004
v -1.225000 -0.000000 0.000000
v -1.225000 0.000000 0.150000
v -1.225000 2.250000 0.150000
v -1.225000 2.250000 -0.000000
v 0.025000 0.000000 0.150000
v 0.025000 -0.000000 0.000000
v 0.025000 2.250000 -0.000000
v 0.025000 2.250000 0.150000
v 0.025000 -0.000000 0.000000
v -1.225000 -0.000000 0.000000
v -1.225000 2.250000 -0.000000
v 0.025000 2.250000 -0.000000
v -1.225000 0.000000 0.150000
v 0.025000 0.000000 0.150000
v 0.025000 2.250000 0.150000
v -1.225000 2.250000 0.150000
vt 0.543184 0.990582
vt 0.002431 0.013252
vt 0.002411 0.994851
vt 0.543053 0.013217
vt 1.550437 0.983247
vt 1.549630 0.013423
vt 0.998929 0.014431
vt 0.998819 0.994257
vt 0.000000 -1.000000
vt 1.000000 -1.000000
vt 1.000000 0.000000
vt 0.000000 0.000000
vt 1.000000 -1.000000
vt 0.000000 -1.000000
vt 0.000000 0.000000
vt 1.000000 0.000000
vn 0.0000 -1.0000 0.0000
vn -1.0000 -0.0000 0.0000
vn 1.0000 0.0000 -0.0000
vn 0.0000 1.0000 0.0000
vn -0.0000 -0.0000 -1.0000
vn 0.0000 0.0000 1.0000
usemtl 067_14-0
s off
f 2/1/1 6/2/1 5/3/1
f 2/1/1 1/4/1 6/2/1
f 1/4/2 2/1/2 3/5/2
f 1/4/2 3/5/2 4/6/2
f 5/3/3 6/2/3 7/7/3
f 5/3/3 7/7/3 8/8/3
f 4/6/4 8/8/4 7/7/4
f 4/6/4 3/5/4 8/8/4
usemtl 074_0-0
f 9/9/5 10/10/5 11/11/5
f 9/9/5 11/11/5 12/12/5
f 13/13/6 14/14/6 15/15/6
f 13/13/6 15/15/6 16/16/6
