# Blender v2.91.0 OBJ File: '60107.blend'
# www.blender.org
mtllib 60107.mtl
o model60107-node_model60107.001
v 3.175000 0.399903 -1.200000
v -0.000000 6.399900 -3.200001
v 2.800000 -0.000001 -3.200001
v 0.400000 9.200000 0.399901
v -2.800000 -0.000001 -3.200000
v -2.000000 0.800000 0.000000
v -1.200000 8.800001 3.599899
v -3.250000 0.800000 2.399903
v 1.600000 0.400000 1.599902
v -3.199999 0.400000 6.399901
v 1.600001 0.800000 5.999900
v 2.800001 0.000002 9.600000
v -0.799999 9.600001 5.999899
v 0.000001 6.400002 9.599900
v -2.799999 0.000002 9.600000
v 3.175000 0.399903 -1.200000
v 2.800000 -0.000001 -3.200001
v -2.800000 -0.000001 -3.200000
v 1.600000 0.400000 1.599902
v -2.000000 0.800000 0.000000
v -3.250000 0.800000 2.399903
v 1.600001 0.800000 5.999900
v -3.199999 0.400000 6.399901
v -2.799999 0.000002 9.600000
v 2.800001 0.000002 9.600000
vt -1.463534 -0.066348
vt -2.180825 -3.006088
vt -0.058507 -0.063073
vt 1.720121 -0.115579
vt 2.164420 -2.953713
vt 3.160644 -0.210001
vt 3.809756 -3.116551
vt 3.980036 2.787319
vt -0.030832 -3.098344
vt 1.003744 -0.013817
vt -1.187586 -3.116551
vt -2.186335 2.806548
vt -0.750414 2.707093
vt 0.639748 3.124814
vt 2.280046 3.066197
vt 1.184097 -0.753042
vt 1.038871 -0.076289
vt -0.829415 -0.131524
vt -0.530443 -1.224207
vt 0.698977 -1.709247
vt -1.153897 -2.053339
vt -0.849030 -3.385333
vt -0.684211 -4.457388
vt 1.184097 -4.402921
vt 0.751399 -3.182950
vn -0.8466 -0.3704 0.3822
vn -0.9646 -0.2631 -0.0195
vn -0.8954 -0.3918 0.2114
vn 0.7994 -0.3497 -0.4885
vn -0.9645 -0.2630 0.0239
vn -0.8926 -0.3616 0.2693
vn -0.8587 -0.1712 -0.4830
vn -0.8683 -0.1905 -0.4580
vn -0.9132 -0.3311 0.2374
vn 0.9086 -0.3975 -0.1278
vn 0.9543 -0.2779 0.1101
vn 0.8551 -0.2655 0.4454
vn 0.8715 -0.2834 0.4003
vn 0.9694 -0.2429 -0.0364
vn 0.9640 -0.2548 -0.0757
vn 0.9548 -0.2557 -0.1513
vn -0.0000 0.9806 -0.1961
vn 0.0177 0.9689 -0.2467
vn 0.0884 0.9948 0.0497
vn 0.0898 0.9949 0.0468
vn 0.0000 0.9923 0.1240
vn 0.0671 0.9937 -0.0903
vn -0.0743 0.9922 0.1001
vn -0.0612 0.9699 0.2359
usemtl 147_1-0
s off
f 2/1/1 3/2/1 4/3/1
f 13/4/2 11/5/2 14/6/2
f 12/7/3 14/6/3 11/5/3
f 13/4/4 14/6/4 15/8/4
f 11/5/5 13/4/5 9/9/5
f 13/4/6 7/10/6 9/9/6
f 9/9/7 7/10/7 1/11/7
f 7/10/8 4/3/8 1/11/8
f 3/2/9 1/11/9 4/3/9
f 5/12/10 2/1/10 6/13/10
f 2/1/11 4/3/11 6/13/11
f 6/13/12 4/3/12 8/14/12
f 4/3/13 7/10/13 8/14/13
f 8/14/14 7/10/14 10/15/14
f 7/10/15 13/4/15 10/15/15
f 15/8/16 10/15/16 13/4/16
usemtl 147_2-0
f 16/16/17 17/17/17 18/18/17
f 20/19/18 16/16/18 18/18/18
f 16/16/19 20/19/19 19/20/19
f 20/19/20 21/21/20 19/20/20
f 23/22/21 24/23/21 25/24/21
f 19/20/22 21/21/22 22/25/22
f 22/25/23 21/21/23 23/22/23
f 25/24/24 22/25/24 23/22/24
