# Blender 3.3.0
# www.blender.org
mtllib 12506.mtl
v -177.999985 -25.999956 -268.000000
v -163.999985 -11.999956 -268.000000
v 163.999985 -11.999956 -268.000000
v 177.999985 -25.999956 -268.000000
v 177.999985 -25.999958 -258.000000
v -177.999985 -25.999958 -258.000000
v -177.999985 -25.999956 -268.000000
v 177.999985 -25.999956 -268.000000
v -163.999985 -11.999958 -258.000000
v 163.999985 -11.999958 -258.000000
v 163.999985 -11.999956 -268.000000
v -163.999985 -11.999956 -268.000000
v 163.999985 -11.999958 -258.000000
v -163.999985 -11.999958 -258.000000
v -177.999985 -25.999958 -258.000000
v 177.999985 -25.999958 -258.000000
v -177.999985 -25.999990 -58.000004
v -163.999985 -11.999990 -58.000004
v 163.999985 -11.999990 -58.000004
v 177.999985 -25.999990 -58.000004
v 177.999985 -25.999992 -48.000004
v -177.999985 -25.999992 -48.000004
v -177.999985 -25.999990 -58.000004
v 177.999985 -25.999990 -58.000004
v -163.999985 -11.999992 -48.000004
v 163.999985 -11.999992 -48.000004
v 163.999985 -11.999990 -58.000004
v -163.999985 -11.999990 -58.000004
v 163.999985 -11.999992 -48.000004
v -163.999985 -11.999992 -48.000004
v -177.999985 -25.999992 -48.000004
v 177.999985 -25.999992 -48.000004
v -177.999985 -26.000025 151.000000
v -163.999985 -12.000025 151.000000
v 163.999985 -12.000025 151.000000
v 177.999985 -26.000025 151.000000
v 177.999985 -26.000027 161.000000
v -177.999985 -26.000027 161.000000
v -177.999985 -26.000025 151.000000
v 177.999985 -26.000025 151.000000
v -163.999985 -12.000027 161.000000
v 163.999985 -12.000027 161.000000
v 163.999985 -12.000025 151.000000
v -163.999985 -12.000025 151.000000
v 163.999985 -12.000027 161.000000
v -163.999985 -12.000027 161.000000
v -177.999985 -26.000027 161.000000
v 177.999985 -26.000027 161.000000
v -24.999998 -67.999947 -311.000000
v -24.999998 -67.999947 -317.000000
v 24.999998 -67.999947 -317.000000
v 24.999998 -67.999947 -311.000000
v -24.999998 -157.999954 -317.000031
v -24.999998 -67.999947 -317.000000
v -24.999998 -67.999947 -311.000000
v -24.999998 -157.999954 -311.000031
v 24.999998 -157.999954 -311.000031
v 24.999998 -67.999947 -311.000000
v 24.999998 -67.999947 -317.000000
v 24.999998 -157.999954 -317.000031
v -24.999998 -157.999954 -317.000031
v -24.999998 -157.999954 -311.000031
v 24.999998 -157.999954 -311.000031
v 24.999998 -157.999954 -317.000031
v -177.999985 -26.000008 46.999996
v -163.999985 -12.000008 46.999996
v 163.999985 -12.000008 46.999996
v 177.999985 -26.000008 46.999996
v 177.999985 -26.000010 56.999996
v -177.999985 -26.000010 56.999996
v -177.999985 -26.000008 46.999996
v 177.999985 -26.000008 46.999996
v -163.999985 -12.000010 56.999996
v 163.999985 -12.000010 56.999996
v 163.999985 -12.000008 46.999996
v -163.999985 -12.000008 46.999996
v 163.999985 -12.000010 56.999996
v -163.999985 -12.000010 56.999996
v -177.999985 -26.000010 56.999996
v 177.999985 -26.000010 56.999996
v -177.999985 -26.000042 256.000000
v -163.999985 -12.000042 256.000000
v 163.999985 -12.000042 256.000000
v 177.999985 -26.000042 256.000000
v 177.999985 -26.000044 266.000000
v -177.999985 -26.000044 266.000000
v -177.999985 -26.000042 256.000000
v 177.999985 -26.000042 256.000000
v -163.999985 -12.000043 266.000000
v 163.999985 -12.000043 266.000000
v 163.999985 -12.000042 256.000000
v -163.999985 -12.000042 256.000000
v 163.999985 -12.000043 266.000000
v -163.999985 -12.000043 266.000000
v -177.999985 -26.000044 266.000000
v 177.999985 -26.000044 266.000000
v -177.999985 -25.999973 -163.000000
v -163.999985 -11.999973 -163.000000
v 163.999985 -11.999973 -163.000000
v 177.999985 -25.999973 -163.000000
v 177.999985 -25.999975 -153.000000
v -177.999985 -25.999975 -153.000000
v -177.999985 -25.999973 -163.000000
v 177.999985 -25.999973 -163.000000
v -163.999985 -11.999975 -153.000000
v 163.999985 -11.999975 -153.000000
v 163.999985 -11.999973 -163.000000
v -163.999985 -11.999973 -163.000000
v 163.999985 -11.999975 -153.000000
v -163.999985 -11.999975 -153.000000
v -177.999985 -25.999975 -153.000000
v 177.999985 -25.999975 -153.000000
v -24.999998 -67.999947 -311.000000
v -185.999985 -31.999949 -311.000000
v -185.999985 -157.999954 -311.000031
v -24.999998 -157.999954 -311.000031
v 24.999998 -67.999947 -311.000000
v 185.999985 -31.999949 -311.000000
v -185.999985 -31.999949 -311.000000
v -24.999998 -67.999947 -311.000000
v 24.999998 -67.999947 -311.000000
v 24.999998 -157.999954 -311.000031
v 185.999985 -157.999954 -311.000031
v 185.999985 -31.999949 -311.000000
v -185.999985 -158.000046 316.999969
v -185.999985 -157.999954 -311.000031
v -185.999985 -31.999949 -311.000000
v -185.999985 -32.000053 317.000000
v 185.999985 -158.000046 316.999969
v -185.999985 -158.000046 316.999969
v -185.999985 -32.000053 317.000000
v 185.999985 -32.000053 317.000000
v 185.999985 -157.999954 -311.000031
v 185.999985 -158.000046 316.999969
v 185.999985 -32.000053 317.000000
v 185.999985 -31.999949 -311.000000
v -185.999985 -32.000053 317.000000
v -185.999985 -31.999949 -311.000000
v 0.000000 158.000046 -310.999969
v 0.000000 157.999954 317.000031
v 185.999985 -31.999949 -311.000000
v 185.999985 -32.000053 317.000000
v 0.000000 157.999954 317.000031
v 0.000000 158.000046 -310.999969
v 0.000000 157.999954 317.000031
v 185.999985 -32.000053 317.000000
v -185.999985 -32.000053 317.000000
v 185.999985 -31.999949 -311.000000
v 0.000000 158.000046 -310.999969
v -185.999985 -31.999949 -311.000000
v -24.999998 -157.999954 -311.000031
v 185.999985 -158.000046 316.999969
v 185.999985 -157.999954 -311.000031
v 185.999985 -158.000046 316.999969
v -24.999998 -157.999954 -311.000031
v -185.999985 -157.999954 -311.000031
v -185.999985 -158.000046 316.999969
vn -0.0000 -0.0000 -1.0000
vn -0.0000 -1.0000 -0.0000
vn -0.0000 1.0000 -0.0000
vn -0.0000 -0.0000 1.0000
vn 1.0000 -0.0000 -0.0000
vn -1.0000 -0.0000 -0.0000
vn 0.7146 -0.6995 -0.0000
vn -0.7146 -0.6995 -0.0000
vt 1.998050 -1.000000
vt 1.919920 0.000000
vt 0.078125 0.000000
vt 0.000000 -1.000000
vt 0.000000 -1.000000
vt 1.000000 -1.000000
vt 1.000000 0.000000
vt 0.000000 0.000000
vt 0.000000 -1.000000
vt 1.000000 -1.000000
vt 0.999023 0.000000
vt 0.000000 0.000000
vt 1.919920 0.000000
vt 0.078125 0.000000
vt 0.000000 -0.992188
vt 1.998050 -1.000000
vt 1.998050 -1.000000
vt 1.919920 0.000000
vt 0.078125 0.000000
vt 0.000000 -1.000000
vt 0.000000 -1.000000
vt 1.000000 -1.000000
vt 1.000000 0.000000
vt 0.000000 0.000000
vt 0.000000 -1.000000
vt 1.000000 -1.000000
vt 0.999023 0.000000
vt 0.000000 0.000000
vt 1.919920 0.000000
vt 0.078125 0.000000
vt 0.000000 -0.992188
vt 1.998050 -1.000000
vt 1.998050 -1.000000
vt 1.919920 0.000000
vt 0.078125 0.000000
vt 0.000000 -1.000000
vt 0.000000 -1.000000
vt 1.000000 -1.000000
vt 1.000000 0.000000
vt 0.000000 0.000000
vt 0.000000 -1.000000
vt 1.000000 -1.000000
vt 0.999023 0.000000
vt 0.000000 0.000000
vt 1.919920 0.000000
vt 0.078125 0.000000
vt 0.000000 -0.992188
vt 1.998050 -1.000000
vt 1.000000 -1.000000
vt 1.000000 0.000000
vt 0.000000 0.000000
vt 0.000000 -1.000000
vt 1.000000 0.000000
vt 0.000000 0.000000
vt 0.000000 -0.992188
vt 1.000000 -1.000000
vt 0.000000 -1.000000
vt 1.000000 -1.000000
vt 0.999023 0.000000
vt 0.000000 0.000000
vt 0.000000 0.000000
vt 0.000000 -1.000000
vt 0.999023 -0.992188
vt 1.000000 0.000000
vt 1.998050 -1.000000
vt 1.919920 0.000000
vt 0.078125 0.000000
vt 0.000000 -1.000000
vt 0.000000 -1.000000
vt 1.000000 -1.000000
vt 1.000000 0.000000
vt 0.000000 0.000000
vt 0.000000 -1.000000
vt 1.000000 -1.000000
vt 0.999023 0.000000
vt 0.000000 0.000000
vt 1.919920 0.000000
vt 0.078125 0.000000
vt 0.000000 -0.992188
vt 1.998050 -1.000000
vt 3.996090 -1.000000
vt 3.839840 0.000000
vt 0.157227 0.000000
vt 0.000000 -1.000000
vt 0.000000 -1.000000
vt 1.000000 -1.000000
vt 1.000000 0.000000
vt 0.000000 0.000000
vt 0.000000 -1.000000
vt 1.000000 -1.000000
vt 0.999023 0.000000
vt 0.000000 0.000000
vt 1.919920 0.000000
vt 0.078125 0.000000
vt 0.000000 -0.992188
vt 1.998050 -1.000000
vt 1.998050 -1.000000
vt 1.919920 0.000000
vt 0.078125 0.000000
vt 0.000000 -1.000000
vt 0.000000 -1.000000
vt 1.000000 -1.000000
vt 1.000000 0.000000
vt 0.000000 0.000000
vt 0.000000 -1.000000
vt 1.000000 -1.000000
vt 0.999023 0.000000
vt 0.000000 0.000000
vt 1.919920 0.000000
vt 0.078125 0.000000
vt 0.000000 -0.992188
vt 1.998050 -1.000000
vt 2.595700 -0.285645
vt 0.000000 0.000000
vt 0.000000 -1.000000
vt 2.595700 -1.000000
vt 3.404300 -0.285645
vt 6.000000 0.000000
vt -0.015625 0.000000
vt 2.595700 -0.285645
vt 3.404300 -0.285645
vt 3.404300 -1.000000
vt 5.999020 -1.000000
vt 6.000000 0.000000
vt 0.000000 -1.000000
vt 6.009770 -1.000000
vt 6.009770 0.000000
vt 0.000000 0.000000
vt 0.000000 -1.000000
vt 6.000000 -1.000000
vt 5.999020 0.000000
vt 0.000000 0.000000
vt 6.009770 -1.000000
vt 12.019500 -1.000000
vt 12.018499 0.000000
vt 6.009770 0.000000
vt 5.994140 0.000000
vt 0.000000 0.000000
vt 0.000000 -4.999020
vt 5.994140 -5.000000
vt 0.000000 -10.000000
vt 5.994140 -10.000000
vt 5.993160 -5.000000
vt 0.000000 -5.000000
vt 3.000000 0.000000
vt 0.000000 -2.000000
vt 6.000000 -2.000000
vt 6.000000 -2.000000
vt 3.000000 0.000000
vt 0.000000 -2.000000
vt 3.404300 -6.107420
vt 0.000000 -12.214800
vt -0.007812 -6.106440
vt 0.000000 0.000000
vt 3.404300 -6.107420
vt 6.000980 -6.107420
vt 6.000000 0.000000
s 0
usemtl TEXTURE.067_14-material
f 1/1/1 2/2/1 3/3/1
f 1/1/1 3/3/1 4/4/1
f 5/5/2 6/6/2 7/7/2
f 5/5/2 7/7/2 8/8/2
f 9/9/3 10/10/3 11/11/3
f 9/9/3 11/11/3 12/12/3
f 13/13/4 14/14/4 15/15/4
f 13/13/4 15/15/4 16/16/4
f 17/17/1 18/18/1 19/19/1
f 17/17/1 19/19/1 20/20/1
f 21/21/2 22/22/2 23/23/2
f 21/21/2 23/23/2 24/24/2
f 25/25/3 26/26/3 27/27/3
f 25/25/3 27/27/3 28/28/3
f 29/29/4 30/30/4 31/31/4
f 29/29/4 31/31/4 32/32/4
f 33/33/1 34/34/1 35/35/1
f 33/33/1 35/35/1 36/36/1
f 37/37/2 38/38/2 39/39/2
f 37/37/2 39/39/2 40/40/2
f 41/41/3 42/42/3 43/43/3
f 41/41/3 43/43/3 44/44/3
f 45/45/4 46/46/4 47/47/4
f 45/45/4 47/47/4 48/48/4
f 49/49/2 50/50/2 51/51/2
f 49/49/2 51/51/2 52/52/2
f 53/53/5 54/54/5 55/55/5
f 53/53/5 55/55/5 56/56/5
f 57/57/6 58/58/6 59/59/6
f 57/57/6 59/59/6 60/60/6
f 61/61/3 62/62/3 63/63/3
f 61/61/3 63/63/3 64/64/3
f 65/65/1 66/66/1 67/67/1
f 65/65/1 67/67/1 68/68/1
f 69/69/2 70/70/2 71/71/2
f 69/69/2 71/71/2 72/72/2
f 73/73/3 74/74/3 75/75/3
f 73/73/3 75/75/3 76/76/3
f 77/77/4 78/78/4 79/79/4
f 77/77/4 79/79/4 80/80/4
f 81/81/1 82/82/1 83/83/1
f 81/81/1 83/83/1 84/84/1
f 85/85/2 86/86/2 87/87/2
f 85/85/2 87/87/2 88/88/2
f 89/89/3 90/90/3 91/91/3
f 89/89/3 91/91/3 92/92/3
f 93/93/4 94/94/4 95/95/4
f 93/93/4 95/95/4 96/96/4
f 97/97/1 98/98/1 99/99/1
f 97/97/1 99/99/1 100/100/1
f 101/101/2 102/102/2 103/103/2
f 101/101/2 103/103/2 104/104/2
f 105/105/3 106/106/3 107/107/3
f 105/105/3 107/107/3 108/108/3
f 109/109/4 110/110/4 111/111/4
f 109/109/4 111/111/4 112/112/4
usemtl TEXTURE.160_0-material
f 113/113/4 114/114/4 115/115/4
f 113/113/4 115/115/4 116/116/4
f 117/117/4 118/118/4 119/119/4
f 117/117/4 119/119/4 120/120/4
f 121/121/4 122/122/4 123/123/4
f 121/121/4 123/123/4 124/124/4
f 125/125/5 126/126/5 127/127/5
f 125/125/5 127/127/5 128/128/5
f 129/129/1 130/130/1 131/131/1
f 129/129/1 131/131/1 132/132/1
f 133/133/6 134/134/6 135/135/6
f 133/133/6 135/135/6 136/136/6
usemtl TEXTURE.160_4-material
f 137/137/7 138/138/7 139/139/7
f 137/137/7 139/139/7 140/140/7
f 141/141/8 142/142/8 143/143/8
f 141/141/8 143/143/8 144/144/8
usemtl TEXTURE.160_1-material
f 145/145/1 146/146/1 147/147/1
f 148/148/4 149/149/4 150/150/4
usemtl TEXTURE.160_3-material
f 151/151/3 152/152/3 153/153/3
f 154/154/3 155/155/3 156/156/3
f 154/154/3 156/156/3 157/157/3
