# Blender 3.3.0
# www.blender.org
mtllib 31022.mtl
o model31022-node
v 63.999996 1.000000 -0.000006
v 63.999992 0.999991 -57.000008
v 63.999992 49.999992 -57.000015
v 63.999996 50.000000 -0.000014
v 25.999992 -112.000008 -57.999985
v 25.999992 -96.000008 -57.999985
v -6.000000 -96.000000 0.000016
v -6.000000 -112.000000 0.000019
v -6.000005 -96.000008 -57.999985
v -6.000005 -80.000008 -57.999985
v -6.000000 -80.000000 0.000014
v -6.000000 -96.000000 0.000016
v -50.000000 -80.000008 -45.999981
v -50.000000 -64.000008 -45.999985
v -6.000000 -64.000000 0.000011
v -6.000000 -80.000000 0.000014
v -63.999996 -64.000000 0.000016
v -63.999996 -48.000000 0.000013
v -6.000000 -48.000000 0.000008
v -6.000000 -64.000000 0.000011
v -6.000000 -48.000000 0.000008
v -49.999992 -47.999992 44.000011
v -49.999992 -31.999992 44.000011
v -6.000000 -32.000000 0.000006
v -5.999994 -31.999990 58.000008
v -5.999994 -15.999990 58.000004
v -6.000000 -16.000000 0.000003
v -6.000000 -32.000000 0.000006
v 57.999992 -128.000015 -57.999985
v 57.999992 -112.000008 -57.999989
v -6.000000 -112.000000 0.000019
v -6.000000 -128.000000 0.000021
v -6.000000 50.000000 -0.000008
v 57.999996 50.000000 -0.000013
v 57.999996 -16.000000 -0.000002
v -6.000000 -36.000000 0.000006
v -50.000000 -80.000008 -45.999981
v -6.000005 -80.000008 -57.999985
v -6.000005 126.999992 -58.000019
v -50.000000 126.999992 -46.000015
v -63.999996 -64.000000 0.000016
v -50.000000 -64.000008 -45.999985
v -50.000000 126.999992 -46.000015
v -63.999996 127.000000 -0.000015
v -49.999992 -47.999992 44.000011
v -63.999996 -48.000000 0.000013
v -63.999996 1.000000 0.000005
v -49.999992 1.000007 44.000004
v -5.999994 -31.999990 58.000008
v -49.999992 -31.999992 44.000011
v -49.999992 1.000007 44.000004
v -5.999994 1.000009 58.000000
v -6.000000 50.000000 -0.000008
v 0.000001 50.000000 5.999992
v 57.999996 50.000000 5.999987
v 63.999996 50.000000 -0.000014
v 0.000001 1.000001 6.000000
v 57.999996 1.000001 5.999995
v 57.999996 50.000000 5.999987
v 0.000001 50.000000 5.999992
v 0.000001 50.000000 5.999992
v -6.000000 50.000000 -0.000008
v -6.000000 -16.000000 0.000003
v 0.000001 1.000001 6.000000
v 0.000001 1.000001 6.000000
v -6.000000 -16.000000 0.000003
v 46.000000 -15.999991 52.000000
v 46.000000 1.000008 51.999996
v -6.000005 -80.000008 -57.999985
v 57.999992 -112.000008 -57.999989
v 57.999992 126.999992 -58.000027
v -6.000005 126.999992 -58.000019
v 57.999996 1.000001 5.999995
v 63.999996 1.000000 -0.000006
v 63.999996 50.000000 -0.000014
v 57.999996 50.000000 5.999987
v 58.000000 -127.999992 58.000015
v -5.999994 -127.999992 58.000023
v -5.999994 -35.999992 58.000008
v 58.000000 -15.999990 57.999996
v -63.999992 1.000009 58.000004
v -63.999992 127.000008 57.999985
v 58.000000 127.000008 57.999973
v 58.000000 1.000009 57.999996
v -63.999992 1.000009 58.000004
v -63.999996 1.000000 0.000005
v -63.999996 127.000000 -0.000015
v -63.999992 127.000008 57.999985
v -6.000005 -80.000008 -57.999985
v -6.000005 -96.000008 -57.999985
v 25.999992 -96.000008 -57.999985
v 25.999992 -96.000008 -57.999985
v 25.999992 -112.000008 -57.999985
v 57.999992 -112.000008 -57.999989
v 57.999992 -2.000010 -58.000004
v 57.999996 -2.000000 -0.000005
v 57.999992 1.999991 -57.000004
v 57.999992 0.999991 -58.000004
v 57.999996 50.000000 -0.000013
v 57.999992 49.999992 -57.000011
v 57.999992 1.999991 -57.000004
v 57.999996 -2.000000 -0.000005
v 57.999996 50.000000 -0.000013
v 63.999996 50.000000 -0.000014
v 63.999992 49.999992 -57.000015
v 57.999992 49.999992 -57.000011
v -5.999994 1.000009 58.000000
v 46.000000 1.000009 57.999996
v 46.000000 -15.999990 58.000000
v -5.999994 -15.999990 58.000004
v -6.000000 -128.000000 0.000021
v -6.000000 -36.000000 0.000006
v -5.999994 -35.999992 58.000008
v -5.999994 -127.999992 58.000023
v 46.000000 -15.999991 52.000000
v 46.000000 -15.999990 58.000000
v 46.000000 1.000009 57.999996
v 46.000000 1.000008 51.999996
v -49.999992 -31.999992 44.000011
v -5.999994 -31.999990 58.000008
v -6.000000 -32.000000 0.000006
v -6.000000 -16.000000 0.000003
v -5.999994 -15.999990 58.000004
v 46.000000 -15.999990 58.000000
v 46.000000 -15.999991 52.000000
v -63.999996 -48.000000 0.000013
v -49.999992 -47.999992 44.000011
v -6.000000 -48.000000 0.000008
v -50.000000 -64.000008 -45.999985
v -63.999996 -64.000000 0.000016
v -6.000000 -64.000000 0.000011
v -6.000005 -80.000008 -57.999985
v -50.000000 -80.000008 -45.999981
v -6.000000 -80.000000 0.000014
v 25.999992 -96.000008 -57.999985
v -6.000005 -96.000008 -57.999985
v -6.000000 -96.000000 0.000016
v 57.999992 -112.000008 -57.999989
v 25.999992 -112.000008 -57.999985
v -6.000000 -112.000000 0.000019
v -5.999994 -127.999992 58.000023
v 58.000000 -127.999992 58.000015
v 57.999992 -128.000015 -57.999985
v -6.000000 -128.000000 0.000021
v -63.999992 1.000009 58.000004
v -5.999994 1.000009 58.000000
v -49.999992 1.000007 44.000004
v 58.000000 1.000009 57.999996
v 57.999996 1.000001 5.999995
v 0.000001 1.000001 6.000000
v 46.000000 1.000008 51.999996
v -49.999992 1.000007 44.000004
v -63.999996 1.000000 0.000005
v -63.999992 1.000009 58.000004
v 58.000000 1.000009 57.999996
v 46.000000 1.000008 51.999996
v 46.000000 1.000009 57.999996
v 58.000000 -1.999991 57.999996
v 58.000000 -15.999990 57.999996
v 57.999996 -16.000000 -0.000002
v 57.999996 -2.000000 -0.000005
v -63.999992 127.000008 57.999985
v -63.999996 127.000000 -0.000015
v -50.000000 126.999992 -46.000015
v -6.000005 126.999992 -58.000019
v 57.999992 126.999992 -58.000027
v 58.000000 127.000008 57.999973
v -5.999994 -35.999992 58.000008
v -6.000000 -36.000000 0.000006
v 57.999996 -16.000000 -0.000002
v 58.000000 -15.999990 57.999996
vn 1.0000 -0.0000 -0.0000
vn 0.8756 -0.0000 0.4831
vn 0.7226 -0.0000 -0.6912
vn -0.0000 -0.0000 -1.0000
vn -0.7071 -0.0000 -0.7071
vn -1.0000 -0.0000 -0.0000
vn 0.6715 -0.0000 0.7410
vn 0.2631 -0.0000 0.9648
vn 0.9567 -0.0000 0.2912
vn 0.9529 -0.0000 -0.3032
vn 0.3032 -0.0000 -0.9529
vn -0.0000 1.0000 -0.0000
vn -0.0000 -0.0000 1.0000
vn -0.7071 -0.0000 0.7071
vn 0.7071 -0.0000 0.7071
vn -0.0000 -1.0000 -0.0000
vn 0.2983 -0.9545 -0.0000
vt 0.000000 -0.500000
vt 1.000000 -0.500000
vt 1.000000 0.000000
vt 0.000000 0.000000
vt 1.000000 -0.099609
vt 1.000000 0.000000
vt 0.000000 0.000000
vt 0.000000 -0.099609
vt 1.000000 -0.099609
vt 1.000000 0.000000
vt 0.000000 0.000000
vt 0.000000 -0.099609
vt 1.000000 -0.099609
vt 1.000000 0.000000
vt 0.000000 0.000000
vt 0.000000 -0.099609
vt 1.000000 -0.099609
vt 1.000000 0.000000
vt 0.000000 0.000000
vt 0.000000 -0.099609
vt 0.000000 -0.099609
vt 1.000000 -0.099609
vt 0.999023 0.000000
vt 0.000000 0.000000
vt 1.000000 -0.099609
vt 1.000000 0.000000
vt 0.000000 0.000000
vt 0.000000 -0.099609
vt 1.000000 -0.099609
vt 1.000000 0.000000
vt 0.000000 0.000000
vt 0.000000 -0.099609
vt 0.000000 -0.009766
vt -1.059570 -0.009766
vt -1.059570 -0.548340
vt 0.000000 -0.711426
vt 0.000000 -1.604490
vt 1.000000 -1.604490
vt 1.000000 -0.012207
vt 0.000000 -0.012207
vt 1.115230 -1.498050
vt 2.000000 -1.498050
vt 2.000000 0.005371
vt 1.115230 0.005371
vt 0.000000 -0.499512
vt 1.000000 -0.499512
vt 0.999023 0.000000
vt 0.000000 0.000000
vt 1.048830 -1.247070
vt 1.771480 -1.247070
vt 1.771480 -0.986816
vt 1.048830 -0.986816
vt 0.000000 -1.000000
vt 1.000000 -1.000000
vt 1.000000 -0.093750
vt 0.000000 0.093750
vt 0.000000 -0.500000
vt 1.000000 -0.500000
vt 0.999023 0.000000
vt 0.000000 0.000000
vt 0.099609 0.000000
vt 0.000000 0.000000
vt 0.000000 -0.499512
vt 0.099609 -0.371094
vt 0.109375 0.000000
vt 0.000000 -0.099609
vt 0.944336 -0.099121
vt 0.945313 0.000000
vt 0.000000 -1.623050
vt 1.000000 -1.875000
vt 1.000000 -0.001953
vt 0.000000 -0.000488
vt 0.909180 -0.500000
vt 1.068360 -0.500000
vt 1.068360 0.000000
vt 0.909180 0.000000
vt 0.000000 -2.000000
vt 1.048830 -2.000000
vt 1.048830 -1.277830
vt 0.000000 -1.121090
vt 2.000000 -0.988281
vt 2.000000 0.000000
vt 0.000000 0.000000
vt 0.000000 -0.987793
vt 0.000000 -0.988281
vt 1.115230 -0.988281
vt 1.115230 0.000000
vt 0.000000 0.000000
vt 0.000000 -1.623050
vt 0.000000 -1.749020
vt 0.500000 -1.749020
vt 0.500000 -1.749020
vt 0.500000 -1.874020
vt 1.000000 -1.874020
vt 0.000000 -0.500000
vt 1.000000 -0.500000
vt 0.016602 -0.461426
vt 0.000000 -0.471191
vt 1.000000 0.000000
vt 0.017578 0.000000
vt 0.017578 -0.461426
vt 1.000000 -0.500000
vt 0.000000 -1.000000
vt 1.000000 -1.000000
vt 1.000000 0.000000
vt 0.000000 0.000000
vt 1.048830 -0.988281
vt 0.197266 -0.988281
vt 0.196289 -1.121090
vt 1.048830 -1.121090
vt 1.115230 -2.000000
vt 1.115230 -1.275390
vt 0.000000 -1.275390
vt 0.000000 -2.000000
vt 0.945313 -0.099609
vt 1.000000 -0.099609
vt 1.000000 0.000000
vt 0.945313 0.000000
vt 0.230469 -1.757810
vt 0.951172 -2.000000
vt 0.951172 -1.000000
vt 0.951172 -1.000000
vt 0.951172 -2.000000
vt 1.802730 -1.999020
vt 1.802730 -1.896480
vt 0.000000 -1.000000
vt 0.230469 -1.757810
vt 0.951172 -1.000000
vt 0.230469 -0.207031
vt 0.000000 -1.000000
vt 0.951172 -1.000000
vt 0.951172 0.000000
vt 0.230469 -0.207031
vt 0.951172 -1.000000
vt 1.474610 0.000000
vt 0.951172 0.000000
vt 0.951172 -1.000000
vt 2.000000 0.000000
vt 1.474610 0.000000
vt 0.951172 -1.000000
vt 0.951172 -2.000000
vt 2.000000 -2.000000
vt 2.000000 0.000000
vt 0.951172 -1.000000
vt 0.000000 -2.000000
vt 0.951172 -2.000000
vt 0.230469 -1.757810
vt 2.000000 -2.000000
vt 2.000000 -1.103520
vt 1.045900 -1.102540
vt 1.802730 -1.896480
vt 0.230469 -1.757810
vt 0.000000 -1.000000
vt 0.000000 -2.000000
vt 2.000000 -2.000000
vt 1.802730 -1.896480
vt 1.802730 -2.000000
vt 0.000000 0.000000
vt 0.000000 -0.412109
vt 1.000000 -0.412109
vt 1.000000 0.000000
vt 0.000000 0.000000
vt 0.000000 -1.000000
vt 0.229492 -1.792970
vt 0.950195 -1.999020
vt 1.999020 -1.999020
vt 2.000000 0.000000
vt 0.000000 -1.000000
vt 1.000000 -1.000000
vt 1.000000 -0.411133
vt 0.000000 -0.412109
s 0
usemtl TEXTURE.116_0-material
f 1/1/1 2/2/1 3/3/1
f 1/1/1 3/3/1 4/4/1
f 5/5/2 6/6/2 7/7/2
f 5/5/2 7/7/2 8/8/2
f 9/9/1 10/10/1 11/11/1
f 9/9/1 11/11/1 12/12/1
f 13/13/3 14/14/3 15/15/3
f 13/13/3 15/15/3 16/16/3
f 17/17/4 18/18/4 19/19/4
f 17/17/4 19/19/4 20/20/4
f 21/21/5 22/22/5 23/23/5
f 21/21/5 23/23/5 24/24/5
f 25/25/6 26/26/6 27/27/6
f 25/25/6 27/27/6 28/28/6
f 29/29/7 30/30/7 31/31/7
f 29/29/7 31/31/7 32/32/7
f 33/33/4 34/34/4 35/35/4
f 33/33/4 35/35/4 36/36/4
f 37/37/8 38/38/8 39/39/8
f 37/37/8 39/39/8 40/40/8
f 41/41/9 42/42/9 43/43/9
f 41/41/9 43/43/9 44/44/9
f 45/45/10 46/46/10 47/47/10
f 45/45/10 47/47/10 48/48/10
f 49/49/11 50/50/11 51/51/11
f 49/49/11 51/51/11 52/52/11
f 53/53/12 54/54/12 55/55/12
f 53/53/12 55/55/12 56/56/12
f 57/57/13 58/58/13 59/59/13
f 57/57/13 59/59/13 60/60/13
f 61/61/14 62/62/14 63/63/14
f 61/61/14 63/63/14 64/64/14
f 65/65/14 66/66/14 67/67/14
f 65/65/14 67/67/14 68/68/14
f 69/69/13 70/70/13 71/71/13
f 69/69/13 71/71/13 72/72/13
f 73/73/15 74/74/15 75/75/15
f 73/73/15 75/75/15 76/76/15
f 77/77/4 78/78/4 79/79/4
f 77/77/4 79/79/4 80/80/4
f 81/81/4 82/82/4 83/83/4
f 81/81/4 83/83/4 84/84/4
f 85/85/1 86/86/1 87/87/1
f 85/85/1 87/87/1 88/88/1
f 89/89/13 90/90/13 91/91/13
f 92/92/13 93/93/13 94/94/13
f 95/95/6 96/96/6 97/97/6
f 95/95/6 97/97/6 98/98/6
f 99/99/6 100/100/6 101/101/6
f 99/99/6 101/101/6 102/102/6
f 103/103/12 104/104/12 105/105/12
f 103/103/12 105/105/12 106/106/12
f 107/107/4 108/108/4 109/109/4
f 107/107/4 109/109/4 110/110/4
f 111/111/1 112/112/1 113/113/1
f 111/111/1 113/113/1 114/114/1
f 115/115/6 116/116/6 117/117/6
f 115/115/6 117/117/6 118/118/6
usemtl TEXTURE.116_3-material
f 119/119/12 120/120/12 121/121/12
f 122/122/12 123/123/12 124/124/12
f 122/122/12 124/124/12 125/125/12
f 126/126/12 127/127/12 128/128/12
f 129/129/12 130/130/12 131/131/12
f 132/132/12 133/133/12 134/134/12
f 135/135/12 136/136/12 137/137/12
f 138/138/12 139/139/12 140/140/12
f 141/141/12 142/142/12 143/143/12
f 141/141/12 143/143/12 144/144/12
f 145/145/12 146/146/12 147/147/12
f 148/148/12 149/149/12 150/150/12
f 148/148/12 150/150/12 151/151/12
f 152/152/12 153/153/12 154/154/12
f 155/155/12 156/156/12 157/157/12
usemtl TEXTURE.116_4-material
f 158/158/1 159/159/1 160/160/1
f 158/158/1 160/160/1 161/161/1
f 162/162/16 163/163/16 164/164/16
f 162/162/16 164/164/16 165/165/16
f 162/162/16 165/165/16 166/166/16
f 162/162/16 166/166/16 167/167/16
f 168/168/17 169/169/17 170/170/17
f 168/168/17 170/170/17 171/171/17
