# Blender 3.3.0
# www.blender.org
mtllib 63038.mtl
o model63038-node
v -23.999992 24.000010 64.000000
v 0.000006 0.000010 64.000000
v -0.000003 -0.000006 -39.000000
v -24.000002 23.999994 -39.000000
v -0.000003 125.999992 -39.000019
v 0.000006 126.000008 63.999981
v -23.999992 24.000010 64.000000
v -24.000002 23.999994 -39.000000
v 151.999969 23.999969 -192.000015
v 127.999977 -0.000031 -192.000015
v 127.999985 -0.000014 -89.000008
v 151.999969 23.999985 -89.000015
v 151.999985 23.999994 -39.000019
v 127.999992 -0.000006 -39.000011
v 127.999992 0.000010 63.999989
v 151.999985 24.000010 63.999981
v 127.999992 125.999992 -39.000031
v 151.999985 23.999994 -39.000019
v 151.999985 24.000010 63.999981
v 127.999992 126.000008 63.999969
v 127.999977 125.999969 -192.000031
v 151.999969 23.999969 -192.000015
v 151.999969 23.999985 -89.000015
v 127.999985 125.999985 -89.000031
v -24.000015 23.999969 -192.000000
v -24.000006 23.999985 -89.000000
v -0.000008 -0.000014 -89.000000
v -0.000017 -0.000031 -192.000000
v -0.000017 125.999969 -192.000015
v -0.000008 125.999985 -89.000023
v -24.000006 23.999985 -89.000000
v -24.000015 23.999969 -192.000000
v -0.000008 125.999985 -89.000023
v -0.000003 125.999992 -39.000019
v -63.999996 89.999992 -39.000008
v -64.000000 89.999985 -89.000008
v 127.999985 125.999985 -89.000031
v 191.999969 89.999985 -89.000031
v 191.999985 89.999992 -39.000031
v 127.999992 125.999992 -39.000031
v -64.000000 -0.000014 -88.999992
v -63.999996 -0.000006 -38.999996
v -0.000003 -0.000006 -39.000000
v -0.000008 -0.000014 -89.000000
v 191.999969 -0.000014 -89.000015
v 127.999985 -0.000014 -89.000008
v 127.999992 -0.000006 -39.000011
v 191.999985 -0.000006 -39.000015
v -64.000000 89.999985 -89.000008
v -64.000000 -0.000014 -88.999992
v -24.000006 23.999985 -89.000000
v -0.000008 125.999985 -89.000023
v -64.000000 -0.000014 -88.999992
v -0.000008 -0.000014 -89.000000
v -24.000006 23.999985 -89.000000
v -0.000003 125.999992 -39.000019
v -24.000002 23.999994 -39.000000
v -63.999996 -0.000006 -38.999996
v -63.999996 89.999992 -39.000008
v -24.000002 23.999994 -39.000000
v -0.000003 -0.000006 -39.000000
v -63.999996 -0.000006 -38.999996
v 191.999969 89.999985 -89.000031
v 127.999985 125.999985 -89.000031
v 151.999969 23.999985 -89.000015
v 191.999969 -0.000014 -89.000015
v 151.999969 23.999985 -89.000015
v 127.999985 -0.000014 -89.000008
v 191.999969 -0.000014 -89.000015
v 127.999992 125.999992 -39.000031
v 191.999985 89.999992 -39.000031
v 191.999985 -0.000006 -39.000015
v 151.999985 23.999994 -39.000019
v 191.999985 -0.000006 -39.000015
v 127.999992 -0.000006 -39.000011
v 151.999985 23.999994 -39.000019
v 0.000006 0.000010 64.000000
v 127.999992 0.000010 63.999989
v 127.999977 -0.000031 -192.000015
v -0.000017 -0.000031 -192.000000
v 127.999992 126.000008 63.999969
v 0.000006 126.000008 63.999981
v -0.000017 125.999969 -192.000015
v 127.999977 125.999969 -192.000031
vn 0.7071 0.7071 -0.0000
vn 0.9734 -0.2290 -0.0000
vn -0.7071 0.7071 -0.0000
vn -0.9734 -0.2290 -0.0000
vn 0.4903 -0.8716 -0.0000
vn -0.4903 -0.8716 -0.0000
vn -0.0000 1.0000 -0.0000
vn -0.0000 -0.0000 1.0000
vn -0.0000 -0.0000 -1.0000
vn -0.0000 -1.0000 -0.0000
vt 0.000000 0.000000
vt 0.000000 -1.000000
vt 1.500000 -1.000000
vt 1.500000 0.000000
vt 1.500000 0.000000
vt 0.000000 0.000000
vt 0.000000 -2.998050
vt 1.500000 -3.000000
vt 0.000000 0.000000
vt 0.000000 -1.000000
vt 1.499020 -1.000000
vt 1.500000 0.000000
vt 0.000000 0.000000
vt 0.000000 -1.000000
vt 1.500000 -1.000000
vt 1.500000 0.000000
vt 0.000000 0.000000
vt 0.000000 -3.000000
vt 1.500000 -2.998050
vt 1.500000 0.000000
vt 0.000000 0.000000
vt 0.000000 -3.000000
vt 1.499020 -2.998050
vt 1.500000 0.000000
vt 1.500000 0.000000
vt 0.000000 0.000000
vt 0.000000 -1.000000
vt 1.500000 -1.000000
vt 1.500000 0.000000
vt 0.000000 0.000000
vt 0.000000 -2.998050
vt 1.500000 -3.000000
vt 1.000000 -1.000000
vt 1.000000 0.000000
vt 0.000000 0.000000
vt 0.000000 -1.000000
vt 1.000000 -1.000000
vt 0.000000 -1.000000
vt 0.000000 0.000000
vt 1.000000 0.000000
vt 1.000000 0.000000
vt 1.000000 -1.000000
vt 0.000000 -0.999023
vt 0.000000 0.000000
vt 1.000000 0.000000
vt 0.000000 0.000000
vt 0.000000 -0.999023
vt 1.000000 -1.000000
vt 0.000000 -0.285645
vt 0.000000 -1.000000
vt 0.625000 -0.809082
vt 1.000000 0.000000
vt 0.000000 -1.000000
vt 1.000000 -1.000000
vt 0.625000 -0.809570
vt 1.000000 0.000000
vt 0.625000 -0.809570
vt 0.000000 -1.000000
vt 0.000000 -0.285645
vt 0.625000 -0.809570
vt 1.000000 -1.000000
vt 0.000000 -1.000000
vt 0.000000 -0.285645
vt 1.000000 0.000000
vt 0.624023 -0.809082
vt 0.000000 -1.000000
vt 0.625000 -0.809570
vt 1.000000 -1.000000
vt 0.000000 -1.000000
vt 1.000000 0.000000
vt 0.000000 -0.285645
vt 0.000000 -0.999512
vt 0.625000 -0.809570
vt 0.000000 -1.000000
vt 1.000000 -1.000000
vt 0.625000 -0.809570
vt 0.500000 -2.000000
vt 1.500000 -2.000000
vt 1.500000 0.000000
vt 0.500000 0.000000
vt 0.000000 0.000000
vt 0.000000 0.000000
vt 2.970700 -3.072270
vt 2.970700 -3.072270
s 0
usemtl TEXTURE.122_4-material
f 1/1/1 2/2/1 3/3/1
f 1/1/1 3/3/1 4/4/1
f 5/5/2 6/6/2 7/7/2
f 5/5/2 7/7/2 8/8/2
f 9/9/3 10/10/3 11/11/3
f 9/9/3 11/11/3 12/12/3
f 13/13/3 14/14/3 15/15/3
f 13/13/3 15/15/3 16/16/3
f 17/17/4 18/18/4 19/19/4
f 17/17/4 19/19/4 20/20/4
f 21/21/4 22/22/4 23/23/4
f 21/21/4 23/23/4 24/24/4
f 25/25/1 26/26/1 27/27/1
f 25/25/1 27/27/1 28/28/1
f 29/29/2 30/30/2 31/31/2
f 29/29/2 31/31/2 32/32/2
usemtl TEXTURE.321_1-material
f 33/33/5 34/34/5 35/35/5
f 33/33/5 35/35/5 36/36/5
f 37/37/6 38/38/6 39/39/6
f 37/37/6 39/39/6 40/40/6
usemtl TEXTURE.321_2-material
f 41/41/7 42/42/7 43/43/7
f 41/41/7 43/43/7 44/44/7
f 45/45/7 46/46/7 47/47/7
f 45/45/7 47/47/7 48/48/7
usemtl TEXTURE.321_0-material
f 49/49/8 50/50/8 51/51/8
f 49/49/8 51/51/8 52/52/8
f 53/53/8 54/54/8 55/55/8
f 56/56/9 57/57/9 58/58/9
f 56/56/9 58/58/9 59/59/9
f 60/60/9 61/61/9 62/62/9
f 63/63/8 64/64/8 65/65/8
f 63/63/8 65/65/8 66/66/8
f 67/67/8 68/68/8 69/69/8
f 70/70/9 71/71/9 72/72/9
f 70/70/9 72/72/9 73/73/9
f 74/74/9 75/75/9 76/76/9
usemtl TEXTURE.122_2-material
f 77/77/7 78/78/7 79/79/7
f 77/77/7 79/79/7 80/80/7
usemtl TEXTURE.122_3-material
f 81/81/10 82/82/10 83/83/10
f 81/81/10 83/83/10 84/84/10
