# Blender v2.82 (sub 7) OBJ File: '58009.blend'
# www.blender.org
mtllib 58009.mtl
o model58009-node_model58009
v 3.200000 1.600000 -0.150001
v 3.200000 -11.200000 -0.149998
v -3.050000 -11.200000 -0.149998
v -3.050000 1.600000 -0.150000
v -9.600000 11.149999 -11.200001
v -9.600000 8.599998 -11.800001
v -9.600000 7.999998 -12.800000
v -9.600000 11.199998 -12.800002
v -9.600000 11.200000 -6.550001
v -9.600000 8.000000 -6.550001
v -9.600000 8.599998 -7.400001
v -9.600000 11.149999 -8.000001
v -9.600000 8.599998 -7.400001
v -9.600000 8.000000 -6.550001
v -9.600000 7.999999 -8.000001
v -9.600000 8.599998 -11.800001
v -9.600000 7.999999 -11.200001
v -9.600000 7.999998 -12.800000
v -9.600000 11.199998 -12.800002
v -9.600000 7.999998 -12.800000
v -3.050001 7.999998 -12.800002
v -3.050001 11.199998 -12.800002
v -3.799999 1.600000 -0.650000
v -3.799999 2.000000 -0.650000
v -8.999999 2.000000 -0.650000
v -8.999999 1.600000 -0.649999
v -3.799999 2.000000 -1.075000
v -3.799999 2.400000 -1.075000
v -8.999999 2.400000 -1.075000
v -8.999999 2.000000 -1.075000
v -3.799999 2.400000 -1.450000
v -3.799999 2.800000 -1.450000
v -8.999999 2.800000 -1.450000
v -8.999999 2.400000 -1.450000
v -3.799999 2.800000 -1.875000
v -3.799999 3.200000 -1.875000
v -8.999999 3.200000 -1.875000
v -8.999999 2.800000 -1.875000
v -3.800000 3.200000 -2.250000
v -3.800000 3.600000 -2.250000
v -8.999999 3.600000 -2.250000
v -8.999999 3.200000 -2.250000
v -3.800000 3.600000 -2.625000
v -3.800000 4.000000 -2.625000
v -8.999999 4.000000 -2.625000
v -8.999999 3.600000 -2.625000
v -3.800000 4.000000 -3.050000
v -3.800000 4.400000 -3.050000
v -8.999999 4.400000 -3.050000
v -8.999999 4.000000 -3.050000
v -3.800000 4.400000 -3.450001
v -3.800000 4.800000 -3.450001
v -8.999999 4.800000 -3.450000
v -8.999999 4.400000 -3.450000
v -3.800000 4.799999 -3.850000
v -3.800000 5.199999 -3.850000
v -8.999999 5.199999 -3.850000
v -8.999999 4.799999 -3.850000
v -3.800000 5.199999 -4.250000
v -3.800000 5.599999 -4.250001
v -8.999999 5.599999 -4.250000
v -8.999999 5.199999 -4.250000
v -3.800000 5.599999 -4.650001
v -3.800000 6.000000 -4.650001
v -9.000000 6.000000 -4.650001
v -9.000000 5.599999 -4.650000
v -3.800000 6.000000 -5.050001
v -3.800000 6.399999 -5.050001
v -9.000000 6.399999 -5.050001
v -9.000000 6.000000 -5.050001
v -3.800000 6.399999 -5.450001
v -3.800000 6.799999 -5.450001
v -9.000000 6.799999 -5.450000
v -9.000000 6.399999 -5.450000
v -3.800000 6.799999 -5.850001
v -3.800000 7.199999 -5.850001
v -9.000000 7.199999 -5.850000
v -9.000000 6.799999 -5.850000
v -3.800000 7.199999 -6.250001
v -3.800000 7.599999 -6.250001
v -9.000000 7.599999 -6.250000
v -9.000000 7.199999 -6.250000
v -3.800000 7.599999 -6.550001
v -3.800000 8.000000 -6.550001
v -9.000000 8.000000 -6.550001
v -9.000000 7.599999 -6.550001
v 3.200001 11.150002 7.999998
v 3.200001 8.600001 7.399999
v 3.200000 8.000001 6.249999
v 3.200000 10.400001 6.249998
v 3.200001 8.600001 7.399999
v 3.200001 8.000002 7.999999
v 3.200000 8.000001 6.249999
v -9.599999 4.750000 1.600000
v -9.599999 2.200000 1.000000
v -9.600000 8.000000 -6.550001
v -9.600000 11.200000 -6.550001
v -9.600000 8.000000 -6.550001
v -9.599999 2.200000 1.000000
v -9.599999 1.600000 1.600001
v -9.599999 1.600000 -0.149999
v -9.599998 11.200001 6.249999
v -9.599998 4.750001 4.800000
v -9.599999 4.750000 1.600000
v -9.600000 11.200000 -6.550001
v -9.599998 1.600001 6.250001
v -9.599998 2.200001 5.400001
v -9.599998 4.750001 4.800000
v -9.599998 11.200001 6.249999
v -9.599998 1.600001 4.800001
v -9.599998 2.200001 5.400001
v -9.599998 1.600001 6.250001
v 3.200000 8.000001 6.249999
v -9.599998 1.600001 6.250001
v -9.599998 11.200001 6.249999
v 3.200000 10.400001 6.249998
v -3.800000 8.000000 -6.550001
v -3.800000 1.599999 -6.550000
v -3.800000 1.600000 -0.150000
v -9.000000 8.000000 -6.550001
v -8.999999 1.600000 -0.149999
v -9.000000 1.599999 -6.549999
v -3.050001 7.999998 -12.800002
v -3.050000 8.000000 -6.550001
v -3.050000 1.600000 -0.150000
v -3.050000 -11.200000 -0.149998
v -3.050001 -11.200003 -12.799998
v 9.600000 1.600001 6.249999
v -9.599998 1.600001 6.250001
v 3.200000 8.000001 6.249999
v 9.600000 8.000001 6.249998
v 3.200001 11.150002 7.999998
v 3.200000 10.400001 6.249998
v 9.600000 10.400001 6.249998
v 9.600000 11.150002 7.999998
v 3.200001 11.150002 11.199998
v 9.600000 11.150002 11.199998
v 9.600000 8.600002 11.799998
v 3.200001 8.600002 11.799998
v 9.600000 8.600002 11.799998
v 9.600000 8.000002 11.199998
v 3.200001 8.000002 11.199999
v 3.200001 8.600002 11.799998
v 9.600000 10.400001 6.249998
v 3.200000 10.400001 6.249998
v -9.599998 11.200001 6.249999
v 9.600000 11.200001 6.249998
v -9.600000 11.200000 -6.550001
v -9.600000 11.149999 -8.000001
v -9.600000 11.149999 -11.200001
v -9.600000 11.199998 -12.800002
v -3.050000 8.000000 -6.550001
v -3.050001 7.999998 -12.800002
v -9.600000 7.999998 -12.800000
v -9.600000 8.000000 -6.550001
v -3.799999 2.000000 -1.075000
v -8.999999 2.000000 -1.075000
v -8.999999 2.000000 -0.650000
v -3.799999 2.000000 -0.650000
v -3.799999 2.400000 -1.450000
v -8.999999 2.400000 -1.450000
v -8.999999 2.400000 -1.075000
v -3.799999 2.400000 -1.075000
v -3.799999 2.800000 -1.875000
v -8.999999 2.800000 -1.875000
v -8.999999 2.800000 -1.450000
v -3.799999 2.800000 -1.450000
v -3.800000 3.200000 -2.250000
v -8.999999 3.200000 -2.250000
v -8.999999 3.200000 -1.875000
v -3.799999 3.200000 -1.875000
v -3.800000 3.600000 -2.625000
v -8.999999 3.600000 -2.625000
v -8.999999 3.600000 -2.250000
v -3.800000 3.600000 -2.250000
v -3.800000 4.000000 -3.050000
v -8.999999 4.000000 -3.050000
v -8.999999 4.000000 -2.625000
v -3.800000 4.000000 -2.625000
v -3.800000 4.400000 -3.450001
v -8.999999 4.400000 -3.450000
v -8.999999 4.400000 -3.050000
v -3.800000 4.400000 -3.050000
v -3.800000 4.799999 -3.850000
v -8.999999 4.799999 -3.850000
v -8.999999 4.800000 -3.450000
v -3.800000 4.800000 -3.450001
v -3.800000 5.199999 -4.250000
v -8.999999 5.199999 -4.250000
v -8.999999 5.199999 -3.850000
v -3.800000 5.199999 -3.850000
v -3.800000 5.599999 -4.650001
v -9.000000 5.599999 -4.650000
v -8.999999 5.599999 -4.250000
v -3.800000 5.599999 -4.250001
v -3.800000 6.000000 -5.050001
v -9.000000 6.000000 -5.050001
v -9.000000 6.000000 -4.650001
v -3.800000 6.000000 -4.650001
v -3.800000 6.399999 -5.450001
v -9.000000 6.399999 -5.450000
v -9.000000 6.399999 -5.050001
v -3.800000 6.399999 -5.050001
v -3.800000 6.799999 -5.850001
v -9.000000 6.799999 -5.850000
v -9.000000 6.799999 -5.450000
v -3.800000 6.799999 -5.450001
v -3.800000 7.199999 -6.250001
v -9.000000 7.199999 -6.250000
v -9.000000 7.199999 -5.850000
v -3.800000 7.199999 -5.850001
v -3.800000 7.599999 -6.550001
v -9.000000 7.599999 -6.550001
v -9.000000 7.599999 -6.250000
v -3.800000 7.599999 -6.250001
v -8.999999 1.600000 -0.149999
v -3.800000 1.600000 -0.150000
v -3.799999 1.600000 -0.650000
v -8.999999 1.600000 -0.649999
v -3.050001 -11.200003 -12.799998
v -3.050000 -11.200000 -0.149998
v 3.200000 -11.200000 -0.149998
v 3.199999 -11.200003 -12.949999
v 9.599999 1.600000 -0.150001
v -9.599999 1.600000 -0.149999
v -9.599998 1.600001 6.250001
v 9.600000 1.600001 6.249999
v 3.200001 8.000002 11.199999
v 9.600000 8.000002 11.199998
v 9.600000 8.000001 6.249998
v 3.200000 8.000001 6.249999
v -3.800000 8.000000 -6.550001
v -3.800000 1.600000 -0.150000
v -3.050000 1.600000 -0.150000
v -3.050000 8.000000 -6.550001
v -9.599999 1.600000 -0.149999
v -8.999999 1.600000 -0.149999
v -9.000000 8.000000 -6.550001
v -9.600000 8.000000 -6.550001
v 3.200001 11.150002 11.199998
v 3.200001 11.150002 7.999998
v 9.600000 11.150002 7.999998
v 9.600000 11.150002 11.199998
v 9.599998 11.199998 -12.800003
v 9.600000 11.200001 6.249998
v -9.599998 11.200001 6.249999
v -9.600000 11.199998 -12.800002
vt 0.000000 0.000000
vt 0.000000 -4.000000
vt 1.000000 -4.000000
vt 1.000000 0.000000
vt 2.748050 -0.017578
vt 2.841800 -0.814453
vt 2.999020 -1.000000
vt 3.000000 0.000000
vt 2.015630 0.000000
vt 2.015630 -0.996094
vt 2.149410 -0.808594
vt 2.244140 -0.017578
vt 2.150390 -0.814453
vt 2.015630 -0.996094
vt 2.244140 -0.996094
vt 2.841800 -0.814453
vt 2.748050 -0.996094
vt 3.000000 -0.996094
vt 0.000000 0.000000
vt 0.000000 -1.000000
vt 1.000000 -1.000000
vt 1.000000 0.000000
vt 2.125000 -0.593750
vt 2.125000 -0.093750
vt 0.124023 -0.093750
vt 0.125000 -0.593750
vt 2.015630 -0.593750
vt 2.015630 -0.093750
vt 0.014648 -0.093750
vt 0.015625 -0.593750
vt 2.125000 -0.593750
vt 2.125000 -0.093750
vt 0.124023 -0.093750
vt 0.125000 -0.593750
vt 2.015630 -0.593750
vt 2.015630 -0.093750
vt 0.014648 -0.093750
vt 0.015625 -0.593750
vt 2.125000 -0.593750
vt 2.125000 -0.093750
vt 0.124023 -0.093750
vt 0.125000 -0.593750
vt 2.015630 -0.593750
vt 2.015630 -0.093750
vt 0.014648 -0.093750
vt 0.015625 -0.593750
vt 2.125000 -0.593750
vt 2.125000 -0.093750
vt 0.124023 -0.093750
vt 0.125000 -0.593750
vt 2.015630 -0.593750
vt 2.015630 -0.093750
vt 0.014648 -0.093750
vt 0.015625 -0.593750
vt 2.125000 -0.593750
vt 2.125000 -0.093750
vt 0.124023 -0.093750
vt 0.125000 -0.593750
vt 2.015630 -0.593750
vt 2.015630 -0.093750
vt 0.014648 -0.093750
vt 0.015625 -0.593750
vt 2.125000 -0.593750
vt 2.125000 -0.093750
vt 0.124023 -0.093750
vt 0.125000 -0.593750
vt 2.015630 -0.593750
vt 2.015630 -0.093750
vt 0.014648 -0.093750
vt 0.015625 -0.593750
vt 2.125000 -0.593750
vt 2.125000 -0.093750
vt 0.124023 -0.093750
vt 0.125000 -0.593750
vt 2.015630 -0.593750
vt 2.015630 -0.093750
vt 0.014648 -0.093750
vt 0.015625 -0.593750
vt 2.125000 -0.593750
vt 2.125000 -0.093750
vt 0.124023 -0.093750
vt 0.125000 -0.593750
vt 1.976560 -0.593750
vt 1.996090 -0.093750
vt -0.002930 -0.093750
vt 0.015625 -0.593750
vt 0.000000 0.000000
vt 0.342773 -3.234380
vt 0.999023 -3.996090
vt 1.000000 -0.953125
vt 0.342773 -3.234380
vt 0.000000 -4.000000
vt 1.000000 -4.000000
vt 0.732422 -2.015630
vt 0.826172 -2.812500
vt 2.014650 -1.000000
vt 2.015630 0.000000
vt 2.015630 -0.996094
vt 0.826172 -2.812500
vt 0.731445 -2.998050
vt 1.007810 -2.994140
vt 0.000000 0.000000
vt 0.228516 -2.015630
vt 0.731445 -2.015630
vt 2.015630 0.000000
vt 0.000000 -2.994140
vt 0.134766 -2.812500
vt 0.229492 -2.019530
vt 0.000000 0.000000
vt 0.228516 -2.994140
vt 0.134766 -2.812500
vt 0.000000 -2.994140
vt 0.999023 -0.996094
vt 2.997070 -2.994140
vt 2.997070 -0.015625
vt 0.999023 -0.251953
vt 0.000000 0.000000
vt 2.500000 -6.000000
vt 5.000000 0.000000
vt 5.000000 0.000000
vt 0.000000 0.000000
vt 2.500000 -6.000000
vt 2.000000 0.000000
vt 1.011720 0.000000
vt 0.000000 -2.003910
vt 0.000000 -6.011720
vt 2.000000 -6.011720
vt 0.000000 -2.994140
vt 2.997070 -2.994140
vt 0.999023 -0.996094
vt 0.000000 -0.996094
vt 0.000000 0.000000
vt 0.000000 -2.000000
vt 3.000000 -1.998050
vt 3.000000 0.000000
vt 3.000000 0.000000
vt 0.000000 0.000000
vt 0.000000 -3.000000
vt 3.000000 -3.000000
vt 0.000000 0.000000
vt 0.000000 -1.000000
vt 3.000000 -0.998047
vt 3.000000 0.000000
vt 0.000000 -0.251953
vt 0.999023 -0.251953
vt 2.997070 0.000000
vt 0.000000 0.000000
vt 2.015630 0.000000
vt 2.244140 -0.017578
vt 2.748050 -0.017578
vt 3.000000 0.000000
vt 3.000000 -3.000000
vt 3.000000 0.000000
vt 0.005859 0.000000
vt 0.005859 -2.999020
vt 2.000000 -1.855470
vt 0.000000 -1.855470
vt 0.000000 -2.000000
vt 2.000000 -2.000000
vt 1.572270 -0.019531
vt 1.572270 -1.980470
vt 1.694340 -1.980470
vt 1.695310 -0.019531
vt 2.000000 -1.585940
vt 0.000000 -1.585940
vt 0.000000 -1.727540
vt 2.000000 -1.728520
vt 1.310550 -0.019531
vt 1.310550 -1.980470
vt 1.432620 -1.980470
vt 1.433590 -0.019531
vt 2.000000 -1.330080
vt 0.000000 -1.330080
vt 0.000000 -1.456060
vt 2.000000 -1.457030
vt 1.048830 -0.019531
vt 1.048830 -1.980470
vt 1.187500 -1.980470
vt 1.187500 -0.019531
vt 2.000000 -1.050780
vt 0.000000 -1.050780
vt 0.000000 -1.187500
vt 2.000000 -1.187500
vt 0.787109 -0.019531
vt 0.787109 -1.980470
vt 0.917969 -1.980470
vt 0.917969 -0.019531
vt 2.000000 -0.779297
vt 0.000000 -0.779297
vt 0.000000 -0.916016
vt 2.000000 -0.916016
vt 0.525391 -0.019531
vt 0.525391 -1.980470
vt 0.656250 -1.980470
vt 0.656250 -0.019531
vt 2.000000 -0.507813
vt 0.000000 -0.507813
vt 0.000000 -0.644531
vt 2.000000 -0.644531
vt 0.261719 -0.019531
vt 0.261719 -1.980470
vt 0.392578 -1.980470
vt 0.392578 -0.019531
vt 2.000000 -0.236328
vt 0.000000 -0.236328
vt 0.000000 -0.373047
vt 2.000000 -0.373047
vt 0.000000 -0.019531
vt 0.000000 -1.980470
vt 0.130859 -1.980470
vt 0.130859 -0.019531
vt 2.000000 0.000000
vt 0.000000 0.000000
vt 0.000000 -0.101563
vt 2.000000 -0.101563
vt 2.000000 -2.000000
vt 2.000000 0.000000
vt 1.835940 -0.018555
vt 1.835940 -1.980470
vt 0.000000 -0.046875
vt 0.000000 -4.000000
vt 1.999020 -3.999020
vt 2.000000 0.000000
vt 5.994140 0.000000
vt 0.000000 0.000000
vt 0.000000 -2.000000
vt 5.994140 -2.000000
vt 0.000000 0.000000
vt 0.000000 -2.000000
vt 1.500000 -2.000000
vt 1.500000 0.000000
vt -0.089844 0.000000
vt -0.089844 -3.500000
vt 0.308594 -3.500000
vt 0.309570 0.000000
vt 0.799805 -3.500000
vt 1.099610 -3.500000
vt 1.098630 0.000000
vt 0.799805 0.000000
vt 1.000000 0.000000
vt 0.000000 0.000000
vt 0.000000 -2.000000
vt 1.000000 -2.000000
vt 0.000000 0.000000
vt 0.000000 -6.000000
vt 5.993160 -5.999020
vt 5.993160 0.000000
vn -0.0000 -0.0000 -1.0000
vn 1.0000 0.0000 0.0000
vn 0.0000 0.0000 1.0000
vn -1.0000 0.0000 0.0000
vn 0.0000 -0.9191 0.3939
vn 0.0000 -0.2290 -0.9734
vn 0.0000 0.7071 -0.7071
vn -0.0000 1.0000 -0.0000
vn 0.0000 0.7071 0.7071
vn 0.0000 -1.0000 0.0000
usemtl 122_4-0
s off
f 1/1/1 2/2/1 3/3/1
f 1/1/1 3/3/1 4/4/1
f 5/5/2 6/6/2 7/7/2
f 5/5/2 7/7/2 8/8/2
f 9/9/2 10/10/2 11/11/2
f 9/9/2 11/11/2 12/12/2
f 13/13/2 14/14/2 15/15/2
f 16/16/2 17/17/2 18/18/2
f 19/19/3 20/20/3 21/21/3
f 19/19/3 21/21/3 22/22/3
f 23/23/3 24/24/3 25/25/3
f 23/23/3 25/25/3 26/26/3
f 27/27/3 28/28/3 29/29/3
f 27/27/3 29/29/3 30/30/3
f 31/31/3 32/32/3 33/33/3
f 31/31/3 33/33/3 34/34/3
f 35/35/3 36/36/3 37/37/3
f 35/35/3 37/37/3 38/38/3
f 39/39/3 40/40/3 41/41/3
f 39/39/3 41/41/3 42/42/3
f 43/43/3 44/44/3 45/45/3
f 43/43/3 45/45/3 46/46/3
f 47/47/3 48/48/3 49/49/3
f 47/47/3 49/49/3 50/50/3
f 51/51/3 52/52/3 53/53/3
f 51/51/3 53/53/3 54/54/3
f 55/55/3 56/56/3 57/57/3
f 55/55/3 57/57/3 58/58/3
f 59/59/3 60/60/3 61/61/3
f 59/59/3 61/61/3 62/62/3
f 63/63/3 64/64/3 65/65/3
f 63/63/3 65/65/3 66/66/3
f 67/67/3 68/68/3 69/69/3
f 67/67/3 69/69/3 70/70/3
f 71/71/3 72/72/3 73/73/3
f 71/71/3 73/73/3 74/74/3
f 75/75/3 76/76/3 77/77/3
f 75/75/3 77/77/3 78/78/3
f 79/79/3 80/80/3 81/81/3
f 79/79/3 81/81/3 82/82/3
f 83/83/3 84/84/3 85/85/3
f 83/83/3 85/85/3 86/86/3
f 87/87/2 88/88/2 89/89/2
f 87/87/2 89/89/2 90/90/2
f 91/91/2 92/92/2 93/93/2
f 94/94/2 95/95/2 96/96/2
f 94/94/2 96/96/2 97/97/2
f 98/98/2 99/99/2 100/100/2
f 98/98/2 100/100/2 101/101/2
f 102/102/2 103/103/2 104/104/2
f 102/102/2 104/104/2 105/105/2
f 106/106/2 107/107/2 108/108/2
f 106/106/2 108/108/2 109/109/2
f 110/110/2 111/111/2 112/112/2
f 113/113/1 114/114/1 115/115/1
f 113/113/1 115/115/1 116/116/1
f 117/117/4 118/118/4 119/119/4
f 120/120/2 121/121/2 122/122/2
f 123/123/2 124/124/2 125/125/2
f 123/123/2 125/125/2 126/126/2
f 123/123/2 126/126/2 127/127/2
f 128/128/1 129/129/1 130/130/1
f 128/128/1 130/130/1 131/131/1
f 132/132/5 133/133/5 134/134/5
f 132/132/5 134/134/5 135/135/5
f 136/136/6 137/137/6 138/138/6
f 136/136/6 138/138/6 139/139/6
f 140/140/7 141/141/7 142/142/7
f 140/140/7 142/142/7 143/143/7
f 144/144/1 145/145/1 146/146/1
f 144/144/1 146/146/1 147/147/1
f 148/148/2 149/149/2 150/150/2
f 148/148/2 150/150/2 151/151/2
usemtl 122_2-0
f 152/152/8 153/153/8 154/154/8
f 152/152/8 154/154/8 155/155/8
f 156/156/8 157/157/8 158/158/8
f 156/156/8 158/158/8 159/159/8
f 160/160/8 161/161/8 162/162/8
f 160/160/8 162/162/8 163/163/8
f 164/164/8 165/165/8 166/166/8
f 164/164/8 166/166/8 167/167/8
f 168/168/8 169/169/8 170/170/8
f 168/168/8 170/170/8 171/171/8
f 172/172/8 173/173/8 174/174/8
f 172/172/8 174/174/8 175/175/8
f 176/176/8 177/177/8 178/178/8
f 176/176/8 178/178/8 179/179/8
f 180/180/8 181/181/8 182/182/8
f 180/180/8 182/182/8 183/183/8
f 184/184/8 185/185/8 186/186/8
f 184/184/8 186/186/8 187/187/8
f 188/188/8 189/189/8 190/190/8
f 188/188/8 190/190/8 191/191/8
f 192/192/8 193/193/8 194/194/8
f 192/192/8 194/194/8 195/195/8
f 196/196/8 197/197/8 198/198/8
f 196/196/8 198/198/8 199/199/8
f 200/200/8 201/201/8 202/202/8
f 200/200/8 202/202/8 203/203/8
f 204/204/8 205/205/8 206/206/8
f 204/204/8 206/206/8 207/207/8
f 208/208/8 209/209/8 210/210/8
f 208/208/8 210/210/8 211/211/8
f 212/212/8 213/213/8 214/214/8
f 212/212/8 214/214/8 215/215/8
f 216/216/8 217/217/8 218/218/8
f 216/216/8 218/218/8 219/219/8
f 220/220/8 221/221/8 222/222/8
f 220/220/8 222/222/8 223/223/8
f 224/224/8 225/225/8 226/226/8
f 224/224/8 226/226/8 227/227/8
f 228/228/8 229/229/8 230/230/8
f 228/228/8 230/230/8 231/231/8
usemtl 122_3-0
f 232/232/9 233/233/9 234/234/9
f 232/232/9 234/234/9 235/235/9
f 236/236/9 237/237/9 238/238/9
f 236/236/9 238/238/9 239/239/9
f 240/240/10 241/241/10 242/242/10
f 240/240/10 242/242/10 243/243/10
f 244/244/10 245/245/10 246/246/10
f 244/244/10 246/246/10 247/247/10
