# Blender v2.82 (sub 7) OBJ File: '58045.blend'
# www.blender.org
mtllib 58045.mtl
o model58045-node_model58045
v -3.049999 -1.599998 9.600001
v 3.200001 -1.599998 9.600000
v 3.200001 1.600002 9.599999
v -3.049999 1.600002 9.600000
v -3.050001 -1.600002 -9.400000
v 3.199999 -1.600003 -9.400001
v 3.200001 -1.599998 9.600000
v -3.049999 -1.599998 9.600001
v 3.200001 1.600002 9.599999
v 3.200001 -1.599998 9.600000
v 3.199999 -1.600002 -9.400001
v 3.199999 1.599998 -9.400001
v -3.049999 1.600002 9.600000
v -3.050000 1.600001 3.200000
v 3.200001 1.600002 9.599999
v 3.200000 1.600001 3.200000
vt 0.000000 -1.000000
vt 1.000000 -1.000000
vt 0.999023 0.000000
vt 0.000000 0.000000
vt 1.000000 0.000000
vt 0.000000 0.000000
vt 0.000000 -5.988280
vt 1.000000 -5.988280
vt 0.000000 0.000000
vt 0.000000 -1.000000
vt 3.000000 -1.000000
vt 3.000202 0.000000
vt 1.984375 1.000000
vt 0.015625 1.000000
vt 0.015625 -1.000000
vt 1.984375 -1.000000
vn 0.0000 0.0000 1.0000
vn -0.0000 -1.0000 0.0000
vn 1.0000 -0.0000 -0.0000
vn 0.0000 1.0000 -0.0000
usemtl 122_4-0
s off
f 1/1/1 2/2/1 3/3/1
f 1/1/1 3/3/1 4/4/1
f 5/5/2 6/6/2 7/7/2
f 5/5/2 7/7/2 8/8/2
f 9/9/3 10/10/3 11/11/3
f 11/11/3 12/12/3 9/9/3
usemtl 122_2-0
f 16/13/4 14/14/4 13/15/4
f 16/13/4 13/15/4 15/16/4
