# Blender v2.82 (sub 7) OBJ File: '41208.blend'
# www.blender.org
mtllib 41208.mtl
o model41208-node_model41208
v 0.195508 0.502735 -1.997755
v 0.195508 0.502735 1.002147
v -0.004492 0.352735 1.002147
v -0.004492 0.352735 -1.997755
v -0.004492 0.602735 -1.997755
v -0.004492 0.602735 1.002050
v 0.195508 -0.397070 -1.997657
v 0.195508 -0.397070 1.002245
v -0.004492 -0.547070 1.002245
v -0.004492 -0.547070 -1.997657
v -0.004492 -0.297070 -1.997657
v -0.004492 -0.297070 1.002245
v -0.183984 -0.946972 0.819238
v -0.183984 0.802833 0.819140
v -0.006543 0.802833 0.995117
v -0.182422 0.802833 1.172657
v -0.182422 -0.946972 1.172755
v -0.006543 -0.946972 0.995215
v -0.182422 0.802833 1.172657
v -0.006543 0.802833 0.995117
v -0.183984 0.802833 0.819140
v -0.004492 0.352735 1.002147
v 0.195508 0.502735 1.002147
v -0.004492 0.602735 1.002050
v -0.004492 -0.547070 1.002245
v 0.195508 -0.397070 1.002245
v -0.004492 -0.297070 1.002245
v -0.004492 0.352735 -1.997723
v 0.195508 0.502735 -1.997723
v -0.004492 0.602735 -1.997820
v -0.004492 -0.547070 -1.997657
v 0.195508 -0.397070 -1.997658
v -0.004492 -0.297070 -1.997657
v -0.182422 -0.946972 1.172657
v -0.006543 -0.946972 0.995117
v -0.183984 -0.946972 0.819140
vt 0.000000 0.917716
vt 1.799810 -0.898438
vt 0.000000 -0.898438
vt 0.000000 0.019278
vt 1.799810 0.019278
vt 1.799810 0.917716
vt 1.799810 -1.915367
vt 0.000000 0.000000
vt 1.799810 0.000000
vt 1.799810 -1.016929
vt 0.000000 -1.016929
vt 0.000000 -1.915367
vt 0.000000 -1.000000
vt 0.898438 -0.007874
vt 0.000977 -0.007874
vt 0.899414 -1.000000
vt 0.898438 0.992126
vt 0.000000 0.992126
vt 0.654741 0.987528
vt 0.155090 0.487597
vt 0.654741 -0.012331
vt 0.000100 0.500000
vt 0.999900 0.000100
vt 0.999900 0.999900
vt 0.799946 0.000089
vt 0.799946 0.999911
vt 0.000089 0.599982
vt 0.000100 0.500000
vt 0.999900 0.999900
vt 0.999900 0.000100
vt 0.799946 0.000089
vt 0.000089 0.599982
vt 0.799946 0.999911
vt 0.654741 0.987528
vt 0.654741 -0.012331
vt 0.155090 0.487597
vn -1.0000 0.0000 0.0000
vn 0.6000 -0.8000 0.0000
vn 0.4472 0.8944 -0.0000
vn 0.7042 -0.0000 -0.7100
vn 0.7104 0.0000 0.7038
vn -1.0000 0.0000 0.0044
vn -0.0000 1.0000 -0.0000
vn -0.0003 0.0004 1.0000
vn 0.0000 0.0000 1.0000
vn 0.0003 -0.0004 -1.0000
vn -0.0000 0.0000 -1.0000
vn 0.0000 -1.0000 0.0000
usemtl 067_11-0
s off
f 4/1/1 6/2/1 5/3/1
f 1/4/2 2/5/2 3/6/2
f 1/4/2 3/6/2 4/1/2
f 1/4/3 6/2/3 2/5/3
f 10/7/1 12/8/1 11/9/1
f 7/10/2 8/11/2 9/12/2
f 7/10/2 9/12/2 10/7/2
f 7/10/3 12/8/3 8/11/3
f 7/10/3 11/9/3 12/8/3
f 13/13/4 15/14/4 18/15/4
f 13/13/4 14/16/4 15/14/4
f 15/14/5 16/17/5 17/18/5
f 15/14/5 17/18/5 18/15/5
f 13/13/6 17/18/6 16/17/6 14/16/6
f 1/4/3 5/3/3 6/2/3
f 4/1/1 3/6/1 6/2/1
f 10/7/1 9/12/1 12/8/1
usemtl 086_0-0
f 19/19/7 20/20/7 21/21/7
f 22/22/8 23/23/8 24/24/8
f 25/25/9 26/26/9 27/27/9
f 28/28/10 30/29/10 29/30/10
f 31/31/11 33/32/11 32/33/11
f 34/34/12 36/35/12 35/36/12
