# Blender v2.82 (sub 7) OBJ File: '58008.blend'
# www.blender.org
mtllib 58008.mtl
o model58008-node_model58008
v 0.625000 2.250001 3.200000
v -0.625000 2.250001 3.200000
v -0.625000 2.250001 3.050000
v 0.625000 2.250001 3.050000
v 0.625000 0.000001 3.200000
v 0.625000 2.250001 3.200000
v 0.625000 2.250001 3.050000
v 0.625000 0.000000 3.050000
v -0.625000 0.000000 3.050000
v -0.625000 2.250001 3.050000
v -0.625000 2.250001 3.200000
v -0.625000 0.000001 3.200000
v -0.625000 0.000000 3.050000
v -0.625000 0.000001 3.200000
v 0.625000 0.000001 3.200000
v 0.625000 0.000000 3.050000
v 0.625000 8.650000 -3.050002
v -0.625000 8.650000 -3.050001
v -0.625000 8.650000 -3.200001
v 0.625000 8.650000 -3.200001
v 0.625000 6.400000 -3.050001
v 0.625000 8.650000 -3.050002
v 0.625000 8.650000 -3.200001
v 0.625000 6.400000 -3.200001
v -0.625000 6.400000 -3.200001
v -0.625000 8.650000 -3.200001
v -0.625000 8.650000 -3.050001
v -0.625000 6.400000 -3.050001
v -0.625000 6.400000 -3.200001
v -0.625000 6.400000 -3.050001
v 0.625000 6.400000 -3.050001
v 0.625000 6.400000 -3.200001
v 1.250889 0.100000 2.125000
v 1.250889 0.425000 2.125000
v -1.251397 0.425000 2.125000
v -1.251397 0.100000 2.125000
v 1.250889 0.525000 1.775000
v 1.250889 0.825000 1.775000
v -1.251397 0.825000 1.775000
v -1.251397 0.525000 1.775000
v 1.250889 0.925000 1.450002
v 1.250889 1.225000 1.450002
v -1.251397 1.225000 1.450002
v -1.251397 0.925000 1.450002
v 1.250889 1.325000 1.175004
v 1.250889 1.625000 1.175004
v -1.251397 1.625000 1.175004
v -1.251397 1.325000 1.175004
v 1.250889 1.725000 0.850004
v 1.250889 2.025000 0.850004
v -1.251397 2.025000 0.850004
v -1.251397 1.725000 0.850004
v 1.250889 2.125000 0.525004
v 1.250889 2.425000 0.525004
v -1.251397 2.425000 0.525004
v -1.251397 2.125000 0.525004
v 1.250889 2.525000 0.200004
v 1.250889 2.825000 0.200004
v -1.251397 2.825000 0.200004
v -1.251397 2.525000 0.200004
v 1.250889 2.925000 -0.124997
v 1.250889 3.225000 -0.124997
v -1.251397 3.225000 -0.124997
v -1.251397 2.925000 -0.124997
v 1.250889 3.325000 -0.499998
v 1.250889 3.625000 -0.499998
v -1.251397 3.625000 -0.499998
v -1.251397 3.325000 -0.499998
v 1.250889 3.725000 -0.874997
v 1.250889 4.025000 -0.874997
v -1.251397 4.025000 -0.874997
v -1.251397 3.725000 -0.874997
v 1.250889 4.125000 -1.249999
v 1.250889 4.425000 -1.249999
v -1.251397 4.425000 -1.249999
v -1.251397 4.125000 -1.249999
v 1.250889 4.525000 -1.625001
v 1.250889 4.825000 -1.625001
v -1.251397 4.825000 -1.625001
v -1.251397 4.525000 -1.625001
v 1.250889 4.925000 -2.000001
v 1.250889 5.225000 -2.000001
v -1.251397 5.225000 -2.000001
v -1.251397 4.925000 -2.000001
v 1.250889 5.325000 -2.375001
v 1.250889 5.625000 -2.375001
v -1.251397 5.625000 -2.375001
v -1.251397 5.325000 -2.375001
v 1.250889 5.725000 -2.750001
v 1.250889 6.050000 -2.750001
v -1.251397 6.050000 -2.750001
v -1.251397 5.725000 -2.750001
v 1.250889 0.525000 1.775000
v -1.251397 0.525000 1.775000
v -1.251397 0.425000 2.125000
v 1.250889 0.425000 2.125000
v 1.250889 0.925000 1.450002
v -1.251397 0.925000 1.450002
v -1.251397 0.825000 1.775000
v 1.250889 0.825000 1.775000
v 1.250889 1.325000 1.175004
v -1.251397 1.325000 1.175004
v -1.251397 1.225000 1.450002
v 1.250889 1.225000 1.450002
v 1.250889 1.725000 0.850004
v -1.251397 1.725000 0.850004
v -1.251397 1.625000 1.175004
v 1.250889 1.625000 1.175004
v 1.250889 2.125000 0.525004
v -1.251397 2.125000 0.525004
v -1.251397 2.025000 0.850004
v 1.250889 2.025000 0.850004
v 1.250889 2.525000 0.200004
v -1.251397 2.525000 0.200004
v -1.251397 2.425000 0.525004
v 1.250889 2.425000 0.525004
v 1.250889 2.925000 -0.124997
v -1.251397 2.925000 -0.124997
v -1.251397 2.825000 0.200004
v 1.250889 2.825000 0.200004
v 1.250889 3.325000 -0.499998
v -1.251397 3.325000 -0.499998
v -1.251397 3.225000 -0.124997
v 1.250889 3.225000 -0.124997
v 1.250889 3.725000 -0.874997
v -1.251397 3.725000 -0.874997
v -1.251397 3.625000 -0.499998
v 1.250889 3.625000 -0.499998
v 1.250889 4.125000 -1.249999
v -1.251397 4.125000 -1.249999
v -1.251397 4.025000 -0.874997
v 1.250889 4.025000 -0.874997
v 1.250889 4.525000 -1.625001
v -1.251397 4.525000 -1.625001
v -1.251397 4.425000 -1.249999
v 1.250889 4.425000 -1.249999
v 1.250889 4.925000 -2.000001
v -1.251397 4.925000 -2.000001
v -1.251397 4.825000 -1.625001
v 1.250889 4.825000 -1.625001
v 1.250889 5.325000 -2.375001
v -1.251397 5.325000 -2.375001
v -1.251397 5.225000 -2.000001
v 1.250889 5.225000 -2.000001
v 1.250889 5.725000 -2.750001
v -1.251397 5.725000 -2.750001
v -1.251397 5.625000 -2.375001
v 1.250889 5.625000 -2.375001
v -1.250000 6.150000 -3.050001
v -1.251397 6.050000 -2.750001
v 1.250889 6.050000 -2.750001
v 1.250000 6.150000 -3.050001
v -1.251397 0.100000 2.125000
v -1.250000 0.000000 3.050000
v 1.250000 0.000000 3.050000
v 1.250889 0.100000 2.125000
v -0.625000 6.400000 -3.050001
v -0.625000 6.150000 -3.050001
v 1.250000 6.150000 -3.050001
v 0.625000 6.400000 -3.050001
v -0.625000 2.250001 3.050000
v -0.625000 0.000000 3.050000
v -1.250000 0.000000 3.050000
v -1.250000 4.150001 3.049999
v -1.250000 0.000000 3.050000
v -1.250000 0.000000 1.600000
v -1.250000 3.900000 -3.050001
v -1.250000 9.499999 -3.050002
v -1.250000 4.150001 3.049999
v 0.625000 2.250001 3.050000
v 1.250000 4.150001 3.049999
v 1.250000 0.000000 3.050000
v 0.625000 0.000000 3.050000
v 0.625000 8.650000 -3.050002
v 0.625000 6.400000 -3.050001
v 1.250000 6.150000 -3.050001
v 1.250000 9.499999 -3.050002
v -0.625000 8.650000 -3.050001
v 0.625000 8.650000 -3.050002
v 1.250000 9.499999 -3.050002
v -1.250000 9.499999 -3.050002
v 1.250000 4.150001 3.049999
v 0.625000 2.250001 3.050000
v -0.625000 2.250001 3.050000
v -1.250000 4.150001 3.049999
v 1.250000 3.900000 -3.050001
v 1.250000 0.000000 1.600000
v 1.250000 0.000000 3.050000
v 1.250000 4.150001 3.049999
v 1.250000 9.499999 -3.050002
v -1.250000 6.150000 -3.050001
v -0.625000 6.150000 -3.050001
v -0.625000 8.650000 -3.050001
v -1.250000 9.499999 -3.050002
v 1.250000 4.150001 3.049999
v -1.250000 4.150001 3.049999
v -1.250000 9.499999 -3.050002
v 1.250000 9.499999 -3.050002
vt 1.000000 0.000000
vt 0.000000 0.000000
vt 0.000000 -1.000000
vt 1.000000 -1.000000
vt 1.000000 0.000000
vt 0.000000 0.000000
vt 0.000000 -1.000000
vt 1.000000 -1.000000
vt 0.000000 -1.000000
vt 1.000000 -1.000000
vt 1.000000 0.000000
vt 0.000000 0.000000
vt 1.000000 -1.000000
vt 1.000000 0.000000
vt 0.000000 0.000000
vt 0.000000 -1.000000
vt 0.000000 -1.000000
vt 1.000000 -1.000000
vt 0.999023 0.000000
vt 0.000000 0.000000
vt 1.000000 0.000000
vt 0.000000 0.000000
vt 0.000000 -1.000000
vt 1.000000 -1.000000
vt 0.000000 -1.000000
vt 1.000000 -1.000000
vt 1.000000 0.000000
vt 0.000000 0.000000
vt 1.000000 -1.000000
vt 1.000000 0.000000
vt 0.000000 0.000000
vt 0.000000 -1.000000
vt 2.500000 -0.318359
vt 2.500000 -0.019531
vt 0.499023 -0.017578
vt 0.500000 -0.318359
vt 2.500000 -0.318359
vt 2.500000 -0.019531
vt 0.499023 -0.019531
vt 0.500000 -0.318359
vt 2.000000 -0.328125
vt 2.000000 -0.029297
vt 0.000000 -0.029297
vt 0.000000 -0.328125
vt 2.500000 -0.318359
vt 2.500000 -0.019531
vt 0.499023 -0.019531
vt 0.500000 -0.318359
vt 2.000000 -0.328125
vt 2.000000 -0.029297
vt 0.000000 -0.029297
vt 0.000000 -0.328125
vt 2.500000 -0.318359
vt 2.500000 -0.019531
vt 0.499023 -0.019531
vt 0.500000 -0.318359
vt 2.000000 -0.328125
vt 2.000000 -0.029297
vt 0.000000 -0.029297
vt 0.000000 -0.328125
vt 2.500000 -0.318359
vt 2.500000 -0.019531
vt 0.499023 -0.019531
vt 0.500000 -0.318359
vt 2.000000 -0.328125
vt 2.000000 -0.029297
vt 0.000000 -0.029297
vt 0.000000 -0.328125
vt 2.500000 -0.318359
vt 2.500000 -0.019531
vt 0.499023 -0.019531
vt 0.500000 -0.318359
vt 2.000000 -0.328125
vt 2.000000 -0.029297
vt 0.000000 -0.029297
vt 0.000000 -0.328125
vt 2.500000 -0.318359
vt 2.500000 -0.019531
vt 0.499023 -0.019531
vt 0.500000 -0.318359
vt 2.000000 -0.328125
vt 2.000000 -0.029297
vt 0.000000 -0.029297
vt 0.000000 -0.328125
vt 2.500000 -0.318359
vt 2.500000 -0.019531
vt 0.499023 -0.019531
vt 0.500000 -0.318359
vt 2.000000 -0.328125
vt 2.000000 -0.029297
vt 0.000000 -0.027344
vt 0.000000 -0.328125
vt 0.979492 -3.390630
vt 0.019531 -3.390630
vt 0.018555 -3.635740
vt 0.979492 -3.636720
vt 0.979492 -3.164060
vt 0.019531 -3.164060
vt 0.018555 -3.389650
vt 0.979492 -3.390630
vt 0.979492 -2.964840
vt 0.019531 -2.964840
vt 0.018555 -3.164060
vt 0.979492 -3.164060
vt 0.979492 -2.738280
vt 0.019531 -2.738280
vt 0.018555 -2.963870
vt 0.979492 -2.964840
vt 0.979492 -2.507810
vt 0.019531 -2.507810
vt 0.018555 -2.738280
vt 0.979492 -2.738280
vt 0.979492 -2.277340
vt 0.019531 -2.277340
vt 0.019531 -2.507810
vt 0.979492 -2.507810
vt 0.979492 -2.046880
vt 0.019531 -2.046880
vt 0.018555 -2.276370
vt 0.979492 -2.277340
vt 0.979492 -1.785160
vt 0.019531 -1.785160
vt 0.018555 -2.046880
vt 0.979492 -2.046880
vt 0.979492 -1.523440
vt 0.019531 -1.523440
vt 0.018555 -1.784180
vt 0.979492 -1.785160
vt 0.979492 -1.261720
vt 0.019531 -1.261720
vt 0.018555 -1.522460
vt 0.979492 -1.523440
vt 0.979492 -1.000000
vt 0.019531 -1.000000
vt 0.018555 -1.261720
vt 0.979492 -1.261720
vt 0.979492 -0.738281
vt 0.019531 -0.738281
vt 0.018555 -0.999023
vt 0.979492 -1.000000
vt 0.979492 -0.476563
vt 0.019531 -0.476563
vt 0.018555 -0.738281
vt 0.979492 -0.738281
vt 0.979492 -0.214844
vt 0.019531 -0.214844
vt 0.018555 -0.475586
vt 0.979492 -0.476563
vt 0.000000 0.000000
vt 0.000000 -0.234375
vt 0.959961 -0.234375
vt 0.999023 0.000000
vt 0.019531 -3.636720
vt 0.012402 -4.090158
vt 0.986621 -4.089178
vt 0.979492 -3.636720
vt 0.375000 -4.628910
vt 0.375000 -5.000000
vt 1.499020 -5.000000
vt 1.125000 -4.628910
vt 1.500000 -2.294920
vt 1.500980 -5.005860
vt 2.001950 -5.000000
vt 2.000000 0.000000
vt 0.000000 -12.000000
vt 0.949219 -12.000000
vt 3.993160 -7.064450
vt 3.993160 0.017578
vt 0.000000 -6.750000
vt 0.500000 -2.294920
vt 0.000000 0.000000
vt 0.000000 -4.988280
vt 0.500000 -5.000000
vt 1.125000 -1.269530
vt 1.125000 -4.628910
vt 1.499020 -5.000000
vt 1.500000 0.000000
vt 0.375000 -1.269530
vt 1.125000 -1.269530
vt 1.500000 0.000000
vt 0.000000 0.000000
vt 0.000000 0.000000
vt 0.500000 -2.294920
vt 1.499020 -2.292970
vt 2.000000 0.000000
vt 0.000000 -7.078130
vt 3.046880 -12.000000
vt 3.996090 -12.000000
vt 3.996090 -6.769530
vt 0.000000 -0.019531
vt 0.000000 -5.000000
vt 0.375000 -5.000000
vt 0.375000 -1.267580
vt 0.000000 0.000000
vt 0.000000 -3.996090
vt 1.000000 -3.996090
vt 0.999023 0.000000
vt 0.000000 0.000000
vn 0.0000 -1.0000 0.0000
vn -1.0000 0.0000 0.0000
vn 1.0000 0.0000 0.0000
vn 0.0000 1.0000 -0.0000
vn 0.0000 0.0000 1.0000
vn 0.0000 0.9615 0.2747
vn 0.0000 0.9558 0.2941
vn 0.0000 0.9398 0.3417
vn 0.0000 0.9662 0.2577
vn 0.0000 0.9487 0.3162
vn 0.0000 0.9942 0.1075
vn -0.0000 -0.0000 -1.0000
vn -0.0000 -0.7518 -0.6594
usemtl 067_14-0
s off
f 1/1/1 2/2/1 3/3/1
f 1/1/1 3/3/1 4/4/1
f 5/5/2 6/6/2 7/7/2
f 5/5/2 7/7/2 8/8/2
f 9/9/3 10/10/3 11/11/3
f 9/9/3 11/11/3 12/12/3
f 13/13/4 14/14/4 15/15/4
f 13/13/4 15/15/4 16/16/4
f 17/17/1 18/18/1 19/19/1
f 17/17/1 19/19/1 20/20/1
f 21/21/2 22/22/2 23/23/2
f 21/21/2 23/23/2 24/24/2
f 25/25/3 26/26/3 27/27/3
f 25/25/3 27/27/3 28/28/3
f 29/29/4 30/30/4 31/31/4
f 29/29/4 31/31/4 32/32/4
usemtl 122_4-0
f 33/33/5 34/34/5 35/35/5
f 33/33/5 35/35/5 36/36/5
f 37/37/5 38/38/5 39/39/5
f 37/37/5 39/39/5 40/40/5
f 41/41/5 42/42/5 43/43/5
f 41/41/5 43/43/5 44/44/5
f 45/45/5 46/46/5 47/47/5
f 45/45/5 47/47/5 48/48/5
f 49/49/5 50/50/5 51/51/5
f 49/49/5 51/51/5 52/52/5
f 53/53/5 54/54/5 55/55/5
f 53/53/5 55/55/5 56/56/5
f 57/57/5 58/58/5 59/59/5
f 57/57/5 59/59/5 60/60/5
f 61/61/5 62/62/5 63/63/5
f 61/61/5 63/63/5 64/64/5
f 65/65/5 66/66/5 67/67/5
f 65/65/5 67/67/5 68/68/5
f 69/69/5 70/70/5 71/71/5
f 69/69/5 71/71/5 72/72/5
f 73/73/5 74/74/5 75/75/5
f 73/73/5 75/75/5 76/76/5
f 77/77/5 78/78/5 79/79/5
f 77/77/5 79/79/5 80/80/5
f 81/81/5 82/82/5 83/83/5
f 81/81/5 83/83/5 84/84/5
f 85/85/5 86/86/5 87/87/5
f 85/85/5 87/87/5 88/88/5
f 89/89/5 90/90/5 91/91/5
f 89/89/5 91/91/5 92/92/5
usemtl 122_2-0
f 93/93/6 94/94/6 95/95/6
f 93/93/6 95/95/6 96/96/6
f 97/97/7 98/98/7 99/99/7
f 97/97/7 99/99/7 100/100/7
f 101/101/8 102/102/8 103/103/8
f 101/101/8 103/103/8 104/104/8
f 105/105/7 106/106/7 107/107/7
f 105/105/7 107/107/7 108/108/7
f 109/109/7 110/110/7 111/111/7
f 109/109/7 111/111/7 112/112/7
f 113/113/7 114/114/7 115/115/7
f 113/113/7 115/115/7 116/116/7
f 117/117/7 118/118/7 119/119/7
f 117/117/7 119/119/7 120/120/7
f 121/121/9 122/122/9 123/123/9
f 121/121/9 123/123/9 124/124/9
f 125/125/9 126/126/9 127/127/9
f 125/125/9 127/127/9 128/128/9
f 129/129/9 130/130/9 131/131/9
f 129/129/9 131/131/9 132/132/9
f 133/133/9 134/134/9 135/135/9
f 133/133/9 135/135/9 136/136/9
f 137/137/9 138/138/9 139/139/9
f 137/137/9 139/139/9 140/140/9
f 141/141/9 142/142/9 143/143/9
f 141/141/9 143/143/9 144/144/9
f 145/145/9 146/146/9 147/147/9
f 145/145/9 147/147/9 148/148/9
f 149/149/10 150/150/10 151/151/10
f 149/149/10 151/151/10 152/152/10
f 153/153/11 154/154/11 155/155/11
f 153/153/11 155/155/11 156/156/11
usemtl 122_0-0
f 157/157/5 158/158/5 159/159/5
f 157/157/5 159/159/5 160/160/5
f 161/161/12 162/162/12 163/163/12
f 161/161/12 163/163/12 164/164/12
f 165/165/3 166/166/3 167/167/3
f 165/165/3 167/167/3 168/168/3
f 165/165/3 168/168/3 169/169/3
f 170/170/12 171/171/12 172/172/12
f 170/170/12 172/172/12 173/173/12
f 174/174/5 175/175/5 176/176/5
f 174/174/5 176/176/5 177/177/5
f 178/178/5 179/179/5 180/180/5
f 178/178/5 180/180/5 181/181/5
f 182/182/12 183/183/12 184/184/12
f 182/182/12 184/184/12 185/185/12
f 186/186/2 187/187/2 188/188/2
f 186/186/2 188/188/2 189/189/2
f 186/186/2 189/189/2 190/190/2
f 191/191/5 192/192/5 193/193/5
f 191/191/5 193/193/5 194/194/5
usemtl 122_3-0
f 195/195/13 196/196/13 197/197/13
f 195/195/13 197/197/13 198/198/13
