# Blender v2.82 (sub 7) OBJ File: '56000.blend'
# www.blender.org
mtllib 56000.mtl
o model56000-node_model56000
v -0.050000 6.000000 -0.000001
v -3.100746 5.999901 3.050276
v -1.750000 5.999901 3.050276
v -0.050000 5.600000 -0.000001
v -1.750000 5.599901 3.050276
v -0.550000 5.599901 3.050276
v -0.050000 5.200000 -0.000001
v -0.550000 5.199901 3.050276
v 0.450000 5.199901 3.050276
v -0.050000 4.800000 -0.000001
v 0.450000 4.799901 3.050276
v 1.650000 4.799901 3.050276
v -0.050000 4.400000 -0.000001
v 1.650000 4.399900 3.050276
v 3.002113 4.399900 3.050276
v -0.050000 4.000000 -0.000001
v 3.002113 3.999901 3.050276
v 3.002113 4.000000 1.799999
v -0.050000 3.600000 -0.000001
v 3.002113 3.600000 1.799999
v 3.002112 3.600000 0.899999
v -0.050000 3.200000 -0.000001
v 3.002112 3.200000 0.899999
v 3.002112 3.200000 -0.000001
v -0.050000 2.800000 -0.000000
v 3.002112 2.800000 -0.000001
v 3.002112 2.800000 -0.900001
v -0.050000 2.400000 -0.000000
v 3.002112 2.400000 -0.900001
v 3.002112 2.400000 -1.825001
v -0.050000 2.000000 -0.000000
v 3.002112 2.000000 -1.825001
v 3.002112 1.999999 -3.050833
v -0.050000 1.600000 -0.000000
v 3.002112 1.600000 -3.050833
v 1.650000 1.600000 -3.050833
v -0.050000 1.200000 -0.000000
v 1.650000 1.200000 -3.050833
v 0.600000 1.200000 -3.050833
v -0.050000 0.800000 -0.000000
v 0.600000 0.800000 -3.050833
v -0.650000 0.800000 -3.050832
v -0.050000 0.400000 -0.000000
v -0.650000 0.399999 -3.050832
v -1.850000 0.399999 -3.050832
v -1.850000 -0.000000 -3.050832
v -3.100000 -0.000000 -3.050000
v -3.100000 0.000000 3.049900
v -0.050000 0.000000 0.000000
v -0.050000 5.600000 -0.000001
v -0.050000 6.000000 -0.000001
v -1.750000 5.999901 3.050276
v -1.750000 5.599901 3.050276
v -0.550000 5.199901 3.050276
v -0.050000 5.200000 -0.000001
v -0.050000 5.600000 -0.000001
v -0.550000 5.599901 3.050276
v 0.450000 4.799901 3.050276
v -0.050000 4.800000 -0.000001
v -0.050000 5.200000 -0.000001
v 0.450000 5.199901 3.050276
v 1.650000 4.399900 3.050276
v -0.050000 4.400000 -0.000001
v -0.050000 4.800000 -0.000001
v 1.650000 4.799901 3.050276
v 3.002113 3.999901 3.050276
v -0.050000 4.000000 -0.000001
v -0.050000 4.400000 -0.000001
v 3.002113 4.399900 3.050276
v 3.002113 3.600000 1.799999
v -0.050000 3.600000 -0.000001
v -0.050000 4.000000 -0.000001
v 3.002113 4.000000 1.799999
v 3.002112 3.200000 0.899999
v -0.050000 3.200000 -0.000001
v -0.050000 3.600000 -0.000001
v 3.002112 3.600000 0.899999
v 3.002112 2.800000 -0.000001
v -0.050000 2.800000 -0.000000
v -0.050000 3.200000 -0.000001
v 3.002112 3.200000 -0.000001
v 3.002112 2.400000 -0.900001
v -0.050000 2.400000 -0.000000
v -0.050000 2.800000 -0.000000
v 3.002112 2.800000 -0.900001
v 3.002112 2.000000 -1.825001
v -0.050000 2.000000 -0.000000
v -0.050000 2.400000 -0.000000
v 3.002112 2.400000 -1.825001
v 3.002112 1.600000 -3.050833
v -0.050000 1.600000 -0.000000
v -0.050000 2.000000 -0.000000
v 3.002112 1.999999 -3.050833
v 1.650000 1.200000 -3.050833
v -0.050000 1.200000 -0.000000
v -0.050000 1.600000 -0.000000
v 1.650000 1.600000 -3.050833
v 0.600000 0.800000 -3.050833
v -0.050000 0.800000 -0.000000
v -0.050000 1.200000 -0.000000
v 0.600000 1.200000 -3.050833
v -0.650000 0.399999 -3.050832
v -0.050000 0.400000 -0.000000
v -0.050000 0.800000 -0.000000
v -0.650000 0.800000 -3.050832
v -1.850000 -0.000000 -3.050832
v -0.050000 0.000000 0.000000
v -0.050000 0.400000 -0.000000
v -1.850000 0.399999 -3.050832
v -3.100746 5.999901 3.050276
v -0.050000 6.000000 -0.000001
v -0.050000 6.399900 -0.000001
v -3.100746 6.399901 3.050276
v -0.050000 0.000000 0.000000
v -3.100000 0.000000 3.049900
v -3.100746 5.200000 3.050276
v -0.050000 5.200000 -0.000001
v -1.850000 -0.000000 -3.050832
vt 1.007810 -1.000000
vt 0.015625 -1.982420
vt 0.445313 -1.982420
vt 1.007810 -1.000000
vt 0.445313 -1.982420
vt 0.843750 -1.982420
vt 1.007810 -1.000000
vt 0.843750 -1.982420
vt 1.173830 -1.982420
vt 1.007810 -1.000000
vt 1.173830 -1.982420
vt 1.570310 -1.982420
vt 1.007810 -1.000000
vt 1.570310 -1.982420
vt 2.000000 -1.982420
vt 1.007810 -1.000000
vt 2.000000 -1.982420
vt 2.000000 -1.589840
vt 1.007810 -1.000000
vt 2.000000 -1.589840
vt 2.000000 -1.294920
vt 1.007810 -1.000000
vt 2.000000 -1.294920
vt 2.000000 -1.000000
vt 1.007810 -1.000000
vt 2.000000 -1.000000
vt 2.000000 -0.705078
vt 1.007810 -1.000000
vt 2.000000 -0.705078
vt 2.000000 -0.402344
vt 1.007810 -1.000000
vt 2.000000 -0.402344
vt 2.000000 -0.015625
vt 1.007810 -1.000000
vt 2.000000 -0.015625
vt 1.570310 -0.015625
vt 1.007810 -1.000000
vt 1.570310 -0.015625
vt 1.222660 -0.015625
vt 1.007810 -1.000000
vt 1.222660 -0.015625
vt 0.810547 -0.015625
vt 1.007810 -1.000000
vt 0.810547 -0.015625
vt 0.414063 -0.015625
vt 0.414063 -0.015625
vt 0.000000 0.000000
vt -0.004883 -2.002930
vt 0.414063 -0.015625
vt 1.007810 -1.000000
vt 1.009236 0.244888
vt 1.009108 0.710564
vt -0.998064 0.708238
vt -0.997936 0.242561
vt -1.004743 0.218502
vt 1.008191 0.220766
vt 1.008051 0.750248
vt -1.004883 0.747984
vt -1.005133 0.218387
vt 1.008582 0.220677
vt 1.008440 0.750363
vt -1.005275 0.748072
vt -1.005420 0.240795
vt 1.009014 0.244969
vt 1.008779 0.712330
vt -1.005655 0.708156
vt 1.010692 0.657864
vt -1.010247 0.660706
vt -1.010386 0.279636
vt 1.010554 0.276794
vt -1.013764 0.215984
vt 1.009145 0.227698
vt 1.008476 0.690265
vt -1.014434 0.678553
vt 1.006854 0.713175
vt -1.013522 0.709124
vt -1.013263 0.193075
vt 1.007113 0.197126
vt 1.005699 0.719853
vt -1.009043 0.723663
vt -1.009297 0.186397
vt 1.005445 0.182587
vt 1.010355 0.711363
vt -1.008997 0.710673
vt -1.008953 0.194888
vt 1.010399 0.195577
vt 1.012764 0.677789
vt -1.009798 0.689251
vt -1.010451 0.228461
vt 1.012111 0.216999
vt -1.011401 0.270891
vt 1.011643 0.269514
vt 1.011708 0.650983
vt -1.011336 0.652360
vt 1.013340 0.676233
vt -1.009548 0.683709
vt -1.009981 0.214392
vt 1.012906 0.206916
vt 1.012006 0.714355
vt -1.009025 0.718617
vt -1.009303 0.191895
vt 1.011729 0.187633
vt 1.014622 0.733724
vt -1.011708 0.733635
vt -1.011703 0.203776
vt 1.014628 0.203865
vt -1.009535 0.222836
vt 1.011963 0.221167
vt 1.012059 0.683414
vt -1.009440 0.685083
vt 1.010363 0.653642
vt -1.001056 0.678736
vt -1.002243 0.299554
vt 1.009175 0.274365
vt 0.000000 -4.000000
vt 2.000000 -4.000000
vt 1.966800 0.000000
vt 0.000000 0.000000
vn 0.0000 1.0000 0.0000
vn -0.0000 1.0000 0.0001
vn 0.8735 0.0000 0.4868
vn 0.9868 -0.0000 0.1618
vn 0.9868 -0.0000 -0.1618
vn 0.8735 -0.0000 -0.4868
vn 0.7069 -0.0000 -0.7073
vn 0.5080 -0.0000 -0.8614
vn 0.2828 -0.0000 -0.9592
vn -0.0000 -0.0000 -1.0000
vn -0.2828 -0.0000 -0.9592
vn -0.5132 -0.0000 -0.8583
vn -0.7070 -0.0000 -0.7073
vn -0.8735 -0.0000 -0.4868
vn -0.9780 -0.0000 -0.2084
vn -0.9812 0.0000 0.1930
vn -0.8613 -0.0000 0.5082
vn 0.7071 -0.0000 0.7072
vn -0.7071 -0.0001 -0.7071
vn -0.7071 -0.0000 -0.7072
usemtl 122_2-0
s off
f 1/1/1 2/2/1 3/3/1
f 4/4/1 5/5/1 6/6/1
f 7/7/1 8/8/1 9/9/1
f 10/10/1 11/11/1 12/12/1
f 13/13/1 14/14/1 15/15/1
f 16/16/2 17/17/2 18/18/2
f 19/19/1 20/20/1 21/21/1
f 22/22/1 23/23/1 24/24/1
f 25/25/1 26/26/1 27/27/1
f 28/28/1 29/29/1 30/30/1
f 31/31/1 32/32/1 33/33/1
f 34/34/1 35/35/1 36/36/1
f 37/37/1 38/38/1 39/39/1
f 40/40/1 41/41/1 42/42/1
f 43/43/1 44/44/1 45/45/1
f 46/46/1 47/47/1 48/48/1
f 118/49/1 48/48/1 49/50/1
usemtl 122_4-0
f 50/51/3 51/52/3 52/53/3
f 50/51/3 52/53/3 53/54/3
f 54/55/4 55/56/4 56/57/4
f 54/55/4 56/57/4 57/58/4
f 58/59/5 59/60/5 60/61/5
f 58/59/5 60/61/5 61/62/5
f 62/63/6 63/64/6 64/65/6
f 62/63/6 64/65/6 65/66/6
f 66/67/7 67/68/7 68/69/7
f 66/67/7 68/69/7 69/70/7
f 70/71/8 71/72/8 72/73/8
f 70/71/8 72/73/8 73/74/8
f 74/75/9 75/76/9 76/77/9
f 74/75/9 76/77/9 77/78/9
f 78/79/10 79/80/10 80/81/10
f 78/79/10 80/81/10 81/82/10
f 82/83/11 83/84/11 84/85/11
f 82/83/11 84/85/11 85/86/11
f 86/87/12 87/88/12 88/89/12
f 86/87/12 88/89/12 89/90/12
f 90/91/13 91/92/13 92/93/13
f 90/91/13 92/93/13 93/94/13
f 94/95/14 95/96/14 96/97/14
f 94/95/14 96/97/14 97/98/14
f 98/99/15 99/100/15 100/101/15
f 98/99/15 100/101/15 101/102/15
f 102/103/16 103/104/16 104/105/16
f 102/103/16 104/105/16 105/106/16
f 106/107/17 107/108/17 108/109/17
f 106/107/17 108/109/17 109/110/17
f 110/111/18 111/112/18 112/113/18
f 110/111/18 112/113/18 113/114/18
f 114/115/19 115/116/19 116/117/19
f 114/115/20 116/117/20 117/118/20
