# Blender v2.82 (sub 7) OBJ File: '41206.blend'
# www.blender.org
mtllib 41206.mtl
o model41207-node_model41207
v -0.004492 0.352735 2.007715
v -0.004492 0.352735 -0.992188
v -0.004492 0.602735 -0.992188
v -0.004492 0.602735 2.007715
v 0.195508 0.502735 2.007715
v 0.195508 0.502735 -0.992188
v 0.195508 -0.397070 -0.992090
v 0.195508 -0.397070 2.007812
v -0.004492 -0.547070 2.007812
v -0.004492 -0.547070 -0.992090
v -0.004492 -0.297070 -0.992090
v -0.004492 -0.297070 2.007812
v -0.183985 -0.947070 -1.191797
v -0.183985 0.802735 -1.191895
v -0.006543 0.802735 -1.015918
v -0.182422 0.802735 -0.838478
v -0.182422 -0.947070 -0.838380
v -0.006543 -0.947070 -1.015820
v -0.182422 0.802735 -0.838478
v -0.006543 0.802735 -1.015918
v -0.183985 0.802735 -1.191895
v -0.182422 -0.947070 -0.838478
v -0.006543 -0.947070 -1.015918
v -0.183985 -0.947070 -1.191895
v -0.004492 0.352735 -0.992188
v -0.004492 0.602735 -0.992188
v 0.195508 0.502735 -0.992188
v -0.004492 0.352735 2.007715
v -0.004492 0.602735 2.007715
v 0.195508 0.502735 2.007715
v 0.195508 -0.397070 2.007812
v -0.004492 -0.547070 2.007812
v -0.004492 -0.297070 2.007812
v 0.195508 -0.397070 -0.992090
v -0.004492 -0.547070 -0.992090
v -0.004492 -0.297070 -0.992090
vt 1.796875 -1.000000
vt -0.000000 1.000000
vt 1.796875 1.000000
vt -0.000000 0.000000
vt 0.000000 -1.000000
vt 1.796875 -0.000000
vt 0.000000 0.000000
vt 1.796875 0.000000
vt 1.796875 1.000000
vt 0.000000 1.000000
vt 1.796875 -0.875000
vt 0.000000 -0.875000
vt 0.000000 -1.000000
vt 1.000000 -0.020276
vt 0.000000 -0.020276
vt 1.000000 -1.000000
vt 1.000000 0.979724
vt 0.000000 0.979724
vt 0.578125 1.000000
vt 0.078125 0.500000
vt 0.578125 0.000000
vt 0.578125 1.000000
vt 0.578125 0.000000
vt 0.078125 0.500000
vt 0.799946 0.000089
vt 0.000089 0.599982
vt 0.799946 0.999911
vt 0.799946 0.000089
vt 0.799946 0.999911
vt 0.000089 0.599982
vt 0.799946 0.999911
vt 0.000089 0.400018
vt 0.799946 0.000089
vt 0.799946 0.999911
vt 0.799946 0.000089
vt 0.000089 0.400018
vn -1.0000 0.0000 0.0000
vn 0.6000 -0.8000 0.0000
vn 0.4472 0.8944 -0.0000
vn 0.7042 -0.0000 -0.7100
vn 0.7102 0.0000 0.7040
vn -1.0000 0.0000 0.0044
vn 0.0000 1.0000 -0.0000
vn -0.0000 -1.0000 -0.0000
vn 0.0000 0.0000 -1.0000
vn 0.0000 0.0000 1.0000
usemtl 067_11-0
s off
f 2/1/1 4/2/1 3/3/1
f 5/4/2 1/5/2 2/1/2 6/6/2
f 3/3/3 4/2/3 5/4/3
f 3/3/3 5/4/3 6/6/3
f 7/7/2 8/8/2 9/9/2
f 7/7/2 9/9/2 10/10/2
f 7/7/3 12/11/3 8/8/3
f 7/7/3 11/12/3 12/11/3
f 13/13/4 15/14/4 18/15/4
f 13/13/4 14/16/4 15/14/4
f 15/14/5 16/17/5 17/18/5
f 15/14/5 17/18/5 18/15/5
f 13/13/6 16/17/6 14/16/6
f 12/11/1 10/10/1 9/9/1
f 13/13/6 17/18/6 16/17/6
f 2/1/1 1/5/1 4/2/1
f 12/11/1 11/12/1 10/10/1
usemtl 086_0-0
f 19/19/7 20/20/7 21/21/7
f 22/22/8 24/23/8 23/24/8
f 25/25/9 26/26/9 27/27/9
f 28/28/10 30/29/10 29/30/10
f 32/31/10 31/32/10 33/33/10
f 35/34/9 36/35/9 34/36/9
