# Blender v2.92.0 OBJ File: '55012.blend'
# www.blender.org
mtllib 55012.mtl
o model55012-node_model55012
v -1.175000 0.050000 -0.200000
v -1.225000 -0.000000 -0.050000
v -1.225000 2.250000 -0.050000
v -1.175000 2.200000 -0.200000
v 0.025000 -0.000000 -0.050000
v -0.025000 0.050000 -0.200000
v -0.025000 2.200000 -0.200000
v 0.025000 2.250000 -0.050000
v -1.225000 -0.000000 -0.050000
v 0.025000 -0.000000 -0.050000
v 0.025000 2.250000 -0.050000
v -1.225000 2.250000 -0.050000
v -0.025000 0.050000 -0.200000
v -1.175000 0.050000 -0.200000
v -1.175000 2.200000 -0.200000
v -0.025000 2.200000 -0.200000
vt -0.208315 0.995247
vt 0.999622 0.992223
vt 0.999455 -0.003510
vt -0.206437 0.013185
vt -1.931221 0.002103
vt -0.893571 0.003074
vt -0.885741 0.991179
vt -1.930961 0.993234
vt 0.829102 -1.994140
vt 1.168940 -1.994140
vt 1.168940 -0.617188
vt 0.829102 -0.619141
vt 0.000000 -2.798830
vt 1.000000 -2.798830
vt 1.000000 0.000000
vt 0.000000 0.000000
vn -0.0000 0.9487 -0.3162
vn -0.0000 -0.9487 -0.3162
vn -0.9487 -0.0000 -0.3162
vn 0.9487 -0.0000 -0.3162
vn 0.0000 0.0000 1.0000
vn -0.0000 -0.0000 -1.0000
usemtl 087_1-0
s off
f 7/1/1 4/2/1 3/3/1 8/4/1
f 5/5/2 2/6/2 1/7/2 6/8/2
f 1/7/3 2/6/3 3/3/3
f 1/7/3 3/3/3 4/2/3
f 5/5/4 6/8/4 7/1/4
f 5/5/4 7/1/4 8/4/4
usemtl 122_0-0
f 9/9/5 10/10/5 11/11/5
f 9/9/5 11/11/5 12/12/5
f 13/13/6 14/14/6 15/15/6
f 13/13/6 15/15/6 16/16/6
