# Blender v2.92.0 OBJ File: '43509.blend'
# www.blender.org
mtllib 43509.mtl
o model43509-node_model43509
v 1.604590 1.240527 -3.869826
v 1.604590 -4.762401 -3.869925
v -1.595410 -4.762401 -3.869925
v -1.595410 3.338274 -3.869826
v -3.835050 6.065525 -1.588576
v -3.835050 -4.762401 -1.588574
v -3.835050 -4.762400 1.611426
v -3.835050 5.352251 1.611424
v 1.604785 5.981651 3.851074
v -1.595410 8.037601 3.850974
v -1.595410 -4.762399 3.850976
v 1.604785 -4.762399 3.851076
v 3.827825 3.296400 -1.588576
v 3.827825 5.394226 1.611424
v 3.827825 -4.762400 1.611425
v 3.827825 -4.762401 -1.588575
v 1.266797 1.240527 -3.059175
v -1.261230 3.338275 -3.059175
v -1.261230 -4.762401 -3.059174
v 1.266797 -4.762401 -3.059175
v -3.030475 4.680950 -1.256933
v -3.030475 5.352251 1.271094
v -3.030475 -4.762400 1.271096
v -3.030475 -4.762401 -1.256931
v 1.266993 5.981651 3.040324
v 1.266993 -4.762400 3.040326
v -1.261230 -4.762400 3.040326
v -1.261230 6.611026 3.040324
v 3.023150 3.296400 -1.256933
v 3.023150 -4.762401 -1.256932
v 3.023150 -4.762400 1.271096
v 3.023150 6.988575 1.271094
v -1.595410 3.338268 -3.869826
v -1.261230 3.338268 -3.059175
v 1.266797 1.240520 -3.059175
v 1.604590 1.240520 -3.869826
v -3.835050 5.352244 1.611424
v -3.030475 5.352244 1.271094
v -3.030475 4.680943 -1.256933
v -3.835050 6.065517 -1.588576
v -1.261230 6.611019 3.040324
v -1.595410 8.037594 3.850974
v 1.266993 5.981643 3.040324
v 1.604785 5.981645 3.851074
v 3.023150 6.988567 1.271094
v 3.827825 5.394219 1.611424
v 3.827825 3.296392 -1.588576
v 3.023150 3.296392 -1.256933
v 3.827825 -4.762407 -1.588576
v 3.023150 -4.762407 -1.256933
v 3.023150 3.296392 -1.256934
v 3.827825 3.296392 -1.588577
v 1.604589 1.240520 -3.869826
v 1.266796 1.240520 -3.059175
v 1.266796 -4.762407 -3.059175
v 1.604589 -4.762408 -3.869925
vt -3.953125 1.265625
vt -3.953125 0.000000
vt -2.937500 0.000000
vt -2.937500 1.718750
vt -1.937500 2.273438
vt -1.937500 0.000000
vt -0.937500 0.000000
vt -0.937500 2.109375
vt 1.062500 2.234375
vt 0.062500 2.671875
vt 0.062500 0.000000
vt 1.062500 0.000000
vt 3.062500 1.687500
vt 2.062500 2.125000
vt 2.062500 0.000000
vt 3.062500 0.000000
vt 7.015625 1.289062
vt 6.046875 1.742188
vt 6.046875 0.000000
vt 7.015625 0.000000
vt 4.046875 2.156250
vt 3.046875 0.000000
vt 4.046875 0.000000
vt 5.046875 0.000000
vt 5.046875 2.023438
vt 1.031250 0.000000
vt 2.062500 0.000000
vt 2.062500 2.273438
vt 1.031250 2.468750
vt 3.046875 2.429688
vt 0.031250 1.679688
vt 0.031250 -0.000000
vt 1.890625 0.328125
vt 1.546875 0.406250
vt 0.890625 -0.687500
vt 1.109375 -0.953125
vt -0.609375 -0.062500
vt -0.796875 1.093750
vt -1.140625 1.078125
vt -0.062500 -1.390625
vt -0.031250 0.359375
vt -0.359375 -1.531250
vt 0.000000 -1.500000
vt 0.500000 -1.500000
vt 0.499023 0.000000
vt 0.000000 0.000000
vt 0.500000 0.000000
vt 0.000000 0.000000
vt 0.000000 -1.499020
vt 0.500000 -1.500000
vt -0.468750 2.062500
vt 0.703125 2.484375
vt -0.906250 2.531250
vt 0.609375 2.140625
vt 1.437500 1.515625
vt 1.890625 1.953125
vn 0.0000 0.0000 -1.0000
vn -1.0000 0.0000 0.0000
vn -0.0000 0.0000 1.0000
vn 1.0000 -0.0000 0.0000
vn 0.7071 -0.0000 -0.7071
vn 0.7136 0.0000 0.7005
vn -0.7097 -0.0000 -0.7045
vn -0.7136 -0.0000 -0.7006
vn -0.7071 0.0000 0.7071
vn 0.7097 0.0000 0.7045
vn 0.6175 0.7442 -0.2546
vn 0.5345 0.8153 0.2227
vn 0.1824 0.9803 -0.0760
vn 0.8265 0.3180 -0.4645
vn -0.2204 0.8157 -0.5348
vn -0.3811 -0.0000 -0.9246
vn 0.9231 0.0000 0.3846
vn 0.5138 0.4191 0.7486
vn 0.2063 0.5195 -0.8292
vn -0.1859 0.8788 -0.4394
vn 0.8298 0.5265 0.1852
vn 0.4627 0.8657 -0.1907
vn 0.8465 0.5196 0.1158
vn -0.1079 0.9609 -0.2552
vn 0.2404 0.9655 -0.1001
vn 0.3364 0.5236 -0.7827
usemtl 112_0-0
s off
f 1/1/1 2/2/1 3/3/1
f 1/1/1 3/3/1 4/4/1
f 5/5/2 6/6/2 7/7/2
f 5/5/2 7/7/2 8/8/2
f 9/9/3 10/10/3 11/11/3
f 9/9/3 11/11/3 12/12/3
f 13/13/4 14/14/4 15/15/4
f 13/13/4 15/15/4 16/16/4
f 17/17/3 18/18/3 19/19/3
f 17/17/3 19/19/3 20/20/3
f 22/21/5 27/22/5 23/23/5
f 24/24/6 18/18/6 21/25/6
f 21/25/4 22/21/4 23/23/4
f 21/25/4 23/23/4 24/24/4
f 31/26/7 26/27/7 25/28/7
f 31/26/7 25/28/7 32/29/7
f 25/28/1 26/27/1 27/22/1
f 25/28/1 27/22/1 28/30/1
f 24/24/6 19/19/6 18/18/6
f 22/21/5 28/30/5 27/22/5
f 29/31/2 30/32/2 31/26/2
f 29/31/2 31/26/2 32/29/2
f 4/4/8 6/6/8 5/5/8
f 4/4/8 3/3/8 6/6/8
f 11/11/9 8/8/9 7/7/9
f 11/11/9 10/10/9 8/8/9
f 14/14/10 12/12/10 15/15/10
f 14/14/10 9/9/10 12/12/10
usemtl 007_3-0
f 33/33/11 34/34/11 35/35/11
f 33/33/12 35/35/12 36/36/12
f 46/37/13 43/38/13 44/39/13
f 46/37/14 48/40/14 45/41/14
f 46/37/15 47/42/15 48/40/15
f 49/43/16 50/44/16 51/45/16
f 49/43/16 51/45/16 52/46/16
f 53/47/17 54/48/17 55/49/17
f 53/47/17 55/49/17 56/50/17
f 46/37/18 45/41/18 43/38/18
f 41/51/19 37/52/19 42/53/19
f 41/51/20 38/54/20 37/52/20
f 39/55/21 33/33/21 40/56/21
f 39/55/22 34/34/22 33/33/22
f 37/52/23 39/55/23 40/56/23
f 37/52/24 38/54/24 39/55/24
f 43/38/25 41/51/25 44/39/25
f 42/53/26 44/39/26 41/51/26
