# Blender 3.3.0
# www.blender.org
mtllib 61204.mtl
o model61204-node
v 0.850000 -0.000000 -0.900000
v 0.850000 2.399902 -0.900001
v 1.600000 2.400000 -3.200000
v 1.600000 -0.000001 -3.200000
v -1.900000 2.399902 -2.500000
v -1.900000 -0.000000 -2.500000
v -1.600000 -0.000001 -3.200000
v -1.600000 2.400000 -3.200001
v -2.500000 -0.000000 -1.900000
v -2.500000 2.399902 -1.900000
v -3.200000 2.400000 -1.600000
v -3.200000 -0.000000 -1.600000
v -0.900000 2.400000 0.899902
v -0.900000 0.000000 0.900000
v -3.200000 0.000000 1.600000
v -3.200000 2.400000 1.600000
v -1.900000 -0.000000 -2.500000
v 0.850000 0.000000 -0.900000
v 1.600000 -0.000000 -3.200000
v -1.600000 -0.000000 -3.200000
v -0.900000 0.000000 0.900000
v -2.500000 -0.000000 -1.900000
v -3.200000 0.000000 -1.600000
v -3.200000 0.000000 1.600000
v 1.600000 2.400008 -3.200000
v 0.850000 2.399910 -0.900001
v 0.200000 3.199908 -1.300001
v 0.800000 3.199908 -3.200001
v -1.200000 3.199908 -2.100000
v -0.800000 3.199908 -3.200001
v -1.900000 2.399910 -2.500000
v -2.500000 2.399910 -1.900000
v -2.100000 3.199908 -1.200000
v -3.200000 3.200008 -0.800000
v -1.300000 3.200008 0.199902
v -3.200000 3.200008 0.800000
v -3.200000 2.400008 1.600000
v -0.900000 2.400008 0.899902
v -0.900000 2.400008 0.899902
v -1.300000 3.200008 0.199902
v 0.200000 3.199907 -1.300001
v -2.500000 2.399910 -1.900000
v -1.900000 2.399910 -2.500000
v -1.200000 3.199907 -2.100000
v -2.100000 3.199907 -1.200000
v -1.600000 2.400008 -3.200001
v -3.200000 2.400008 -1.600000
v 0.850000 2.399910 -0.900001
vn -0.9507 -0.0000 -0.3100
vn 0.9191 -0.0000 0.3939
vn 0.3939 -0.0000 0.9191
vn -0.2912 -0.0000 -0.9567
vn -0.7170 -0.0000 -0.6971
vn 0.7071 -0.0000 0.7071
vn -0.0000 1.0000 -0.0000
vn -0.6971 -0.6800 -0.2273
vn -0.6901 -0.6902 -0.2179
vn -0.0000 -1.0000 -0.0000
vn 0.6668 -0.7047 0.2425
vn 0.2424 -0.7047 0.6668
vn -0.0000 -1.0000 0.0001
vn -0.0001 -1.0000 -0.0000
vn -0.2180 -0.6901 -0.6901
vn -0.2077 -0.7009 -0.6823
vn -0.5070 -0.6971 -0.5070
vn 0.5070 -0.6971 0.5070
vn 0.6767 -0.6768 0.2899
vn 0.2899 -0.6767 0.6767
vn -0.5248 -0.6814 -0.5102
vt 1.265625 -3.000000
vt 1.265625 0.000000
vt 0.000000 -0.031250
vt 0.000000 -3.000000
vt 0.687500 0.000000
vt 0.687500 -3.000000
vt 1.000000 -3.000000
vt 1.000000 0.000000
vt 0.312500 -3.000000
vt 0.312500 0.000000
vt 0.000000 0.000000
vt 0.000000 -3.000000
vt 2.750000 0.000000
vt 2.750000 -3.000000
vt 4.000000 -3.000000
vt 4.000000 0.000000
vt 0.406250 -0.218750
vt 1.265625 -0.718750
vt 1.500000 -0.000000
vt 0.500000 0.000000
vt 0.718750 -1.281250
vt 0.218750 -0.406250
vt 0.000000 -0.500000
vt 0.000000 -1.500000
vt -0.078125 -1.093750
vt 1.109375 -1.000000
vt 1.015625 0.000000
vt 0.000000 0.000000
vt 0.828125 1.562500
vt 0.281250 1.562500
vt 0.734375 2.656250
vt 0.281250 2.781250
vt 0.171875 1.625000
vt 0.796875 1.625000
vt 0.000000 0.000000
vt 1.000000 0.000000
vt 1.140625 -1.093750
vt -0.109375 -1.093750
vt 1.093750 -1.000000
vt 1.000000 0.000000
vt 0.000000 0.000000
vt 0.687500 2.500000
vt 0.296875 2.500000
vt 0.203125 1.500000
vt 0.796875 1.500000
vt 0.359375 2.593750
vt 0.656250 2.781250
vt -0.062500 -1.000000
s 0
usemtl TEXTURE.124_0-material
f 1/1/1 2/2/1 3/3/1
f 1/1/1 3/3/1 4/4/1
f 5/5/2 6/6/2 7/7/2
f 5/5/2 7/7/2 8/8/2
f 9/9/3 10/10/3 11/11/3
f 9/9/3 11/11/3 12/12/3
f 13/13/4 14/14/4 15/15/4
f 13/13/4 15/15/4 16/16/4
f 1/1/5 14/14/5 13/13/5
f 1/1/5 13/13/5 2/2/5
f 9/9/6 6/6/6 5/5/6
f 9/9/6 5/5/6 10/10/6
usemtl TEXTURE.124_2-material
f 17/17/7 18/18/7 19/19/7
f 17/17/7 19/19/7 20/20/7
f 21/21/7 22/22/7 23/23/7
f 21/21/7 23/23/7 24/24/7
f 17/17/7 22/22/7 21/21/7
f 17/17/7 21/21/7 18/18/7
usemtl TEXTURE.124_4-material
f 25/25/8 26/26/8 27/27/8
f 25/25/9 27/27/9 28/28/9
f 27/27/10 29/29/10 30/30/10
f 27/27/10 30/30/10 28/28/10
f 30/30/11 29/29/11 31/31/11
f 32/32/12 33/33/12 34/34/12
f 33/33/13 35/35/13 36/36/13
f 33/33/14 36/36/14 34/34/14
f 37/37/15 36/36/15 35/35/15
f 37/37/16 35/35/16 38/38/16
f 39/39/17 40/40/17 41/41/17
f 42/42/18 43/43/18 44/44/18
f 42/42/18 44/44/18 45/45/18
f 45/45/10 44/44/10 41/41/10
f 45/45/13 41/41/13 40/40/13
f 31/31/19 46/46/19 30/30/19
f 34/34/20 47/47/20 32/32/20
f 41/41/21 48/48/21 39/39/21
