# Blender v2.82 (sub 7) OBJ File: ''
# www.blender.org
mtllib 41316.mtl
o model41316-node_model41316
v 0.569630 -0.324903 -1.093165
v -0.380370 -0.324903 -1.093165
v -0.380370 0.150098 -1.093068
v 0.569630 0.150098 -1.093068
v -0.380370 -0.324903 -1.093165
v -0.380370 -0.325000 1.156738
v -0.380370 0.150000 1.156835
v -0.380370 0.150098 -1.093068
v -0.380370 -0.325000 1.156738
v 0.569630 -0.325000 1.156738
v 0.569630 0.150000 1.156835
v -0.380370 0.150000 1.156835
v 0.569630 -0.325000 1.156738
v 0.569630 -0.324903 -1.093165
v 0.569630 0.150098 -1.093068
v 0.569630 0.150000 1.156835
v 0.569630 0.150000 1.156835
v 0.569630 0.150098 -1.093068
v 0.569630 -0.324903 -1.093165
v 0.569630 -0.325000 1.156738
v -0.380370 0.150000 1.156835
v 0.569630 0.150000 1.156835
v 0.569630 -0.325000 1.156738
v -0.380370 -0.325000 1.156738
v -0.380370 0.150098 -1.093068
v -0.380370 0.150000 1.156835
v -0.380370 -0.325000 1.156738
v -0.380370 -0.324903 -1.093165
v 0.569630 0.150098 -1.093068
v -0.380370 0.150098 -1.093068
v -0.380370 -0.324903 -1.093165
v 0.569630 -0.324903 -1.093165
v -0.380370 -0.324903 -1.093165
v -0.380370 -0.325000 1.156738
v 0.569630 -0.325000 1.156738
v 0.569630 -0.324903 -1.093165
v -0.079883 0.175000 1.152540
v 0.605957 0.175098 -0.990235
v -0.298730 0.175098 -1.279882
v -0.984667 0.175000 0.862890
vt 1.000000 -1.000000
vt 1.000000 0.000000
vt 0.000000 0.000000
vt 0.000000 -1.000000
vt 1.000000 -2.000000
vt 1.000000 0.000000
vt 0.000000 0.000000
vt 0.000000 -2.000000
vt 1.000000 -1.000000
vt 1.000000 0.000000
vt 0.000000 0.000000
vt 0.000000 -1.000000
vt 1.000000 -2.000000
vt 1.000000 0.000000
vt 0.000000 0.000000
vt 0.000000 -2.000000
vt 0.000000 0.000000
vt 0.000000 -2.000000
vt 0.998047 -2.000000
vt 1.000000 0.000000
vt 0.000000 0.000000
vt 0.000000 -1.000000
vt 0.998047 -1.000000
vt 1.000000 0.000000
vt 0.000000 0.000000
vt 0.000000 -2.000000
vt 0.998047 -1.999020
vt 1.000000 0.000000
vt 0.000000 0.000000
vt 0.000000 -1.000000
vt 0.998047 -1.000000
vt 1.000000 0.000000
vt 1.000000 -0.941747
vt 1.000000 -0.019418
vt 0.000000 -0.019418
vt 0.000000 -0.941747
vt 0.038461 -0.022222
vt 0.019231 -0.977778
vt 0.960337 -0.988194
vt 0.980769 -0.033333
vn 0.0000 0.0002 -1.0000
vn -1.0000 -0.0000 0.0000
vn 0.0000 -0.0002 1.0000
vn 1.0000 0.0000 -0.0000
vn 0.0000 1.0000 0.0000
usemtl 092_5-0
s off
f 1/1/1 2/2/1 3/3/1
f 1/1/1 3/3/1 4/4/1
f 5/5/2 6/6/2 7/7/2
f 5/5/2 7/7/2 8/8/2
f 9/9/3 10/10/3 11/11/3
f 9/9/3 11/11/3 12/12/3
f 13/13/4 14/14/4 15/15/4
f 13/13/4 15/15/4 16/16/4
f 17/17/2 18/18/2 19/19/2
f 17/17/2 19/19/2 20/20/2
f 21/21/1 22/22/1 23/23/1
f 21/21/1 23/23/1 24/24/1
f 25/25/4 26/26/4 27/27/4
f 25/25/4 27/27/4 28/28/4
f 29/29/3 30/30/3 31/31/3
f 29/29/3 31/31/3 32/32/3
usemtl 092_6-0
f 33/33/5 34/34/5 35/35/5
f 33/33/5 35/35/5 36/36/5
usemtl 092_7-0
f 37/37/5 38/38/5 39/39/5
f 37/37/5 39/39/5 40/40/5
